<?xml version="1.0" encoding="utf-8"?>
<!-- Generator: Adobe Illustrator 25.4.0, SVG Export Plug-In . SVG Version: 6.00 Build 0)  -->
<svg version="1.1" xmlns="http://www.w3.org/2000/svg" xmlns:xlink="http://www.w3.org/1999/xlink" x="0px" y="0px"
	 viewBox="0 0 612 612" style="enable-background:new 0 0 612 612;" xml:space="preserve">
<style type="text/css">
	.st0{display:none;}
	.st1{display:inline;}
	.st2{fill:url(#SVGID_1_);}
	.st3{fill:url(#SVGID_00000078740526348171482770000001027859921576276414_);}
	.st4{fill:url(#SVGID_00000150783390049538537200000002088450979177367734_);}
	.st5{fill:#FFEA00;}
	.st6{fill:url(#SVGID_00000124876261729449350330000008405661728004019091_);}
</style>
<g id="Layer_1" class="st0">
	<g class="st1">
		
			<linearGradient id="SVGID_1_" gradientUnits="userSpaceOnUse" x1="332.1839" y1="445.8334" x2="515.4938" y2="531.3056" gradientTransform="matrix(1 0 0 1 0 -178)">
			<stop  offset="0.39" style="stop-color:#41BB93"/>
			<stop  offset="0.62" style="stop-color:#39C0C4"/>
		</linearGradient>
		<path class="st2" d="M406.4,210.9c-19.7,3.4-38,12.6-52.4,26.5c-14.5,13.8-24.5,31.6-28.9,51.1c-4.4,19.5-2.8,39.9,4.4,58.5
			s19.8,34.8,36.2,46.2c16.4,11.5,35.8,17.9,55.8,18.4c20,0.5,39.7-5,56.6-15.7c16.9-10.7,30.2-26.2,38.3-44.5
			c8.1-18.3,10.5-38.6,7.1-58.3c-4.6-26.4-19.5-49.9-41.5-65.3C460,212.4,432.9,206.3,406.4,210.9z M444.7,366.7
			c-14.2,2.5-28.9,0.7-42.2-5.1c-13.2-5.8-24.5-15.5-32.2-27.7c-7.8-12.2-11.7-26.5-11.4-40.9c0.3-14.5,5-28.5,13.3-40.4
			s20-20.9,33.5-26.2c13.5-5.2,28.2-6.3,42.4-3.2c14.1,3.1,27,10.4,37,20.9c10,10.5,16.6,23.7,19.1,37.9c3.3,19.1-1,38.7-12.2,54.6
			C480.8,352.5,463.8,363.3,444.7,366.7z"/>
		
			<linearGradient id="SVGID_00000158011490373406411920000003278903186490380176_" gradientUnits="userSpaceOnUse" x1="100.0263" y1="416.7903" x2="429.4346" y2="530.2278" gradientTransform="matrix(1 0 0 1 0 -178)">
			<stop  offset="0" style="stop-color:#0099CD"/>
			<stop  offset="0.38" style="stop-color:#39C0C4"/>
			<stop  offset="0.61" style="stop-color:#41BB93"/>
		</linearGradient>
		<path style="fill:url(#SVGID_00000158011490373406411920000003278903186490380176_);" d="M138.4,324.6c2.6,3.5,7.2,4.1,9.9,0.4
			l22.4-32.3l27.1-40.3c0.5-0.7,1.1-1.3,1.9-1.8c0.8-0.4,1.6-0.7,2.5-0.7s1.7,0.1,2.5,0.5c0.8,0.4,1.5,0.9,2,1.6
			c6.1,7.9,15.6,20.1,24.9,32.1l20.4,26.2c0.6,0.8,1.3,1.3,2.2,1.7c0.9,0.4,1.8,0.5,2.8,0.4s1.8-0.5,2.6-1.1s1.3-1.3,1.7-2.2
			c2.8-6.9,7.1-16.6,12.8-27.5c15.2-29.2,40.3-66.9,73.9-81.3c48.8-20.9,91.3-11.4,118.5,6.1c0.3,0.2,0.5,0.6,0.6,0.9
			c0.1,0.4,0,0.8-0.1,1.1s-0.5,0.6-0.9,0.7c-0.4,0.1-0.8,0.1-1.1-0.1c-19.6-9.9-41.8-13.3-63.5-9.6c-21.6,3.7-41.5,14.2-56.8,30
			c-7.2,7.4-13.4,15.7-18.7,24.6c-14.4,24.1-22.3,52.3-28.3,79.1c-5.8,28.2-9.8,56.8-11.7,85.6c-0.1,1.1-0.5,2.2-1.3,3.1
			s-1.7,1.5-2.8,1.8c-1.1,0.3-2.3,0.2-3.3-0.2c-1-0.4-2-1.2-2.6-2.1L243,369.4l-33.4-52.2c-0.5-0.7-1.1-1.4-1.9-1.8
			c-0.8-0.4-1.6-0.7-2.5-0.7c-0.9,0-1.8,0.2-2.6,0.6c-0.8,0.4-1.5,1-2,1.7c-5.5,7.7-15.1,21.2-25.6,36c-13.8,19.6-29,43.5-37.6,56.4
			c-0.6,0.9-1.4,1.5-2.4,2c-1,0.4-2,0.5-3.1,0.4s-2-0.7-2.8-1.4c-0.8-0.7-1.3-1.6-1.5-2.7c-3.7-15.4-10.3-42.9-17.2-68.7
			c-6.3-23.4-15.7-54.7-23.3-79.6c-0.3-1.1-0.2-2.3,0.3-3.4c0.5-1,1.4-1.9,2.4-2.3s2.2-0.5,3.4-0.2c1.1,0.3,2.1,1.1,2.7,2
			c9.2,16,19.1,33.1,26.1,43.5C128.6,308.7,133.6,318.2,138.4,324.6z"/>
	</g>
</g>
<g id="Layer_2">
	
		<linearGradient id="SVGID_00000092440594990969565250000018274153042450206106_" gradientUnits="userSpaceOnUse" x1="331.982" y1="345.8714" x2="513.8156" y2="261.0714" gradientTransform="matrix(1 0 0 -1 0 614)">
		<stop  offset="0.39" style="stop-color:#00CC99"/>
		<stop  offset="0.62" style="stop-color:#00CCCC"/>
	</linearGradient>
	<path style="fill:url(#SVGID_00000092440594990969565250000018274153042450206106_);" d="M405.6,211.7c-19.5,3.4-37.6,12.5-52,26.2
		c-14.4,13.7-24.3,31.3-28.7,50.7s-2.8,39.6,4.4,58.1c7.2,18.5,19.7,34.5,35.9,45.9c16.2,11.4,35.5,17.7,55.3,18.2
		c19.8,0.5,39.4-5,56.1-15.6c16.8-10.6,30-26,38-44.2c8-18.1,10.5-38.3,7-57.8c-4.6-26.2-19.4-49.5-41.2-64.8
		C458.8,213.2,431.8,207.1,405.6,211.7z M443.6,366.2c-14.1,2.5-28.7,0.7-41.8-5.1c-13.1-5.8-24.3-15.3-32-27.5
		s-11.6-26.2-11.3-40.6c0.3-14.3,4.9-28.3,13.2-40c8.2-11.7,19.8-20.8,33.2-26c13.4-5.2,28-6.3,42-3.2c14,3.1,26.8,10.3,36.7,20.7
		c9.9,10.4,16.5,23.5,19,37.6c3.3,18.9-1,38.4-12.1,54.1C479.4,352.2,462.5,362.9,443.6,366.2z"/>
	<g>
		<circle class="st5" cx="433.1" cy="292.2" r="58.2"/>
	</g>
	
		<linearGradient id="SVGID_00000060742340960089363370000010114691454686525882_" gradientUnits="userSpaceOnUse" x1="101.6698" y1="374.6743" x2="428.4416" y2="262.1219" gradientTransform="matrix(1 0 0 -1 0 614)">
		<stop  offset="0" style="stop-color:#0099CC"/>
		<stop  offset="0.38" style="stop-color:#00CCCC"/>
		<stop  offset="0.61" style="stop-color:#00CC99"/>
	</linearGradient>
	<path style="fill:url(#SVGID_00000060742340960089363370000010114691454686525882_);" d="M139.8,324.4c2.6,3.5,7.1,4.1,9.9,0.4
		l22.3-32.1l26.9-40c0.5-0.7,1.1-1.3,1.8-1.7c0.7-0.4,1.6-0.7,2.4-0.7c0.9,0,1.7,0.1,2.5,0.5c0.8,0.4,1.4,0.9,2,1.6
		c6.1,7.8,15.5,19.9,24.7,31.8l20.2,26c0.6,0.7,1.3,1.3,2.2,1.7c0.9,0.4,1.8,0.5,2.7,0.3c0.9-0.1,1.8-0.5,2.5-1.1
		c0.7-0.6,1.3-1.3,1.7-2.2c2.8-6.8,7-16.5,12.7-27.3c15-29,40-66.3,73.3-80.7c48.4-20.8,90.6-11.4,117.6,6.1
		c0.3,0.2,0.5,0.5,0.6,0.9c0.1,0.4,0,0.8-0.1,1.1c-0.2,0.3-0.5,0.6-0.9,0.7c-0.4,0.1-0.8,0.1-1.1,0c-19.4-9.8-41.5-13.2-63-9.5
		c-21.5,3.6-41.2,14.1-56.3,29.7c-7.1,7.4-13.3,15.6-18.5,24.4c-14.3,23.9-22.2,51.9-28,78.5c-5.8,28-9.7,56.4-11.6,84.9
		c-0.1,1.1-0.5,2.2-1.3,3.1c-0.7,0.9-1.7,1.5-2.8,1.7c-1.1,0.3-2.2,0.2-3.3-0.2c-1-0.4-1.9-1.2-2.5-2.1l-32.9-51.4l-33.1-51.7
		c-0.5-0.7-1.1-1.3-1.9-1.8s-1.6-0.7-2.5-0.7c-0.9,0-1.7,0.2-2.5,0.6c-0.8,0.4-1.5,1-2,1.7c-5.4,7.6-15,21.1-25.4,35.7
		c-13.7,19.4-28.8,43.1-37.3,56c-0.6,0.9-1.4,1.5-2.4,1.9c-1,0.4-2,0.5-3,0.3c-1-0.2-2-0.7-2.7-1.4c-0.8-0.7-1.3-1.6-1.5-2.6
		c-3.6-15.3-10.2-42.5-17.1-68.1c-6.2-23.2-15.5-54.2-23.1-79c-0.3-1.1-0.2-2.3,0.3-3.3c0.5-1,1.4-1.9,2.4-2.3
		c1.1-0.5,2.2-0.5,3.3-0.2s2,1,2.7,2c9.1,15.9,19,32.9,25.8,43.1C130,308.7,135,318.1,139.8,324.4z"/>
</g>
</svg>
