<?xml version="1.0" encoding="utf-8"?>
<!-- Generator: Adobe Illustrator 25.4.0, SVG Export Plug-In . SVG Version: 6.00 Build 0)  -->
<svg version="1.1" id="Layer_1" xmlns="http://www.w3.org/2000/svg" xmlns:xlink="http://www.w3.org/1999/xlink" x="0px" y="0px"
	 viewBox="0 0 612 612" style="enable-background:new 0 0 612 612;" xml:space="preserve">
<style type="text/css">
	.st0{fill:url(#SVGID_1_);}
	.st1{fill:url(#SVGID_00000048459941035471989360000000021195397996284590_);}
</style>
<g>
	
		<linearGradient id="SVGID_1_" gradientUnits="userSpaceOnUse" x1="332.1836" y1="346.1704" x2="515.4899" y2="260.6999" gradientTransform="matrix(1 0 0 -1 0 614)">
		<stop  offset="0.39" style="stop-color:#41BB93"/>
		<stop  offset="0.62" style="stop-color:#39C0C4"/>
	</linearGradient>
	<path class="st0" d="M406.44,210.95c-19.7,3.44-37.95,12.65-52.42,26.46c-14.47,13.81-24.52,31.6-28.88,51.12
		c-4.36,19.52-2.83,39.9,4.39,58.55c7.22,18.65,19.81,34.75,36.18,46.24c16.37,11.5,35.78,17.88,55.78,18.35
		c20,0.46,39.68-5.01,56.57-15.74c16.88-10.72,30.21-26.22,38.29-44.51c8.08-18.3,10.55-38.58,7.1-58.28
		c-4.62-26.41-19.55-49.91-41.49-65.32C460.02,212.4,432.85,206.33,406.44,210.95z M444.71,366.68
		c-14.25,2.51-28.93,0.73-42.17-5.11c-13.24-5.84-24.45-15.47-32.22-27.68c-7.76-12.21-11.73-26.45-11.4-40.92
		c0.33-14.47,4.95-28.51,13.26-40.35c8.31-11.84,19.95-20.95,33.45-26.18c13.49-5.23,28.24-6.33,42.36-3.18
		c14.12,3.15,26.99,10.43,36.98,20.9c9.99,10.47,16.65,23.67,19.13,37.92c3.34,19.09-1.05,38.73-12.18,54.59
		C480.78,352.53,463.8,363.33,444.71,366.68z"/>
	
		<linearGradient id="SVGID_00000112596584627934727190000012510965526851377065_" gradientUnits="userSpaceOnUse" x1="100.0228" y1="375.1996" x2="429.4311" y2="261.7621" gradientTransform="matrix(1 0 0 -1 0 614)">
		<stop  offset="0" style="stop-color:#0099CD"/>
		<stop  offset="0.38" style="stop-color:#39C0C4"/>
		<stop  offset="0.61" style="stop-color:#41BB93"/>
	</linearGradient>
	<path style="fill:url(#SVGID_00000112596584627934727190000012510965526851377065_);" d="M138.44,324.59
		c2.62,3.54,7.19,4.09,9.94,0.37l22.45-32.34l27.15-40.32c0.47-0.73,1.11-1.33,1.86-1.75c0.75-0.43,1.6-0.66,2.46-0.69
		c0.86-0.03,1.72,0.15,2.5,0.52c0.78,0.37,1.46,0.93,1.98,1.62c6.13,7.87,15.59,20.05,24.91,32.05l20.36,26.25
		c0.57,0.75,1.33,1.33,2.21,1.69c0.87,0.36,1.82,0.48,2.75,0.35c0.93-0.13,1.82-0.5,2.56-1.08c0.74-0.58,1.32-1.34,1.67-2.22
		c2.81-6.88,7.08-16.6,12.77-27.52c15.17-29.19,40.32-66.85,73.91-81.34c48.76-20.93,91.32-11.45,118.49,6.13
		c0.32,0.22,0.55,0.55,0.65,0.93c0.09,0.38,0.04,0.78-0.15,1.12c-0.19,0.34-0.5,0.6-0.86,0.73c-0.37,0.13-0.77,0.11-1.13-0.05
		c-19.58-9.9-41.82-13.26-63.46-9.59c-21.63,3.67-41.52,14.17-56.75,29.97c-7.16,7.45-13.42,15.72-18.66,24.62
		c-14.38,24.07-22.34,52.28-28.27,79.14c-5.84,28.23-9.76,56.82-11.72,85.58c-0.09,1.13-0.53,2.21-1.26,3.08
		c-0.73,0.87-1.72,1.48-2.82,1.76c-1.1,0.27-2.26,0.2-3.32-0.23c-1.05-0.42-1.95-1.16-2.56-2.12l-33.15-51.82l-33.37-52.17
		c-0.48-0.74-1.13-1.36-1.9-1.79c-0.77-0.43-1.63-0.67-2.51-0.7c-0.88-0.02-1.76,0.17-2.55,0.56c-0.79,0.39-1.47,0.97-1.99,1.69
		c-5.47,7.67-15.15,21.24-25.61,36.01c-13.83,19.57-29,43.48-37.57,56.41c-0.58,0.87-1.41,1.55-2.37,1.96
		c-0.96,0.41-2.03,0.53-3.06,0.35c-1.03-0.18-1.99-0.67-2.75-1.38c-0.76-0.72-1.3-1.64-1.54-2.66
		c-3.67-15.39-10.27-42.85-17.19-68.7c-6.27-23.41-15.65-54.67-23.33-79.63c-0.29-1.12-0.18-2.31,0.33-3.35
		c0.5-1.04,1.36-1.87,2.42-2.33c1.06-0.46,2.25-0.53,3.36-0.2c1.11,0.34,2.06,1.06,2.68,2.03c9.15,16,19.13,33.15,26.05,43.46
		C128.57,308.7,133.65,318.19,138.44,324.59z"/>
</g>
</svg>
