<?xml version="1.0" encoding="utf-8"?>
<!-- Generator: Adobe Illustrator 25.4.0, SVG Export Plug-In . SVG Version: 6.00 Build 0)  -->
<svg version="1.1" id="Layer_3" xmlns="http://www.w3.org/2000/svg" xmlns:xlink="http://www.w3.org/1999/xlink" x="0px" y="0px"
	 viewBox="0 0 1170 780" style="enable-background:new 0 0 1170 780;" xml:space="preserve">
<style type="text/css">
	.st0{fill:url(#SVGID_1_);}
	.st1{fill:url(#SVGID_00000066499818618046529320000010319553679057334697_);}
	.st2{opacity:0.33;fill:url(#SVGID_00000175299875410152084000000004363955651922022786_);}
	.st3{opacity:0.33;fill:url(#SVGID_00000056418858839270778070000007413814286313809555_);}
	.st4{fill:url(#SVGID_00000080185317198228012240000003652346777623550616_);}
	.st5{opacity:0.33;}
	.st6{fill:url(#SVGID_00000007424363440850289550000013117719127552084643_);}
	.st7{fill:url(#SVGID_00000173846751242123538350000005124456564727711637_);}
	.st8{opacity:0.33;fill:url(#SVGID_00000049909370670881018440000000087811222069748874_);}
	.st9{fill:url(#SVGID_00000170270907638129364850000015749611245007478956_);}
	.st10{opacity:0.33;fill:url(#SVGID_00000145045319283525773270000015755559895042141611_);}
	.st11{fill:url(#SVGID_00000057840004598144038970000003974450972397284493_);}
	.st12{fill:#0869FB;}
	.st13{fill:url(#SVGID_00000157296258075357848030000012187023267674779554_);}
	.st14{opacity:0.4;fill:url(#SVGID_00000076563289034477598100000014943707993664988315_);}
	.st15{fill:#FFFFFF;}
	.st16{fill:url(#SVGID_00000005970509819217762510000010381704602420466361_);}
	.st17{opacity:0.47;}
	.st18{fill:url(#SVGID_00000133495829325587738700000012017181362766745258_);}
	.st19{fill:url(#SVGID_00000106125570975002076500000000031380590579115141_);}
	.st20{fill:url(#SVGID_00000117676686505604988780000003083065253819156138_);}
	.st21{fill:url(#SVGID_00000076570150093414052880000010802989262822961792_);}
	.st22{fill:url(#SVGID_00000093865691038901522580000007468951658857093506_);}
	.st23{fill:url(#SVGID_00000041274958487888045600000013554869194689645238_);}
	.st24{fill:url(#SVGID_00000115486118429788620580000005123125159958251152_);}
	.st25{opacity:0.45;fill:url(#SVGID_00000013894113903236989560000002901844972607994502_);}
	.st26{fill:url(#SVGID_00000059300942466786836630000010075768029638111386_);}
	.st27{fill:url(#SVGID_00000105398817211601052750000004038301194647152561_);}
	.st28{fill:url(#SVGID_00000088850542692463641150000008341506510283146172_);}
	.st29{opacity:0.45;fill:url(#SVGID_00000162326228267861753810000011432209321612337559_);}
	.st30{fill:url(#SVGID_00000082344256044257989750000001249217182693616523_);}
	.st31{opacity:0.45;fill:url(#SVGID_00000018951328511554971570000011154573296769617821_);}
	.st32{fill:url(#SVGID_00000055694225589745027220000010773348309294005127_);}
	.st33{opacity:0.45;fill:url(#SVGID_00000096759415409704083620000009360169572013935294_);}
	.st34{fill:url(#SVGID_00000089548296980807447020000013451109544365593477_);}
	.st35{opacity:0.47;fill:url(#SVGID_00000054234075805505565000000008055988517092477577_);}
	.st36{fill:url(#SVGID_00000146486793008525778080000017132807479423169409_);}
	.st37{fill:url(#SVGID_00000028292133471152001860000010101294013791983780_);}
	.st38{fill:url(#SVGID_00000023276539212854945240000000491289089476156593_);}
	.st39{opacity:0.47;fill:url(#SVGID_00000131333365468032072300000015147067267277862064_);}
	.st40{fill:url(#SVGID_00000109713273063066434330000011032217099809348245_);}
	.st41{fill:url(#SVGID_00000109015049917557491110000004446591260641398711_);}
	.st42{fill:url(#SVGID_00000024697930563707543360000000863998981840176033_);}
	.st43{fill:url(#SVGID_00000005945651365333094210000003878554904831227784_);}
	.st44{opacity:0.39;fill:url(#SVGID_00000167365774901902633230000011412030047434093216_);}
	.st45{fill:url(#SVGID_00000179614507958476866650000005912550766894918559_);}
	.st46{fill:url(#SVGID_00000183960709277852555820000007051373968057128087_);}
	.st47{fill:url(#SVGID_00000166642048168539190390000018024289738658730122_);}
	.st48{fill:url(#SVGID_00000124134552297629731640000003608306066712045245_);}
	.st49{fill:url(#SVGID_00000170962214043352515560000011469513566452295554_);}
	.st50{fill:url(#SVGID_00000049922137960172954040000004186658727076012733_);}
	.st51{fill:url(#SVGID_00000072994338825008870910000006233556177461913486_);}
	.st52{fill:url(#SVGID_00000025408178697766908940000017103717135841617047_);}
	.st53{fill:url(#SVGID_00000152942520001241315640000007281057489578239927_);}
	.st54{opacity:0.39;fill:url(#SVGID_00000104672096698142306150000002346787545456211615_);}
	.st55{fill:url(#SVGID_00000116217130089325028090000002784974006372186779_);}
	.st56{opacity:0.47;fill:url(#SVGID_00000169531958091491987080000017798635523868956821_);}
	.st57{opacity:0.47;fill:url(#SVGID_00000027562204702233156320000001235125991606775201_);}
	.st58{opacity:0.47;fill:url(#SVGID_00000052794296838215615860000016995812475008400514_);}
	.st59{fill:url(#SVGID_00000005971268347471413570000002161387251600216234_);}
	.st60{opacity:0.47;fill:url(#SVGID_00000075863374863817471550000011724724784685392018_);}
	.st61{fill:url(#SVGID_00000080165434265287882170000006607801911171220135_);}
	.st62{fill:url(#SVGID_00000104667816620832346120000017434371931539338394_);}
	.st63{fill:url(#SVGID_00000001655996240790526200000015052400212830429354_);}
	.st64{fill:url(#SVGID_00000138564174828441042350000009683977285236132740_);}
	.st65{fill:url(#SVGID_00000099662749946650911480000012318211201010258060_);}
	.st66{fill:url(#SVGID_00000179604808433799341660000010900418440126118039_);}
	.st67{opacity:0.47;fill:url(#SVGID_00000034776425419435333440000012927950360135185323_);}
	.st68{fill:url(#SVGID_00000022534206291056268310000000952368696308330684_);}
	.st69{opacity:0.47;fill:url(#SVGID_00000146494240237396217240000013019454383925447048_);}
	.st70{fill:url(#SVGID_00000034782763273701510820000013191587690056023227_);}
	.st71{opacity:0.47;fill:url(#SVGID_00000157289823225335422670000003866029882996085645_);}
	.st72{fill:url(#SVGID_00000147214058729163070130000002178505393960112527_);}
	.st73{opacity:0.47;fill:url(#SVGID_00000176728410653649523870000008861355240216014741_);}
	.st74{fill:url(#SVGID_00000092443640203500489400000015287620077676430995_);}
	.st75{opacity:0.39;fill:url(#SVGID_00000081633142783559192280000002751451793156170369_);}
	.st76{fill:url(#SVGID_00000153663672276462825210000010832275672023264188_);}
	.st77{fill:url(#SVGID_00000127035802722534641860000008406509418697652358_);}
	.st78{fill:url(#SVGID_00000166656130933015598070000012475630615998456449_);}
	.st79{opacity:0.45;fill:url(#SVGID_00000178187076399574678920000006369526356895986095_);}
	.st80{opacity:0.45;fill:url(#SVGID_00000095338895728117852820000005747822030074716087_);}
	.st81{fill:url(#SVGID_00000025437339363707036120000003429147326590218122_);}
	.st82{opacity:0.33;fill:url(#SVGID_00000101781934271143444130000017929338092059477908_);}
	.st83{opacity:0.33;fill:url(#SVGID_00000061439560393892649370000005570400702179541422_);}
	.st84{fill:url(#SVGID_00000179633421682592794090000003395578715591845566_);}
	.st85{opacity:0.33;fill:url(#SVGID_00000029741868716337349260000010628199713247548306_);}
	.st86{opacity:0.33;fill:url(#SVGID_00000107556873156324148490000005021262954537156746_);}
	.st87{fill:url(#SVGID_00000031890866723018154300000005095662818133059761_);}
	.st88{opacity:0.33;fill:url(#SVGID_00000147213782015321568560000010097762385736163763_);}
	.st89{opacity:0.33;fill:url(#SVGID_00000041296426564235211580000005389592822053784481_);}
	.st90{fill:url(#SVGID_00000120551931662252565380000013793612192839926178_);}
	.st91{opacity:0.45;fill:url(#SVGID_00000109020364682551194080000000138775123461136797_);}
	.st92{fill:#006076;}
	.st93{opacity:0.47;fill:url(#SVGID_00000021821922110324009080000009153622446394581378_);}
	.st94{opacity:0.45;fill:url(#SVGID_00000018954892377104338760000016598324373880413835_);}
	.st95{opacity:0.45;fill:url(#SVGID_00000110437025971316158270000015954845288213398683_);}
	.st96{fill:url(#SVGID_00000103983863764247558210000014430790625240680375_);}
	.st97{opacity:0.45;fill:url(#SVGID_00000002379521914700534060000015533067644601720473_);}
	.st98{fill:url(#SVGID_00000158003825756321014970000010696712953989895565_);}
	.st99{opacity:0.45;fill:url(#SVGID_00000160903675215377393260000009151963417610617252_);}
	.st100{fill:url(#SVGID_00000120522922484847645220000014937195652378641555_);}
	.st101{fill:url(#SVGID_00000117670004861339166760000018236402424210954382_);}
	.st102{fill:url(#SVGID_00000031926968605266015480000015486898247816346771_);}
	.st103{opacity:0.47;fill:url(#SVGID_00000008114342801043920480000016900469978176281259_);}
	.st104{fill:url(#SVGID_00000133521693490784539520000000565968223377864347_);}
	.st105{fill:url(#SVGID_00000000190548506424150930000008804656277751089070_);}
	.st106{fill:url(#SVGID_00000155132252636938074430000007278495881965568134_);}
	.st107{opacity:0.47;fill:url(#SVGID_00000091703541710044557100000003056052823808106904_);}
	.st108{opacity:0.45;fill:url(#SVGID_00000128466060575824639260000011242231395171969471_);}
	.st109{opacity:0.48;fill:#FFFFFF;}
	.st110{fill:url(#SVGID_00000015313031260175739110000003397812352628664202_);}
	.st111{opacity:0.47;fill:url(#SVGID_00000144328878567441338580000011700128002576842904_);}
	.st112{opacity:0.47;fill:url(#SVGID_00000076565414975250298230000016847465034458613926_);}
	.st113{opacity:0.47;fill:url(#SVGID_00000152946732087630078930000009880499244726851734_);}
</style>
<linearGradient id="SVGID_1_" gradientUnits="userSpaceOnUse" x1="526.8453" y1="259.9993" x2="585.3423" y2="564.4841">
	<stop  offset="0" style="stop-color:#D0FFAE"/>
	<stop  offset="1" style="stop-color:#34EBE9"/>
</linearGradient>
<path class="st0" d="M585,410.81c-60.13-207.46-315.21-234.72-414.22-84.35S110.21,617.97,226,629.91
	c115.79,11.94,774.33,22.53,796.86,0c22.53-22.53,54.01-171.79-87.01-171.79S633,576.42,585,410.81z"/>
<linearGradient id="SVGID_00000116235163930473059040000017546754339373903242_" gradientUnits="userSpaceOnUse" x1="849.7962" y1="491.9555" x2="1069.3861" y2="491.9555">
	<stop  offset="0" style="stop-color:#006076"/>
	<stop  offset="1" style="stop-color:#648D7F"/>
</linearGradient>
<path style="fill:url(#SVGID_00000116235163930473059040000017546754339373903242_);" d="M853.01,604.62
	c39.39-78.03,79.36-215.73,173.85-234.31c94.5-18.58,10.5,99.2-49.5,144.55S832.16,645.92,853.01,604.62z"/>
<linearGradient id="SVGID_00000085229114339423364820000010634101506093865891_" gradientUnits="userSpaceOnUse" x1="849.7962" y1="491.9576" x2="1069.3816" y2="491.9576">
	<stop  offset="0" style="stop-color:#006076"/>
	<stop  offset="1" style="stop-color:#002661"/>
</linearGradient>
<path style="opacity:0.33;fill:url(#SVGID_00000085229114339423364820000010634101506093865891_);" d="M1041.21,368.44
	c8.54,9.31,12.79,18.81,4.79,46.56c-10.75,37.29-116.08,109-173.78,148.23c-6.57,14.84-12.9,28.89-19.21,41.4
	c-20.85,41.3,64.36-44.4,124.36-89.75C1033.97,472.08,1111.93,364.83,1041.21,368.44z"/>
<linearGradient id="SVGID_00000075865725791960747400000001406176729892583561_" gradientUnits="userSpaceOnUse" x1="873.3353" y1="491.7581" x2="1030.3826" y2="491.7581">
	<stop  offset="0" style="stop-color:#006076"/>
	<stop  offset="1" style="stop-color:#002661"/>
</linearGradient>
<path style="opacity:0.33;fill:url(#SVGID_00000075865725791960747400000001406176729892583561_);" d="M985.06,445.19
	c0.78-0.73,1.46-1.54,2.07-2.38l5.27-5.81c11.89-13.09,24.18-26.64,37.34-38.82c0.81-0.75,0.86-2.02,0.11-2.83
	c-0.75-0.81-2.02-0.86-2.83-0.11c-12.1,11.19-23.41,23.46-34.34,35.5c3.86-11.35,5.26-23.46,4.03-35.42
	c-0.11-1.1-1.08-1.91-2.19-1.79c-1.1,0.11-1.9,1.09-1.78,2.19c1.39,13.51-0.73,27.24-6.14,39.71c-0.73,1.67-1.54,3.37-2.59,4.86
	l-8.4,9.26c-0.16,0.13-0.3,0.28-0.41,0.45l-18.49,20.37c1.54-11.45,1.83-23.04,0.82-34.56c-0.1-1.1-1.06-1.93-2.17-1.82
	c-1.1,0.1-1.92,1.07-1.82,2.17c1.15,13.21,0.57,26.51-1.71,39.57l-16.47,18.15c-0.87,0.07-1.62,0.7-1.8,1.6
	c-0.03,0.14-0.04,0.29-0.04,0.43c-3.75,4.13-7.52,8.3-11.26,12.55c0.91-11.47,1.14-23.08,0.65-34.55c-0.05-1.1-1-1.94-2.08-1.91
	c-1.1,0.05-1.96,0.98-1.91,2.08c0.53,12.7,0.2,25.56-1,38.21c-0.03,0.35,0.03,0.68,0.16,0.97c-5.95,6.92-11.72,14.04-17.02,21.48
	c-11.52,16.19-20.81,33.87-27.6,52.55c-0.38,1.04,0.16,2.19,1.2,2.56c0.23,0.08,0.46,0.12,0.68,0.12c0.82,0,1.58-0.5,1.88-1.32
	c6.67-18.34,15.79-35.7,27.1-51.6c9.82-13.8,21.39-26.59,32.62-38.96c0.81,0.09,1.63,0.13,2.44,0.13c4.34,0,8.61-1.16,12.76-2.29
	c1.51-0.41,3.08-0.84,4.59-1.19c9.66-2.24,19.85-1.95,29.71-1.67c1.12,0.07,2.03-0.84,2.06-1.94c0.03-1.1-0.84-2.02-1.94-2.06
	c-10.11-0.29-20.56-0.59-30.73,1.77c-1.59,0.37-3.19,0.8-4.74,1.22c-3.65,0.99-7.16,1.93-10.6,2.1l13.44-14.81
	c0.8-0.14,1.47-0.76,1.62-1.61c0.01-0.07,0.02-0.15,0.04-0.22l22.41-24.69c14.38-4.11,31.02-8.22,47.4-5.94
	c1.08,0.16,2.1-0.61,2.26-1.7c0.15-1.09-0.61-2.1-1.7-2.26c-14.82-2.07-29.63,0.81-42.92,4.36l1.73-1.91
	C984.86,445.35,984.97,445.28,985.06,445.19z"/>
<linearGradient id="SVGID_00000118359212066482188580000004736893172215704743_" gradientUnits="userSpaceOnUse" x1="465.0247" y1="465.273" x2="704.1373" y2="465.273" gradientTransform="matrix(-1 0 0 1 1291.783 0)">
	<stop  offset="0" style="stop-color:#006076"/>
	<stop  offset="1" style="stop-color:#648D7F"/>
</linearGradient>
<path style="fill:url(#SVGID_00000118359212066482188580000004736893172215704743_);" d="M823.26,597.55
	c-42.89-91.61-86.41-253.27-189.31-275.08c-102.9-21.81-11.43,116.47,53.9,169.71S845.96,646.03,823.26,597.55z"/>
<g class="st5">
	
		<linearGradient id="SVGID_00000069396175350128721290000003350862205938991017_" gradientUnits="userSpaceOnUse" x1="809.5215" y1="598.1837" x2="826.7577" y2="598.1837">
		<stop  offset="0" style="stop-color:#006076"/>
		<stop  offset="1" style="stop-color:#002661"/>
	</linearGradient>
	<path style="fill:url(#SVGID_00000069396175350128721290000003350862205938991017_);" d="M809.52,601.09
		c15.11,12.04,21.92,13.92,13.74-3.54c-1.75-3.74-3.51-7.61-5.26-11.57c-2.28,5.08-4.09,9.01-5.26,11.32
		C811.79,599.19,810.71,600.42,809.52,601.09z"/>
	
		<linearGradient id="SVGID_00000178190444489977171340000004705117089334521786_" gradientUnits="userSpaceOnUse" x1="587.6511" y1="451.9233" x2="785.9634" y2="451.9233">
		<stop  offset="0" style="stop-color:#006076"/>
		<stop  offset="1" style="stop-color:#002661"/>
	</linearGradient>
	<path style="fill:url(#SVGID_00000178190444489977171340000004705117089334521786_);" d="M689.33,461.1
		c-68.83-59.83-96.41-101.7-90.54-137.91c-39.38,19.18,34.09,124.18,89.06,168.99c31.68,25.82,69.82,62.78,98.11,88.48
		C765.73,552.24,734.79,500.61,689.33,461.1z"/>
</g>
<linearGradient id="SVGID_00000142165778408430327870000009054212039759453863_" gradientUnits="userSpaceOnUse" x1="490.6566" y1="465.0413" x2="661.6662" y2="465.0413" gradientTransform="matrix(-1 0 0 1 1291.783 0)">
	<stop  offset="0" style="stop-color:#006076"/>
	<stop  offset="1" style="stop-color:#002661"/>
</linearGradient>
<path style="opacity:0.33;fill:url(#SVGID_00000142165778408430327870000009054212039759453863_);" d="M679.47,410.36
	c-0.85-0.86-1.59-1.8-2.25-2.79l-5.74-6.82c-12.94-15.37-26.33-31.27-40.66-45.58c-0.88-0.88-0.94-2.37-0.12-3.32
	c0.82-0.95,2.2-1.01,3.08-0.13c13.17,13.14,25.49,27.55,37.4,41.67c-4.2-13.32-5.73-27.55-4.39-41.58c0.12-1.29,1.18-2.24,2.39-2.1
	c1.2,0.13,2.07,1.29,1.94,2.58c-1.51,15.86,0.8,31.98,6.68,46.62c0.79,1.96,1.68,3.96,2.82,5.7l9.15,10.87
	c0.18,0.15,0.32,0.33,0.45,0.53l20.13,23.92c-1.68-13.44-1.99-27.05-0.9-40.57c0.1-1.29,1.15-2.27,2.36-2.13
	c1.2,0.11,2.09,1.25,1.98,2.54c-1.26,15.51-0.62,31.13,1.86,46.46l17.94,21.31c0.95,0.08,1.77,0.82,1.96,1.87
	c0.03,0.17,0.04,0.34,0.04,0.5c4.08,4.85,8.19,9.75,12.27,14.74c-0.99-13.47-1.24-27.09-0.71-40.56c0.05-1.3,1.08-2.28,2.27-2.25
	c1.2,0.05,2.14,1.15,2.08,2.44c-0.58,14.91-0.21,30,1.09,44.87c0.04,0.41-0.04,0.79-0.18,1.14c6.48,8.12,12.77,16.48,18.53,25.21
	c12.55,19.01,22.66,39.77,30.06,61.7c0.41,1.22-0.17,2.57-1.3,3.01c-0.25,0.1-0.5,0.14-0.74,0.14c-0.89,0-1.72-0.59-2.05-1.55
	c-7.26-21.53-17.19-41.91-29.51-60.58c-10.69-16.2-23.29-31.22-35.52-45.74c-0.89,0.1-1.77,0.16-2.65,0.16
	c-4.73,0-9.37-1.36-13.89-2.69c-1.65-0.48-3.35-0.98-5-1.4c-10.52-2.63-21.62-2.29-32.35-1.96c-1.21,0.08-2.21-0.98-2.24-2.28
	c-0.03-1.3,0.91-2.38,2.12-2.41c11.01-0.34,22.39-0.69,33.46,2.08c1.73,0.43,3.47,0.94,5.16,1.44c3.98,1.17,7.8,2.27,11.54,2.47
	l-14.63-17.38c-0.87-0.16-1.6-0.9-1.77-1.89c-0.01-0.09-0.03-0.17-0.04-0.26l-24.4-28.98c-15.66-4.83-33.78-9.65-51.61-6.97
	c-1.18,0.19-2.29-0.72-2.46-2c-0.17-1.29,0.66-2.47,1.86-2.65c16.14-2.42,32.26,0.95,46.73,5.11l-1.89-2.24
	C679.68,410.56,679.57,410.47,679.47,410.36z"/>
<linearGradient id="SVGID_00000151504855624139121300000010136329362973843116_" gradientUnits="userSpaceOnUse" x1="777.2916" y1="390.1494" x2="934.3134" y2="390.1494" gradientTransform="matrix(0.9969 -0.0792 0.0792 0.9969 -45.8489 64.7861)">
	<stop  offset="0" style="stop-color:#006076"/>
	<stop  offset="1" style="stop-color:#648D7F"/>
</linearGradient>
<path style="fill:url(#SVGID_00000151504855624139121300000010136329362973843116_);" d="M789.73,619.31
	c119.49-47.96,164.8-359.8,73.55-437.61s-110.21,44.37-79.57,187.15S751.94,634.48,789.73,619.31z"/>
<linearGradient id="SVGID_00000033343635780274268840000004423521801181591194_" gradientUnits="userSpaceOnUse" x1="770.1218" y1="410.5279" x2="907.8172" y2="410.5279">
	<stop  offset="0" style="stop-color:#006076"/>
	<stop  offset="1" style="stop-color:#002661"/>
</linearGradient>
<path style="opacity:0.33;fill:url(#SVGID_00000033343635780274268840000004423521801181591194_);" d="M903.5,401.5
	c-2.25,20.16-15.84,75.23-25.5,77.47s2.23-18.33,2-24.62s-14-7.85-22,2.15s-18.5,37-36.08,53.81c-17.58,16.81-9.92-22.31-11.18-63.9
	C809.47,404.82,766,243,775.57,200.47c-9.67,39.42-6.18,101.65,8.14,168.38c30.64,142.78-31.77,265.63,6.02,250.46
	c63.16-25.35,105.59-124.42,118.09-223.69C905.39,396.89,903.79,398.9,903.5,401.5z"/>
<g class="st5">
	
		<linearGradient id="SVGID_00000008872010121448237800000009414261776190060678_" gradientUnits="userSpaceOnUse" x1="812.3536" y1="399.9154" x2="906.0005" y2="399.9154" gradientTransform="matrix(0.9969 -0.0792 0.0792 0.9969 -45.8489 64.7861)">
		<stop  offset="0" style="stop-color:#006076"/>
		<stop  offset="1" style="stop-color:#002661"/>
	</linearGradient>
	<path style="fill:url(#SVGID_00000008872010121448237800000009414261776190060678_);" d="M867.35,495.3
		c-0.7-0.86-1.96-0.99-2.81-0.29c-9.67,7.88-17.33,15.31-23.16,22.48c0.43-1.58,0.87-3.18,1.29-4.8c0.13-0.26,0.22-0.55,0.23-0.85
		c2.86-10.94,5.58-23.03,7.98-36.23c1.33-2.61,18.28-35.22,39.89-41.56c1.06-0.31,1.67-1.42,1.36-2.48
		c-0.31-1.06-1.42-1.66-2.48-1.36c-16.34,4.8-29.69,22.54-36.82,33.93c0.77-4.87,1.49-9.87,2.16-15.02c0-0.02,0-0.04,0.01-0.06
		c0.76-5.85,1.44-11.88,2.04-18.09c0.73-7.65,1.18-15.41,1.38-23.22c0.35-0.16,0.66-0.4,0.88-0.75
		c19.19-30.63,25.08-71.9,25.14-72.32c0.15-1.09-0.61-2.1-1.71-2.26c-1.1-0.15-2.1,0.61-2.26,1.71
		c-0.05,0.39-5.29,37.04-21.94,66.34c0.04-5.51-0.04-11.03-0.23-16.55c0.42-0.52,0.58-1.24,0.34-1.92c-0.14-0.4-0.29-0.81-0.46-1.21
		c-0.73-18.23-2.55-36.38-4.98-53.69c0.08-0.26,0.12-0.54,0.09-0.83c-3.37-30.49,19.5-88.28,19.73-88.86
		c0.41-1.03-0.09-2.19-1.12-2.6c-1.03-0.41-2.19,0.09-2.6,1.12c-0.77,1.94-15.51,39.18-19.41,70.06
		c-0.91-5.27-1.86-10.43-2.84-15.44c0.02-0.27-0.01-0.55-0.1-0.83c-0.04-0.12-0.09-0.23-0.13-0.34
		c-9.25-47.03-20.65-81.22-20.87-81.86c-0.35-1.05-1.49-1.61-2.53-1.25c-1.05,0.35-1.61,1.49-1.26,2.53
		c0.2,0.59,9.86,29.56,18.57,70.73c-14.17-16.22-43.76-26.16-45.25-26.65c-1.05-0.35-2.18,0.22-2.53,1.27
		c-0.35,1.05,0.22,2.18,1.27,2.53c0.41,0.14,41.17,13.82,48.76,33.87c4.87,24.83,9.13,53.24,10.8,82.14
		c-15.48-23.11-54.43-45.95-56.3-47.03c-0.96-0.56-2.18-0.23-2.73,0.72c-0.55,0.95-0.23,2.18,0.72,2.73
		c0.5,0.29,48.53,28.46,58.74,52.59c0.63,16.43,0.36,32.92-1.17,48.9c-0.29,3.04-0.61,6.03-0.94,8.98
		c-10.5-24.68-37.73-38.53-39.01-39.17c-0.99-0.49-2.19-0.09-2.68,0.9c-0.49,0.99-0.09,2.19,0.89,2.68
		c0.33,0.16,33.03,16.81,39.67,44.89c-2.67,20.57-6.25,38.93-10.18,55c-5.42-15.23-19.52-38.29-33.09-39.44
		c-1.11-0.09-2.07,0.72-2.16,1.82c-0.09,1.1,0.72,2.07,1.82,2.16c12.66,1.07,29.03,29.94,31.47,43.17
		c-12.64,48.02-27.78,73.4-28,73.76c-0.57,0.94-0.27,2.17,0.67,2.75c0.37,0.23,0.79,0.32,1.2,0.28c0.62-0.05,1.2-0.38,1.55-0.95
		c0.2-0.33,12.15-20.32,23.74-58.26c0-0.01,0.01-0.01,0.01-0.01c5.86-9.73,15.37-19.88,29.06-31.04
		C867.92,497.42,868.05,496.16,867.35,495.3z"/>
</g>
<g>
	<path class="st12" d="M547.97,527.63c-1.48-1.48-3.01-2.84-4.48-4.17c-2.18-1.95-4.25-3.8-6.01-5.86
		c-37.5-43.91-91.48-29.22-143.68-15.01c-32.66,8.89-66.42,18.08-95.15,12.25c-8.68-1.76-15.38-6.4-19.92-13.8
		c-7.65-12.44-8.42-31.78-2.18-54.44l2.89,0.8c-6.02,21.85-5.36,40.34,1.84,52.07c4.09,6.66,10.14,10.84,17.96,12.43
		c28.02,5.69,59.96-3,93.76-12.2c53.11-14.45,108.02-29.4,146.75,15.96c1.63,1.91,3.62,3.69,5.73,5.57c1.51,1.35,3.07,2.74,4.6,4.28
		L547.97,527.63z"/>
</g>
<linearGradient id="SVGID_00000078758718940616265470000015179184870598335387_" gradientUnits="userSpaceOnUse" x1="473.5068" y1="647.2455" x2="363.4605" y2="440.492">
	<stop  offset="0" style="stop-color:#072338"/>
	<stop  offset="1" style="stop-color:#002661"/>
</linearGradient>
<path style="fill:url(#SVGID_00000078758718940616265470000015179184870598335387_);" d="M368.47,529.1
	c-5.84,6.04-5.16,33.21-5.16,64.1c0,30.89,0,32.73,0,32.73l152.97,3.77c0,0,7.33-42.88,0.62-66.92
	c-6.71-24.04-2.26-44.54-26.02-44.54C467.12,518.24,376.65,520.65,368.47,529.1z"/>
<linearGradient id="SVGID_00000045608874099122348060000018144295791639369654_" gradientUnits="userSpaceOnUse" x1="485.7096" y1="638.2886" x2="379.9471" y2="439.5835">
	<stop  offset="0" style="stop-color:#072338"/>
	<stop  offset="1" style="stop-color:#002661"/>
</linearGradient>
<path style="opacity:0.4;fill:url(#SVGID_00000045608874099122348060000018144295791639369654_);" d="M418.8,618.67
	c-2.17,1-13.73,4.35-21.11,8.12l113.79,2.8c2.01-1.54,3.88-3.08,5.5-4.56c1.66-11.76,5.27-43.03-0.1-62.24
	c-6.71-24.04-2.26-44.54-26.02-44.54c-18.3,0-76.17,1.43-105.53,5.95c-8.26,8.61-17.13,18.41-21.5,25.12
	c-0.16,2.53-0.27,5.23-0.35,8.09c0.27-0.01,0.55-0.02,0.86-0.07c7.6-1.03,18.71,3.49,44.58,3.49s58.21-4.83,64.87,1.84
	c6.67,6.67,11.67,24.33,27.67,26c16,1.67,8.33,27,4.67,30.67s-71,5.48-72.67,2c-1.67-3.48-2.42-13.25-1.33-14.33
	c1.08-1.08,21-7.67,7.37-5.17c-4.63,0.85-7.87-1.83-15.71-3.17c-7.83-1.33-3.42,1.58,1,6C429.22,609.08,423.14,616.67,418.8,618.67z
	"/>
<path class="st15" d="M226,961"/>
<linearGradient id="SVGID_00000039093187361623736810000014279273792464737460_" gradientUnits="userSpaceOnUse" x1="291.0069" y1="402.5221" x2="290.2549" y2="316.0409">
	<stop  offset="0" style="stop-color:#DE7656"/>
	<stop  offset="1" style="stop-color:#FEB692"/>
</linearGradient>
<path style="fill:url(#SVGID_00000039093187361623736810000014279273792464737460_);" d="M414.03,307.24
	c-9.08-18.16-13.7-24.11-17.8-24.11c-15.27,0-61.26,95.69-68.74,95.69s-58.99-21.42-88.6-27.4c0,0-5.37-3.05-9.61-7.29
	c-4.24-4.24-7.14-21.54-10.27-22.43c-3.12-0.89-3.35,14.17-3.35,16.63c0,2.07-8.19-2.76-15.99-4.31c-0.81-0.16-1.6-0.4-2.35-0.75
	c-12.6-5.86-27.04-9.91-28.47-7.01c-0.55,1.12,3.82,3.98,6.87,5.39c-4.88-0.78-12.19-1.29-9.51,1.38c2.68,2.68,6.47,4.83,6.47,4.83
	s-8.03-1.03-4.91,2.09c3.12,3.12,12.3,6.7,12.3,6.7s-10.82-2.7-7.7,1.39c5.08,6.67,19.39,10.01,27.12,13.61
	c6.18,2.86,17.37,4.15,21.53,6.44c22.22,13.92,104.46,67.29,118.76,58.81C364.65,412.16,423.11,325.4,414.03,307.24z"/>
<g class="st17">
	
		<linearGradient id="SVGID_00000152952980823031090990000012508123339299958668_" gradientUnits="userSpaceOnUse" x1="214.8614" y1="354.4599" x2="200.5409" y2="327.5547">
		<stop  offset="0" style="stop-color:#DE7656"/>
		<stop  offset="1" style="stop-color:#FEB692"/>
	</linearGradient>
	<path style="fill:url(#SVGID_00000152952980823031090990000012508123339299958668_);" d="M217.64,351.5
		c4.75,2.25-0.81-2.09-1.97-13.17c0,2.07-8.19-2.76-15.99-4.31c-0.81-0.16-1.6-0.4-2.35-0.75c-1.35-0.63-2.72-1.24-4.1-1.82
		C196.91,335.73,212.89,349.25,217.64,351.5z"/>
	
		<linearGradient id="SVGID_00000168115246212487177110000001456890412220703616_" gradientUnits="userSpaceOnUse" x1="181.3118" y1="337.5962" x2="173.7549" y2="323.3983">
		<stop  offset="0" style="stop-color:#DE7656"/>
		<stop  offset="1" style="stop-color:#FEB692"/>
	</linearGradient>
	<path style="fill:url(#SVGID_00000168115246212487177110000001456890412220703616_);" d="M175.05,331.32
		c0.21,0.1,0.43,0.2,0.67,0.32c2.91,1.48,11.82,4.14,10.66,2.98c-1.05-1.05-12.65-5.94-16.6-9.08c-0.45,0.16-0.78,0.39-0.94,0.71
		C168.34,327.29,172.07,329.83,175.05,331.32z"/>
	
		<linearGradient id="SVGID_00000101803726964079531420000017828201114992454839_" gradientUnits="userSpaceOnUse" x1="232.9015" y1="390.6168" x2="204.7411" y2="337.7094">
		<stop  offset="0" style="stop-color:#DE7656"/>
		<stop  offset="1" style="stop-color:#FEB692"/>
	</linearGradient>
	<path style="fill:url(#SVGID_00000101803726964079531420000017828201114992454839_);" d="M247.14,379.83
		c2.02-7.04,2.04-16.61,1.21-26.2c-3.33-0.87-6.5-1.62-9.45-2.22c0,0-4.4-2.51-8.38-6.13c2.32,2.91,4.88,6.32,4.88,8.58
		c0,3.5-3,11.25-7.62,11.25s-35.1-9.34-43-11.25c-2.58-0.62-5.13-1.16-7.39-1.6c6.54,4.03,16.23,6.62,22.12,9.37
		c6.18,2.86,17.37,4.15,21.53,6.44c3.39,2.13,8.2,5.18,13.94,8.78c3.1-1.3,6.02-2.71,6.02-2.71s0.04,3.35,0.37,6.7
		c1.48,0.92,3,1.87,4.56,2.83C246.28,382.66,246.69,381.38,247.14,379.83z"/>
	
		<linearGradient id="SVGID_00000032629026865091838150000012557741099070416266_" gradientUnits="userSpaceOnUse" x1="227.3812" y1="341.2528" x2="226.9264" y2="340.3982">
		<stop  offset="0" style="stop-color:#DE7656"/>
		<stop  offset="1" style="stop-color:#FEB692"/>
	</linearGradient>
	<path style="fill:url(#SVGID_00000032629026865091838150000012557741099070416266_);" d="M226.95,340.39
		c0.14,0.37,0.28,0.67,0.42,0.87l0,0C227.23,340.98,227.09,340.69,226.95,340.39z"/>
	
		<linearGradient id="SVGID_00000027606007231476643660000000940092861284026811_" gradientUnits="userSpaceOnUse" x1="179.0883" y1="344.6484" x2="170.7394" y2="328.9625">
		<stop  offset="0" style="stop-color:#DE7656"/>
		<stop  offset="1" style="stop-color:#FEB692"/>
	</linearGradient>
	<path style="fill:url(#SVGID_00000027606007231476643660000000940092861284026811_);" d="M172.68,337.85
		c2.27,0.96,13.77,5.4,11.39,3.58c-2.28-1.74-14.92-7.8-16.76-10.33c-1.56,0.2-2.26,0.76-1.11,1.92
		C168.89,335.71,172.68,337.85,172.68,337.85z"/>
	
		<linearGradient id="SVGID_00000109016083881980468450000006281654772784934795_" gradientUnits="userSpaceOnUse" x1="181.2964" y1="351.8712" x2="172.5351" y2="335.4106">
		<stop  offset="0" style="stop-color:#DE7656"/>
		<stop  offset="1" style="stop-color:#FEB692"/>
	</linearGradient>
	<path style="fill:url(#SVGID_00000109016083881980468450000006281654772784934795_);" d="M186.26,348.12
		c-2.62-1.81-14.81-6.75-17.56-9.5c-0.26-0.26-0.5-0.5-0.71-0.72c-0.98,0.27-1.4,0.86-0.21,2.04c3.12,3.12,12.3,6.7,12.3,6.7
		C184.14,348,188.89,349.94,186.26,348.12z"/>
</g>
<linearGradient id="SVGID_00000171000827047255436500000008638594809643528892_" gradientUnits="userSpaceOnUse" x1="345.4958" y1="407.2486" x2="290.8291" y2="277.2486">
	<stop  offset="0" style="stop-color:#ED573C"/>
	<stop  offset="1" style="stop-color:#F8A48C"/>
</linearGradient>
<path style="fill:url(#SVGID_00000171000827047255436500000008638594809643528892_);" d="M242.95,348.92
	c-5.06,5.06-15.19,24.78-6.94,33.02c1.42,1.42,86.38,56.71,97.42,53.86c11.04-2.85,75.5-74.07,75.5-103.99s-24.36-46.14-28.56-46.14
	s-46.93,89.94-51.92,89.94S242.95,348.92,242.95,348.92z"/>
<linearGradient id="SVGID_00000142887069048861141480000009297014903262709158_" gradientUnits="userSpaceOnUse" x1="344.2408" y1="409.2646" x2="293.0316" y2="287.4866">
	<stop  offset="0" style="stop-color:#ED573C"/>
	<stop  offset="1" style="stop-color:#F8A48C"/>
</linearGradient>
<path style="opacity:0.45;fill:url(#SVGID_00000142887069048861141480000009297014903262709158_);" d="M364.7,332.66
	c-10.31,1.57-4.56,32.34-13.06,28.97s-14.5,19.61-18,19.61s6,14.26,8.5,23.26s-8.9,12.9-15.5,6.31c-6.6-6.6-14.5,0.69-20-10.98
	c-5.5-11.67-26-0.83-33-12.83s-14,1-25.5-10.5c-5.65-5.65-9.46-11.47-12.72-14.83c-2.85,7.27-4.06,15.6,0.6,20.27
	c1.42,1.42,86.38,56.71,97.42,53.86c11.04-2.85,75.5-74.07,75.5-103.99c0-0.22-0.01-0.44-0.02-0.66
	c-9.91-11.03-20.35-20.73-25.82-28.01C364.04,277.78,375,331.09,364.7,332.66z"/>
<linearGradient id="SVGID_00000139973839457002699950000015566330461044853695_" gradientUnits="userSpaceOnUse" x1="466.8025" y1="500.7758" x2="394.8061" y2="274.2871">
	<stop  offset="0" style="stop-color:#FFEBC0"/>
	<stop  offset="1" style="stop-color:#FFFFFF"/>
</linearGradient>
<path style="fill:url(#SVGID_00000139973839457002699950000015566330461044853695_);" d="M408.93,274.94
	c21.27-7.17,86.83-8.53,102.86,22.45s-26.85,106.22,4.96,222.49c13.32,48.68-0.68,19.2-46.62,29.89
	c-45.94,10.68-106.84,3.21-106.84-33.12s18.16-125.71,11.75-147.79S378.12,285.33,408.93,274.94z"/>
<linearGradient id="SVGID_00000027562131534994413850000015630259569773459886_" gradientUnits="userSpaceOnUse" x1="402.0523" y1="309.3321" x2="361.3856" y2="179.3321">
	<stop  offset="0" style="stop-color:#FFEBC0"/>
	<stop  offset="1" style="stop-color:#FFFFFF"/>
</linearGradient>
<path style="fill:url(#SVGID_00000027562131534994413850000015630259569773459886_);" d="M470.12,549.76
	c7.5-1.74,14.15-2.41,19.97-2.53c5.96-18.9,11.89-47.9,16.98-76.56c-7.1-58.94,3.4-104.54,7.17-136.22
	c-5.56-21.25-12.39-41.98-13.9-45.3c-0.63-1.4-3.26-4.57-6.93-8.64c-26.11-13.15-68.23-11.06-84.48-5.58
	c-30.81,10.39-40.31,71.83-33.9,93.91c6.41,22.08-11.75,111.47-11.75,147.79c0,18.29,15.45,29.27,36.65,34.29l0,0
	c0-2.34-17.71-18.39-15.33-27.28c1.18-4.41,4.91-18.87,6.89-46.12c2.02-27.79,2.31-68.29,5.53-65.07
	c6.37,6.37,34.29,40.38,41.74,32.93c7.46-7.46,23.79-23.69,23.79-23.69s-57.72-36.87-57.72-55.27s-0.18-46.22,1.88-57.72
	s1.03-23.07,6.3-28.34c5.27-5.27,14.81-8.4,14.81-5.71s-8.32,13-6.91,20.14c1.41,7.14,10.39,12.27,15.62,11.64
	c5.23-0.63,33.36-42.66,35.89-27.15s-4.51,135.08-4.51,153.41c0,18.33-3.9,106.28-0.85,111.67c0.68,1.21,0.78,3.37,0.71,5.92
	C468.56,550.12,469.34,549.94,470.12,549.76z"/>
<linearGradient id="SVGID_00000061434459518093534770000008786073897374036893_" gradientUnits="userSpaceOnUse" x1="534.7199" y1="481.6624" x2="433.2199" y2="326.6624">
	<stop  offset="0" style="stop-color:#ED573C"/>
	<stop  offset="1" style="stop-color:#F8A48C"/>
</linearGradient>
<path style="fill:url(#SVGID_00000061434459518093534770000008786073897374036893_);" d="M474.36,274.94
	c-7.48,13.82-22.19,39.78-18.13,86.01c4.06,46.23-1.42,151.77,4.27,175.28s59.83,56.62,66.24,36.5c3.99-12.53-6.45-82.5-9.95-156.92
	c-2.11-45.04,14.46-107.09,6.55-121.91C511,270.8,474.36,274.94,474.36,274.94z"/>
<linearGradient id="SVGID_00000103248812691805908520000005460545088436057789_" gradientUnits="userSpaceOnUse" x1="457.0234" y1="282.2222" x2="535.4713" y2="574.5132">
	<stop  offset="0" style="stop-color:#ED573C"/>
	<stop  offset="1" style="stop-color:#F8A48C"/>
</linearGradient>
<path style="opacity:0.45;fill:url(#SVGID_00000103248812691805908520000005460545088436057789_);" d="M495.34,554.23
	c-8.66,6.29-23.85-5.87-31.64-10.51c13.14,22.26,57.29,47.06,63.04,29.01c3.99-12.53-6.45-82.5-9.95-156.92
	c-2.11-45.04,14.46-107.09,6.55-121.91c-8.09-15.16-26.65-18.59-38.46-19.16c-4.64,7.13-7.34,14.14-11.93,22.64
	c-8.98,16.66,37.5-12.89,39.21,10.59c1.71,23.48-16.43,59.98-25.05,68.6c-5.17,5.17-20.08,21.11-29.28,33.04
	c0.02,3.6,0.03,7.25,0.03,10.93c14.98-10.91,46.4-45.71,46.4-36.64c0,10.72-18.59,42.35-8.93,52c9.65,9.65,17.94,27.23,8.93,27.23
	c-9.01,0-11.26-13.62-5.62,6.59s20.83,61.04,5.62,67.13S508.2,544.9,495.34,554.23z"/>
<linearGradient id="SVGID_00000168802704206910676260000012766099915634223526_" gradientUnits="userSpaceOnUse" x1="414.4852" y1="458.0685" x2="313.4852" y2="286.5685">
	<stop  offset="0" style="stop-color:#ED573C"/>
	<stop  offset="1" style="stop-color:#F8A48C"/>
</linearGradient>
<path style="fill:url(#SVGID_00000168802704206910676260000012766099915634223526_);" d="M420.22,273.32
	c-15.27,8.4-25.6,53.86-25.6,78.79s-15.31,143.52-15.31,168.45s-17.5,48.08-21.39,37.75s2.87-79.06,5.37-101.49
	s6.05-142.09,11.4-159.9c5.34-17.81,16.38-23.08,24.22-24.93C406.73,270.13,424.64,270.89,420.22,273.32z"/>
<linearGradient id="SVGID_00000013165859934782941420000013673105826652898179_" gradientUnits="userSpaceOnUse" x1="413.1783" y1="533.2102" x2="373.7187" y2="338.1039">
	<stop  offset="0" style="stop-color:#ED573C"/>
	<stop  offset="1" style="stop-color:#F8A48C"/>
</linearGradient>
<path style="opacity:0.45;fill:url(#SVGID_00000013165859934782941420000013673105826652898179_);" d="M420.22,273.32
	c3.59-1.98-7.62-2.85-16.13-2.1c-8.31,7.99-9.21,25.33-10.34,35.22c-1.5,13.15-3.45,23.6-8.06,28.21
	c-4.61,4.61-8.18,14.29-8.18,27.49c0,13.21,5.71,19.51,2.71,31.16c-3.01,11.66,0,7.14,4.14,7.14c4.14,0-2.26,31.96-6.33,45.87
	c-4.07,13.91-1.76,53.2-8.71,60.16c-6.96,6.96,4.51,9.78,4.51,16.17c0,5.12-5.57,13.14-17.06,19.02c-0.11,8.03,0.2,14.1,1.16,16.63
	c3.89,10.33,21.39-12.82,21.39-37.75s15.31-143.52,15.31-168.45C394.62,327.18,404.95,281.72,420.22,273.32z"/>
<linearGradient id="SVGID_00000099663675839886110680000012800367420337408908_" gradientUnits="userSpaceOnUse" x1="487.4096" y1="346.2017" x2="425.743" y2="288.535">
	<stop  offset="0" style="stop-color:#ED573C"/>
	<stop  offset="1" style="stop-color:#F8A48C"/>
</linearGradient>
<path style="fill:url(#SVGID_00000099663675839886110680000012800367420337408908_);" d="M395.39,339.75
	c2.93-5.82,11.72-54.42,32.44-65.1c20.72-10.68,37.04-4.72,38.77,6.73s-7.53,20.33-9.87,37.66c-2.35,17.32-3.37,36.45,1.44,27.69
	c4.81-8.76,16.03-34.16,16.03-35.88s-1.87-4.4-1.87-4.4s23.13-27.13,17.36-38.72c-5.77-11.6-57.88-16.23-68.77-5.34
	c-10.89,10.89-16.24,27.51-17.41,30.98c0,0-5.12,0.9-5.12,5.12S391.55,347.37,395.39,339.75z"/>
<linearGradient id="SVGID_00000049931613891088989290000007609147614314647705_" gradientUnits="userSpaceOnUse" x1="432.2665" y1="264.2273" x2="452.3272" y2="345.0692">
	<stop  offset="0" style="stop-color:#ED573C"/>
	<stop  offset="1" style="stop-color:#F8A48C"/>
</linearGradient>
<path style="opacity:0.45;fill:url(#SVGID_00000049931613891088989290000007609147614314647705_);" d="M489.68,267.71
	c-2.61-5.25-14.72-9.07-28.2-10.67c-14.55,3.02-30.3,10.94-39.35,15.46c-14.5,7.25-11.62,20.15-15.2,23.73
	c-3.29,3.29-11.64,38.55-12.6,43.84c0.16,0.79,0.49,0.78,1.04-0.31c2.93-5.82,11.72-54.42,32.44-65.1
	c18.46-9.51,33.42-5.81,37.69,3.2c0.28,0.05,0.55,0.1,0.81,0.16c11.69,2.5,3.06,25.5,0.35,32s-10.04,34-10.04,34
	s2.07-1.67,5.44-5.05c5.29-11.02,12.11-26.77,12.11-28.12c0-1.73-1.87-4.4-1.87-4.4s13.91-16.32,17.46-29.06
	c0.09-0.55,0.22-1.06,0.38-1.54C490.82,272.76,490.79,269.94,489.68,267.71z"/>
<linearGradient id="SVGID_00000037683839591841002890000008526131788800991908_" gradientUnits="userSpaceOnUse" x1="458.5552" y1="289.7722" x2="417.9467" y2="273.2279">
	<stop  offset="0" style="stop-color:#DE7656"/>
	<stop  offset="1" style="stop-color:#FEB692"/>
</linearGradient>
<path style="fill:url(#SVGID_00000037683839591841002890000008526131788800991908_);" d="M466.56,266.64
	c-1.73,13.26,2.49,16.74-2.14,24.57c-4.63,7.83-23.86,18.52-32.05,14.24c-8.19-4.27-9.79-8.99-6.77-18.92s3.56-30.22,3.56-30.22
	L466.56,266.64z"/>
<linearGradient id="SVGID_00000137837838422042736960000012189950525382756543_" gradientUnits="userSpaceOnUse" x1="442.2886" y1="284.1747" x2="466.6755" y2="284.1747">
	<stop  offset="0" style="stop-color:#DE7656"/>
	<stop  offset="1" style="stop-color:#FEB692"/>
</linearGradient>
<path style="opacity:0.47;fill:url(#SVGID_00000137837838422042736960000012189950525382756543_);" d="M466.56,266.64l-10.84-2.99
	c-5.66,6.92-11.09,15.93-12.89,17.73c-3.72,3.72,12.7,0.44,12.7,3.41s-0.96,10.77-10.1,19.91c7.88-2.85,16.16-8.7,18.99-13.49
	C469.05,283.38,464.83,279.9,466.56,266.64z"/>
<linearGradient id="SVGID_00000030481853116459892430000006085735166308273562_" gradientUnits="userSpaceOnUse" x1="412.0164" y1="225.2252" x2="266.8784" y2="176.3446">
	<stop  offset="0" style="stop-color:#DE7656"/>
	<stop  offset="1" style="stop-color:#FEB692"/>
</linearGradient>
<path style="fill:url(#SVGID_00000030481853116459892430000006085735166308273562_);" d="M392.41,217.75
	c3.03-17.09,14.08-18.32,19.08-4.27c4.06,11.4-0.26,24.93-10.15,25.82C391.45,240.18,391.11,225.1,392.41,217.75z"/>
<linearGradient id="SVGID_00000021821017439944443820000003010549747026958004_" gradientUnits="userSpaceOnUse" x1="412.3748" y1="208.3887" x2="371.3903" y2="178.6843">
	<stop  offset="0" style="stop-color:#072338"/>
	<stop  offset="1" style="stop-color:#002661"/>
</linearGradient>
<path style="fill:url(#SVGID_00000021821017439944443820000003010549747026958004_);" d="M407,182.15
	c-10.06,2.88-11.5,23.12-9.98,33.84s0.2,8.27,8.1-2.07C413.01,203.58,417.53,179.14,407,182.15z"/>
<linearGradient id="SVGID_00000155132707604909869950000008195913211470643841_" gradientUnits="userSpaceOnUse" x1="493.1048" y1="236.8981" x2="347.9669" y2="188.0174">
	<stop  offset="0" style="stop-color:#DE7656"/>
	<stop  offset="1" style="stop-color:#FEB692"/>
</linearGradient>
<path style="fill:url(#SVGID_00000155132707604909869950000008195913211470643841_);" d="M434.16,160.32
	c-32.57,6.62-40.38,65.93-36.05,83.6s22.44,36.54,34.71,40.25c12.27,3.71,34.88-9.55,48.43-32.24S511.45,144.61,434.16,160.32z"/>
<linearGradient id="SVGID_00000078029000389720898150000013149548737551031472_" gradientUnits="userSpaceOnUse" x1="483.1593" y1="233.5536" x2="-113.6071" y2="32.5701">
	<stop  offset="0" style="stop-color:#DE7656"/>
	<stop  offset="1" style="stop-color:#FEB692"/>
</linearGradient>
<path style="opacity:0.47;fill:url(#SVGID_00000078029000389720898150000013149548737551031472_);" d="M468.08,160.9
	c-12.75,5.04-26.6,12.07-39.65,14.04c-7.57,1.14-13.35,2.33-17.6,3.6c-2.29,3.7-4.26,7.76-5.94,12.01
	c2.38,2.03,5.83,4.24,10.08,6.67c18.39,10.52,37.99,2.82,46.73-1.41c8.74-4.23,8.74,5.64,11.44,12.39
	c2.69,6.75,5.48,20.04,5.48,26.25c0,6.2-3.67,18.61-21.43,33.56c-13.27,11.17-26.08,10.68-38.05,7.84
	c4.72,4.08,9.54,7.07,13.68,8.32c12.27,3.71,34.88-9.55,48.43-32.24C492.3,233.44,505.38,173.87,468.08,160.9z"/>
<linearGradient id="SVGID_00000119822603160281091290000015114178749531987596_" gradientUnits="userSpaceOnUse" x1="443.4904" y1="362.5069" x2="430.4904" y2="281.5069">
	<stop  offset="0" style="stop-color:#DE7656"/>
	<stop  offset="1" style="stop-color:#FEB692"/>
</linearGradient>
<path style="fill:url(#SVGID_00000119822603160281091290000015114178749531987596_);" d="M506.42,297.97
	c27.23,13.06-48.59,128.93-73.16,128.93s-78.92-90.64-71.8-100.11c7.12-9.47,10.38-10.29,10.38-10.29l59.61,56.46
	C431.45,372.95,489.06,289.65,506.42,297.97z"/>
<linearGradient id="SVGID_00000120518545811937907460000016473853187731409282_" gradientUnits="userSpaceOnUse" x1="364.6968" y1="360.3525" x2="527.0201" y2="360.3525">
	<stop  offset="0" style="stop-color:#ED573C"/>
	<stop  offset="1" style="stop-color:#F8A48C"/>
</linearGradient>
<path style="fill:url(#SVGID_00000120518545811937907460000016473853187731409282_);" d="M381.9,322
	c-7.58,7.58-16.8,19.97-17.2,26.92c-0.4,6.94,50.51,87,68.56,87s89.17-96.7,92.42-113.45c8.34-43-24.48-41.96-34.48-31.96
	c-6.65,6.65-62.03,76.72-62.03,76.72L381.9,322z"/>
<linearGradient id="SVGID_00000058550435523123541620000016985857113057712545_" gradientUnits="userSpaceOnUse" x1="94.21" y1="633.28" x2="1075.79" y2="633.28">
	<stop  offset="0" style="stop-color:#52E5E7"/>
	<stop  offset="1" style="stop-color:#3AC7AB"/>
</linearGradient>
<line style="fill:url(#SVGID_00000058550435523123541620000016985857113057712545_);" x1="1075.79" y1="633.28" x2="94.21" y2="633.28"/>
<linearGradient id="SVGID_00000107564760685262510110000010235293205841560730_" gradientUnits="userSpaceOnUse" x1="469.0508" y1="215.4991" x2="419.9821" y2="143.3061">
	<stop  offset="0" style="stop-color:#072338"/>
	<stop  offset="1" style="stop-color:#002661"/>
</linearGradient>
<path style="fill:url(#SVGID_00000107564760685262510110000010235293205841560730_);" d="M500.55,182.83
	c-5.07-7.75-11.22-7.75-11.22-7.75s2.49-11.65-2.57-16.7c-11.87-11.87-37.49-27.9-62.6-14.55c-25.11,13.35-41.79,13.89-39.33,29.38
	c2.47,15.49,46.81,32.05,67.1,21.9c15-7.5,21.25-9.45,23.49-7.38h0c1.89,8.5-11.38,51.74,0,45.54c2.82-1.54,5.06-3.7,6.8-6.24
	c1.88,13.21,10.56,17.13,16.72-0.41C505.9,206.87,505.63,190.58,500.55,182.83z"/>
<linearGradient id="SVGID_00000066478465901610146350000009379323170195794601_" gradientUnits="userSpaceOnUse" x1="449.857" y1="223.3197" x2="435.4964" y2="118.1635">
	<stop  offset="0" style="stop-color:#072338"/>
	<stop  offset="1" style="stop-color:#002661"/>
</linearGradient>
<path style="opacity:0.39;fill:url(#SVGID_00000066478465901610146350000009379323170195794601_);" d="M491.59,198.06
	c-9.75,1.73-10.92-7.06-6.82-15.97c1.78-3.87,5.56-5.13,8.81-5.77c-2.45-1.22-4.24-1.23-4.24-1.23s1.5-7.04-0.21-12.55
	c-3.23,4.15-10.99,14.16-37.13,19.55c-31.15,6.42-53.99-2.37-66.98-15.04c-0.48,1.77-0.56,3.79-0.18,6.17
	c2.47,15.49,46.81,32.05,67.1,21.9c15-7.5,21.25-9.45,23.49-7.38h0c1.89,8.5-11.38,51.74,0,45.54c2.82-1.54,5.06-3.7,6.8-6.24
	c1.88,13.21,10.56,17.13,16.72-0.41c5.57-15.86,6.49-29.46,4.02-38.23C499.94,192.47,495.97,197.28,491.59,198.06z"/>
<linearGradient id="SVGID_00000096021770888181123030000002930496075551107504_" gradientUnits="userSpaceOnUse" x1="494.3414" y1="233.2262" x2="349.2035" y2="184.3456">
	<stop  offset="0" style="stop-color:#DE7656"/>
	<stop  offset="1" style="stop-color:#FEB692"/>
</linearGradient>
<path style="fill:url(#SVGID_00000096021770888181123030000002930496075551107504_);" d="M474.74,225.75
	c3.03-17.09,14.08-18.32,19.08-4.27c4.06,11.4-0.26,24.93-10.15,25.82S473.44,233.1,474.74,225.75z"/>
<linearGradient id="SVGID_00000053522469756125487050000008414205157483686824_" gradientUnits="userSpaceOnUse" x1="342.4886" y1="278.2965" x2="354.4886" y2="328.9632">
	<stop  offset="0" style="stop-color:#0F4D7A"/>
	<stop  offset="1" style="stop-color:#002661"/>
</linearGradient>
<path style="fill:url(#SVGID_00000053522469756125487050000008414205157483686824_);" d="M312.62,304c0,0,42.84-35.5,45.5-36.47
	c5.47-2,24.25,15.6,23.68,26.97l-44.06,41.12L312.62,304z"/>
<linearGradient id="SVGID_00000087377753693158201040000016921092809911714688_" gradientUnits="userSpaceOnUse" x1="336.5043" y1="369.4902" x2="327.171" y2="331.4902">
	<stop  offset="0" style="stop-color:#0F4D7A"/>
	<stop  offset="1" style="stop-color:#002661"/>
</linearGradient>
<path style="fill:url(#SVGID_00000087377753693158201040000016921092809911714688_);" d="M312.62,304
	c-3.25,3.25-1.56,12.38,8.28,23.25c9.84,10.88,15.22,10,16.84,8.37s-0.25-8.37-8.13-18.75S314.07,302.56,312.62,304z"/>
<g>
	<path class="st12" d="M278,448.5c-0.14,0-0.28-0.02-0.43-0.06c-0.79-0.23-1.25-1.07-1.01-1.86l0.8-2.71
		c9.35-31.69,31.25-105.9,46.19-120.84c0.59-0.59,1.54-0.59,2.12,0c0.59,0.59,0.59,1.54,0,2.12c-14.4,14.4-36.15,88.1-45.44,119.57
		l-0.8,2.71C279.25,448.08,278.65,448.5,278,448.5z"/>
</g>
<linearGradient id="SVGID_00000035519075065047807630000009312837938723618229_" gradientUnits="userSpaceOnUse" x1="363.6224" y1="374.5847" x2="350.8434" y2="294.9616">
	<stop  offset="0" style="stop-color:#DE7656"/>
	<stop  offset="1" style="stop-color:#FEB692"/>
</linearGradient>
<path style="fill:url(#SVGID_00000035519075065047807630000009312837938723618229_);" d="M360.82,331.81
	c-3.7-1.16-8.52-3.38-11.54-11.93c-3.03-8.55,0.53-11.04-6.41-15.85c-6.94-4.81-12.61-7.73-17.06-7.73s-5.68-5.7,2.33-5.7
	c0,0-6.37-2.63-4.06-4.94c2.3-2.3,6.87-2.55,6.87-2.55s-2.72-1.33-0.8-3.25s8.1-1.48,8.1-1.48s-3.16-1.19,0.4-2.89
	s19.06-0.82,24.65,7.63c5.58,8.44,7.54,14.26,7.54,14.26s4.1-18.14,6.59-12.6c2.49,5.54-3.6,32.29-2.16,34.94
	C376.7,322.38,365.95,333.42,360.82,331.81z"/>
<g class="st17">
	
		<linearGradient id="SVGID_00000124142063152656095090000011512280693297136544_" gradientUnits="userSpaceOnUse" x1="336.95" y1="277.7304" x2="351.6033" y2="277.7304">
		<stop  offset="0" style="stop-color:#DE7656"/>
		<stop  offset="1" style="stop-color:#FEB692"/>
	</linearGradient>
	<path style="fill:url(#SVGID_00000124142063152656095090000011512280693297136544_);" d="M337.24,276.45c-1.03,1.18,1,1.95,1,1.95
		c2.33,0.03,11.84,1.11,13.26,0.36C352.92,278,339.35,276.58,337.24,276.45z"/>
	
		<linearGradient id="SVGID_00000002367564834377883310000004866020111768168846_" gradientUnits="userSpaceOnUse" x1="335.1196" y1="278.3773" x2="338.2391" y2="278.3773">
		<stop  offset="0" style="stop-color:#DE7656"/>
		<stop  offset="1" style="stop-color:#FEB692"/>
	</linearGradient>
	<path style="fill:url(#SVGID_00000002367564834377883310000004866020111768168846_);" d="M335.12,278.4
		c1.27-0.03,2.4-0.02,3.12-0.01C338.24,278.39,336.81,278.3,335.12,278.4z"/>
	
		<linearGradient id="SVGID_00000047761652069756492860000012000597486473759157_" gradientUnits="userSpaceOnUse" x1="323.785" y1="289.0122" x2="349.2254" y2="289.0122">
		<stop  offset="0" style="stop-color:#DE7656"/>
		<stop  offset="1" style="stop-color:#FEB692"/>
	</linearGradient>
	<path style="fill:url(#SVGID_00000047761652069756492860000012000597486473759157_);" d="M345.39,288.92
		c-5.04-1.77-17.35-0.91-21.6-1.42c0.65,1.23,2.68,2.33,3.72,2.83c3.84,0.32,14.91-0.07,18.66,0.09
		C349.92,290.58,350.83,290.83,345.39,288.92z"/>
	
		<linearGradient id="SVGID_00000072243417709288134510000008040523649204352679_" gradientUnits="userSpaceOnUse" x1="329.4589" y1="282.4191" x2="347.4996" y2="282.4191">
		<stop  offset="0" style="stop-color:#DE7656"/>
		<stop  offset="1" style="stop-color:#FEB692"/>
	</linearGradient>
	<path style="fill:url(#SVGID_00000072243417709288134510000008040523649204352679_);" d="M347.22,283.13
		c2.06-1.54-7.89-1.71-12.64-1.71c-2.01,0-3.81-0.14-5.11-0.38c-0.19,1.27,1.46,2.09,1.46,2.09
		C334.63,283.09,345.17,284.67,347.22,283.13z"/>
</g>
<linearGradient id="SVGID_00000145048150135765493350000004674001628466153112_" gradientUnits="userSpaceOnUse" x1="661.7411" y1="501.5161" x2="673.2411" y2="329.0161">
	<stop  offset="0" style="stop-color:#072338"/>
	<stop  offset="1" style="stop-color:#002661"/>
</linearGradient>
<path style="fill:url(#SVGID_00000145048150135765493350000004674001628466153112_);" d="M768.11,394.49
	c-5.95,19.32,37.77,37.91,0,84.31c-37.77,46.41-3.82,46.29-40.98,84.36c-37.16,38.07-16.01,43.58-49.62,57.62
	C643.91,634.82,567.01,631,567.01,631s-48.94-17.95-21.84-45.72c27.1-27.77,1.9-44.57,23.74-77.79
	c21.84-33.22,55.08-31.46,64.57-50.83c9.5-19.36-14.04-90.39,15.29-104.98s31.24-57.77,73.49-39.1
	C764.53,331.25,777.4,364.33,768.11,394.49z"/>
<linearGradient id="SVGID_00000140726216107009693180000014544943814575572373_" gradientUnits="userSpaceOnUse" x1="678.3578" y1="562.2239" x2="627.9878" y2="193.3859">
	<stop  offset="0" style="stop-color:#072338"/>
	<stop  offset="1" style="stop-color:#002661"/>
</linearGradient>
<path style="opacity:0.39;fill:url(#SVGID_00000140726216107009693180000014544943814575572373_);" d="M574,620.25
	c-7.33-14.58,1.01-7.98,16.84-37.95c15.83-29.97-6.17-40.64,10.5-57.3c16.67-16.67,63.31-50.85,58.99-74.42
	c-4.32-23.58-3.65-48.59,7.11-76.24c0,0,4.29,31.5,23.9,11.89c19.61-19.61,35-55.33,38.89-59.22c3.89-3.89,40.06,18.35,35.78,54.24
	s7.33,35.57,7.33,54.67c0,19.09-4.67,50.62-15.33,91.86s-9.64,88.56-52.81,101.82C662.02,642.85,574,620.25,574,620.25z"/>
<linearGradient id="SVGID_00000109717678656899255230000006904702820337681031_" gradientUnits="userSpaceOnUse" x1="796.9976" y1="462.5926" x2="824.7476" y2="575.3426">
	<stop  offset="0" style="stop-color:#FFA85D"/>
	<stop  offset="1" style="stop-color:#FF906E"/>
</linearGradient>
<path style="fill:url(#SVGID_00000109717678656899255230000006904702820337681031_);" d="M749.9,452.26
	c-27.21,3.96,48.53,124.1,70.91,124.1c22.38,0,36.99-100.06,30.5-108.69c-6.49-8.63-9.61-7.3-9.61-7.3l-29.87,64.3
	C811.83,524.67,777.95,448.18,749.9,452.26z"/>
<linearGradient id="SVGID_00000117635459089826374010000015699208156463604367_" gradientUnits="userSpaceOnUse" x1="797.0156" y1="512.438" x2="811.8273" y2="512.438">
	<stop  offset="0" style="stop-color:#DE7656"/>
	<stop  offset="1" style="stop-color:#FEB692"/>
</linearGradient>
<path style="opacity:0.47;fill:url(#SVGID_00000117635459089826374010000015699208156463604367_);" d="M808.75,528.75l3.08-4.08
	c0,0-5.9-13.32-14.81-28.54L808.75,528.75z"/>
<linearGradient id="SVGID_00000183206648949917884720000015606870906728221368_" gradientUnits="userSpaceOnUse" x1="752.3517" y1="520.5634" x2="852.8619" y2="520.5634">
	<stop  offset="0" style="stop-color:#DE7656"/>
	<stop  offset="1" style="stop-color:#FEB692"/>
</linearGradient>
<path style="opacity:0.47;fill:url(#SVGID_00000183206648949917884720000015606870906728221368_);" d="M820.82,576.35
	c22.38,0,36.99-100.06,30.5-108.69c-0.01-0.01-0.02-0.02-0.03-0.04l-1.41,3.41c0,0-0.12,9.71-4.37,35.57s-26.36,53.75-32.43,54.78
	c-6.07,1.03-11.57-5.89-14.6-26.39c-3.03-20.5-21.45-55.81-31.91-70.23c0,0-8.73,14.07-14.21,23.94
	C769,525.35,806.23,576.35,820.82,576.35z"/>
<linearGradient id="SVGID_00000052818974512815714590000012915635431248988314_" gradientUnits="userSpaceOnUse" x1="748.8389" y1="455.6853" x2="764.5323" y2="455.6853">
	<stop  offset="0" style="stop-color:#DE7656"/>
	<stop  offset="1" style="stop-color:#FEB692"/>
</linearGradient>
<path style="opacity:0.47;fill:url(#SVGID_00000052818974512815714590000012915635431248988314_);" d="M757.5,458.13
	c1.31-0.72,4.01-1.39,7.03-1.73c-4.91-3.2-9.86-4.84-14.63-4.15C745.81,461.01,754.66,459.7,757.5,458.13z"/>
<linearGradient id="SVGID_00000155127105878824207860000011966962652368848556_" gradientUnits="userSpaceOnUse" x1="875.2422" y1="443.3351" x2="902.9922" y2="556.0851" gradientTransform="matrix(-0.7001 0.1312 0.1375 0.7336 1404.4261 19.3549)">
	<stop  offset="0" style="stop-color:#FFA85D"/>
	<stop  offset="1" style="stop-color:#FF906E"/>
</linearGradient>
<path style="fill:url(#SVGID_00000155127105878824207860000011966962652368848556_);" d="M851.83,470.75
	c2.43-1.33,5.5-3.6,6.44-10.27c0.94-6.67-1.89-8.03,2.31-12.47s7.77-7.32,10.88-7.91c3.12-0.58,3.19-4.93-2.41-3.87
	c0,0,4.09-2.77,2.16-4.16c-1.93-1.39-5.16-0.97-5.16-0.97s1.72-1.33,0.11-2.49c-1.61-1.16-5.88-0.02-5.88-0.02s2.05-1.29-0.68-2.07
	c-2.73-0.78-13.46,1.9-16.2,8.83c-2.75,6.93-3.32,11.45-3.32,11.45s-5.36-12.77-6.35-8.38c-0.98,4.39,6.96,23.22,6.32,25.35
	C839.41,465.91,848.45,472.6,851.83,470.75z"/>
<linearGradient id="SVGID_00000183960353647137790330000018331911938374494888_" gradientUnits="userSpaceOnUse" x1="871.6821" y1="488.7652" x2="862.9755" y2="434.516" gradientTransform="matrix(-0.7001 0.1312 0.1375 0.7336 1404.4261 19.3549)">
	<stop  offset="0" style="stop-color:#DE7656"/>
	<stop  offset="1" style="stop-color:#FEB692"/>
</linearGradient>
<path style="opacity:0.47;fill:url(#SVGID_00000183960353647137790330000018331911938374494888_);" d="M851.08,469.26
	c2.69-2.4,2.67-10.25,3.45-19.61c0.61-7.32,9.38-8.31,15.98-9.3c-2.89,0.93-6.15,3.66-9.94,7.66c-4.2,4.44-1.36,5.8-2.31,12.47
	c-0.94,6.67-4.01,8.93-6.44,10.27c-0.53,0.29-1.2,0.37-1.96,0.29C850.21,470.29,850.61,469.67,851.08,469.26z"/>
<linearGradient id="SVGID_00000137093094347941769730000013149684399962237075_" gradientUnits="userSpaceOnUse" x1="825.3389" y1="425.4038" x2="835.9796" y2="470.3311" gradientTransform="matrix(-0.229 -0.9734 0.9734 -0.229 606.6478 1355.563)">
	<stop  offset="0" style="stop-color:#0F4D7A"/>
	<stop  offset="1" style="stop-color:#002661"/>
</linearGradient>
<path style="fill:url(#SVGID_00000137093094347941769730000013149684399962237075_);" d="M860.03,475.31
	c0,0-39.34-29.77-40.72-31.87c-2.84-4.32,8.54-24.1,18.47-25.92l44.44,29.68L860.03,475.31z"/>
<linearGradient id="SVGID_00000148662165085221548040000000528436099723713447_" gradientUnits="userSpaceOnUse" x1="820.0324" y1="506.2672" x2="811.7563" y2="472.5718" gradientTransform="matrix(-0.229 -0.9734 0.9734 -0.229 606.6478 1355.563)">
	<stop  offset="0" style="stop-color:#0F4D7A"/>
	<stop  offset="1" style="stop-color:#002661"/>
</linearGradient>
<path style="fill:url(#SVGID_00000148662165085221548040000000528436099723713447_);" d="M860.03,475.31
	c3.46,2.14,11-1.17,18.39-11.87c7.39-10.7,5.54-15.17,3.81-16.24c-1.73-1.07-7.17,1.92-14.53,10.82
	C860.33,466.92,858.49,474.36,860.03,475.31z"/>
<linearGradient id="SVGID_00000037664824960508885980000003678420647004319637_" gradientUnits="userSpaceOnUse" x1="726.1981" y1="589.3068" x2="695.4767" y2="364.3471">
	<stop  offset="0" style="stop-color:#FFEBC0"/>
	<stop  offset="1" style="stop-color:#FFFFFF"/>
</linearGradient>
<path style="fill:url(#SVGID_00000037664824960508885980000003678420647004319637_);" d="M795.52,623.79H654.07
	c34.43-41.29,2.02-124.16,13.37-146.1c14.59-28.22,62.43-29.43,82.47-25.43c20.95,4.18,51.2,65.26,43.18,84.6
	C778.35,572.42,791.03,587.95,795.52,623.79z"/>
<g>
	
		<linearGradient id="SVGID_00000025401640972233459860000004155581507477252517_" gradientUnits="userSpaceOnUse" x1="736.9061" y1="444.3181" x2="696.9745" y2="485.8095">
		<stop  offset="0" style="stop-color:#FFEBC0"/>
		<stop  offset="1" style="stop-color:#FFFFFF"/>
	</linearGradient>
	<path style="fill:url(#SVGID_00000025401640972233459860000004155581507477252517_);" d="M671.38,471.67
		c5.82,5.31,11.48,9.03,14.05,6.46c8.46-8.46,14.6-18.38,26.35-11.45s22.62,2.6,36.24-4.69c4.12-2.2,8.95-3.06,13.77-2.57
		c-4.08-3.84-8.13-6.42-11.89-7.17C731.4,448.57,689.23,449.34,671.38,471.67z"/>
	
		<linearGradient id="SVGID_00000142175537244156419960000002087452575020185228_" gradientUnits="userSpaceOnUse" x1="783.8984" y1="522.928" x2="684.1715" y2="626.5505">
		<stop  offset="0" style="stop-color:#FFEBC0"/>
		<stop  offset="1" style="stop-color:#FFFFFF"/>
	</linearGradient>
	<path style="fill:url(#SVGID_00000142175537244156419960000002087452575020185228_);" d="M793.09,536.86
		c2.72-6.56,1.03-17.93-3.2-30.25c1.71,14.57,1.02,27-9.19,30.57c-15.2,5.32-13.66-8.82-32.68,0C729,546,730.55,561,704.77,547.5
		c-14.94-7.82-28.16-15.35-36.64-17.22c3.41,31.86,5.84,69.63-14.07,93.51h141.45C791.03,587.95,778.35,572.42,793.09,536.86z"/>
</g>
<linearGradient id="SVGID_00000069396948967558537480000012723534582930586243_" gradientUnits="userSpaceOnUse" x1="752.5305" y1="536.0457" x2="688.7485" y2="602.3191">
	<stop  offset="0" style="stop-color:#FFA85D"/>
	<stop  offset="1" style="stop-color:#FF906E"/>
</linearGradient>
<path style="fill:url(#SVGID_00000069396948967558537480000012723534582930586243_);" d="M689.33,461.1
	c13.35,13.35,18.95,117.48,26.25,120.62s101.36,14.78,106.6,26.98c5.25,12.2,11.25,11.74-14.91,15.08
	c-26.16,3.35-112.72,4.45-123.39-9.51c-18.41-24.07-31.95-114.48-25.57-134.12C667.43,452.1,686.25,458.02,689.33,461.1z"/>
<linearGradient id="SVGID_00000134935809952178088320000001588858453406813847_" gradientUnits="userSpaceOnUse" x1="784.1644" y1="584.064" x2="728.1436" y2="642.2731">
	<stop  offset="0" style="stop-color:#DE7656"/>
	<stop  offset="1" style="stop-color:#FEB692"/>
</linearGradient>
<path style="opacity:0.47;fill:url(#SVGID_00000134935809952178088320000001588858453406813847_);" d="M813.14,602.76
	c-0.2,0.53-0.7,1.04-1.61,1.55c-6.52,3.61-91.47,3.83-122.53,5.71c-2.45,0.15-4.91,0.49-7.34,0.98c0.73,1.19,1.47,2.3,2.23,3.28
	c10.67,13.96,97.23,12.85,123.39,9.51c26.16-3.35,20.16-2.88,14.91-15.08C821.32,606.7,818.04,604.7,813.14,602.76z"/>
<linearGradient id="SVGID_00000156581270333504445240000016164833771865850788_" gradientUnits="userSpaceOnUse" x1="746.1358" y1="432.2125" x2="698.6358" y2="480.2125">
	<stop  offset="0" style="stop-color:#FFA85D"/>
	<stop  offset="1" style="stop-color:#FF906E"/>
</linearGradient>
<path style="fill:url(#SVGID_00000156581270333504445240000016164833771865850788_);" d="M705.29,439.33
	c1.58,12.07-2.27,15.24,1.95,22.38c4.22,7.14,21.73,16.86,29.19,12.97c7.46-3.89,8.91-8.19,6.16-17.23
	c-2.75-9.04-3.24-27.53-3.24-27.53L705.29,439.33z"/>
<linearGradient id="SVGID_00000081628091277723671880000002693529200425936023_" gradientUnits="userSpaceOnUse" x1="719.1053" y1="476.1661" x2="721.3165" y2="442.9977">
	<stop  offset="0" style="stop-color:#DE7656"/>
	<stop  offset="1" style="stop-color:#FEB692"/>
</linearGradient>
<path style="opacity:0.47;fill:url(#SVGID_00000081628091277723671880000002693529200425936023_);" d="M714.33,449.83
	c0,0-6.22-6.42-8.89-9.1c1.11,10.91-2.25,14.13,1.79,20.98c3.4,5.75,15.44,13.19,23.89,13.81c1.16-0.1,2.22-0.37,3.13-0.84
	c0.35-0.18,0.68-0.37,1-0.55c-6.08-2.07-15.55-4.42-18.26-7.13C712.08,462.08,711.17,453,714.33,449.83z"/>
<linearGradient id="SVGID_00000057116848754513316550000012795275585381406848_" gradientUnits="userSpaceOnUse" x1="759.684" y1="410.9179" x2="761.6646" y2="381.2077">
	<stop  offset="0" style="stop-color:#FFA85D"/>
	<stop  offset="1" style="stop-color:#FF906E"/>
</linearGradient>
<path style="fill:url(#SVGID_00000057116848754513316550000012795275585381406848_);" d="M756.5,386.22
	c2.18-5.85,8.18-10.08,9.67,0.18c1.49,10.26-1.33,25.1-6.5,23.1C754.5,407.5,753.94,393.09,756.5,386.22z"/>
<linearGradient id="SVGID_00000134954924233734931240000016979222663445493899_" gradientUnits="userSpaceOnUse" x1="759.684" y1="410.9179" x2="761.6646" y2="381.2077">
	<stop  offset="0" style="stop-color:#DE7656"/>
	<stop  offset="1" style="stop-color:#FEB692"/>
</linearGradient>
<path style="opacity:0.47;fill:url(#SVGID_00000134954924233734931240000016979222663445493899_);" d="M756.5,386.22
	c2.18-5.85,8.18-10.08,9.67,0.18c1.49,10.26-1.33,25.1-6.5,23.1C754.5,407.5,753.94,393.09,756.5,386.22z"/>
<linearGradient id="SVGID_00000024002134890109148640000002270447619520295839_" gradientUnits="userSpaceOnUse" x1="743.5168" y1="374.737" x2="664.5168" y2="436.237">
	<stop  offset="0" style="stop-color:#FFA85D"/>
	<stop  offset="1" style="stop-color:#FF906E"/>
</linearGradient>
<path style="fill:url(#SVGID_00000024002134890109148640000002270447619520295839_);" d="M728.89,340.99
	c29.66,6.03,36.77,60.04,32.83,76.14c-3.94,16.1-20.44,33.28-31.61,36.66s-31.76-8.7-44.11-29.36
	C673.65,403.76,658.5,326.68,728.89,340.99z"/>
<linearGradient id="SVGID_00000006676300976845353100000004959469174960123528_" gradientUnits="userSpaceOnUse" x1="702.3778" y1="457.6254" x2="709.7663" y2="346.7979">
	<stop  offset="0" style="stop-color:#DE7656"/>
	<stop  offset="1" style="stop-color:#FEB692"/>
</linearGradient>
<path style="opacity:0.47;fill:url(#SVGID_00000006676300976845353100000004959469174960123528_);" d="M694,414.75
	c-1.25-13,27.75-26,37.25-63c0,0,4.25-6.25,0.5-7.5c-2.94-0.98-37.57,23.88-55.5,48.4c1.68,13.11,5.85,25.25,9.74,31.77
	c12.34,20.66,32.93,32.74,44.11,29.36c0.99-0.3,2.01-0.71,3.07-1.21C712.51,450.41,695.19,427.14,694,414.75z"/>
<linearGradient id="SVGID_00000183232786201953960450000000479492504210988989_" gradientUnits="userSpaceOnUse" x1="702.358" y1="504.2239" x2="713.858" y2="331.7239">
	<stop  offset="0" style="stop-color:#072338"/>
	<stop  offset="1" style="stop-color:#002661"/>
</linearGradient>
<path style="fill:url(#SVGID_00000183232786201953960450000000479492504210988989_);" d="M731.82,349.41c0,0-5.47,27.95-32.71,47.38
	s2.02,52.51-18.12,41.49c-20.15-11.03-38.88-70.05,0-93.4s62.23-9.08,64.5-2.92s17.23,20.11,17.23,36.32
	C762.71,378.28,741.51,347.14,731.82,349.41z"/>
<linearGradient id="SVGID_00000142152713154678055500000003137472347898307251_" gradientUnits="userSpaceOnUse" x1="683.3126" y1="539.796" x2="717.152" y2="358.1911">
	<stop  offset="0" style="stop-color:#072338"/>
	<stop  offset="1" style="stop-color:#002661"/>
</linearGradient>
<path style="opacity:0.39;fill:url(#SVGID_00000142152713154678055500000003137472347898307251_);" d="M745.48,341.95
	c-1.14-3.09-7.6-8.23-18.67-9.62c-6.47,11.54-19.59,38-35.48,53.89c-19.61,19.61-23.9-11.89-23.9-11.89
	c-3.67,9.43-6.16,18.55-7.69,27.42c3.36,16.82,12.15,31.55,21.24,36.53c20.15,11.03-9.12-22.05,18.12-41.49
	c27.24-19.43,32.71-47.38,32.71-47.38c9.69-2.27,30.9,28.86,30.9,28.86C762.71,362.06,747.75,348.11,745.48,341.95z"/>
<linearGradient id="SVGID_00000133529438727988958120000016534993840833591185_" gradientUnits="userSpaceOnUse" x1="883.5352" y1="417.2733" x2="854.2018" y2="277.94">
	<stop  offset="0" style="stop-color:#0869FB"/>
	<stop  offset="1" style="stop-color:#89CEEA"/>
</linearGradient>
<path style="fill:url(#SVGID_00000133529438727988958120000016534993840833591185_);" d="M812.75,379.99
	c12.68-12.68-9.12-67.87,35.03-86.95c44.15-19.08,111.8-37.04,106.47,37.4c-4.7,65.65-135.92,67.7-166.83,67.27
	c-1.06-0.01-1.3-1.48-0.31-1.84C790.85,394.52,808.82,383.93,812.75,379.99z"/>
<linearGradient id="SVGID_00000149367364033147305460000017761898245577285804_" gradientUnits="userSpaceOnUse" x1="883.5352" y1="417.2733" x2="854.2018" y2="277.94">
	<stop  offset="0" style="stop-color:#0869FB"/>
	<stop  offset="1" style="stop-color:#89CEEA"/>
</linearGradient>
<path style="fill:url(#SVGID_00000149367364033147305460000017761898245577285804_);" d="M812.75,379.99
	c12.68-12.68-9.12-67.87,35.03-86.95c44.15-19.08,111.8-37.04,106.47,37.4c-4.7,65.65-135.92,67.7-166.83,67.27
	c-1.06-0.01-1.3-1.48-0.31-1.84C790.85,394.52,808.82,383.93,812.75,379.99z"/>
<g>
	
		<linearGradient id="SVGID_00000085230940232738768150000013804007630407891872_" gradientUnits="userSpaceOnUse" x1="190.668" y1="664.1326" x2="187.168" y2="536.6326">
		<stop  offset="0" style="stop-color:#ED573C"/>
		<stop  offset="1" style="stop-color:#F8A48C"/>
	</linearGradient>
	<path style="fill:url(#SVGID_00000085230940232738768150000013804007630407891872_);" d="M187.02,521.67
		c-23.39,0-42.98,7.17-48.25,16.81c2.97-0.3,5.94-0.53,8.92-0.72c5.47-5.27,21.25-9.08,39.87-9.08c20.26,0,37.17,4.51,41.08,10.51
		c2.35,0.06,4.7,0.11,7.05,0.14C231.14,529.25,211.08,521.67,187.02,521.67z"/>
	
		<linearGradient id="SVGID_00000113325498175354343580000003264546022527349945_" gradientUnits="userSpaceOnUse" x1="187.6293" y1="535.0922" x2="187.1293" y2="584.5922">
		<stop  offset="0" style="stop-color:#ED573C"/>
		<stop  offset="1" style="stop-color:#F8A48C"/>
	</linearGradient>
	
		<ellipse style="opacity:0.45;fill:url(#SVGID_00000113325498175354343580000003264546022527349945_);" cx="187.56" cy="541.84" rx="41.94" ry="13.16"/>
	
		<linearGradient id="SVGID_00000138533823843341953150000014230032077154456217_" gradientUnits="userSpaceOnUse" x1="187.7789" y1="539.8658" x2="184.5695" y2="580.1061">
		<stop  offset="0" style="stop-color:#ED573C"/>
		<stop  offset="1" style="stop-color:#F8A48C"/>
	</linearGradient>
	<path style="opacity:0.45;fill:url(#SVGID_00000138533823843341953150000014230032077154456217_);" d="M192.17,536.67
		c-6.33-4.1-18.11,2.36-24.67-0.17c-6.55-2.53-10.67,3.33-18,4.33c-1.81,0.25-3.1,0.84-3.82,1.67c1.11,6.96,19.44,12.49,41.88,12.49
		c23.16,0,41.94-5.89,41.94-13.16c0-0.03-0.01-0.05-0.01-0.08c-4.22-0.89-10.68-0.35-12.99-2.67
		C212.13,534.72,198.5,540.76,192.17,536.67z"/>
	<g>
		
			<linearGradient id="SVGID_00000004512230516937350440000013326064986103825046_" gradientUnits="userSpaceOnUse" x1="168.3961" y1="489.4887" x2="222.6175" y2="489.4887">
			<stop  offset="0" style="stop-color:#006076"/>
			<stop  offset="1" style="stop-color:#648D7F"/>
		</linearGradient>
		<path style="fill:url(#SVGID_00000004512230516937350440000013326064986103825046_);" d="M187.72,561.25
			c-12.4-18.8-41.96-154.25,11.83-144.87c53.79,9.38-3.2,83.45-4.44,124.45C194.6,557.88,191.66,567.22,187.72,561.25z"/>
		
			<linearGradient id="SVGID_00000054968282259544341070000015504415669731279533_" gradientUnits="userSpaceOnUse" x1="177.7825" y1="492.7392" x2="222.6054" y2="492.7392">
			<stop  offset="0" style="stop-color:#006076"/>
			<stop  offset="1" style="stop-color:#002661"/>
		</linearGradient>
		<path style="opacity:0.33;fill:url(#SVGID_00000054968282259544341070000015504415669731279533_);" d="M214.44,422.42
			c3.46,11.88,0.33,32.02-2.44,44.37c-3.25,14.5-19.21,65.29-24.98,71.07c-3.33,3.33-6.08,0.58-9.23-4.47
			c3.41,13.27,7.12,23.59,9.94,27.86c3.93,5.97,6.87-3.37,7.39-20.42C196.21,504.77,240.42,443.12,214.44,422.42z"/>
		
			<linearGradient id="SVGID_00000115499586442781229440000008012189190806550970_" gradientUnits="userSpaceOnUse" x1="171.412" y1="492.1925" x2="208.6945" y2="492.1925">
			<stop  offset="0" style="stop-color:#006076"/>
			<stop  offset="1" style="stop-color:#002661"/>
		</linearGradient>
		<path style="opacity:0.33;fill:url(#SVGID_00000115499586442781229440000008012189190806550970_);" d="M208.53,450.15
			c0.31-0.5,0.17-1.16-0.33-1.47c-0.5-0.32-1.15-0.17-1.47,0.33c-3.82,6.04-13.6,12.84-17.69,15.53
			c2.78-26.17,7.32-33.47,7.36-33.54c0.32-0.49,0.19-1.15-0.3-1.48c-0.49-0.32-1.15-0.19-1.48,0.3c-0.21,0.31-5.1,8.01-7.93,36.7
			c-0.39,3.97-0.67,8.33-0.87,12.92c-4.1-10.67-10.36-29.96-10.43-30.18c-0.18-0.56-0.78-0.87-1.34-0.68
			c-0.56,0.18-0.87,0.78-0.68,1.34c0.34,1.05,8.34,25.71,12.15,34.45c0.03,0.07,0.08,0.13,0.12,0.2c-0.13,4.33-0.19,8.81-0.2,13.3
			c0,0.01,0,0.02,0,0.03c0,0,0,0.01,0,0.01c-0.01,3.93,0.01,7.87,0.06,11.75c-5.1-8.3-12-21.46-12.08-21.61
			c-0.27-0.52-0.92-0.72-1.44-0.45c-0.52,0.27-0.72,0.92-0.45,1.44c0.09,0.17,8.89,16.94,14.02,24.68c0.08,4.9,0.2,9.64,0.33,14.05
			c0,0.01,0,0.01,0,0.01c0.15,5.11,0.31,9.77,0.45,13.71c0.2,5.67,0.35,10.15,0.35,12.49c0,0.59,0.48,1.07,1.07,1.07
			c0.59,0,1.07-0.48,1.07-1.07c0-2.37-0.16-6.86-0.35-12.56c-0.13-3.82-0.29-8.34-0.43-13.27c1.44-1.57,7.7-8.6,9.55-13.9
			c0.19-0.56-0.1-1.16-0.65-1.36c-0.56-0.19-1.16,0.1-1.36,0.66c-1.32,3.78-5.29,8.75-7.63,11.48c-0.22-8.15-0.39-17.26-0.38-26.32
			c3.19-0.58,13.37-3.27,17.86-14.36c0.22-0.55-0.04-1.17-0.59-1.39c-0.55-0.22-1.17,0.04-1.39,0.59
			c-3.87,9.57-12.67,12.29-15.87,12.98c0.05-10.47,0.38-20.75,1.19-29.26C191.35,465.63,203.84,457.56,208.53,450.15z"/>
	</g>
	<g>
		
			<linearGradient id="SVGID_00000164502548603648082500000008614847645399428755_" gradientUnits="userSpaceOnUse" x1="117.4312" y1="513.1986" x2="174.3764" y2="513.1986">
			<stop  offset="0" style="stop-color:#006076"/>
			<stop  offset="1" style="stop-color:#648D7F"/>
		</linearGradient>
		<path style="fill:url(#SVGID_00000164502548603648082500000008614847645399428755_);" d="M174.36,552.38
			c-0.45-9.58-2.15-79.36-36.23-82.02c-34.09-2.66-20.24,28.23,0,48.47C158.36,539.06,175.01,566.35,174.36,552.38z"/>
		
			<linearGradient id="SVGID_00000055690348674955505870000018185040751139338931_" gradientUnits="userSpaceOnUse" x1="141.6947" y1="532.0328" x2="174.3765" y2="532.0328">
			<stop  offset="0" style="stop-color:#006076"/>
			<stop  offset="1" style="stop-color:#002661"/>
		</linearGradient>
		<path style="opacity:0.33;fill:url(#SVGID_00000055690348674955505870000018185040751139338931_);" d="M168.62,507.86
			c-1.4,4.96-1.76,17.87-3.95,17.87c-3.02,0-3.65,1.96-11.81,1.96c-2.44,0-6.53-1.95-11.17-5.2c18.59,19.66,33.27,43.02,32.66,29.88
			C174.13,547.51,173.58,527.11,168.62,507.86z"/>
		
			<linearGradient id="SVGID_00000116194497864725252260000001428838725701049268_" gradientUnits="userSpaceOnUse" x1="129.07" y1="516.3367" x2="171.8558" y2="516.3367">
			<stop  offset="0" style="stop-color:#006076"/>
			<stop  offset="1" style="stop-color:#002661"/>
		</linearGradient>
		<path style="opacity:0.33;fill:url(#SVGID_00000116194497864725252260000001428838725701049268_);" d="M167.73,527.46
			c-0.03-4.91-0.81-11.42-0.85-11.7c-0.07-0.58-0.61-1.01-1.19-0.93c-0.58,0.07-1,0.6-0.93,1.19c0.01,0.04,0.32,2.64,0.56,5.75
			c-2.23-4.81-4.84-9.37-7.54-13.54c0.62-5.59-0.02-15.08-0.04-15.49c-0.04-0.59-0.55-1.01-1.14-0.99
			c-0.59,0.04-1.03,0.55-0.99,1.14c0.01,0.08,0.48,7.04,0.25,12.44c-7.87-11.53-15.81-19.47-16.46-20.11
			c-0.42-0.42-1.09-0.41-1.51,0.01c-0.41,0.42-0.41,1.09,0.01,1.51c0.12,0.12,5.03,5.03,10.95,12.71
			c-6.59-2.14-17.18-2.66-18.68-2.73c-0.59-0.02-1.08,0.43-1.11,1.02c-0.03,0.59,0.43,1.08,1.02,1.11
			c4.94,0.21,18.23,1.39,21.5,4.25c2.86,3.95,5.82,8.43,8.5,13.26c-5.05-1.31-13.86-1.5-15.99-1.53c-0.01,0-0.01,0-0.01,0
			c-0.58,0-1.06,0.47-1.06,1.05c-0.01,0.59,0.46,1.07,1.05,1.08c6.29,0.08,15.69,0.82,17.53,2.21c2,3.87,3.78,7.91,5.16,12.05
			c-3.9-1.56-8.65-1.42-8.89-1.41c-0.59,0.02-1.05,0.51-1.03,1.1c0.02,0.59,0.53,1.08,1.1,1.03c0.06,0,6.25-0.17,9.7,2.13
			c1.2,4.19,1.97,8.44,2.09,12.66c0.02,0.58,0.49,1.03,1.06,1.03c0.01,0,0.02,0,0.03,0c0.59-0.02,1.05-0.51,1.03-1.1
			C171.66,540.18,170.09,533.68,167.73,527.46z"/>
	</g>
	<g>
		
			<linearGradient id="SVGID_00000083779630286429504940000000393339391256781229_" gradientUnits="userSpaceOnUse" x1="199.1964" y1="519.9863" x2="252.7652" y2="519.9863">
			<stop  offset="0" style="stop-color:#006076"/>
			<stop  offset="1" style="stop-color:#648D7F"/>
		</linearGradient>
		<path style="fill:url(#SVGID_00000083779630286429504940000000393339391256781229_);" d="M246.07,482.25
			c16.38,5.08,0,44.03-19.88,57.88c-19.88,13.85-26.99,24.34-26.99,16.08C199.2,547.94,204.88,469.47,246.07,482.25z"/>
		
			<linearGradient id="SVGID_00000039110457905063484390000005180016119141454992_" gradientUnits="userSpaceOnUse" x1="199.1964" y1="520.0396" x2="252.7652" y2="520.0396">
			<stop  offset="0" style="stop-color:#006076"/>
			<stop  offset="1" style="stop-color:#002661"/>
		</linearGradient>
		<path style="opacity:0.33;fill:url(#SVGID_00000039110457905063484390000005180016119141454992_);" d="M246.07,482.25
			c-2.29-0.71-4.46-1.12-6.53-1.3c3.41,7.39,8.1,17.45,5.96,26.91c-3.75,16.57-32.36,32.63-38.46,35.97
			c-3.36,1.84-5.4,0.27-6.55-2.73c-0.99,7.47-1.29,13.18-1.29,15.1c0,8.27,7.1-2.23,26.99-16.08
			C246.07,526.28,262.45,487.33,246.07,482.25z"/>
		
			<linearGradient id="SVGID_00000151521247548915312920000017987555502263747513_" gradientUnits="userSpaceOnUse" x1="200.5513" y1="522.4168" x2="243.9357" y2="522.4168">
			<stop  offset="0" style="stop-color:#006076"/>
			<stop  offset="1" style="stop-color:#002661"/>
		</linearGradient>
		<path style="opacity:0.33;fill:url(#SVGID_00000151521247548915312920000017987555502263747513_);" d="M243.19,504.31
			c-3.77-1.17-10.52,0.06-14.4,0.96c4.41-5.78,9.12-10.64,13.92-13.49c0.51-0.3,0.67-0.95,0.37-1.46c-0.3-0.51-0.95-0.67-1.46-0.37
			c-7.17,4.27-14.05,12.61-20.06,21.87c-0.64-5.61-2.41-13.1-2.5-13.48c-0.14-0.57-0.71-0.93-1.28-0.79
			c-0.57,0.14-0.93,0.71-0.79,1.28c0.03,0.11,2.55,10.8,2.67,16c-3.4,5.52-6.48,11.23-9.13,16.53c-0.47-4.5-1.78-9.53-1.86-9.82
			c-0.15-0.57-0.73-0.91-1.3-0.76c-0.57,0.15-0.91,0.73-0.76,1.3c0.02,0.09,2.43,9.28,1.87,13.47c-4.65,9.73-7.55,17.25-7.85,18.04
			c-0.21,0.55,0.07,1.17,0.62,1.38c0.12,0.05,0.25,0.07,0.38,0.07c0.43,0,0.83-0.26,0.99-0.69c0.05-0.14,1.67-4.33,4.43-10.53
			c2.21-1.68,8.06-5.21,11.96-3.77c0.55,0.2,1.16-0.08,1.37-0.63c0.2-0.55-0.08-1.17-0.63-1.37c-3.68-1.36-8.12,0.5-11.06,2.17
			c2.14-4.63,4.76-9.99,7.75-15.47c2.48-0.42,13.14-2.15,17.16-1.3c0.58,0.12,1.14-0.25,1.26-0.82c0.12-0.58-0.24-1.14-0.82-1.26
			c-3.77-0.8-12.25,0.36-16.29,1c2.77-4.93,5.82-9.89,9.05-14.41c1.98-0.53,11.46-2.95,15.76-1.62c0.56,0.17,1.16-0.14,1.33-0.7
			C244.06,505.08,243.75,504.49,243.19,504.31z"/>
	</g>
	
		<linearGradient id="SVGID_00000020395279086811155300000006413353811490009499_" gradientUnits="userSpaceOnUse" x1="190.3234" y1="664.1421" x2="186.8234" y2="536.6421">
		<stop  offset="0" style="stop-color:#ED573C"/>
		<stop  offset="1" style="stop-color:#F8A48C"/>
	</linearGradient>
	<path style="fill:url(#SVGID_00000020395279086811155300000006413353811490009499_);" d="M229.5,541.84
		c0,7.27-18.78,13.16-41.94,13.16s-41.94-5.89-41.94-13.16c0-1.42,0.73-2.8,2.06-4.08c-2.98,0.19-5.95,0.42-8.92,0.72
		c-0.91,1.66-1.4,3.4-1.4,5.19c0,0.7,0.15,1.39,0.42,2.08c2.1,10.36,11.47,56.35,13.46,63.76c2.25,8.35,8.25,10.75,12,10.75
		s23.77,0,23.77,0s20.02,0,23.77,0s9.75-2.4,12-10.75c1.99-7.4,11.36-53.39,13.46-63.76c0.27-0.68,0.42-1.38,0.42-2.08
		c0-1.49-0.34-2.94-0.97-4.34c-2.35-0.03-4.7-0.08-7.05-0.14C229.21,540.04,229.5,540.93,229.5,541.84z"/>
	
		<linearGradient id="SVGID_00000180325837547453298720000003167215621274987695_" gradientUnits="userSpaceOnUse" x1="207.201" y1="600.6791" x2="179.5999" y2="558.5297">
		<stop  offset="0" style="stop-color:#ED573C"/>
		<stop  offset="1" style="stop-color:#F8A48C"/>
	</linearGradient>
	<path style="opacity:0.45;fill:url(#SVGID_00000180325837547453298720000003167215621274987695_);" d="M235.73,548.28
		c-1.45,2.62-3.46,5.75-6.23,8.51c-10.9,10.9-54,7.2-65.75,7.2s5.25,6.96,28.5,6.96s19.4,1.39,24.32,6.31s-2.07,4.73-5.82,11.09
		c-3.75,6.36,0,5.89,4,9.89s1.5,7.75-8.25,14.75c-8.71,6.25-38.17,2.33-55.31-3.75c0.02,0.08,0.05,0.18,0.06,0.25
		c2.25,8.35,8.25,10.75,12,10.75s23.77,0,23.77,0s20.02,0,23.77,0s9.75-2.4,12-10.75C224.64,602.59,232.92,562.09,235.73,548.28z"/>
</g>
<path class="st92" d="M94.21,633.28c-4.26,0-7.71-3.46-7.71-7.72c0-2.12,0.86-4.05,2.26-5.45c1.39-1.39,3.32-2.26,5.45-2.26h981.58
	c4.26,0,7.71,3.46,7.71,7.71c0,2.13-0.86,4.06-2.26,5.46c-1.39,1.4-3.32,2.26-5.45,2.26"/>
<linearGradient id="SVGID_00000133494870515192932240000017261633325343986057_" gradientUnits="userSpaceOnUse" x1="478.8994" y1="229.9568" x2="495.3419" y2="229.9568">
	<stop  offset="0" style="stop-color:#DE7656"/>
	<stop  offset="1" style="stop-color:#FEB692"/>
</linearGradient>
<path style="opacity:0.47;fill:url(#SVGID_00000133494870515192932240000017261633325343986057_);" d="M493.82,221.47
	c-1.64-4.6-3.93-7.55-6.37-8.85c0.72,2.31,5.04,8.73,0.2,7.16c-4.51-1.47-8.46,2.26-8.74,8.46c-0.28,6.2,4.8-0.42,5.86,4.65
	s-0.36,7.05-2.47,7.05c-2.12,0-1.34,0.78,0.14,2.26s3.32,3.01,1.23,5.1C493.57,246.4,497.89,232.87,493.82,221.47z"/>
<linearGradient id="SVGID_00000096019083007471902080000014134738108238531006_" gradientUnits="userSpaceOnUse" x1="439.8374" y1="304.4155" x2="490.5981" y2="493.546">
	<stop  offset="0" style="stop-color:#ED573C"/>
	<stop  offset="1" style="stop-color:#F8A48C"/>
</linearGradient>
<path style="opacity:0.45;fill:url(#SVGID_00000096019083007471902080000014134738108238531006_);" d="M516.74,287.34
	c2.38,5.78,0.52,10.78,0.52,15.22c0,5.23-1.23,15.54-3.02,17.33c-1.79,1.79-5.44,20.3-11.64,20.3c-6.2,0-13.54,11.56-13.54,16.92
	s-32.71,44.84-37.79,42.3c-5.08-2.54-17.2,24.25-24.25,13.04c-7.05-11.21-9.31-5.99-13.82-10.5s-4.94-8.04-6.49-6.49
	s-10.72-9.31-14.1-18.33c-3.38-9.02-5.36-9.59-8.46-6.49c-2.69,2.69-10.06-23.09-13.06-35.65c-3.55,5.15-6.18,10.28-6.4,13.92
	c-0.4,6.94,50.51,87,68.56,87c18.05,0,89.17-96.7,92.42-113.45C529.61,302.2,524.4,291.72,516.74,287.34z"/>
<linearGradient id="SVGID_00000135675957856034079010000014590624443497877146_" gradientUnits="userSpaceOnUse" x1="415.8084" y1="310.8646" x2="466.5691" y2="499.9951">
	<stop  offset="0" style="stop-color:#ED573C"/>
	<stop  offset="1" style="stop-color:#F8A48C"/>
</linearGradient>
<path style="opacity:0.45;fill:url(#SVGID_00000135675957856034079010000014590624443497877146_);" d="M420.91,359.33
	c2.63,2.63,12.1,17.03,16.4,21.33c4.3,4.3-0.78-16.64-0.78-21.57c0-0.24-0.06-0.58-0.14-0.98c-4.42,5.57-7.22,9.12-7.22,9.12
	L420.91,359.33z"/>
<linearGradient id="SVGID_00000132797698060266320000000007070477578000635776_" gradientUnits="userSpaceOnUse" x1="730.2209" y1="614.6393" x2="933.2635" y2="614.6393">
	<stop  offset="0" style="stop-color:#ED573C"/>
	<stop  offset="1" style="stop-color:#F8A48C"/>
</linearGradient>
<path style="fill:url(#SVGID_00000132797698060266320000000007070477578000635776_);" d="M930.18,610.02H730.22v6.14
	c0,1.71,1.38,3.09,3.09,3.09h196.87c1.71,0,3.09-1.38,3.09-3.09v-3.05C933.26,611.41,931.88,610.02,930.18,610.02z"/>
<linearGradient id="SVGID_00000047057295887932031610000008746223245381126788_" gradientUnits="userSpaceOnUse" x1="730.2209" y1="614.6393" x2="933.2635" y2="614.6393">
	<stop  offset="0" style="stop-color:#ED573C"/>
	<stop  offset="1" style="stop-color:#F8A48C"/>
</linearGradient>
<path style="opacity:0.45;fill:url(#SVGID_00000047057295887932031610000008746223245381126788_);" d="M930.18,610.02H730.22v6.14
	c0,1.71,1.38,3.09,3.09,3.09h196.87c1.71,0,3.09-1.38,3.09-3.09v-3.05C933.26,611.41,931.88,610.02,930.18,610.02z"/>
<linearGradient id="SVGID_00000091697264038694229260000005398720358184428962_" gradientUnits="userSpaceOnUse" x1="965.769" y1="589.7504" x2="805.769" y2="481.7504">
	<stop  offset="0" style="stop-color:#ED573C"/>
	<stop  offset="1" style="stop-color:#F8A48C"/>
</linearGradient>
<path style="fill:url(#SVGID_00000091697264038694229260000005398720358184428962_);" d="M1020.99,495.75l-184.67-0.68
	c-6.49-0.02-12.63,4.96-13.69,11.13l-17.62,101.72c-1.07,6.17,3.33,11.2,9.82,11.22l184.67,0.68c6.49,0.02,12.63-4.96,13.69-11.13
	l17.62-101.72C1031.88,500.8,1027.49,495.78,1020.99,495.75z"/>
<linearGradient id="SVGID_00000026121352688541303170000003271159681393040801_" gradientUnits="userSpaceOnUse" x1="965.769" y1="589.7504" x2="805.769" y2="481.7504">
	<stop  offset="0" style="stop-color:#ED573C"/>
	<stop  offset="1" style="stop-color:#F8A48C"/>
</linearGradient>
<path style="opacity:0.45;fill:url(#SVGID_00000026121352688541303170000003271159681393040801_);" d="M1020.99,495.75l-184.67-0.68
	c-6.49-0.02-12.63,4.96-13.69,11.13l-17.62,101.72c-1.07,6.17,3.33,11.2,9.82,11.22l184.67,0.68c6.49,0.02,12.63-4.96,13.69-11.13
	l17.62-101.72C1031.88,500.8,1027.49,495.78,1020.99,495.75z"/>
<linearGradient id="SVGID_00000173159090745549305970000000638458000849087904_" gradientUnits="userSpaceOnUse" x1="1027.9246" y1="622.7827" x2="850.9246" y2="511.7827">
	<stop  offset="0" style="stop-color:#ED573C"/>
	<stop  offset="1" style="stop-color:#F8A48C"/>
</linearGradient>
<path style="fill:url(#SVGID_00000173159090745549305970000000638458000849087904_);" d="M1026.88,495.79l-184.67-0.68
	c-6.49-0.02-12.63,4.96-13.7,11.13l-17.62,101.72c-1.07,6.17,3.33,11.2,9.82,11.22l184.67,0.68c6.49,0.02,12.63-4.96,13.7-11.13
	l17.62-101.72C1037.77,500.84,1033.37,495.81,1026.88,495.79z"/>
<linearGradient id="SVGID_00000049205712122893824290000013360733235837631370_" gradientUnits="userSpaceOnUse" x1="946" y1="780" x2="946" y2="780">
	<stop  offset="0" style="stop-color:#52E5E7"/>
	<stop  offset="1" style="stop-color:#3AC7AB"/>
</linearGradient>
<path style="fill:url(#SVGID_00000049205712122893824290000013360733235837631370_);" d="M946,780"/>
<linearGradient id="SVGID_00000102509163631434509920000004406254900625134212_" gradientUnits="userSpaceOnUse" x1="305.4245" y1="279.3532" x2="257.4245" y2="130.6866">
	<stop  offset="0" style="stop-color:#0869FB"/>
	<stop  offset="1" style="stop-color:#89CEEA"/>
</linearGradient>
<path style="fill:url(#SVGID_00000102509163631434509920000004406254900625134212_);" d="M263.91,197.79
	c-44.84,19.44-39.25,86.61,0.47,79.69c39.72-6.92,62.84-33.69,75.3-26.09c7.47,4.55,3.64,8.86,8.13-15.96
	C351.82,213.21,348.68,161.04,263.91,197.79z"/>
<linearGradient id="SVGID_00000178201922159958690790000009809702651878172818_" gradientUnits="userSpaceOnUse" x1="353.1783" y1="362.6136" x2="344.4716" y2="308.3644">
	<stop  offset="0" style="stop-color:#DE7656"/>
	<stop  offset="1" style="stop-color:#FEB692"/>
</linearGradient>
<path style="opacity:0.47;fill:url(#SVGID_00000178201922159958690790000009809702651878172818_);" d="M361.47,329.67
	c-4.33-2.5-6.33-12.83-9.83-24.97c-2.74-9.48-15.1-8.62-24.46-8.3c4.23,0.51,9.44,3.3,15.69,7.63c6.94,4.81,3.38,7.3,6.41,15.85
	c3.03,8.55,7.84,10.77,11.54,11.93c0.81,0.25,1.76,0.19,2.77-0.1C362.93,330.82,362.22,330.1,361.47,329.67z"/>
<g>
	
		<linearGradient id="SVGID_00000147931750695807381600000017541008680897564825_" gradientUnits="userSpaceOnUse" x1="239.5001" y1="602.0529" x2="349.2128" y2="602.0529">
		<stop  offset="0" style="stop-color:#ED573C"/>
		<stop  offset="1" style="stop-color:#F8A48C"/>
	</linearGradient>
	<path style="fill:url(#SVGID_00000147931750695807381600000017541008680897564825_);" d="M349.21,613.48v5.55
		c0,0.02-0.01,0.03-0.03,0.03h-94.71c-8.23,0-14.97-6.42-14.97-14.27v-5.46c0-7.85,6.74-14.27,14.97-14.27h94.46
		c0.15,0,0.28,0.12,0.28,0.27v5.53c0-0.11-0.09-0.19-0.2-0.19h-92.69c-3.28,0-6.28,1.28-8.45,3.35c-2.36,2.26-3.74,5.44-3.48,8.89
		c0.46,6.02,5.97,10.56,12.3,10.56h92.48C349.2,613.45,349.21,613.46,349.21,613.48z"/>
	
		<linearGradient id="SVGID_00000168075966651043941360000015986717207971948681_" gradientUnits="userSpaceOnUse" x1="296.8195" y1="611.6078" x2="290.9539" y2="568.6566">
		<stop  offset="0" style="stop-color:#FFF4DB"/>
		<stop  offset="1" style="stop-color:#FFFFFF"/>
	</linearGradient>
	<path style="fill:url(#SVGID_00000168075966651043941360000015986717207971948681_);" d="M341.39,608.66v-13.42
		c0-2.22,1.65-4.06,3.84-4.5c-0.32-0.06-0.66-0.1-1-0.1h-87.89c-3.28,0-6.28,1.28-8.45,3.35c-2.36,2.26-3.75,5.45-3.48,8.92
		c0.47,6,5.96,10.53,12.28,10.53h87.75c0.34,0,0.66-0.03,0.98-0.1C343.11,612.91,341.39,610.98,341.39,608.66z"/>
</g>
<g>
	<path class="st92" d="M246.9,561.43v-4.61c0-0.01,0.01-0.02,0.03-0.02h83.47c7.26,0,13.19,5.34,13.19,11.86v4.54
		c0,6.52-5.94,11.86-13.19,11.86h-83.25c-0.14,0-0.25-0.1-0.25-0.22v-4.59c0,0.09,0.08,0.16,0.18,0.16h81.69
		c2.89,0,5.53-1.07,7.45-2.78c2.08-1.87,3.3-4.52,3.07-7.39c-0.41-5-5.26-8.77-10.84-8.77h-81.51
		C246.91,561.45,246.9,561.44,246.9,561.43z"/>
	
		<linearGradient id="SVGID_00000020374687785050635330000015212058364859835314_" gradientUnits="userSpaceOnUse" x1="321.175" y1="582.8192" x2="316.1968" y2="546.3655" gradientTransform="matrix(-1 0 0 -1 614.3203 1145.6125)">
		<stop  offset="0" style="stop-color:#FFF4DB"/>
		<stop  offset="1" style="stop-color:#FFFFFF"/>
	</linearGradient>
	<path style="fill:url(#SVGID_00000020374687785050635330000015212058364859835314_);" d="M253.79,565.43v11.15
		c0,1.84-1.45,3.38-3.38,3.74c0.29,0.05,0.58,0.08,0.88,0.08h77.46c2.89,0,5.53-1.07,7.45-2.78c2.08-1.88,3.31-4.53,3.06-7.41
		c-0.42-4.99-5.25-8.75-10.82-8.75h-77.33c-0.3,0-0.59,0.03-0.86,0.08C252.27,561.9,253.79,563.51,253.79,565.43z"/>
</g>
<linearGradient id="SVGID_00000036930054546072776600000016670543679800971145_" gradientUnits="userSpaceOnUse" x1="723.0111" y1="502.8166" x2="680.9933" y2="546.4757">
	<stop  offset="0" style="stop-color:#DE7656"/>
	<stop  offset="1" style="stop-color:#FEB692"/>
</linearGradient>
<path style="opacity:0.47;fill:url(#SVGID_00000036930054546072776600000016670543679800971145_);" d="M717,584
	c2.08,0,6.66,0.25,12.66,0.69c-7.36-1.3-12.57-2.31-14.07-2.96c-7.3-3.14-12.89-107.27-26.25-120.62c-1.18-1.18-4.65-2.76-9-2.72
	c3.91,11.73,24.85,105.69,24.85,115.61C705.19,584,706.75,584,717,584z"/>
<g>
	<path class="st12" d="M689.19,590.34c-24.76,0-48.62-4.8-71.3-14.38c-24.77-10.46-48.3-26.72-69.91-48.34
		c-0.59-0.59-0.59-1.54,0-2.12s1.54-0.59,2.12,0c51.85,51.85,112.16,71.27,179.26,57.71c40.68-8.22,62.46-19.96,81.68-30.32
		c22.07-11.9,41.13-22.18,81.46-22.18c7.89,0,17.82-1.51,20.31-8.7c4.1-11.86-12.91-34.95-43.33-58.84
		c-0.65-0.51-0.77-1.45-0.25-2.11s1.46-0.77,2.11-0.25c32.41,25.44,48.97,48.69,44.31,62.17c-1.69,4.89-7.08,10.72-23.14,10.72
		c-39.57,0-57.43,9.63-80.04,21.82c-19.4,10.46-41.39,22.31-82.51,30.62C716.14,588.95,702.53,590.34,689.19,590.34z"/>
</g>
<linearGradient id="SVGID_00000075160685794502448320000007659493389850697892_" gradientUnits="userSpaceOnUse" x1="810.7347" y1="558.9307" x2="1036.8605" y2="558.9307">
	<stop  offset="0" style="stop-color:#ED573C"/>
	<stop  offset="1" style="stop-color:#F8A48C"/>
</linearGradient>
<path style="opacity:0.45;fill:url(#SVGID_00000075160685794502448320000007659493389850697892_);" d="M1019.08,608.73l17.62-101.72
	c0.64-3.69-0.69-6.96-3.24-9.01c-21.84,3.23-89.88,80.67-109.67,60.89c-19.39-19.39-76.5,13.82-111.06,38.41l-1.85,10.66
	c-1.07,6.17,3.33,11.2,9.82,11.22l184.67,0.68C1011.88,619.89,1018.01,614.9,1019.08,608.73z"/>
<ellipse transform="matrix(0.865 -0.5018 0.5018 0.865 -156.2354 543.6248)" class="st109" cx="932" cy="562.12" rx="20.96" ry="16.14"/>
<ellipse transform="matrix(0.865 -0.5018 0.5018 0.865 -156.2354 543.6248)" class="st15" cx="932" cy="562.12" rx="16.26" ry="12.51"/>
<linearGradient id="SVGID_00000072998185845281564790000011073715043129533596_" gradientUnits="userSpaceOnUse" x1="614.1373" y1="314.1926" x2="552.804" y2="184.8593">
	<stop  offset="0" style="stop-color:#0869FB"/>
	<stop  offset="1" style="stop-color:#89CEEA"/>
</linearGradient>
<path style="fill:url(#SVGID_00000072998185845281564790000011073715043129533596_);" d="M514.36,253.83
	c13.51,13.51,11.25,27.65,24.92,41.31s77.42,2.91,99.38-26.88c21.96-29.79,3.96-55.2-23.38-55.2s-76.16,28.22-82,34.06
	S508.87,248.34,514.36,253.83z"/>
<linearGradient id="SVGID_00000160165335215699126000000012250131308390814142_" gradientUnits="userSpaceOnUse" x1="523.5607" y1="262.7648" x2="648.465" y2="262.7648">
	<stop  offset="0" style="stop-color:#0869FB"/>
	<stop  offset="1" style="stop-color:#89CEEA"/>
</linearGradient>
<path style="opacity:0.47;fill:url(#SVGID_00000160165335215699126000000012250131308390814142_);" d="M539.28,295.15
	c13.67,13.67,77.42,2.91,99.38-26.88c12.92-17.52,12-33.53,3.5-43.74c-10.67,12.82-25.19,38.19-63.82,46.43
	c-29.9,6.38-44.83,2.96-54.77-3.91C528.06,276.4,530.01,285.88,539.28,295.15z"/>
<linearGradient id="SVGID_00000041254877851886924310000010105701273212627080_" gradientUnits="userSpaceOnUse" x1="882.6716" y1="413.1793" x2="857.6696" y2="294.4198">
	<stop  offset="0" style="stop-color:#0869FB"/>
	<stop  offset="1" style="stop-color:#89CEEA"/>
</linearGradient>
<path style="opacity:0.47;fill:url(#SVGID_00000041254877851886924310000010105701273212627080_);" d="M940.02,284.33
	c0.2,0.29,0.4,0.57,0.59,0.85c5.87,8.67,4.83,20.7-0.3,29.82s-13.7,15.81-22.58,21.36c-8.88,5.55-18.34,10.24-26.58,16.7
	c-6.53,5.12-12.27,11.33-19.44,15.52c-7.18,4.19-15.41,6.13-23.5,8.01c-15.21,3.54-30.41,7.08-45.62,10.62
	c-6.26,3.93-13.3,7.87-15.48,8.66c-1,0.36-0.75,1.83,0.31,1.84c30.91,0.43,162.13-1.62,166.83-67.27
	C955.96,306.56,950.15,292.2,940.02,284.33z"/>
<circle class="st15" cx="857.42" cy="347.91" r="10.55"/>
<circle class="st15" cx="892.6" cy="336.68" r="10.55"/>
<circle class="st15" cx="923.1" cy="326.13" r="10.55"/>
<path class="st15" d="M566.89,281.11l-3.68,1.65c-2.2,0.99-4.81,0-5.8-2.2l-8.04-17.87c-0.99-2.2,0-4.81,2.2-5.8l3.68-1.65
	c2.2-0.99,4.81,0,5.8,2.2l8.04,17.87C570.09,277.51,569.1,280.12,566.89,281.11z"/>
<path class="st15" d="M593.61,269.1l-3.91,1.76c-2.14,0.96-4.67,0-5.63-2.14l-5.13-11.4c-0.96-2.14,0-4.67,2.14-5.63l3.91-1.76
	c2.14-0.96,4.67,0,5.63,2.14l5.13,11.4C596.71,265.6,595.75,268.14,593.61,269.1z"/>
<path class="st15" d="M620.09,257.19l-3.68,1.65c-2.2,0.99-4.81,0-5.8-2.2l-8.04-17.87c-0.99-2.2,0-4.81,2.2-5.8l3.68-1.65
	c2.2-0.99,4.81,0,5.8,2.2l8.04,17.87C623.28,253.59,622.29,256.2,620.09,257.19z"/>
<path class="st15" d="M260.52,248.9l-5.95-2.55c-1.74-0.74-2.55-2.76-1.81-4.5l2.55-5.95c0.74-1.74,2.76-2.55,4.5-1.81l5.95,2.55
	c1.74,0.74,2.55,2.76,1.81,4.5l-2.55,5.95C264.28,248.84,262.26,249.65,260.52,248.9z"/>
<path class="st15" d="M319.27,224.4l-5.95-2.55c-1.74-0.74-2.55-2.76-1.81-4.5l2.55-5.95c0.74-1.74,2.76-2.55,4.5-1.81l5.95,2.55
	c1.74,0.74,2.55,2.76,1.81,4.5l-2.55,5.95C323.03,224.34,321.01,225.15,319.27,224.4z"/>
<path class="st15" d="M289.47,237.34l-7.11-3.04c-2.08-0.89-3.05-3.3-2.16-5.38l3.04-7.11c0.89-2.08,3.3-3.05,5.38-2.16l7.11,3.04
	c2.08,0.89,3.05,3.3,2.16,5.38l-3.04,7.11C293.96,237.27,291.55,238.23,289.47,237.34z"/>
<linearGradient id="SVGID_00000178899938349168798440000003426259946991894437_" gradientUnits="userSpaceOnUse" x1="232.4336" y1="244.5556" x2="348.8743" y2="244.5556">
	<stop  offset="0" style="stop-color:#0869FB"/>
	<stop  offset="1" style="stop-color:#89CEEA"/>
</linearGradient>
<path style="opacity:0.47;fill:url(#SVGID_00000178899938349168798440000003426259946991894437_);" d="M232.43,247.57
	c0.77,18.34,12.1,33.38,31.94,29.92c39.72-6.92,62.84-33.69,75.3-26.09c7.47,4.55,3.64,8.86,8.13-15.96
	c1.18-6.53,1.74-15.63-0.2-24.31c-5,6.17-12.95,13.51-25.31,22.08C284.52,259.39,256.38,256.35,232.43,247.57z"/>
</svg>
