<?xml version="1.0" encoding="utf-8"?>
<!-- Generator: Adobe Illustrator 25.4.0, SVG Export Plug-In . SVG Version: 6.00 Build 0)  -->
<svg version="1.1" id="Layer_1" xmlns="http://www.w3.org/2000/svg" xmlns:xlink="http://www.w3.org/1999/xlink" x="0px" y="0px"
	 viewBox="0 0 2000 2000" style="enable-background:new 0 0 2000 2000;" xml:space="preserve">
<style type="text/css">
	.st0{fill:url(#SVGID_1_);}
	.st1{fill:#45FFCA;}
	.st2{fill:#3478F6;}
	.st3{fill:#FFFFFF;}
	.st4{fill:#98BEF7;}
	.st5{fill:#192684;}
	.st6{fill:#EDF2F9;}
	.st7{fill:#CADCFC;}
	.st8{fill:#55312F;}
	.st9{fill:#FAC896;}
	.st10{fill:#0C9E72;}
	.st11{fill:#F39C55;}
	.st12{fill:#499D75;}
	.st13{fill:#FDBD28;}
	.st14{fill:#EF4923;}
	.st15{fill:#5C8BEA;}
	.st16{fill:#2253F6;}
	.st17{fill:#B01F1A;}
	.st18{fill:#F09719;}
	.st19{fill:#037A4A;}
	.st20{fill:#D98920;}
	.st21{fill:#D98919;}
	.st22{fill:#0053CC;}
	.st23{fill:#407BFF;}
	.st24{fill:#DCE9FF;}
	.st25{fill:#142160;}
	.st26{fill:#FDA428;}
	.st27{fill:#231F20;}
	.st28{fill:#F97700;}
	.st29{fill:#8DBFFC;}
	.st30{fill:#A94324;}
	.st31{fill:#169F72;}
	.st32{fill:#0E7A4A;}
	.st33{fill:#E52822;}
	.st34{fill:#F19B55;}
	.st35{fill:none;stroke:#231F20;stroke-width:1.228;stroke-miterlimit:10;}
</style>
<g id="Connect_online_" transform="translate(170.132 -52.116)">
	<g id="BG" transform="translate(0 172.741)">
		<linearGradient id="SVGID_1_" gradientUnits="userSpaceOnUse" x1="-158.492" y1="933.2103" x2="1819.1781" y2="933.2103">
			<stop  offset="0" style="stop-color:#D0FFAE"/>
			<stop  offset="1" style="stop-color:#34EBE9"/>
		</linearGradient>
		<path class="st0" d="M1819.18,1628.94H1624.6L11.64,1628.2h-170.13c0,0,16.3-490.68,130.97-721.78
			c114.68-231.1,231.33-181.97,327.76-202.63c129.76-27.8,290.98-38.32,380.6-157.57c105.32-140.14,250.1-280.53,433.31-303.1
			c511.15-62.94,497.17,418.59,464.53,611.67c-13.79,81.52-24.55,176.1,91.61,240.2c39.88,22,69.92,91.82,92.19,174.03
			c41.29,152.48,55.81,347.59,56.66,359.36C1819.17,1628.74,1819.18,1628.94,1819.18,1628.94z"/>
		<path class="st1" d="M1819.14,1628.38l-1807.5-3.63v-121.71c0-62.81,35.12-120.49,91.16-148.88c0.38-0.19,0.77-0.39,1.15-0.58
			c29.06-14.47,59.36-26.3,90.54-35.36c93.63-27.41,192.14-38.36,289.03-46.52c73.26-6.17,146.73-9.84,220.21-12.25
			c270.76-8.9,543.08-12.19,813.4,8.62c28.91,2.23,172.99-0.08,245.35,0.95C1803.77,1421.49,1818.29,1616.6,1819.14,1628.38z"/>
	</g>
	<g id="Plant" transform="translate(22.178 753.521)">
		<g id="Group_425" transform="translate(66.361)">
			<path id="Path_1117" class="st2" d="M194.45,561.85c-2.39,1.58,22.36-61.69,5.37-138.51c-12.32-75.32-66.38-164.2-118.4-179.27
				c-100.29-30.13-76.32,51.66-28.3,72.75c46.91,25.12-32.71,52.8,20.2,78.62c49.49,29,35.67,42.55,61.46,61.84
				C164.06,476.81,197.63,561.68,194.45,561.85z"/>
		</g>
		<g id="Group_426" transform="translate(118.041 33.063)">
			<path id="Path_1118" class="st3" d="M142.73,524.09c-0.31-2.18-31.97-219.21-131.09-285.12l1.02-1.48
				c52.19,34.7,85.27,110.74,103.83,168.43c12.32,38.54,21.7,77.97,28.05,117.93L142.73,524.09z"/>
		</g>
		<g id="Group_430" transform="translate(0 144.659)">
			<g id="Group_428">
				<path id="Path_1119" class="st4" d="M264.44,411.8c-0.98,2.05-10.24-51.35-53.78-97.23c-39.7-46.74-113.68-85.95-155.64-75.34
					c-81.34,19.73-30.95,66.21,10.76,61.34c42.62-1.66-0.55,49.42,46.48,45.82c46-0.03,42.13,14.83,67.84,17.68
					C208.31,365.68,266.56,410.41,264.44,411.8z"/>
			</g>
			<g id="Group_429" transform="translate(58.414 23.603)">
				<path id="Path_1120" class="st3" d="M205.32,388.77c-1.13-1.38-113.75-137.75-193.69-149.51l0.27-1.77
					c80.64,11.86,193.7,148.77,194.83,150.16L205.32,388.77z"/>
			</g>
		</g>
	</g>
	<g id="Computer" transform="translate(235.896 395.785)">
		<path id="Path_2211" class="st5" d="M31.25,237.48h932.22c10.83,0,19.61,8.78,19.61,19.61v657.23c0,10.83-8.78,19.61-19.61,19.61
			H31.25c-10.83,0-19.61-8.78-19.61-19.61V257.09C11.64,246.26,20.42,237.48,31.25,237.48z"/>
		<path id="Path_2210" class="st6" d="M52.55,264.04h891.32c5.84,0,10.58,4.74,10.58,10.58c0,0,0,0,0,0v551.2
			c0,5.84-4.74,10.58-10.58,10.58c0,0,0,0,0,0H52.55c-5.84,0-10.58-4.73-10.58-10.58v-551.2C41.97,268.78,46.71,264.04,52.55,264.04
			z"/>
		<g id="Group_63" transform="translate(301.764 629.213)">
			<path id="Path_2213" class="st5" d="M110.39,237.48h177.8v157.77h-177.8V237.48z"/>
			<path id="Path_165" class="st5" d="M379.54,418.53H11.64c0,0,5.57-41.38,184.1-41.38S379.54,418.53,379.54,418.53z"/>
		</g>
		<path id="Path_2207" class="st3" d="M47.85,264.04h900.65c3.28,0,5.94,2.66,5.94,5.94v36.14H41.47v-35.7
			C41.47,266.9,44.33,264.04,47.85,264.04z"/>
		<circle id="Ellipse_1" class="st2" cx="78.36" cy="285.09" r="11.49"/>
		<circle id="Ellipse_2" class="st4" cx="124.3" cy="285.09" r="11.49"/>
		<circle id="Ellipse_3" class="st7" cx="170.25" cy="285.09" r="11.49"/>
		<g id="Group_1037" transform="translate(315.717 116.512)">
			<path id="Path_2381" class="st3" d="M67.76,237.48H295.9c30.99,0,56.12,13.33,56.12,29.76v332.84
				c0,16.44-25.13,29.76-56.12,29.76H67.76c-30.99,0-56.12-13.33-56.12-29.76V267.25C11.64,250.81,36.76,237.48,67.76,237.48z"/>
			<g id="girl" transform="translate(79.853 71.67)">
				<path id="Path_1932" class="st8" d="M80.26,246.66c0,0,29.9-19.91,55.19-1.06c11.95,11.02,26.14,8.9,29.74,19.91
					s-13.98,20.58-9.74,36.67s25,32.4,24.79,49.13s-1.91,10.75-1.06,19.04s33.26,24.81,18.22,64.43c-3.39,9.53-6.35,11.44-2.54,21.4
					s0,19.49-9.96,19.91s-174.14,4.24-160.37-46.82c3.6-10.38-19.07-19.49-11.23-40.89s25.63-26.69,20.97-63.98
					s3.6-68.64,30.72-71.61C75.58,252.16,80.26,246.66,80.26,246.66z"/>
				<path id="Path_1933" class="st9" d="M131.08,324.62c0,0,11.86-12.5,13.56,0s-15.68,27.75-18.01,20.97
					S131.08,324.62,131.08,324.62z"/>
				<path id="Path_1934" class="st9" d="M63.6,326.26c0,0-14.7-8.99-13.09,3.52s22.35,22.73,22.84,15.58S63.6,326.26,63.6,326.26z"
					/>
				<path id="Path_2380" class="st9" d="M100.15,343.68L100.15,343.68c8.19,0,14.83,6.64,14.83,14.83c0,0,0,0,0,0v37.71
					c0,8.19-6.64,14.83-14.83,14.83c0,0,0,0,0,0l0,0c-8.19,0-14.83-6.64-14.83-14.83v-37.71
					C85.33,350.32,91.96,343.68,100.15,343.68z"/>
				<path id="Path_1935" class="st10" d="M85.33,387.75c0,0,11.23,23.94,29.66,0c1.06,1.06,63.77,9.32,69.28,91.73
					c0.42,10.59-158.04,8.9-158.46,0S15.63,401.73,85.33,387.75z"/>
				<path id="Path_1936" class="st3" d="M112.28,487.16l0.47-0.59c1.35-1.72,3.83-2.03,5.55-0.68c0.24,0.19,0.46,0.4,0.65,0.64
					l0.48,0.58l-0.75,0.01c-1.87,0.02-3.76,0.03-5.64,0.03L112.28,487.16z M115.87,485.78c-0.71,0-1.39,0.23-1.95,0.66
					c1.29,0,2.58-0.01,3.87-0.03C117.23,486,116.56,485.78,115.87,485.78L115.87,485.78z M69.78,486.29l-1.61-0.08
					c-1.05-0.05-2.08-0.1-3.1-0.16l-1.58-0.08l1.47-0.61c1.1-0.46,2.36-0.4,3.41,0.17L69.78,486.29z M139.49,478.96
					c-2.21,0-4-1.79-4-4s1.79-4,4-4s4,1.79,4,4C143.49,477.17,141.7,478.96,139.49,478.96L139.49,478.96z M139.49,471.69
					c-1.81,0-3.28,1.47-3.28,3.28c0,1.81,1.47,3.28,3.28,3.28c1.81,0,3.28-1.47,3.28-3.28c0,0,0,0,0,0
					C142.76,473.16,141.3,471.69,139.49,471.69L139.49,471.69z M89.9,478.96c-2.21,0-4-1.79-4-4c0-0.41,0.07-0.82,0.2-1.21
					c0.68-2.1,2.92-3.25,5.02-2.57c2.1,0.68,3.25,2.92,2.57,5.02C93.17,477.84,91.63,478.96,89.9,478.96L89.9,478.96z M90.02,471.26
					c-1.57,0-2.91,1.11-3.21,2.65l-0.01,0.04c-0.11,0.33-0.17,0.67-0.18,1.01c0,1.81,1.46,3.28,3.27,3.28
					c1.57,0,2.92-1.11,3.22-2.65c0.12-0.34,0.18-0.7,0.19-1.06C93.3,472.73,91.83,471.27,90.02,471.26L90.02,471.26z M41.7,478.96
					c-2.21,0-4-1.79-4-4s1.79-4,4-4s4,1.79,4,4S43.91,478.96,41.7,478.96L41.7,478.96L41.7,478.96z M41.7,471.69
					c-1.81,0-3.28,1.47-3.28,3.28c0,1.81,1.47,3.28,3.28,3.28c1.81,0,3.28-1.47,3.28-3.28l0,0
					C44.98,473.16,43.51,471.69,41.7,471.69L41.7,471.69z M164.28,470.84c-2.21,0-4-1.79-4-4s1.79-4,4-4s4,1.79,4,4
					S166.49,470.84,164.28,470.84L164.28,470.84L164.28,470.84z M164.28,463.57c-1.81,0-3.28,1.47-3.28,3.28
					c0,1.81,1.47,3.28,3.28,3.28c1.81,0,3.28-1.47,3.28-3.28c0,0,0,0,0,0C167.55,465.03,166.09,463.57,164.28,463.57L164.28,463.57z
					 M115.87,470.84c-2.21,0-4-1.79-4-4s1.79-4,4-4s4,1.79,4,4S118.08,470.84,115.87,470.84L115.87,470.84L115.87,470.84z
					 M115.87,463.57c-1.81,0-3.28,1.47-3.28,3.28c0,1.81,1.47,3.28,3.28,3.28c1.81,0,3.28-1.47,3.28-3.28l0,0
					C119.14,465.03,117.68,463.57,115.87,463.57L115.87,463.57z M66.49,470.84c-2.21,0-4-1.79-4-4s1.79-4,4-4s4,1.79,4,4
					S68.7,470.84,66.49,470.84C66.49,470.84,66.49,470.84,66.49,470.84L66.49,470.84z M66.49,463.57c-1.81,0-3.28,1.47-3.28,3.28
					c0,1.81,1.47,3.28,3.28,3.28c1.81,0,3.28-1.47,3.28-3.28l0,0C69.77,465.03,68.3,463.57,66.49,463.57L66.49,463.57z
					 M139.49,456.75c-2.21,0-4-1.79-4-4s1.79-4,4-4s4,1.79,4,4C143.49,454.96,141.7,456.75,139.49,456.75L139.49,456.75z
					 M139.49,449.48c-1.81,0-3.28,1.47-3.28,3.28c0,1.81,1.47,3.28,3.28,3.28c1.81,0,3.28-1.47,3.28-3.28c0,0,0,0,0,0
					C142.76,450.95,141.3,449.48,139.49,449.48L139.49,449.48z M89.9,456.75c-2.53,0.26-4.79-1.57-5.05-4.1
					c-0.26-2.53,1.57-4.79,4.1-5.05c2.53-0.26,4.79,1.57,5.05,4.1c0.07,0.63,0,1.26-0.19,1.87
					C93.42,455.42,91.79,456.75,89.9,456.75L89.9,456.75z M90.02,449.05c-1.57,0-2.91,1.11-3.21,2.65c-0.12,0.34-0.18,0.7-0.19,1.05
					c0,1.81,1.46,3.28,3.27,3.28c1.57,0,2.92-1.11,3.22-2.65c0.12-0.34,0.18-0.7,0.19-1.06C93.3,450.52,91.83,449.06,90.02,449.05
					L90.02,449.05z M41.7,456.75c-2.21,0-4-1.79-4-4s1.79-4,4-4s4,1.79,4,4S43.91,456.75,41.7,456.75L41.7,456.75L41.7,456.75z
					 M41.7,449.48c-1.81,0-3.28,1.47-3.28,3.28c0,1.81,1.47,3.28,3.28,3.28c1.81,0,3.28-1.47,3.28-3.28
					C44.98,450.95,43.51,449.48,41.7,449.48L41.7,449.48z M164.28,448.63c-2.21,0-4-1.79-4-4s1.79-4,4-4s4,1.79,4,4
					C168.28,446.84,166.49,448.63,164.28,448.63C164.28,448.63,164.28,448.63,164.28,448.63L164.28,448.63z M164.28,441.36
					c-1.81,0-3.28,1.47-3.28,3.28c0,1.81,1.47,3.28,3.28,3.28s3.28-1.47,3.28-3.28l0,0C167.55,442.82,166.09,441.36,164.28,441.36
					L164.28,441.36z M115.87,448.63c-2.21,0-4-1.79-4-4s1.79-4,4-4s4,1.79,4,4C119.87,446.84,118.08,448.63,115.87,448.63
					C115.87,448.63,115.87,448.63,115.87,448.63L115.87,448.63z M115.87,441.36c-1.81,0-3.28,1.47-3.27,3.28
					c0,1.81,1.47,3.28,3.28,3.27c1.81,0,3.27-1.47,3.27-3.28C119.14,442.82,117.68,441.36,115.87,441.36L115.87,441.36z
					 M66.49,448.63c-2.21,0-4-1.79-4-4s1.79-4,4-4s4,1.79,4,4C70.49,446.84,68.7,448.63,66.49,448.63
					C66.49,448.63,66.49,448.63,66.49,448.63L66.49,448.63z M66.49,441.36c-1.81,0-3.28,1.47-3.27,3.28c0,1.81,1.47,3.28,3.28,3.27
					c1.81,0,3.27-1.47,3.27-3.28C69.77,442.82,68.3,441.36,66.49,441.36L66.49,441.36z M139.49,434.54c-2.21,0-4-1.79-4-4
					s1.79-4,4-4s4,1.79,4,4C143.49,432.75,141.7,434.54,139.49,434.54L139.49,434.54z M139.49,427.27c-1.81,0-3.28,1.47-3.28,3.28
					c0,1.81,1.47,3.28,3.28,3.28c1.81,0,3.28-1.47,3.28-3.28c0,0,0,0,0,0C142.76,428.74,141.3,427.27,139.49,427.27L139.49,427.27z
					 M89.9,434.54c-2.53,0.26-4.79-1.57-5.05-4.1c-0.26-2.53,1.57-4.79,4.1-5.05c2.53-0.26,4.79,1.57,5.05,4.1
					c0.07,0.63,0,1.26-0.19,1.87C93.42,433.21,91.79,434.54,89.9,434.54L89.9,434.54z M90.02,426.84c-1.56,0-2.91,1.11-3.21,2.65
					c-0.12,0.34-0.18,0.7-0.19,1.06c0,1.81,1.46,3.28,3.27,3.28c1.57,0,2.92-1.11,3.22-2.65c0.12-0.34,0.18-0.69,0.19-1.05
					C93.3,428.31,91.83,426.85,90.02,426.84L90.02,426.84z M41.7,434.54c-2.21,0-4-1.79-4-4s1.79-4,4-4s4,1.79,4,4
					C45.7,432.75,43.91,434.54,41.7,434.54L41.7,434.54z M41.7,427.27c-1.81,0-3.28,1.47-3.28,3.28c0,1.81,1.47,3.28,3.28,3.28
					c1.81,0,3.28-1.47,3.28-3.28C44.98,428.74,43.51,427.27,41.7,427.27L41.7,427.27z M162.92,420.26c-2.21,0-4-1.79-4-4
					c0-0.72,0.2-1.43,0.58-2.05l0.25-0.43l0.33,0.37c1.49,1.69,2.93,3.48,4.3,5.31l0.3,0.4l-0.47,0.16
					C163.79,420.18,163.36,420.25,162.92,420.26L162.92,420.26z M159.89,415.04c-0.16,0.39-0.25,0.8-0.25,1.22
					c-0.02,1.79,1.41,3.26,3.2,3.28c0.21,0,0.43-0.02,0.64-0.06C162.33,417.95,161.13,416.46,159.89,415.04L159.89,415.04z
					 M114.51,420.26c-2.21,0-4-1.79-4-4s1.79-4,4-4s4,1.79,4,4C118.51,418.46,116.72,420.25,114.51,420.26L114.51,420.26z
					 M114.51,412.98c-1.81,0-3.28,1.47-3.28,3.28c0,1.81,1.47,3.28,3.28,3.28c1.81,0,3.28-1.47,3.28-3.28
					C117.78,414.45,116.32,412.98,114.51,412.98L114.51,412.98z M65.13,420.26c-2.21,0-4-1.79-4-4s1.79-4,4-4c2.21,0,4,1.79,4,4
					C69.13,418.47,67.34,420.26,65.13,420.26C65.13,420.25,65.13,420.25,65.13,420.26L65.13,420.26z M65.13,412.98
					c-1.81,0-3.28,1.47-3.28,3.28c0,1.81,1.47,3.28,3.28,3.28c1.81,0,3.28-1.47,3.28-3.28c0,0,0,0,0,0
					C68.4,414.45,66.94,412.98,65.13,412.98L65.13,412.98z M138.13,406.17c-2.21,0-4-1.79-4-4s1.79-4,4-4s4,1.79,4,4
					C142.13,404.38,140.34,406.17,138.13,406.17C138.13,406.17,138.13,406.17,138.13,406.17L138.13,406.17z M138.13,398.89
					c-1.81,0-3.28,1.47-3.28,3.28c0,1.81,1.47,3.28,3.28,3.28c1.81,0,3.28-1.47,3.28-3.28c0,0,0,0,0,0
					C141.41,400.36,139.94,398.89,138.13,398.89L138.13,398.89z M88.54,406.17c-2.21,0-4-1.79-4-4c0-0.42,0.08-0.84,0.21-1.24
					c0.69-2.09,2.94-3.23,5.04-2.54c2.09,0.69,3.23,2.94,2.54,5.04C91.79,405.06,90.26,406.17,88.54,406.17L88.54,406.17z
					 M88.66,398.47c-1.56,0-2.91,1.11-3.21,2.65c-0.12,0.34-0.18,0.7-0.19,1.05c0,1.81,1.46,3.28,3.27,3.28
					c1.57,0,2.92-1.11,3.22-2.65c0.12-0.34,0.18-0.7,0.19-1.05C91.94,399.94,90.47,398.47,88.66,398.47L88.66,398.47z
					 M116.41,396.51c-2.21,0-4-1.79-4-4s1.79-4,4-4s4,1.79,4,4C120.41,394.72,118.62,396.51,116.41,396.51
					C116.41,396.51,116.41,396.51,116.41,396.51L116.41,396.51z M116.41,389.23c-1.81,0-3.28,1.47-3.28,3.28
					c0,1.81,1.47,3.28,3.28,3.28c1.81,0,3.28-1.47,3.28-3.28l0,0C119.69,390.7,118.22,389.23,116.41,389.23L116.41,389.23z
					 M67.03,396.51c-1.31,0-2.54-0.64-3.28-1.72l-0.24-0.35l0.38-0.18c2.13-1.02,4.35-1.95,6.58-2.78l0.4-0.15l0.08,0.42
					c0.05,0.25,0.07,0.51,0.08,0.76C71.03,394.72,69.24,396.51,67.03,396.51L67.03,396.51z M64.61,394.71
					c1.21,1.34,3.28,1.44,4.62,0.23c0.69-0.62,1.08-1.5,1.08-2.43c0-0.06,0-0.13-0.01-0.2C68.37,393.04,66.46,393.84,64.61,394.71
					L64.61,394.71z"/>
				<path id="Path_1937" class="st11" d="M85.33,379.77c0,0,29.66-16.61,29.66-18.93s-29.66-6.35-29.66-2.32V379.77z"/>
				<ellipse id="Ellipse_232" class="st9" cx="99.38" cy="323.13" rx="35.59" ry="41.94"/>
				<path id="Path_1938" class="st8" d="M61.87,324.41c0,0,33.83-22.46,34.05-27.96c1.48,0.42,33.19,27.54,39.05,23.73
					s11.58-44.06-15.54-49.57S46.26,278.44,61.87,324.41z"/>
			</g>
			<g id="Group_962" transform="translate(49.1 42.074)">
				<path id="Path_1939" class="st5" d="M253.37,237.48H234.7c-1.75-0.01-3.17,1.4-3.18,3.14c-0.01,1.75,1.4,3.17,3.14,3.18
					c0.01,0,0.03,0,0.04,0h15.5v15.5c0,1.75,1.42,3.16,3.17,3.16c1.74,0,3.15-1.42,3.16-3.16v-18.67
					C256.52,238.9,255.11,237.49,253.37,237.48z"/>
				<path id="Path_1940" class="st5" d="M14.8,237.48h18.67c1.75-0.01,3.17,1.4,3.18,3.14c0.01,1.75-1.4,3.17-3.14,3.18
					c-0.01,0-0.03,0-0.04,0h-15.5v15.5c0,1.75-1.42,3.16-3.16,3.16s-3.16-1.42-3.16-3.16v-18.67
					C11.65,238.9,13.06,237.49,14.8,237.48z"/>
				<path id="Path_1941" class="st5" d="M253.37,525.62H234.7c-1.75,0.01-3.17-1.4-3.18-3.14c-0.01-1.75,1.4-3.17,3.14-3.18
					c0.01,0,0.03,0,0.04,0h15.5v-15.5c0-1.75,1.41-3.17,3.16-3.17c1.75,0,3.17,1.41,3.17,3.16c0,0,0,0.01,0,0.01v18.67
					C256.52,524.2,255.11,525.61,253.37,525.62z"/>
				<path id="Path_1942" class="st5" d="M14.8,525.62h18.67c1.75,0.01,3.17-1.4,3.18-3.14c0.01-1.75-1.4-3.17-3.14-3.18
					c-0.01,0-0.03,0-0.04,0h-15.5v-15.5c0-1.75-1.42-3.16-3.16-3.16s-3.16,1.42-3.16,3.16l0,0v18.67
					C11.65,524.2,13.06,525.61,14.8,525.62z"/>
			</g>
		</g>
	</g>
	<g id="element" transform="translate(320.67 174.568)">
		<path id="Path_614" class="st4" d="M36.59,278.13c0-0.11,0-0.22,0-0.34c0-22.26,18.49-40.31,41.29-40.31
			c15.23-0.08,29.28,8.21,36.57,21.58c3.45-2.27,7.49-3.48,11.63-3.46c11.35,0,20.56,8.86,20.56,19.78c0,0.06,0,0.13,0,0.2
			c11.71,5.23,19.83,16.6,19.83,29.78c0,18.14-15.37,32.85-34.32,32.85c-1.48,0-2.96-0.09-4.43-0.27H46.9
			c-0.46-0.05-0.92-0.1-1.38-0.14c-1.61-0.01-3.21-0.19-4.79-0.53v-0.15c-16.43-1.99-29.09-14.6-29.09-29.87
			C11.64,293.29,22.22,281.56,36.59,278.13z"/>
		<path id="Path_615" class="st3" d="M985.95,391.92c-0.01-0.14-0.01-0.29-0.01-0.44c0-29.56,24.55-53.52,54.83-53.52
			c20.22-0.11,38.88,10.9,48.56,28.65c4.58-3.02,9.95-4.62,15.44-4.6c15.07,0,27.3,11.76,27.3,26.27c0,0.09,0,0.18-0.01,0.26
			c15.55,6.94,26.33,22.04,26.33,39.55c0,24.09-20.4,43.62-45.57,43.62c-1.97,0-3.93-0.12-5.89-0.36H999.63
			c-0.61-0.07-1.22-0.14-1.83-0.18c-2.14-0.01-4.27-0.25-6.35-0.71v-0.2c-21.82-2.65-38.63-19.39-38.63-39.66
			C952.82,412.06,966.87,396.48,985.95,391.92z"/>
		<g id="Group_146" transform="translate(1147.485 578.245)">
			<g id="Group_133" transform="translate(56.823 57.869)">
				<path id="Path_616" class="st3" d="M25.34,264.89c7.57,0,13.7-6.14,13.7-13.71c0-7.57-6.14-13.7-13.71-13.7
					c-7.57,0-13.7,6.14-13.7,13.71c0,0,0,0,0,0C11.65,258.76,17.78,264.89,25.34,264.89z M25.34,241.78c5.19,0,9.41,4.21,9.41,9.41
					s-4.21,9.41-9.41,9.41c-5.19,0-9.4-4.21-9.41-9.4C15.94,246,20.15,241.79,25.34,241.78L25.34,241.78z"/>
			</g>
			<g id="Group_145" transform="translate(0)">
				<g id="Group_144">
					<g id="Group_138" transform="translate(13.309)">
						<g id="Group_135" transform="translate(0)">
							<g id="Group_134">
								<path id="Path_617" class="st3" d="M13.79,251.26c1.19,0,2.15-0.96,2.15-2.15v-9.48c0-1.19-0.96-2.15-2.15-2.15
									s-2.15,0.96-2.15,2.15v9.48C11.63,250.3,12.59,251.26,13.79,251.26C13.78,251.26,13.78,251.26,13.79,251.26z"/>
							</g>
						</g>
						<g id="Group_137" transform="translate(0 16.591)">
							<g id="Group_136">
								<path id="Path_618" class="st3" d="M13.79,251.26c1.19,0,2.15-0.96,2.15-2.15v-9.48c0-1.19-0.96-2.15-2.15-2.15
									s-2.15,0.96-2.15,2.15v9.48C11.63,250.3,12.6,251.26,13.79,251.26C13.78,251.26,13.78,251.26,13.79,251.26z"/>
							</g>
						</g>
					</g>
					<g id="Group_143" transform="translate(0 13.037)">
						<g id="Group_140">
							<g id="Group_139">
								<path id="Path_619" class="st3" d="M13.79,241.78h8.52c1.19,0,2.15-0.96,2.15-2.15s-0.96-2.15-2.15-2.15h-8.52
									c-1.19,0-2.15,0.96-2.15,2.15S12.6,241.78,13.79,241.78z"/>
							</g>
						</g>
						<g id="Group_142" transform="translate(18.1)">
							<g id="Group_141" transform="translate(0)">
								<path id="Path_620" class="st3" d="M13.79,241.78h8.52c1.19,0,2.15-0.96,2.15-2.15s-0.96-2.15-2.15-2.15h-8.52
									c-1.19,0-2.15,0.96-2.15,2.15S12.6,241.78,13.79,241.78z"/>
							</g>
						</g>
					</g>
				</g>
			</g>
		</g>
	</g>
	<g id="element-2" transform="translate(661.248 79.75)">
		<g id="Group_688" transform="translate(0 0)">
			<g id="Group_673" transform="translate(59.823)">
				<g id="Group_656" transform="translate(11.244 166.794)">
					<path id="Path_1489" class="st12" d="M28.02,271.83c-9.03,0-16.38-7.7-16.38-17.18s7.35-17.18,16.38-17.18
						s16.38,7.71,16.38,17.18S37.05,271.83,28.02,271.83z M28.02,242.87c-6.51-0.31-12.04,4.72-12.34,11.23
						c-0.31,6.51,4.72,12.04,11.23,12.34c6.51,0.31,12.04-4.72,12.34-11.23c0.01-0.19,0.01-0.37,0.01-0.56
						C39.4,248.3,34.38,243.03,28.02,242.87L28.02,242.87z"/>
				</g>
				<g id="Group_657" transform="translate(0 72.519)">
					<path id="Path_1490" class="st13" d="M28.02,271.83c-9.03,0-16.38-7.7-16.38-17.18s7.35-17.18,16.38-17.18
						s16.39,7.71,16.39,17.18S37.06,271.83,28.02,271.83z M28.02,242.87c-6.2,0-11.24,5.29-11.24,11.79
						c0.29,6.21,5.57,11,11.78,10.71c6.21-0.29,11-5.57,10.71-11.78C38.98,247.59,34.03,242.87,28.02,242.87z"/>
				</g>
				<g id="Group_665" transform="translate(74.556 93.227)">
					<g id="Group_660" transform="translate(15.909)">
						<g id="Group_658">
							<path id="Path_1491" class="st13" d="M14.21,254.75c-1.45-0.04-2.6-1.24-2.57-2.69v-11.88c-0.07-1.42,1.03-2.62,2.44-2.69
								s2.62,1.03,2.69,2.44c0,0.08,0,0.17,0,0.25v11.88C16.81,253.51,15.66,254.72,14.21,254.75z"/>
						</g>
						<g id="Group_659" transform="translate(0 20.792)">
							<path id="Path_1492" class="st13" d="M14.21,254.75c-1.45-0.04-2.6-1.24-2.57-2.7v-11.88c-0.07-1.42,1.03-2.62,2.44-2.69
								s2.62,1.03,2.69,2.44c0,0.08,0,0.17,0,0.25v11.88C16.81,253.51,15.66,254.72,14.21,254.75z"/>
						</g>
					</g>
					<g id="Group_664" transform="translate(0 16.337)">
						<g id="Group_662" transform="translate(21.635)">
							<g id="Group_661">
								<path id="Path_1493" class="st13" d="M24.39,242.87H14.21c-1.49-0.1-2.62-1.38-2.52-2.87c0.09-1.35,1.17-2.43,2.52-2.52
									h10.18c1.49,0.1,2.62,1.38,2.52,2.87C26.82,241.71,25.74,242.79,24.39,242.87z"/>
							</g>
						</g>
						<g id="Group_663">
							<path id="Path_1494" class="st13" d="M24.39,242.87H14.21c-1.49-0.1-2.62-1.38-2.52-2.87c0.09-1.35,1.17-2.43,2.52-2.52
								h10.18c1.49,0.1,2.62,1.38,2.52,2.87C26.82,241.71,25.74,242.79,24.39,242.87z"/>
						</g>
					</g>
				</g>
				<g id="Group_672" transform="translate(63.737)">
					<g id="Group_668" transform="translate(15.909)">
						<g id="Group_666">
							<path id="Path_1495" class="st12" d="M14.21,254.75c-1.45-0.03-2.6-1.24-2.57-2.7v-11.88c-0.07-1.42,1.03-2.63,2.45-2.69
								s2.63,1.03,2.69,2.45c0,0.08,0,0.17,0,0.25v11.88C16.81,253.51,15.66,254.72,14.21,254.75z"/>
						</g>
						<g id="Group_667" transform="translate(0 20.792)">
							<path id="Path_1496" class="st12" d="M14.21,254.75c-1.45-0.03-2.6-1.24-2.57-2.69v-11.88c-0.07-1.42,1.03-2.63,2.45-2.69
								s2.63,1.03,2.69,2.45c0,0.08,0,0.17,0,0.25v11.88C16.81,253.51,15.66,254.72,14.21,254.75
								C14.21,254.75,14.21,254.75,14.21,254.75z"/>
						</g>
					</g>
					<g id="Group_671" transform="translate(0 16.337)">
						<g id="Group_669" transform="translate(21.635)">
							<path id="Path_1497" class="st12" d="M24.39,242.87H14.21c-1.49-0.11-2.61-1.4-2.5-2.89c0.1-1.34,1.16-2.4,2.5-2.5h10.18
								c1.49,0.11,2.61,1.4,2.5,2.89C26.79,241.71,25.73,242.77,24.39,242.87z"/>
						</g>
						<g id="Group_670">
							<path id="Path_1498" class="st12" d="M24.39,242.87H14.21c-1.49-0.11-2.61-1.4-2.5-2.89c0.1-1.34,1.16-2.4,2.5-2.5h10.18
								c1.49,0.11,2.61,1.4,2.5,2.89C26.79,241.71,25.73,242.77,24.39,242.87z"/>
						</g>
					</g>
				</g>
			</g>
			<g id="Group_687" transform="translate(0 1248.464)">
				<g id="Group_674" transform="translate(0 65.368)">
					<path id="Path_1499" class="st3" d="M27.12,268.45c-8.55,0-15.48-6.93-15.48-15.48c0-8.55,6.93-15.48,15.48-15.48
						s15.48,6.93,15.48,15.48c0,0,0,0,0,0C42.59,261.51,35.66,268.44,27.12,268.45z M27.12,242.34c-5.87,0-10.63,4.76-10.63,10.62
						c0,5.87,4.76,10.63,10.62,10.63c5.87,0,10.63-4.76,10.63-10.62c0,0,0,0,0,0C37.74,247.1,32.98,242.35,27.12,242.34
						L27.12,242.34z"/>
				</g>
				<g id="Group_686" transform="translate(60.228)">
					<g id="Group_685">
						<g id="Group_679" transform="translate(15.034)">
							<g id="Group_676">
								<g id="Group_675">
									<path id="Path_1500" class="st14" d="M14.07,253.05c-1.34,0-2.43-1.09-2.43-2.43v-10.71c0-1.34,1.09-2.43,2.43-2.43
										s2.43,1.09,2.43,2.43l0,0v10.71C16.49,251.96,15.41,253.05,14.07,253.05z"/>
								</g>
							</g>
							<g id="Group_678" transform="translate(0 18.742)">
								<g id="Group_677">
									<path id="Path_1501" class="st14" d="M14.07,253.05c-1.34,0-2.43-1.09-2.43-2.43c0,0,0,0,0,0v-10.71
										c0-1.34,1.09-2.43,2.43-2.43s2.43,1.09,2.43,2.43l0,0v10.71C16.49,251.96,15.41,253.05,14.07,253.05
										C14.07,253.05,14.07,253.05,14.07,253.05z"/>
								</g>
							</g>
						</g>
						<g id="Group_684" transform="translate(0 14.725)">
							<g id="Group_681" transform="translate(20.446)">
								<g id="Group_680">
									<path id="Path_1502" class="st14" d="M23.69,242.34h-9.62c-1.34-0.01-2.42-1.1-2.41-2.44c0.01-1.33,1.08-2.41,2.41-2.41
										h9.62c1.34-0.01,2.44,1.07,2.44,2.41c0.01,1.34-1.07,2.44-2.41,2.44C23.7,242.34,23.69,242.34,23.69,242.34z"/>
								</g>
							</g>
							<g id="Group_683">
								<g id="Group_682">
									<path id="Path_1503" class="st14" d="M23.69,242.34h-9.62c-1.34-0.01-2.42-1.1-2.41-2.44c0.01-1.33,1.08-2.41,2.41-2.41
										h9.62c1.34,0.01,2.42,1.1,2.41,2.44C26.09,241.26,25.02,242.33,23.69,242.34z"/>
								</g>
							</g>
						</g>
					</g>
				</g>
			</g>
		</g>
	</g>
	<g id="Girl-2" transform="translate(964.156 915.717)">
		<ellipse id="Ellipse_15" class="st15" cx="463.59" cy="758" rx="74.54" ry="11.58"/>
		<ellipse id="Ellipse_16" class="st15" cx="113.16" cy="769.58" rx="67.89" ry="11.58"/>
		<g id="Girl-3" transform="translate(0 0)">
			<path id="Path_484" class="st5" d="M107.42,720.36c0,0,5.78,9.23,2.39,15.8s-54.36,15.93-60.13,22.1s0.2,11.15,7.37,11.95
				s116.08,9.36,115.68,0s-16.63-36.38-14.99-46.36S107.42,720.36,107.42,720.36z"/>
			<path id="Path_485" class="st16" d="M278.71,588.14c-3.05,1.04-4.79,4.25-3.98,7.37c1.28,4.58,1.34,9.42,0.15,14.02l0,0
				c0,0,29.97,2.09,60.33-3.49c23.25-4.27,91.14-24.23,91.14-24.23s-2.54-27.64-13.69-32.02
				C402.93,545.98,303.99,579.47,278.71,588.14z"/>
			<path id="Path_486" class="st17" d="M268.04,577.87l-8.14-17.88c0,0,46.93,1.18,50.6-2.39c1.57,0.4-6.29,6.98-21.22,10.66
				c-11.15,2.75-17.08,7.65-19.37,9.96c-0.46,0.45-1.19,0.44-1.64-0.02C268.17,578.11,268.09,578,268.04,577.87z"/>
			<path id="Path_487" class="st18" d="M298.24,592.06c1.5-3.34,0.45-7.27-2.51-9.42C267.15,561.87,126.43,464.18,104.4,538
				c-24.54,82.23,6.4,192.13,6.4,192.13s30.13,7.89,43.94,3.18s28.87-122.62,28.87-122.62L257,661.67
				c3.51,2.44,8.33,1.57,10.77-1.94c0.27-0.39,0.51-0.81,0.71-1.25L298.24,592.06z"/>
			<g id="Group_105" transform="translate(168.043 317.818)">
				<path id="Path_488" class="st19" d="M11.64,237.65l-0.01-0.16c0.01,0.07,0.02,0.14,0.02,0.21L11.64,237.65z"/>
				<path id="Path_489" class="st20" d="M17.04,243.93c3.07,36.27,29.74,70.83,29.74,70.83l-31.21-22.47
					C17.66,275.41,18.39,258.98,17.04,243.93z"/>
			</g>
			<path id="Path_490" class="st21" d="M184.04,659.75c0,0-14.33-13.14-39.07,5.64c-16.11,12.23-25.33,48.34-6.13,66.57
				S218.2,675.83,184.04,659.75z"/>
			<g id="Phone" transform="translate(0 0)">
				<path id="Path_805" class="st22" d="M82.09,426.28l67.02-14.84c4.02-0.79,6.64-4.68,5.85-8.7c-0.1-0.49-0.24-0.97-0.43-1.43
					L96.22,245.88c-1.85-4.62-6.71-7.28-11.6-6.36L17.6,254.36c-4.01,0.78-6.64,4.66-5.86,8.67c0.1,0.5,0.24,0.99,0.44,1.45
					l58.31,155.43C72.35,424.53,77.2,427.2,82.09,426.28z"/>
				<path id="Path_806" class="st23" d="M90.32,424.45l67.02-14.84c4.02-0.78,6.64-4.68,5.85-8.69c-0.1-0.49-0.24-0.97-0.44-1.44
					l-58.31-155.43c-1.85-4.62-6.71-7.28-11.6-6.36l-67.02,14.83c-4.02,0.78-6.64,4.67-5.86,8.69c0.1,0.49,0.24,0.98,0.44,1.44
					l58.31,155.43C80.57,422.71,85.43,425.37,90.32,424.45z"/>
				<g id="Group_242" transform="translate(10.787 11.958)">
					<path id="Path_807" class="st24" d="M11.64,256.06l26.21,69.87l2.4,6.44l11.77,31.38l2.5,6.7l9.43,25.09l84.02-18.62
						l-2.29-6.17l-2.5-6.52l-22.64-60.41l-7.04-18.91l-17.79-47.41l-27.8,6.13l-7.11,1.62l-38.05,8.38l-5.96,1.28L11.64,256.06z"/>
				</g>
				<g id="Group_243" transform="translate(7.919 9.975)">
					<path id="Path_808" class="st22" d="M65.47,400l86.21-19.03L98.21,237.48l-86.57,19L65.47,400z M145.95,377.85l-77.78,17.17
						L17.37,259.6l78.12-17.15L145.95,377.85z"/>
				</g>
			</g>
			<path id="Path_492" class="st9" d="M160.76,403.14c-5.54-10.01-19.1-34.71-27.01-53.6c0.57-2.65,1.98-4.27,4.36-3.39
				c6.36,2.35,7.51,11.36,18.08,16.99c20.25,17.25,10.04,26.78,23.16,39.48c19.75,20.37,94.55,65.16,94.55,65.16
				c27.94,18.14-17.2,71.57-41.97,49.24l0,0c0,0-81.4-92.7-89.76-103.45c5.96-1.98,11.5-3.68,16.17-4.84
				c2.06-0.52,3.3-2.61,2.78-4.67C161.04,403.74,160.92,403.43,160.76,403.14z"/>
			<path id="Path_493" class="st5" d="M380.93,729.68c0-2.77,1.48-5.33,3.88-6.71l43.13-24.83c0,0,11.85-9.91,33.38,8.57
				c21.52,18.49,28.22,21.09,67.12,34.06c20.52,8.13,14.06,19.03-44.96,18.23c-44.52-0.61-80.23-1.69-95.08-2.18
				c-4.17-0.14-7.48-3.56-7.47-7.73V729.68z"/>
			<path id="Path_494" class="st25" d="M397.83,716.2l8.76-5.64c0.76-0.49,1.77-0.27,2.26,0.49c0.21,0.32,0.3,0.71,0.25,1.09
				l-5.59,44.44c-0.1,0.82-0.8,1.43-1.62,1.43h-5.04c-0.9,0-1.64-0.73-1.63-1.64c0-0.03,0-0.05,0-0.08l1.87-38.79
				C397.11,716.96,397.39,716.48,397.83,716.2z"/>
			<path id="Path_495" class="st9" d="M251.65,382.85l22.53,66.43c2.5,7.37,10.5,11.31,17.86,8.81c0.56-0.19,1.11-0.42,1.65-0.68
				l38.37-18.69c6.54-3.18,9.57-10.82,7.01-17.62l-26.96-71.61c-2.74-7.28-10.86-10.96-18.14-8.22c-1.11,0.42-2.17,0.98-3.14,1.66
				l-33.94,23.88C251.77,370.4,249.64,376.93,251.65,382.85z"/>
			<path id="Path_496" class="st11" d="M257.91,400.54l-4.5-13.8c-1.33-4.08,0.34-9.01,3.1-9.73l29-6.62l1.11,0.45
				c1.01,1.42-0.81,4.71-2.15,6.13L261.65,402C260.36,403.36,258.61,402.67,257.91,400.54z"/>
			<path id="Path_497" class="st8" d="M288.29,278.35c0,0-26.31-32.29-58.72-11.86s-20.59,48.09-10.3,56.99
				S288.29,278.35,288.29,278.35z"/>
			<path id="Path_498" class="st9" d="M257.03,386.35c0,0-75.75,7.07-46.1-62.26s82.04-37.39,92.94-22.56
				S317.01,383.76,257.03,386.35z"/>
			<path id="Path_499" class="st11" d="M258.61,287.63c-6.01-3.62-13.57-4.07-19.55-0.39c-1.56,0.86-2.85,2.13-3.76,3.66
				c-2.71,5.23-4.47,17.67,7.51,27.59s29.14,11.65,38.49,15.18C289.55,336.77,281.12,301.21,258.61,287.63z"/>
			<path id="Path_500" class="st5" d="M419.63,560.13c15.04-5.64,44.53-18.45,102.98-2.36c0,0-31.91,14.73-56.6,34.64
				c-10.6,8.3-22.06,15.43-34.19,21.27C430.12,592.19,423.99,572.14,419.63,560.13z"/>
			<path id="Path_501" class="st26" d="M401.22,718.73l0.82,36.64c0.07,3.16-2.18,5.89-5.3,6.42
				c-24.42,4.14-124.8,20.27-164.87,12.6c-45.8-8.76-93.81-30.89-91.9-72.59c12.67-31.95,220.66,4.37,256.05,10.8
				C398.98,713.15,401.16,715.71,401.22,718.73z"/>
			<path id="Path_502" class="st21" d="M374.71,694.63c0.53,0.01,0.95,0.45,0.94,0.98c-0.01,0.32-0.17,0.62-0.44,0.79
				c-10.04,6.34-42.48,24.79-86.26,28.95c-53.09,5.05-103.02,3.55-114.68-4.43C162.57,712.91,345.97,697.56,374.71,694.63z"/>
			<path id="Path_503" class="st26" d="M207.99,637.81c68.1-34.25,111.1-51.77,113.89-59.33c2.23-6.05,60.64-21.49,84.03-27.46
				c5.6-1.42,11.38,1.62,13.38,7.04c11.55,30.87,39.93,127.83-51.22,145.86c-108.71,21.5-228.18,19.91-228.18,6.77
				S139.9,672.05,207.99,637.81z"/>
			<path id="Path_504" class="st9" d="M47.22,376.41c1.13-4.27,5.31-14.07,11.15-11.68s-8.66,18.42,7.96,45.13
				c5.27,8.46,9.59-1.33,9.61-1.39c0.41-3,0.53-6.03,0.35-9.05c-0.43-7.3,9.27-19.46,12.57-13.54s-1.69,13.52,2.68,24.67
				c0.83,5.24,1.55,17.18,1.87,17.4c53.53,36.52,102.04,43.08,120.51,44.2c4.25,0.25,7.5,3.89,7.25,8.15c0,0.07-0.01,0.13-0.01,0.2
				c-1.18,14.42-3.67,44.4-5.13,59.65c-0.42,4.26-4.21,7.38-8.47,6.96c-0.55-0.05-1.08-0.16-1.61-0.33
				C85.58,508.58,33.41,428.79,47.22,376.41z"/>
			<path id="Path_505" class="st26" d="M404.96,555.67c7.97,0.69,14.92,5.69,18.1,13.03c3.05,7,6.22,16.15,6.17,23.84
				c-0.08,14.79-108.77,9.63-121.35,11.56C296.11,605.92,344.25,550.52,404.96,555.67z"/>
			<path id="Path_506" class="st2" d="M184.7,545.4c-6.36-6.53-2.57-62.91-2.04-77.66c0.07-1.78,1.55-3.18,3.34-3.14
				c9.83,0.16,19.61-1.32,28.95-4.39c11.88-3.96,32.41-17.75,44.14-26.03c0.05-0.04,0.1-0.08,0.15-0.12
				c2.7-2.28,5.57-4.35,8.58-6.18l0.15-0.12l0.01,0.02c57.36-34.58,140.29,35.95,156.61,56.73c13.68,17.41,72.28,53.52,97.31,68.51
				c1.48,0.88,1.97,2.8,1.09,4.29c-0.59,0.99-1.68,1.58-2.83,1.52c-23.96-1.09-75.27-0.53-110.69,20.06
				c-40.71,23.66-113.64,30.29-130.88,30.8c-1.67,0.01-3.03-1.33-3.04-2.99c0-0.15,0.01-0.3,0.03-0.45
				c1.08-10.32-6.32-26.11-14.99-44.52c-0.48-1.02-1.47-1.71-2.6-1.8C223.68,557.13,186.65,547.4,184.7,545.4z"/>
			<ellipse id="Ellipse_17" class="st27" cx="246.23" cy="337.98" rx="2.94" ry="2.94"/>
			<ellipse id="Ellipse_18" class="st27" cx="220.94" cy="327.41" rx="2.94" ry="2.94"/>
			<g id="Group_106" transform="translate(234.938 89.363)">
				<path id="Path_507" class="st27" d="M23.15,244.49c0.42,0,0.77-0.35,0.77-0.77c0-0.22-0.09-0.42-0.25-0.57
					c-0.27-0.24-6.76-6.04-11.32-5.65c-0.42,0.04-0.73,0.4-0.7,0.82c0.03,0.41,0.39,0.73,0.8,0.7c0.01,0,0.02,0,0.03,0
					c3.23-0.24,8.44,3.71,10.17,5.27C22.78,244.42,22.96,244.49,23.15,244.49z"/>
			</g>
			<g id="Group_107" transform="translate(211.293 75.208)">
				<path id="Path_508" class="st27" d="M21.98,245.09c0.18,0,0.36-0.07,0.49-0.19c0.3-0.27,0.32-0.73,0.05-1.03c0,0,0,0,0,0
					c-0.23-0.26-5.82-6.3-10.13-6.38c-0.4-0.01-0.73,0.31-0.74,0.71s0.31,0.73,0.71,0.74c3.07,0.06,7.6,4.29,9.09,5.91
					C21.58,245,21.77,245.09,21.98,245.09z"/>
			</g>
			<g id="Group_108" transform="translate(208.661 96.911)">
				<path id="Path_509" class="st28" d="M16.89,253.67c0.36,0,0.64-0.29,0.64-0.64c0-0.36-0.29-0.65-0.64-0.65
					c-1.01,0-3.81-1.67-3.96-3.67c-0.1-1.24,4.59-6.21,8.99-10.09c0.27-0.23,0.29-0.64,0.06-0.91c0,0,0,0,0,0
					c-0.24-0.26-0.64-0.29-0.91-0.06c-2.26,1.99-9.61,8.7-9.42,11.16C11.85,251.56,15.26,253.67,16.89,253.67z"/>
			</g>
			<path id="Path_510" class="st6" d="M228.46,363.05c0,0-10.14-2.58-13.58-6.88C214.24,355.74,213.65,372.29,228.46,363.05z"/>
			<ellipse id="Ellipse_19" class="st28" cx="255.93" cy="350.01" rx="1.05" ry="1.05"/>
			<ellipse id="Ellipse_20" class="st28" cx="247.38" cy="348.96" rx="1.05" ry="1.05"/>
			<ellipse id="Ellipse_21" class="st28" cx="250.23" cy="354.11" rx="1.05" ry="1.05"/>
			<ellipse id="Ellipse_22" class="st28" cx="216.68" cy="336.4" rx="0.91" ry="0.91"/>
			<ellipse id="Ellipse_23" class="st28" cx="210.9" cy="331.66" rx="0.91" ry="0.91"/>
			<ellipse id="Ellipse_24" class="st28" cx="210.6" cy="336.76" rx="0.91" ry="0.91"/>
			<path id="Path_511" class="st8" d="M283.63,356.67l-3.16-1.5c0,0,11.85-16.98-15.36-27.75s-33.94-44.74-14.88-59.26
				c13.05-9.94,33.77-8.99,48.82-5.42c9.61,2.28,19,6.28,26.76,12.48c9.18,7.33,12.1,18.03,19.72,26.45
				c6.14,6.79,15.28,9.91,24.13,12.22c46.42,12.11,93.9,13.92,134.64,42.27c21.18,14.09,49.21,11.22,69.25,27.14
				c9.93,7.89,16.43,19.44,20.31,31.51c6.1,18.98,10.54,42.35,0.43,60.8c-7.58,13.82-21.99,21.21-36.9,24.5
				c-20.1,4.43-41.52,2.87-61.69-0.19c-64.5-9.78-57.45,12.11-108.71-27.86c-14.7-11.16-57.07-9.48-101.68-90.46
				c-0.83-4.62,24.6-2.75,24.61-26.44C309.93,331.48,284.43,350.9,283.63,356.67z"/>
			<g id="Girl-4" transform="matrix(-0.951, 0.309, -0.309, -0.951, 114.809, 107.244)">
				<path id="Path_1932-2" class="st8" d="M83.52-155.16c0,0,9.24,6.15,17.05,0.33c3.69-3.4,8.08-2.75,9.19-6.15
					s-4.32-6.36-3.01-11.33s7.72-10.01,7.66-15.18c-0.07-5.17-0.59-3.32-0.32-5.88s10.28-7.67,5.63-19.91
					c-1.05-2.95-1.96-3.53-0.79-6.61c1.18-3.08,0-6.02-3.08-6.15c-3.08-0.13-53.81-1.31-49.55,14.47c1.11,3.21-5.89,6.02-3.47,12.63
					c2.42,6.61,7.92,8.25,6.48,19.77s1.11,21.21,9.49,22.12C80.56-157.05,82.25-156.37,83.52-155.16z"/>
				<path id="Path_1933-2" class="st9" d="M99.23-179.24c0,0,3.67,3.86,4.19,0c0.52-3.86-4.84-8.58-5.56-6.48
					S99.23-179.24,99.23-179.24z"/>
				<path id="Path_1934-2" class="st9" d="M78.38-179.75c0,0-4.54,2.78-4.04-1.09c0.5-3.86,6.9-7.02,7.06-4.81
					C81.54-183.44,78.38-179.75,78.38-179.75z"/>
				<path id="Path_2380-2" class="st9" d="M89.67-185.14L89.67-185.14c2.53,0,4.58-2.05,4.58-4.58v-11.65
					c0-2.53-2.05-4.58-4.58-4.58l0,0c-2.53,0-4.58,2.05-4.58,4.58v11.65C85.09-187.19,87.14-185.14,89.67-185.14L89.67-185.14z"/>
				<path id="Path_1935-2" class="st10" d="M85.09-198.76c0,0,3.47-7.4,9.16,0c0.33-0.33,19.7-2.88,21.4-28.34
					c0.14-3.27-48.83-2.74-48.96,0C66.57-224.35,63.56-203.07,85.09-198.76z"/>
				<path id="Path_1936-2" class="st3" d="M93.42-229.47l0.14,0.18c0.23,0.3,0.59,0.47,0.96,0.47c0.37,0,0.72-0.17,0.95-0.46
					l0.15-0.18h-0.23c-0.57-0.01-1.16-0.01-1.74-0.01H93.42z M94.53-229.04c-0.22,0-0.43-0.07-0.6-0.2c0.4,0,0.8,0,1.2,0.01
					C94.95-229.11,94.74-229.04,94.53-229.04z M80.29-229.2l-0.5,0.02l-0.96,0.05l-0.49,0.03l0.45,0.19
					c0.34,0.14,0.73,0.12,1.05-0.06L80.29-229.2z M101.83-226.94c-0.68,0-1.24,0.55-1.24,1.24c0,0.68,0.55,1.24,1.23,1.24
					c0.68,0,1.24-0.55,1.24-1.23v0C103.06-226.38,102.51-226.94,101.83-226.94z M101.83-224.69c-0.56,0-1.01-0.45-1.01-1.01
					c0-0.56,0.45-1.01,1.01-1.01c0.56,0,1.01,0.45,1.01,1.01c0,0,0,0,0,0C102.84-225.14,102.39-224.69,101.83-224.69z M86.5-226.94
					c-0.68,0-1.23,0.55-1.24,1.24c0,0.13,0.02,0.25,0.06,0.38c0.12,0.67,0.77,1.11,1.44,0.99c0.67-0.12,1.11-0.77,0.99-1.44
					c-0.01-0.06-0.03-0.12-0.05-0.18C87.59-226.53,87.09-226.94,86.5-226.94z M86.54-224.56c-0.48,0-0.9-0.34-0.99-0.82v-0.01
					c-0.03-0.1-0.05-0.21-0.06-0.31c0.01-0.56,0.47-1,1.03-0.99c0.47,0.01,0.87,0.34,0.97,0.79c0.04,0.1,0.06,0.21,0.06,0.33
					C87.56-225.02,87.1-224.56,86.54-224.56C86.54-224.56,86.54-224.56,86.54-224.56z M71.61-226.94c-0.68,0-1.23,0.55-1.23,1.24
					c0,0.68,0.55,1.23,1.24,1.23c0.68,0,1.23-0.55,1.23-1.24C72.85-226.38,72.29-226.94,71.61-226.94z M71.61-224.69
					c-0.56,0-1.01-0.45-1.01-1.01s0.45-1.01,1.01-1.01c0.56,0,1.01,0.45,1.01,1.01l0,0C72.63-225.14,72.17-224.69,71.61-224.69z
					 M109.48-224.43c-0.68,0-1.24,0.55-1.24,1.24s0.55,1.24,1.24,1.24c0.68,0,1.24-0.55,1.24-1.24
					C110.72-223.87,110.17-224.42,109.48-224.43L109.48-224.43z M109.48-222.18c-0.56,0-1.01-0.45-1.01-1.01s0.45-1.01,1.01-1.01
					s1.01,0.45,1.01,1.01l0,0C110.5-222.63,110.04-222.18,109.48-222.18L109.48-222.18z M94.53-224.43c-0.68,0-1.24,0.55-1.24,1.24
					s0.55,1.24,1.24,1.24c0.68,0,1.24-0.55,1.24-1.24C95.76-223.87,95.21-224.43,94.53-224.43z M94.53-222.18
					c-0.56,0-1.01-0.45-1.01-1.01s0.45-1.01,1.01-1.01s1.01,0.45,1.01,1.01C95.54-222.63,95.09-222.18,94.53-222.18z M79.27-224.43
					c-0.68,0-1.23,0.55-1.23,1.24c0,0.68,0.55,1.23,1.24,1.23c0.68,0,1.23-0.55,1.23-1.24C80.51-223.87,79.95-224.43,79.27-224.43z
					 M79.27-222.18c-0.56,0-1.01-0.45-1.01-1.01s0.45-1.01,1.01-1.01s1.01,0.45,1.01,1.01c0,0,0,0,0,0
					C80.28-222.63,79.83-222.18,79.27-222.18z M101.83-220.07c-0.68,0-1.24,0.55-1.24,1.23c0,0.68,0.55,1.24,1.23,1.24
					c0.68,0,1.24-0.55,1.24-1.24l0,0C103.06-219.52,102.51-220.07,101.83-220.07z M101.83-217.82c-0.56,0-1.01-0.45-1.01-1.01
					s0.45-1.01,1.01-1.01c0.56,0,1.01,0.45,1.01,1.01C102.84-218.28,102.38-217.83,101.83-217.82L101.83-217.82z M86.5-220.07
					c-0.68-0.01-1.23,0.54-1.24,1.21c0,0.14,0.02,0.28,0.07,0.41c0.13,0.67,0.78,1.1,1.45,0.97c0.67-0.13,1.1-0.78,0.97-1.45
					c-0.01-0.05-0.02-0.1-0.04-0.15C87.59-219.66,87.09-220.07,86.5-220.07z M86.54-217.69c-0.48,0-0.9-0.34-0.99-0.82
					c-0.04-0.1-0.06-0.21-0.06-0.33c0.01-0.56,0.47-1,1.03-0.99c0.47,0.01,0.87,0.34,0.97,0.79c0.04,0.1,0.06,0.21,0.06,0.33
					C87.55-218.15,87.1-217.7,86.54-217.69L86.54-217.69z M71.61-220.07c-0.68,0-1.23,0.55-1.23,1.24c0,0.68,0.55,1.23,1.24,1.23
					c0.68,0,1.23-0.55,1.23-1.23C72.85-219.52,72.29-220.07,71.61-220.07z M71.61-217.82c-0.56,0-1.01-0.45-1.01-1.01
					c0-0.56,0.45-1.01,1.01-1.01c0.56,0,1.01,0.45,1.01,1.01C72.62-218.28,72.17-217.83,71.61-217.82L71.61-217.82z M109.48-217.56
					c-0.68,0-1.24,0.55-1.24,1.24s0.55,1.24,1.24,1.24c0.68,0,1.24-0.55,1.24-1.24C110.72-217.01,110.17-217.56,109.48-217.56
					L109.48-217.56z M109.48-215.31c-0.56,0-1.01-0.45-1.01-1.01c0-0.56,0.45-1.01,1.01-1.01c0.56,0,1.01,0.45,1.01,1.01
					C110.49-215.77,110.04-215.32,109.48-215.31L109.48-215.31z M94.53-217.56c-0.68,0-1.24,0.55-1.24,1.24s0.55,1.24,1.24,1.24
					c0.68,0,1.24-0.55,1.24-1.24C95.76-217.01,95.21-217.56,94.53-217.56z M94.53-215.32c-0.56,0-1.01-0.45-1.01-1.01
					c0-0.56,0.45-1.01,1.01-1.01c0.56,0,1.01,0.45,1.01,1.01C95.54-215.77,95.09-215.32,94.53-215.32L94.53-215.32z M79.27-217.56
					c-0.68,0-1.23,0.55-1.23,1.24c0,0.68,0.55,1.23,1.24,1.23c0.68,0,1.23-0.55,1.23-1.24C80.51-217.01,79.95-217.56,79.27-217.56z
					 M79.27-215.32c-0.56,0-1.01-0.45-1.01-1.01c0-0.56,0.45-1.01,1.01-1.01c0.56,0,1.01,0.45,1.01,1.01
					C80.28-215.77,79.83-215.32,79.27-215.32C79.27-215.32,79.27-215.32,79.27-215.32L79.27-215.32z M101.83-213.21
					c-0.68,0-1.24,0.55-1.24,1.23c0,0.68,0.55,1.24,1.23,1.24c0.68,0,1.24-0.55,1.24-1.23l0,0
					C103.06-212.66,102.51-213.21,101.83-213.21z M101.83-210.96c-0.56,0-1.01-0.45-1.01-1.01c0-0.56,0.45-1.01,1.01-1.01
					c0.56,0,1.01,0.45,1.01,1.01C102.84-211.42,102.38-210.96,101.83-210.96z M86.5-213.21c-0.78-0.08-1.48,0.49-1.56,1.27
					c-0.08,0.78,0.49,1.48,1.27,1.56c0.78,0.08,1.48-0.49,1.56-1.27c0.02-0.19,0-0.39-0.06-0.57
					C87.59-212.8,87.09-213.21,86.5-213.21z M86.54-210.83c-0.48,0-0.9-0.34-0.99-0.82c-0.04-0.1-0.06-0.21-0.06-0.33
					c0.01-0.56,0.48-1,1.03-0.99c0.47,0.01,0.86,0.34,0.97,0.79c0.04,0.1,0.06,0.21,0.06,0.33
					C87.55-211.29,87.1-210.84,86.54-210.83z M71.61-213.21c-0.68,0-1.23,0.55-1.23,1.24c0,0.68,0.55,1.23,1.24,1.23
					c0.68,0,1.23-0.55,1.23-1.23C72.85-212.66,72.29-213.21,71.61-213.21z M71.61-210.96c-0.56,0-1.01-0.45-1.01-1.01
					c0-0.56,0.45-1.01,1.01-1.01c0.56,0,1.01,0.45,1.01,1.01C72.62-211.42,72.17-210.96,71.61-210.96z M109.06-208.8
					c-0.68,0-1.24,0.55-1.24,1.24c0,0.22,0.06,0.44,0.18,0.63l0.08,0.13l0.1-0.12c0.46-0.52,0.91-1.08,1.33-1.64l0.09-0.12
					l-0.14-0.05C109.33-208.77,109.2-208.8,109.06-208.8z M108.13-207.19c-0.05-0.12-0.08-0.25-0.08-0.38
					c-0.01-0.55,0.43-1.01,0.98-1.02c0.07,0,0.14,0,0.2,0.02C108.88-208.09,108.51-207.62,108.13-207.19z M94.11-208.8
					c-0.68,0-1.24,0.55-1.24,1.24c0,0.68,0.55,1.24,1.24,1.24s1.24-0.55,1.24-1.24C95.34-208.24,94.79-208.8,94.11-208.8z
					 M94.11-206.55c-0.56,0-1.01-0.45-1.01-1.01c0-0.56,0.45-1.01,1.01-1.01c0.56,0,1.01,0.45,1.01,1.01
					C95.12-207,94.67-206.55,94.11-206.55z M78.85-208.8c-0.68,0-1.24,0.55-1.24,1.24c0,0.68,0.55,1.24,1.23,1.24
					c0.68,0,1.24-0.55,1.24-1.24c0,0,0,0,0,0C80.09-208.24,79.53-208.8,78.85-208.8z M78.85-206.55c-0.56,0-1.01-0.45-1.01-1.01
					c0-0.56,0.45-1.01,1.01-1.01c0.56,0,1.01,0.45,1.01,1.01l0,0C79.86-207,79.41-206.55,78.85-206.55z M101.41-204.44
					c-0.68,0-1.24,0.55-1.23,1.24c0,0.68,0.55,1.24,1.24,1.24c0.68,0,1.23-0.55,1.23-1.24
					C102.64-203.89,102.09-204.44,101.41-204.44z M101.41-202.2c-0.56,0-1.01-0.45-1.01-1.01c0-0.56,0.45-1.01,1.01-1.01
					c0.56,0,1.01,0.45,1.01,1.01c0,0,0,0,0,0C102.42-202.65,101.96-202.2,101.41-202.2z M86.08-204.44c-0.68,0-1.23,0.55-1.24,1.24
					c0,0.13,0.02,0.26,0.07,0.38c0.21,0.65,0.91,1,1.56,0.79c0.65-0.21,1-0.91,0.79-1.56C87.09-204.1,86.62-204.44,86.08-204.44z
					 M86.12-202.07c-0.48,0-0.9-0.34-0.99-0.82c-0.04-0.1-0.06-0.21-0.06-0.33c-0.01-0.56,0.44-1.02,1-1.02c0.49,0,0.91,0.34,1,0.82
					c0.04,0.11,0.06,0.21,0.06,0.33C87.14-202.52,86.68-202.07,86.12-202.07C86.12-202.07,86.12-202.07,86.12-202.07L86.12-202.07z
					 M94.7-201.46c-0.68,0-1.24,0.55-1.24,1.24c0,0.68,0.55,1.24,1.24,1.24c0.68,0,1.24-0.55,1.24-1.24c0,0,0,0,0,0
					C95.93-200.91,95.38-201.46,94.7-201.46z M94.7-199.21c-0.56,0-1.01-0.45-1.01-1.01c0-0.56,0.45-1.01,1.01-1.01
					c0.56,0,1.01,0.45,1.01,1.01C95.71-199.66,95.25-199.21,94.7-199.21L94.7-199.21z M79.44-201.46c-0.4,0-0.78,0.2-1.01,0.53
					l-0.08,0.11l0.12,0.06c0.66,0.31,1.34,0.6,2.03,0.86l0.12,0.05l0.03-0.13c0.01-0.08,0.02-0.16,0.02-0.24
					C80.67-200.91,80.12-201.46,79.44-201.46z M78.69-200.91c0.38-0.41,1.02-0.44,1.43-0.07c0.21,0.19,0.33,0.46,0.33,0.75
					c0,0.02,0,0.04,0,0.06C79.85-200.39,79.26-200.64,78.69-200.91L78.69-200.91z"/>
				<path id="Path_1937-2" class="st11" d="M85.09-196.29c0,0,9.16,5.13,9.16,5.85s-9.16,1.96-9.16,0.72V-196.29z"/>
				<ellipse id="Ellipse_232-2" class="st9" cx="89.43" cy="-178.79" rx="11" ry="12.96"/>
				<path id="Path_1938-2" class="st8" d="M77.84-179.18c0,0,10.45,6.94,10.52,8.64c0.46-0.13,10.25-8.51,12.06-7.33
					c1.81,1.18,3.58,13.61-4.8,15.32C87.25-160.85,73.02-164.98,77.84-179.18z"/>
			</g>
		</g>
	</g>
	<g id="Wifi" transform="translate(905.441 112.599) rotate(-18)">
		<circle id="Ellipse_47" class="st16" cx="35.54" cy="327.32" r="97.86"/>
		<g id="Group_163" transform="translate(40.766 55.486)">
			<g id="Group_160" transform="translate(42.788 59.194)">
				<circle id="Ellipse_48" class="st3" cx="-49.54" cy="242.24" r="12.78"/>
			</g>
			<g id="Group_161" transform="translate(16.036 29.687)">
				<path id="Path_696" class="st3" d="M9.77,258.58c-2.08,0-4.07-0.83-5.54-2.3c-14.66-14.66-38.34-14.91-53.3-0.56
					c-3.15,2.96-8.11,2.8-11.07-0.35c-2.92-3.11-2.81-7.97,0.23-10.96c21.12-20.24,54.54-19.89,75.22,0.79
					c3.06,3.06,3.06,8.02,0,11.08C13.84,257.75,11.85,258.57,9.77,258.58z"/>
			</g>
			<g id="Group_162">
				<path id="Path_697" class="st3" d="M44.38,268.32c-2.15-0.01-4.19-0.95-5.58-2.59c-11.05-12.99-27.21-20.51-44.26-20.6
					c-16.83,0.1-32.8,7.43-43.84,20.13c-2.62,3.05-7.21,3.39-10.26,0.78c-0.11-0.1-0.23-0.2-0.34-0.31
					c-3.05-2.99-3.25-7.84-0.45-11.07c13.83-15.9,33.82-25.07,54.89-25.19c21.34,0.12,41.58,9.53,55.41,25.79
					c2.77,3.25,2.52,8.1-0.56,11.06C48.04,267.6,46.25,268.31,44.38,268.32z"/>
			</g>
		</g>
	</g>
	<g id="Message" transform="translate(1028.262 670.291)">
		<path id="Path_682" class="st29" d="M390.68,237.59l-319.51-0.11c-32.86-0.01-59.51,40.04-59.53,89.45
			c-0.02,43,20.15,78.9,47.04,87.51l-11.43,35.04l50.34-33.06l236.83,0.08l36.23,0.01l19.97,0.01
			c32.86,0.01,59.51-40.04,59.53-89.45S423.54,237.6,390.68,237.59z"/>
		<g id="Group_155" transform="translate(48.535 45.899)">
			<path id="Path_683" class="st3" d="M357.55,240.65h-0.1L13.2,240.53c-0.84,0-1.53-0.68-1.53-1.53s0.68-1.53,1.53-1.53
				l344.26,0.12c0.84,0,1.53,0.68,1.53,1.52C358.99,239.93,358.36,240.6,357.55,240.65L357.55,240.65z"/>
			<path id="Path_684" class="st3" d="M304.12,321.41l-0.11,0.01l-290.85-0.1c-0.84,0-1.52-0.68-1.52-1.53
				c0.01-0.84,0.69-1.52,1.53-1.53l290.85,0.1c0.84,0,1.53,0.68,1.53,1.52C305.55,320.69,304.92,321.36,304.12,321.41L304.12,321.41
				z"/>
			<path id="Path_685" class="st3" d="M224.93,283.55l-0.1,0.01l-211.65-0.07c-0.84,0-1.53-0.68-1.53-1.53s0.68-1.53,1.53-1.53
				l211.64,0.07c0.84-0.01,1.53,0.67,1.54,1.52C226.36,282.83,225.73,283.5,224.93,283.55L224.93,283.55z"/>
			<path id="Path_686" class="st3" d="M357.54,283.59h-0.11l-106.22-0.04c-0.84,0-1.53-0.68-1.53-1.53s0.68-1.53,1.53-1.53
				l106.22,0.04c0.84,0,1.53,0.68,1.53,1.52C358.97,282.87,358.34,283.54,357.54,283.59L357.54,283.59z"/>
		</g>
	</g>
	<g id="Boy" transform="translate(96.777 801.647)">
		<ellipse id="Ellipse_296" class="st15" cx="409.95" cy="881.64" rx="67.89" ry="11.58"/>
		<path id="Path_1418" class="st30" d="M359.48,793.9c0,0-12.08,84.3,4.92,84.3s98.71,6.43,99.45,0s-61.76-26.2-70.96-36.31
			s9.65-40.9,8.73-43.2S359.48,793.9,359.48,793.9z"/>
		<path id="Path_1419" class="st30" d="M237.4,789.5c0,0-29.26,39.17-22.36,47.85s38.14,39.93,56.53,40.39s46.88,3.22,46.88-3.22
			s-48.47-29.62-52.27-41.7s-4.26-21.72-3.8-35.97S246.2,774.63,237.4,789.5z"/>
		<path id="Path_1420" class="st31" d="M350.25,629.79c15.19-4.11,29.96,5.64,32.72,21.54c3.19,18.35,0.01,46.9-30.57,82.29
			c-54.91,63.55-90.66,81.65-89.21,82.7s-31.24-20.71-31.24-20.71S279.35,648.97,350.25,629.79z"/>
		<path id="Path_1421" class="st32" d="M285.12,668.86c0,0-32.59,10.19,3.49,15.4s63.38-4.37,70.12,34.16
			c2.09,11.96-0.66,6.42,0,7.48S418.59,603.03,285.12,668.86z"/>
		<path id="Path_1422" class="st33" d="M331.91,405.12c0,0,50.72,74.32,62.36,100.06c11.64,25.74-45.04,53.31-45.04,53.31
			s-74.15-116.73-71.69-125.61S331.91,405.12,331.91,405.12z"/>
		<g id="Chair" transform="translate(0 412.249)">
			<path id="Path_2239" class="st15" d="M21.58,476.77h234.05c5.49,0,9.94,4.45,9.94,9.94l0,0c0,5.49-4.45,9.94-9.94,9.94H21.58
				c-5.49,0-9.94-4.45-9.94-9.94l0,0l0,0C11.64,481.22,16.09,476.77,21.58,476.77L21.58,476.77z"/>
			<path id="Path_2238" class="st29" d="M31.95,237.48H244.9c4.8,0,8.69,3.89,8.69,8.69l0,0v234.13c0,4.8-3.89,8.69-8.69,8.69l0,0
				H31.95c-4.8,0-8.69-3.89-8.69-8.69l0,0V246.18C23.26,241.38,27.15,237.48,31.95,237.48z"/>
			<path id="Path_623" class="st2" d="M23.26,442.69c0,0,69.53-7.61,128.2-88.55s55.95-105.39,61.39-116.25H23.26V442.69z"/>
			<path id="Path_624" class="st16" d="M208.88,237.48H77.05C56.36,245,37.32,252.5,23.25,258.2v150.08
				c10.05,1.25,9.25,13.79,14.83,7.11c9.9-11.86,21.45-114.92-1.39-129.84C19.58,274.38,167.18,292.68,208.88,237.48z"/>
		</g>
		<path id="Path_1423" class="st3" d="M364.54,547.22c-2.39,0-4.33-1.94-4.34-4.34c0-2.39,1.94-4.34,4.34-4.34
			c2.39,0,4.34,1.94,4.34,4.34C368.88,545.28,366.94,547.22,364.54,547.22z M364.54,539.33c-1.96,0-3.55,1.59-3.55,3.55
			c0,1.96,1.59,3.55,3.55,3.55c1.96,0,3.55-1.59,3.55-3.55C368.1,540.92,366.51,539.33,364.54,539.33L364.54,539.33z M337.68,531.27
			c-2.39,0-4.33-1.94-4.34-4.34c0-2.39,1.94-4.33,4.34-4.34c2.39,0,4.33,1.94,4.34,4.34C342.01,529.32,340.07,531.26,337.68,531.27
			L337.68,531.27z M337.68,523.37c-1.96,0-3.55,1.59-3.55,3.55c0,1.96,1.59,3.55,3.55,3.55c1.96,0,3.55-1.59,3.55-3.55
			C341.23,524.97,339.64,523.38,337.68,523.37L337.68,523.37z M388.25,530.81l-0.29-0.17c-1.32-0.77-2.12-2.18-2.12-3.71
			c0-2.39,1.94-4.33,4.34-4.34c1.01,0,2,0.36,2.77,1.02l0.25,0.21l-0.16,0.29c-1.33,2.28-2.86,4.44-4.57,6.45L388.25,530.81z
			 M390.18,523.38c-1.96,0-3.55,1.59-3.55,3.55c0,1.13,0.54,2.19,1.46,2.85c1.52-1.81,2.89-3.74,4.1-5.77
			C391.6,523.6,390.9,523.38,390.18,523.38L390.18,523.38z M363.3,515.99c-2.39,0-4.33-1.94-4.34-4.34c0-2.39,1.94-4.33,4.34-4.34
			c2.39,0,4.33,1.94,4.34,4.34C367.63,514.04,365.69,515.98,363.3,515.99L363.3,515.99z M363.3,508.09c-1.96,0-3.55,1.59-3.55,3.55
			c0,1.96,1.59,3.55,3.55,3.55c1.96,0,3.55-1.59,3.55-3.55C366.85,509.69,365.26,508.1,363.3,508.09L363.3,508.09z M392.02,505.51
			c-2.39,0-4.34-1.94-4.34-4.34c0.01-1.84,1.17-3.48,2.91-4.08l0.32-0.11l0.16,0.3c1.4,2.63,2.59,4.98,3.52,6.99l0.14,0.3
			l-0.28,0.19C393.74,505.25,392.89,505.51,392.02,505.51L392.02,505.51z M390.54,497.95c-1.26,0.57-2.07,1.83-2.08,3.22
			c0,1.96,1.59,3.55,3.55,3.55c0.6,0,1.19-0.15,1.72-0.44C392.86,502.43,391.79,500.31,390.54,497.95L390.54,497.95z M339.51,505.51
			c-2.39,0-4.33-1.94-4.34-4.34c0-2.39,1.94-4.33,4.34-4.34c2.39,0,4.34,1.94,4.34,4.34C343.84,503.57,341.91,505.51,339.51,505.51
			L339.51,505.51z M339.51,497.62c-1.96,0-3.55,1.59-3.55,3.55c0,1.96,1.59,3.55,3.55,3.55c1.96,0,3.55-1.59,3.55-3.55
			C343.06,499.21,341.47,497.62,339.51,497.62L339.51,497.62z M365.13,490.23c-2.39,0-4.33-1.94-4.34-4.34
			c0-2.39,1.94-4.34,4.34-4.34c2.39,0,4.34,1.94,4.34,4.34C369.47,488.28,367.53,490.22,365.13,490.23L365.13,490.23z
			 M365.13,482.33c-1.96,0-3.55,1.59-3.55,3.55c0,1.96,1.59,3.55,3.55,3.55c1.96,0,3.55-1.59,3.55-3.55
			C368.68,483.93,367.09,482.34,365.13,482.33L365.13,482.33z M311.48,490.23c-2.39,0-4.33-1.94-4.34-4.34
			c0-0.06,0.01-0.13,0.02-0.19c-0.01-0.15-0.02-0.21-0.02-0.27c0-2.39,1.94-4.34,4.34-4.34c2.39,0,4.34,1.94,4.34,4.34
			c0,0.06-0.01,0.12-0.01,0.18c0.01,0.15,0.01,0.22,0.01,0.28C315.81,488.28,313.87,490.23,311.48,490.23L311.48,490.23z
			 M311.48,481.88c-1.96,0-3.55,1.59-3.55,3.55c0.02,0.12,0.02,0.16,0.02,0.21c0,0.09-0.01,0.13-0.02,0.17
			c-0.04,1.97,1.53,3.59,3.49,3.63c0.02,0,0.03,0,0.05,0c1.96,0,3.55-1.59,3.55-3.55c-0.02-0.12-0.02-0.16-0.02-0.21
			c0-0.06,0.01-0.12,0.02-0.18c0.04-1.97-1.53-3.59-3.49-3.63C311.51,481.88,311.49,481.88,311.48,481.88L311.48,481.88z
			 M336.99,475.03c-2.39,0-4.33-1.94-4.34-4.34c0-2.39,1.94-4.33,4.34-4.34c2.39,0,4.33,1.94,4.34,4.34
			C341.32,473.09,339.38,475.03,336.99,475.03L336.99,475.03z M336.99,467.14c-1.96,0-3.55,1.59-3.55,3.55
			c0,1.96,1.59,3.55,3.55,3.55c1.96,0,3.55-1.59,3.55-3.55C340.53,468.74,338.95,467.15,336.99,467.14L336.99,467.14z
			 M362.61,459.75c-2.39,0-4.33-1.94-4.34-4.34c0-2.39,1.94-4.33,4.34-4.34c0.08,0,0.15,0.01,0.23,0.02l0.2,0.01l0.2,0.18
			c1.13,1.75,2.26,3.52,3.39,5.29l0.1,0.16l-0.07,0.18C366.02,458.62,364.41,459.74,362.61,459.75L362.61,459.75z M362.61,451.86
			c-1.96,0-3.55,1.59-3.55,3.55c0,1.96,1.59,3.55,3.55,3.55c1.41-0.01,2.68-0.85,3.25-2.14c-1.06-1.66-2.12-3.32-3.18-4.96
			C362.66,451.87,362.63,451.86,362.61,451.86L362.61,451.86z M309.41,459.29c-0.06,0-0.13-0.01-0.19-0.02l-0.04-0.4l-0.04,0.4
			c-0.06,0.01-0.12,0.02-0.19,0.02c-2.39,0-4.34-1.94-4.34-4.34c0-2.4,1.94-4.34,4.34-4.34c0.06,0,0.12,0.01,0.18,0.01
			c0.15-0.01,0.22-0.01,0.28-0.01c2.39,0,4.33,1.94,4.34,4.34C313.75,457.35,311.81,459.29,309.41,459.29L309.41,459.29z
			 M309.01,451.41c-1.97-0.03-3.58,1.55-3.61,3.51c0,0.01,0,0.02,0,0.03c0,1.96,1.59,3.55,3.55,3.55l0.23-0.02l0.15,0.02h0.02
			c1.97,0.03,3.59-1.54,3.62-3.51c0-0.01,0-0.03,0-0.04c0-1.96-1.59-3.55-3.55-3.55c-0.33,0.04-0.32,0.02-0.39,0.01L309.01,451.41z
			 M339.51,441.14c-2.39,0-4.33-1.94-4.34-4.34c0-2.39,1.94-4.33,4.34-4.34c2.39,0,4.34,1.94,4.34,4.34
			C343.85,439.2,341.91,441.15,339.51,441.14L339.51,441.14z M339.51,433.25c-1.96,0-3.55,1.59-3.55,3.55
			c0,1.96,1.59,3.55,3.55,3.55c1.96,0,3.55-1.59,3.55-3.55C343.07,434.84,341.48,433.25,339.51,433.25L339.51,433.25z
			 M286.09,441.14c-2.39,0-4.33-1.94-4.34-4.34c0-2.39,1.94-4.33,4.34-4.34c2.39,0,4.33,1.94,4.34,4.34
			C290.43,439.2,288.48,441.14,286.09,441.14L286.09,441.14z M286.09,433.25c-1.96,0-3.55,1.59-3.55,3.55
			c0,1.96,1.59,3.55,3.55,3.55c1.96,0,3.55-1.59,3.55-3.55C289.64,434.84,288.05,433.25,286.09,433.25L286.09,433.25z
			 M311.48,425.86c-2.39,0-4.33-1.94-4.34-4.34c0-0.06,0.01-0.13,0.02-0.19c-0.01-0.15-0.02-0.21-0.02-0.27
			c0-2.39,1.94-4.33,4.34-4.34c2.39,0,4.34,1.94,4.34,4.34c0,0.06-0.01,0.13-0.01,0.19c0.01,0.15,0.01,0.21,0.01,0.27
			C315.81,423.92,313.87,425.86,311.48,425.86L311.48,425.86z M311.48,417.51c-1.96,0-3.55,1.59-3.55,3.55
			c0.02,0.12,0.02,0.16,0.02,0.21c0,0.06-0.01,0.12-0.02,0.18c-0.04,1.97,1.52,3.59,3.49,3.63c0.02,0,0.03,0,0.05,0
			c1.96,0,3.55-1.59,3.55-3.55c-0.02-0.12-0.02-0.16-0.02-0.21c0-0.06,0.01-0.12,0.02-0.18c0.04-1.97-1.53-3.59-3.5-3.63
			C311.51,417.51,311.49,417.51,311.48,417.51L311.48,417.51z M334.18,408.7c-0.22-0.26-0.42-0.54-0.57-0.84l0.67-0.4l0.52,0.76
			L334.18,408.7z"/>
		<path id="Path_1424" class="st17" d="M329.83,400.65c0,0,19.4,97.48,18.79,128.73c-3.37,12.26-25.24,1.67-24.2-3.68
			S320.23,409.18,329.83,400.65z"/>
		<path id="Path_2301" class="st9" d="M336.01,338.04l4.51,2.6c9.97,5.76,13.39,18.51,7.63,28.49l0,0l-17.19,29.77
			c-5.76,9.97-18.51,13.39-28.49,7.63l-4.51-2.6c-9.97-5.76-13.39-18.51-7.63-28.49l17.19-29.77
			C313.28,335.7,326.03,332.28,336.01,338.04C336.01,338.04,336.01,338.04,336.01,338.04z"/>
		<path id="Path_1425" class="st34" d="M307.36,340.35c0,0-3.16,21.68,38.7,33.74c0.21-0.36,18.13-24.92,0.97-27.53
			S307.36,340.35,307.36,340.35z"/>
		<path id="Path_1426" class="st8" d="M364.47,240.07c0,0,21.47,33.33,3.46,55.62S333.29,247.87,364.47,240.07z"/>
		
			<ellipse id="Ellipse_170" transform="matrix(0.9437 -0.3309 0.3309 0.9437 -84.4407 127.4781)" class="st9" cx="332.19" cy="311.75" rx="41.54" ry="54.71"/>
		
			<ellipse id="Ellipse_171" transform="matrix(0.8235 -0.5673 0.5673 0.8235 -138.3728 226.2466)" class="st9" cx="294.44" cy="335.51" rx="12.43" ry="20.92"/>
		<path id="Path_1427" class="st8" d="M312.99,326.57c-1.59-8.46,1.87-17.07,8.87-22.08c15.72-11.23,43.57-33.28,45.76-49.92
			c3.06-23.28-17.23-16.31-19.53-15.4s-5.97,2.76-25.51,2.76s-48.48-2.07-67.56,27.57s-3.68,67.77,32.17,79.73
			c10.4,3.92,11.95,7.81,13.1,8.96s8.58-7.23,9.3-9.14s-38.71,3.39-23.31-23.03c4.81-6.95,19.53,0.69,24.13,9.19
			c3.91,5.51,4.37-0.92,3.68-3.68C313.8,330.46,313.41,328.81,312.99,326.57z"/>
		<path id="Path_1428" class="st33" d="M336.03,427.11c0.26-11.95-3.42-23.66-10.46-33.32c-16.04-22.01-48.56-52.35-88.01-11.93
			c-56.53,57.91-88.7,129.14-92.37,207.26c-2.56,54.35,88.96,42.64,144.89,30.48c24.68-5.37,42.45-26.95,42.99-52.2L336.03,427.11z"
			/>
		<path id="Path_1429" class="st3" d="M197.75,629.85l-0.84-0.06c-2.03-0.15-4.02-0.33-5.89-0.54l-0.84-0.1l0.61-0.58
			c0.8-0.76,1.86-1.19,2.97-1.19c1.38,0,2.68,0.66,3.49,1.78L197.75,629.85z M192.11,628.58c1.24,0.13,2.52,0.25,3.83,0.35
			C194.84,628.08,193.35,627.94,192.11,628.58z M271.65,620.78c-0.06,0-0.12-0.01-0.18-0.01h-0.1c-0.06,0.01-0.12,0.01-0.18,0.01
			c-2.39,0-4.34-1.94-4.34-4.34c0-2.39,1.94-4.33,4.34-4.34c0.06,0,0.12,0.01,0.18,0.01h0.1c0.06-0.01,0.12-0.01,0.18-0.01
			c2.39,0,4.33,1.94,4.34,4.34C275.99,618.84,274.05,620.78,271.65,620.78L271.65,620.78z M271.25,612.9
			c-1.97-0.03-3.59,1.54-3.62,3.51c0,0.01,0,0.02,0,0.04c0,1.96,1.59,3.55,3.55,3.55c0.03,0,0.05,0,0.08-0.01
			c0.1-0.01,0.2-0.01,0.3,0h0.02c1.97,0.03,3.59-1.54,3.62-3.51c0-0.01,0-0.02,0-0.04c0-1.96-1.59-3.55-3.55-3.55
			c-0.34,0.04-0.31,0.02-0.38,0.01H271.25z M219.37,620.78c-2.39,0-4.33-1.94-4.34-4.34c0-2.39,1.94-4.33,4.34-4.34
			c2.39,0,4.34,1.94,4.34,4.34C223.71,618.84,221.77,620.78,219.37,620.78L219.37,620.78z M219.37,612.89
			c-1.96,0-3.55,1.59-3.55,3.55c0,1.96,1.59,3.55,3.55,3.55c1.96,0,3.55-1.59,3.55-3.55C222.92,614.48,221.34,612.89,219.37,612.89
			L219.37,612.89z M165.58,620.78c-2.39,0-4.33-1.94-4.34-4.34c0.01-0.46,0.08-0.91,0.23-1.34c0.41-2.01,2.19-3.46,4.24-3.45
			c2.39,0,4.33,1.94,4.34,4.34c0,0.46-0.08,0.91-0.23,1.34C169.41,619.34,167.64,620.78,165.58,620.78L165.58,620.78z
			 M165.72,612.43c-1.7,0-3.16,1.2-3.48,2.87c-0.13,0.37-0.2,0.75-0.21,1.15c0,1.96,1.59,3.55,3.55,3.55c1.7,0,3.16-1.2,3.48-2.87
			c0.13-0.37,0.19-0.75,0.2-1.14C169.26,614.03,167.68,612.44,165.72,612.43L165.72,612.43z M301.75,602.63
			c-2.39,0-4.33-1.94-4.34-4.34c0-2.39,1.94-4.33,4.34-4.34c2.39,0,4.33,1.94,4.34,4.34C306.08,600.68,304.14,602.62,301.75,602.63
			L301.75,602.63z M301.75,594.74c-1.96,0-3.55,1.59-3.55,3.55c0,1.96,1.59,3.55,3.55,3.55c1.96,0,3.55-1.59,3.55-3.55
			C305.3,596.33,303.71,594.74,301.75,594.74L301.75,594.74z M248.32,602.63c-2.39,0-4.33-1.94-4.34-4.34
			c0-2.39,1.94-4.33,4.34-4.34c2.39,0,4.33,1.94,4.34,4.34C252.65,600.68,250.72,602.62,248.32,602.63L248.32,602.63z
			 M248.32,594.74c-1.96,0-3.55,1.59-3.55,3.55c0,1.96,1.59,3.55,3.55,3.55c1.96,0,3.55-1.59,3.55-3.55
			C251.87,596.33,250.29,594.74,248.32,594.74L248.32,594.74z M195.82,602.63c-2.39,0-4.33-1.94-4.34-4.34
			c0-2.39,1.94-4.33,4.34-4.34c2.39,0,4.33,1.94,4.34,4.34C200.15,600.69,198.21,602.62,195.82,602.63L195.82,602.63z
			 M195.82,594.74c-1.96,0-3.55,1.59-3.55,3.55c0,1.96,1.59,3.55,3.55,3.55c1.96,0,3.55-1.59,3.55-3.55
			C199.37,596.33,197.78,594.74,195.82,594.74L195.82,594.74z M145.93,601l-0.31-1.43c-0.26-1.18-0.46-2.38-0.59-3.59l-0.16-1.44
			l0.87,1.17c0.56,0.74,0.87,1.65,0.87,2.58c0,0.45-0.08,0.89-0.22,1.32L145.93,601z M327.37,587.35c-2.39,0-4.33-1.94-4.34-4.34
			c0-2.39,1.94-4.34,4.34-4.34c1.7,0.01,3.23,1,3.94,2.54l0.06,0.13l-0.04,0.14c-0.46,1.6-1.05,3.29-1.8,5.17l-0.05,0.14l-0.13,0.07
			C328.74,587.18,328.06,587.34,327.37,587.35L327.37,587.35z M327.37,579.46c-1.96,0-3.55,1.59-3.55,3.55
			c0,1.96,1.59,3.55,3.55,3.55c0.52,0,1.02-0.12,1.49-0.34c0.69-1.74,1.24-3.31,1.68-4.81
			C329.93,580.22,328.71,579.46,327.37,579.46L327.37,579.46z M273.72,587.35c-2.39,0-4.33-1.94-4.34-4.34
			c0-0.06,0.01-0.12,0.02-0.18c-0.01-0.15-0.02-0.21-0.02-0.28c0-2.39,1.94-4.34,4.34-4.34c2.39,0,4.33,1.94,4.34,4.34
			c0,0.06-0.01,0.12-0.02,0.18c0.01,0.15,0.02,0.22,0.02,0.27C278.05,585.41,276.11,587.34,273.72,587.35L273.72,587.35z
			 M273.72,579c-1.96,0-3.55,1.59-3.55,3.56c0.01,0.12,0.02,0.16,0.02,0.21c0,0.06-0.01,0.12-0.02,0.18
			c-0.04,1.97,1.53,3.59,3.5,3.63c0.02,0,0.03,0,0.05,0c1.96,0,3.55-1.59,3.55-3.55c-0.02-0.12-0.02-0.16-0.02-0.21
			c0-0.06,0.01-0.11,0.01-0.17c0.04-1.97-1.52-3.6-3.49-3.64C273.76,578.99,273.74,578.99,273.72,579L273.72,579z M221.44,587.35
			c-2.39,0-4.33-1.94-4.34-4.34c0-2.39,1.94-4.34,4.34-4.34c2.39,0,4.33,1.94,4.34,4.34C225.77,585.41,223.83,587.34,221.44,587.35
			L221.44,587.35z M221.44,579.46c-1.96,0-3.55,1.59-3.55,3.55c0,1.96,1.59,3.55,3.55,3.55c1.96,0,3.55-1.59,3.55-3.55
			C224.99,581.05,223.4,579.45,221.44,579.46C221.44,579.45,221.44,579.45,221.44,579.46L221.44,579.46z M167.65,587.35
			c-2.39,0-4.33-1.94-4.34-4.34c0-0.46,0.08-0.91,0.23-1.34c0.41-2.01,2.19-3.46,4.24-3.46c2.39,0,4.33,1.94,4.34,4.34
			c-0.01,0.46-0.08,0.91-0.23,1.34C171.48,585.91,169.7,587.35,167.65,587.35L167.65,587.35z M167.79,579
			c-1.7,0-3.16,1.21-3.48,2.87c-0.13,0.37-0.19,0.75-0.2,1.14c0,1.96,1.59,3.55,3.55,3.55c1.7,0,3.16-1.2,3.48-2.87
			c0.13-0.37,0.2-0.75,0.21-1.15C171.35,580.59,169.75,579,167.79,579C167.79,578.99,167.79,578.99,167.79,579L167.79,579z
			 M299.69,571.7c-2.39,0-4.33-1.94-4.34-4.34c0-2.39,1.94-4.33,4.34-4.34c2.39,0,4.33,1.94,4.34,4.34
			C304.02,569.75,302.08,571.69,299.69,571.7L299.69,571.7z M299.69,563.81c-1.96,0-3.55,1.59-3.55,3.55c0,1.96,1.59,3.55,3.55,3.55
			c1.96,0,3.55-1.59,3.55-3.55C303.24,565.4,301.65,563.8,299.69,563.81L299.69,563.81z M246.26,571.7c-2.39,0-4.33-1.94-4.34-4.34
			c0-2.39,1.94-4.33,4.34-4.34c2.39,0,4.34,1.94,4.34,4.34C250.59,569.75,248.65,571.69,246.26,571.7L246.26,571.7z M246.26,563.81
			c-1.96,0-3.55,1.59-3.55,3.55c0,1.96,1.59,3.55,3.55,3.55c1.96,0,3.55-1.59,3.55-3.55C249.81,565.4,248.22,563.8,246.26,563.81
			L246.26,563.81z M193.76,571.7c-2.39,0-4.33-1.94-4.34-4.34c0-2.39,1.94-4.33,4.34-4.34c2.39,0,4.33,1.94,4.34,4.34
			C198.09,569.76,196.15,571.69,193.76,571.7L193.76,571.7z M193.76,563.81c-1.96,0-3.55,1.59-3.55,3.55c0,1.96,1.59,3.55,3.55,3.55
			c1.96,0,3.55-1.59,3.55-3.55C197.31,565.4,195.72,563.8,193.76,563.81C193.76,563.8,193.76,563.8,193.76,563.81L193.76,563.81z
			 M325.31,556.42c-2.39,0-4.33-1.94-4.34-4.34c0-2.39,1.94-4.34,4.34-4.34c2.39,0,4.34,1.94,4.34,4.34
			C329.64,554.48,327.7,556.41,325.31,556.42L325.31,556.42z M325.31,548.53c-1.96,0-3.55,1.59-3.55,3.55
			c0,1.96,1.59,3.55,3.55,3.55c1.96,0,3.55-1.59,3.55-3.55C328.86,550.11,327.27,548.52,325.31,548.53
			C325.31,548.52,325.31,548.52,325.31,548.53L325.31,548.53z M271.66,556.42c-2.39,0-4.33-1.94-4.34-4.34
			c0-0.06,0.01-0.13,0.02-0.19c-0.01-0.15-0.02-0.21-0.02-0.27c0-2.39,1.94-4.34,4.34-4.34c2.39,0,4.34,1.94,4.34,4.34
			c0,0.06-0.01,0.12-0.02,0.19c0.01,0.15,0.02,0.21,0.02,0.27C275.99,554.48,274.05,556.41,271.66,556.42L271.66,556.42z
			 M271.66,548.07c-1.96,0-3.55,1.59-3.55,3.56c0.02,0.12,0.02,0.16,0.02,0.21c0,0.06-0.01,0.12-0.02,0.18
			c-0.04,1.97,1.53,3.59,3.5,3.63c0.02,0,0.03,0,0.05,0c1.96,0,3.55-1.59,3.55-3.55c-0.02-0.12-0.02-0.16-0.02-0.21
			c0-0.06,0.01-0.12,0.02-0.18c0.04-1.97-1.53-3.59-3.49-3.63C271.69,548.06,271.67,548.06,271.66,548.07L271.66,548.07z
			 M219.38,556.42c-2.39,0-4.33-1.94-4.34-4.34c0-2.39,1.94-4.33,4.34-4.34c2.4,0,4.34,1.94,4.34,4.34
			C223.71,554.48,221.77,556.41,219.38,556.42L219.38,556.42z M219.38,548.53c-1.96,0-3.55,1.59-3.55,3.55
			c0,1.96,1.59,3.55,3.55,3.55c1.96,0,3.55-1.59,3.55-3.55C222.93,550.11,221.34,548.52,219.38,548.53
			C219.38,548.52,219.38,548.52,219.38,548.53L219.38,548.53z M165.59,556.42c-2.39,0-4.33-1.94-4.34-4.34
			c0-0.45,0.08-0.89,0.23-1.32c0.41-2.02,2.19-3.48,4.25-3.48c2.39,0,4.34,1.94,4.34,4.34c0,0.46-0.08,0.91-0.23,1.34
			C169.42,554.98,167.64,556.42,165.59,556.42L165.59,556.42z M165.73,548.07c-1.7,0-3.16,1.21-3.48,2.87l-0.01,0.04
			c-0.12,0.35-0.19,0.73-0.19,1.1c0,1.96,1.59,3.55,3.55,3.55c1.7,0,3.16-1.2,3.48-2.87c0.13-0.37,0.19-0.75,0.2-1.14
			C169.28,549.66,167.69,548.07,165.73,548.07L165.73,548.07z M301.17,550.1c-2.39,0-4.33-1.94-4.34-4.34
			c0-2.39,1.94-4.33,4.34-4.34c2.39,0,4.33,1.94,4.34,4.34C305.5,548.16,303.56,550.1,301.17,550.1L301.17,550.1z M301.17,542.21
			c-1.96,0-3.55,1.59-3.55,3.55c0,1.96,1.59,3.55,3.55,3.55c1.96,0,3.55-1.59,3.55-3.55C304.72,543.8,303.13,542.21,301.17,542.21
			L301.17,542.21z M247.74,549.64c-2.39,0-4.33-1.94-4.34-4.34c0-2.39,1.94-4.34,4.33-4.34c2.39,0,4.33,1.94,4.34,4.34
			C252.07,547.69,250.13,549.64,247.74,549.64L247.74,549.64z M247.74,541.75c-1.96,0-3.55,1.59-3.55,3.55
			c0,1.96,1.59,3.55,3.55,3.55c1.96,0,3.55-1.59,3.55-3.55C251.29,543.34,249.7,541.75,247.74,541.75
			C247.74,541.75,247.74,541.75,247.74,541.75L247.74,541.75z M195.24,549.64c-2.39,0-4.34-1.94-4.34-4.34
			c0-2.4,1.94-4.34,4.34-4.34c2.39,0,4.34,1.94,4.34,4.34C199.57,547.7,197.63,549.64,195.24,549.64L195.24,549.64z M195.24,541.75
			c-1.96,0-3.55,1.59-3.55,3.55c0,1.96,1.59,3.55,3.55,3.55c1.96,0,3.55-1.59,3.55-3.55C198.79,543.34,197.2,541.75,195.24,541.75
			L195.24,541.75z M326.79,534.82c-2.39,0-4.33-1.94-4.34-4.34c0-2.4,1.94-4.34,4.34-4.34c2.39,0,4.33,1.94,4.34,4.34
			C331.12,532.88,329.18,534.82,326.79,534.82L326.79,534.82z M326.79,526.93c-1.96,0-3.55,1.59-3.55,3.56
			c0,1.96,1.59,3.55,3.55,3.55c1.96,0,3.55-1.59,3.55-3.55C330.34,528.52,328.75,526.93,326.79,526.93
			C326.78,526.93,326.78,526.93,326.79,526.93L326.79,526.93z M273.13,534.36c-2.39,0-4.33-1.94-4.34-4.34
			c0-2.39,1.94-4.33,4.34-4.34c2.39,0,4.33,1.94,4.34,4.34C277.47,532.42,275.52,534.36,273.13,534.36L273.13,534.36z
			 M273.13,526.47c-1.96,0-3.55,1.59-3.55,3.55c0,1.96,1.59,3.55,3.55,3.55c1.96,0,3.55-1.59,3.55-3.55
			C276.69,528.06,275.09,526.47,273.13,526.47C273.13,526.47,273.13,526.47,273.13,526.47L273.13,526.47z M220.86,534.36
			c-2.39,0-4.34-1.94-4.34-4.34c0-2.39,1.94-4.34,4.34-4.34c2.39,0,4.33,1.94,4.34,4.34C225.19,532.42,223.25,534.36,220.86,534.36
			L220.86,534.36z M220.86,526.47c-1.96,0-3.55,1.59-3.55,3.55c0,1.96,1.59,3.55,3.55,3.55c1.96,0,3.55-1.59,3.55-3.55
			C224.41,528.06,222.82,526.47,220.86,526.47C220.85,526.47,220.85,526.47,220.86,526.47L220.86,526.47z M167.07,534.36
			c-2.39,0-4.33-1.94-4.34-4.34c0-0.46,0.08-0.91,0.23-1.34c0.41-2.01,2.19-3.46,4.24-3.46c2.39,0,4.34,1.94,4.34,4.34
			c0,0.46-0.08,0.91-0.23,1.34C170.9,532.92,169.12,534.37,167.07,534.36L167.07,534.36z M167.2,526.01c-1.7,0-3.16,1.2-3.48,2.87
			c-0.13,0.37-0.2,0.76-0.21,1.15c0,1.96,1.59,3.55,3.55,3.55c1.7,0,3.16-1.2,3.48-2.87c0.13-0.37,0.2-0.75,0.21-1.14
			C170.76,527.6,169.16,526.01,167.2,526.01L167.2,526.01z M301.17,526.01c-2.39,0-4.33-1.94-4.34-4.34c0-2.39,1.94-4.33,4.34-4.34
			c2.39,0,4.33,1.94,4.34,4.34C305.5,524.07,303.56,526.01,301.17,526.01L301.17,526.01z M301.17,518.12
			c-1.96,0-3.55,1.59-3.55,3.55c0,1.96,1.59,3.55,3.55,3.55c1.96,0,3.55-1.59,3.55-3.55C304.72,519.71,303.13,518.12,301.17,518.12
			L301.17,518.12z M247.74,525.55c-2.39,0-4.34-1.94-4.34-4.34c0-2.39,1.94-4.34,4.34-4.34c2.39,0,4.33,1.94,4.34,4.34
			C252.08,523.61,250.13,525.55,247.74,525.55L247.74,525.55z M247.74,517.66c-1.96,0-3.55,1.59-3.55,3.55
			c0,1.96,1.59,3.55,3.55,3.55c1.96,0,3.55-1.59,3.55-3.55C251.29,519.25,249.7,517.66,247.74,517.66L247.74,517.66L247.74,517.66z
			 M195.24,525.55c-2.39,0-4.34-1.94-4.34-4.34c0-2.39,1.94-4.34,4.34-4.34c2.39,0,4.33,1.94,4.34,4.34
			C199.57,523.61,197.63,525.55,195.24,525.55L195.24,525.55z M195.24,517.66c-1.96,0-3.55,1.59-3.55,3.55
			c0,1.96,1.59,3.55,3.55,3.55c1.96,0,3.55-1.59,3.55-3.55C198.79,519.25,197.2,517.66,195.24,517.66L195.24,517.66z M326.79,510.73
			c-2.39,0-4.34-1.94-4.34-4.34c0-2.39,1.94-4.33,4.34-4.34c2.39,0,4.33,1.94,4.34,4.34C331.12,508.79,329.18,510.73,326.79,510.73
			L326.79,510.73z M326.79,502.84c-1.96,0-3.55,1.59-3.55,3.55c0,1.96,1.59,3.55,3.55,3.56c1.96,0,3.55-1.59,3.55-3.56
			C330.34,504.43,328.75,502.84,326.79,502.84L326.79,502.84z M273.13,510.27c-2.39,0-4.33-1.94-4.34-4.34
			c0-2.39,1.94-4.33,4.34-4.34c2.39,0,4.33,1.94,4.34,4.34C277.47,508.33,275.52,510.26,273.13,510.27L273.13,510.27z
			 M273.13,502.38c-1.96,0-3.55,1.59-3.55,3.56c0,1.96,1.59,3.55,3.55,3.55c1.96,0,3.55-1.59,3.55-3.55
			C276.69,503.97,275.09,502.38,273.13,502.38L273.13,502.38z M220.86,510.27c-2.39,0-4.34-1.94-4.34-4.34
			c0-2.39,1.94-4.33,4.34-4.34c2.39,0,4.33,1.94,4.34,4.34C225.19,508.33,223.25,510.26,220.86,510.27L220.86,510.27z
			 M220.86,502.38c-1.96,0-3.55,1.59-3.55,3.56c0,1.96,1.59,3.55,3.55,3.55c1.96,0,3.55-1.59,3.55-3.55
			C224.41,503.97,222.82,502.38,220.86,502.38L220.86,502.38z M167.07,510.27c-2.39,0-4.33-1.94-4.34-4.34
			c0-0.46,0.08-0.91,0.23-1.34c0.41-2.01,2.19-3.46,4.24-3.46c2.39,0,4.33,1.94,4.34,4.34c0,0.46-0.08,0.91-0.23,1.34
			C170.9,508.83,169.12,510.27,167.07,510.27L167.07,510.27z M167.2,501.92c-1.7,0-3.16,1.21-3.48,2.87
			c-0.13,0.37-0.2,0.75-0.21,1.14c0,1.96,1.59,3.55,3.55,3.55c1.7,0,3.16-1.2,3.48-2.87c0.13-0.37,0.2-0.75,0.21-1.15
			C170.75,503.51,169.16,501.92,167.2,501.92L167.2,501.92z M301.17,501.92c-2.39,0-4.34-1.94-4.34-4.34c0-2.39,1.94-4.33,4.34-4.34
			c2.39,0,4.33,1.94,4.34,4.34C305.5,499.98,303.56,501.92,301.17,501.92L301.17,501.92z M301.17,494.02
			c-1.96,0-3.55,1.59-3.55,3.55c0,1.96,1.59,3.55,3.55,3.56c1.96,0,3.55-1.59,3.55-3.56C304.72,495.62,303.13,494.02,301.17,494.02
			L301.17,494.02z M247.74,501.46c-2.39,0-4.34-1.94-4.34-4.34c0-2.39,1.94-4.33,4.34-4.34c2.39,0,4.33,1.94,4.34,4.34
			C252.08,499.52,250.13,501.46,247.74,501.46L247.74,501.46z M247.74,493.56c-1.96,0-3.55,1.59-3.55,3.55
			c0,1.96,1.59,3.55,3.55,3.56c1.96,0,3.55-1.59,3.55-3.56C251.3,495.16,249.7,493.56,247.74,493.56
			C247.74,493.56,247.74,493.56,247.74,493.56L247.74,493.56z M195.24,501.46c-2.39,0-4.34-1.94-4.34-4.34
			c0-2.39,1.94-4.33,4.34-4.34c2.39,0,4.33,1.94,4.34,4.34C199.57,499.52,197.63,501.46,195.24,501.46L195.24,501.46z
			 M195.24,493.56c-1.96,0-3.55,1.59-3.55,3.55c0,1.96,1.59,3.55,3.55,3.56c1.96,0,3.55-1.59,3.55-3.56
			C198.79,495.16,197.2,493.56,195.24,493.56L195.24,493.56z M326.79,486.64c-2.39,0-4.33-1.94-4.34-4.34
			c0-2.39,1.94-4.34,4.34-4.34c2.39,0,4.33,1.94,4.34,4.34C331.12,484.7,329.18,486.64,326.79,486.64L326.79,486.64z M326.79,478.74
			c-1.96,0-3.55,1.59-3.55,3.55c0,1.96,1.59,3.55,3.55,3.55c1.96,0,3.55-1.59,3.55-3.55C330.34,480.33,328.75,478.74,326.79,478.74
			C326.78,478.74,326.78,478.74,326.79,478.74L326.79,478.74z M167.6,486.22l0.33-0.79c0.76-1.83,1.58-3.74,2.5-5.85l0.35-0.8
			l0.36,0.8c0.26,0.56,0.4,1.18,0.4,1.8c0,0.46-0.08,0.91-0.23,1.34c-0.31,1.52-1.42,2.76-2.91,3.24L167.6,486.22z M170.72,480.87
			c-0.6,1.37-1.15,2.67-1.68,3.92c0.78-0.52,1.33-1.34,1.51-2.26c0.13-0.37,0.2-0.76,0.21-1.15
			C170.76,481.21,170.74,481.04,170.72,480.87L170.72,480.87z M273.13,486.18c-2.39,0-4.33-1.94-4.34-4.34
			c0-2.39,1.94-4.33,4.34-4.34c2.39,0,4.33,1.94,4.34,4.34C277.47,484.24,275.53,486.18,273.13,486.18L273.13,486.18z
			 M273.13,478.28c-1.96,0-3.55,1.59-3.55,3.55c0,1.96,1.59,3.55,3.55,3.55c1.96,0,3.55-1.59,3.55-3.55
			C276.68,479.87,275.09,478.28,273.13,478.28L273.13,478.28z M220.86,486.18c-2.39,0-4.33-1.94-4.34-4.34
			c0-2.39,1.94-4.34,4.34-4.34c2.39,0,4.33,1.94,4.34,4.34C225.19,484.23,223.25,486.18,220.86,486.18L220.86,486.18z
			 M220.86,478.28c-1.96,0-3.55,1.59-3.55,3.55c0,1.96,1.59,3.55,3.55,3.55c1.96,0,3.55-1.59,3.55-3.55
			C224.41,479.87,222.82,478.28,220.86,478.28L220.86,478.28z M299.92,470.68c-2.39,0-4.34-1.94-4.34-4.34
			c0-2.39,1.94-4.33,4.34-4.34c2.39,0,4.33,1.94,4.34,4.34C304.26,468.74,302.31,470.68,299.92,470.68L299.92,470.68z
			 M299.92,462.79c-1.96,0-3.55,1.59-3.55,3.55c0,1.96,1.59,3.55,3.55,3.55c1.96,0,3.55-1.59,3.55-3.55
			C303.47,464.38,301.88,462.79,299.92,462.79L299.92,462.79z M246.27,470.68c-2.39,0-4.33-1.94-4.34-4.34
			c0-2.39,1.94-4.33,4.34-4.34c2.39,0,4.34,1.94,4.34,4.34C250.6,468.74,248.66,470.68,246.27,470.68
			C246.26,470.68,246.26,470.68,246.27,470.68L246.27,470.68z M246.27,462.79c-1.96,0-3.55,1.59-3.55,3.55
			c0,1.96,1.59,3.55,3.55,3.55c1.96,0,3.55-1.59,3.55-3.55C249.82,464.38,248.22,462.79,246.27,462.79L246.27,462.79z
			 M193.77,470.68c-2.39,0-4.34-1.94-4.34-4.34c0-2.39,1.94-4.33,4.34-4.34c2.39,0,4.33,1.94,4.34,4.34
			C198.1,468.74,196.16,470.68,193.77,470.68c-0.01,0-0.01,0-0.01,0L193.77,470.68z M193.77,462.79c-1.96,0-3.55,1.59-3.55,3.55
			c0,1.96,1.59,3.55,3.55,3.55c1.96,0,3.55-1.59,3.55-3.55C197.32,464.38,195.72,462.79,193.77,462.79c-0.01,0-0.01,0-0.01,0
			L193.77,462.79z M325.55,455.4c-2.39,0-4.33-1.94-4.34-4.34c0-2.39,1.94-4.33,4.34-4.34c2.39,0,4.34,1.94,4.34,4.34
			C329.88,453.46,327.94,455.4,325.55,455.4c-0.01,0-0.01,0-0.01,0L325.55,455.4z M325.55,447.51c-1.96,0-3.55,1.59-3.55,3.55
			c0,1.96,1.59,3.55,3.55,3.55c1.96,0,3.55-1.59,3.55-3.55c0-1.97-1.6-3.56-3.57-3.55c0,0,0,0,0,0L325.55,447.51z M271.66,455.4
			c-2.39,0-4.33-1.94-4.34-4.34c0-0.74,0.2-1.46,0.56-2.1c0.65-1.63,2.24-2.7,4-2.69c2.39,0,4.33,1.94,4.34,4.33
			c0,0.74-0.2,1.46-0.56,2.1c-0.65,1.64-2.25,2.71-4.01,2.7L271.66,455.4z M271.89,447.05c-1.46,0-2.77,0.89-3.3,2.25
			c-0.31,0.54-0.48,1.14-0.48,1.76c0,1.96,1.59,3.55,3.55,3.55c1.46,0,2.77-0.89,3.3-2.25c0.31-0.54,0.48-1.15,0.48-1.77
			c0-1.96-1.6-3.55-3.56-3.55c0,0,0,0,0,0L271.89,447.05z M219.39,455.4c-2.39,0-4.33-1.94-4.34-4.34c0-2.39,1.94-4.33,4.34-4.34
			c2.39,0,4.34,1.94,4.34,4.34C223.72,453.46,221.78,455.4,219.39,455.4c-0.01,0-0.01,0-0.01,0L219.39,455.4z M219.39,447.51
			c-1.96,0-3.55,1.59-3.55,3.55c0,1.96,1.59,3.55,3.55,3.55c1.96,0,3.55-1.59,3.55-3.55c0-1.97-1.6-3.56-3.57-3.55c0,0,0,0,0,0
			L219.39,447.51z M301.76,444.92c-2.39,0-4.34-1.94-4.34-4.34c0-2.39,1.94-4.33,4.34-4.34c2.39,0,4.33,1.94,4.34,4.34
			C306.1,442.98,304.15,444.92,301.76,444.92c-0.01,0-0.01,0-0.01,0L301.76,444.92z M301.76,437.03c-1.96,0-3.55,1.59-3.55,3.55
			c0,1.96,1.59,3.55,3.55,3.55c1.96,0,3.55-1.59,3.55-3.55c0-1.97-1.6-3.55-3.56-3.55c0,0,0,0,0,0L301.76,437.03z M248.34,444.92
			c-2.39,0-4.33-1.94-4.34-4.34c0-2.39,1.94-4.33,4.34-4.34c2.39,0,4.33,1.94,4.34,4.34C252.67,442.98,250.73,444.92,248.34,444.92
			c-0.01,0-0.01,0-0.01,0L248.34,444.92z M248.34,437.03c-1.96,0-3.55,1.59-3.55,3.55c0,1.96,1.59,3.55,3.55,3.55
			c1.96,0,3.55-1.59,3.55-3.55c0-1.96-1.6-3.55-3.56-3.55c0,0,0,0,0,0L248.34,437.03z M195.84,444.92c-2.39,0-4.34-1.94-4.34-4.34
			c0-0.37,0.06-0.74,0.15-1.09l0.05-0.11c0.25-0.4,0.51-0.8,0.77-1.2l0.61-0.93c0.77-0.65,1.75-1.01,2.76-1.01
			c2.39,0,4.33,1.94,4.34,4.34C200.17,442.98,198.23,444.92,195.84,444.92c-0.01,0-0.01,0-0.02,0L195.84,444.92z M192.4,439.75
			c-0.07,0.27-0.11,0.55-0.11,0.84c0,1.96,1.59,3.55,3.55,3.55c1.96,0,3.55-1.59,3.55-3.55c0-1.96-1.59-3.55-3.55-3.55
			c-0.81,0-1.59,0.28-2.21,0.79l-0.5,0.78c-0.26,0.38-0.51,0.76-0.75,1.14L192.4,439.75z M327.39,429.64
			c-2.39,0-4.33-1.94-4.34-4.34c0-2.39,1.94-4.34,4.34-4.34c2.39,0,4.34,1.94,4.34,4.34c0,2.4-1.95,4.34-4.35,4.34c0,0,0,0-0.01,0
			L327.39,429.64z M327.39,421.75c-1.96,0-3.55,1.59-3.55,3.56c0,1.96,1.59,3.55,3.55,3.55c1.96,0,3.55-1.59,3.55-3.55
			C330.94,423.34,329.34,421.75,327.39,421.75c-0.01,0-0.01,0-0.02,0L327.39,421.75z M273.73,429.64c-2.39,0-4.33-1.94-4.34-4.34
			c0-0.06,0.01-0.12,0.02-0.19c-0.01-0.15-0.02-0.21-0.02-0.27c0-2.39,1.94-4.33,4.34-4.34c2.39,0,4.33,1.94,4.34,4.34
			c0,0.06-0.01,0.12-0.02,0.18c0.01,0.15,0.02,0.21,0.02,0.28C278.07,427.7,276.12,429.64,273.73,429.64c-0.01,0-0.02,0-0.02,0
			L273.73,429.64z M273.73,421.29c-1.96,0-3.55,1.59-3.55,3.55c0.01,0.12,0.02,0.16,0.02,0.21c0,0.06-0.01,0.12-0.02,0.17
			c-0.04,1.97,1.53,3.59,3.5,3.63c0.02,0,0.03,0,0.05,0c1.96,0,3.55-1.59,3.55-3.55c-0.02-0.12-0.02-0.16-0.02-0.21
			c0-0.06,0-0.11,0.01-0.17c0.04-1.97-1.52-3.59-3.49-3.63c-0.02,0-0.05,0-0.07,0L273.73,421.29z M221.46,429.64
			c-2.39,0-4.33-1.94-4.34-4.34c0-2.39,1.93-4.32,4.32-4.34c2.39,0,4.33,1.94,4.34,4.34c0,2.4-1.94,4.34-4.34,4.34L221.46,429.64z
			 M221.46,421.75c-1.96,0-3.55,1.59-3.55,3.56c0,1.96,1.59,3.55,3.55,3.55c1.96,0,3.55-1.59,3.55-3.55c0-1.97-1.6-3.56-3.56-3.55
			c0,0-0.01,0-0.01,0L221.46,421.75z M299.24,414.45c-2.39,0-4.34-1.94-4.34-4.34c0-2.39,1.94-4.33,4.34-4.34
			c2.39,0,4.33,1.94,4.34,4.34C303.58,412.51,301.63,414.45,299.24,414.45c-0.01,0-0.01,0-0.02,0L299.24,414.45z M299.24,406.55
			c-1.96,0-3.55,1.59-3.55,3.56c0,1.96,1.59,3.55,3.55,3.56c1.96,0,3.55-1.59,3.55-3.56c0-1.97-1.6-3.56-3.57-3.55c0,0,0,0,0,0
			L299.24,406.55z M246.28,413.99c-2.39,0-4.33-1.94-4.34-4.34c0-2.39,1.94-4.33,4.34-4.34c2.39,0,4.34,1.94,4.34,4.34
			C250.61,412.05,248.67,413.99,246.28,413.99c-0.01,0-0.01,0-0.02,0L246.28,413.99z M246.28,406.1c-1.96,0-3.55,1.59-3.55,3.55
			c0,1.96,1.59,3.55,3.55,3.55c1.96,0,3.55-1.59,3.55-3.55c0-1.97-1.6-3.56-3.57-3.55c0,0,0,0,0,0L246.28,406.1z M324.86,399.17
			c-2.39,0-4.33-1.94-4.34-4.34c0.01-1.85,1.19-3.5,2.94-4.09l0.27-0.09l0.17,0.22c0.7,0.9,1.38,1.81,2.02,2.69
			c0.78,1.08,1.55,2.23,2.35,3.51l0.15,0.24l-0.17,0.22c-0.82,1.04-2.07,1.65-3.4,1.65L324.86,399.17z M323.46,391.58
			c-1.3,0.56-2.15,1.83-2.15,3.25c0,1.96,1.59,3.55,3.55,3.55c0.99,0,1.93-0.42,2.59-1.15c-0.73-1.17-1.44-2.23-2.16-3.22
			c-0.6-0.8-1.21-1.61-1.85-2.44L323.46,391.58z M271.67,398.71c-0.06,0-0.12-0.01-0.18-0.01l-0.05-0.4l0.02,0.39l-0.06,0.01
			c-0.06,0.01-0.12,0.01-0.18,0.01c-2.39,0-4.34-1.94-4.34-4.34c0-2.4,1.94-4.34,4.34-4.34c0.06,0,0.13,0.01,0.19,0.02
			c0.14-0.01,0.21-0.02,0.27-0.02c2.39,0,4.33,1.94,4.34,4.34c0,2.4-1.95,4.34-4.35,4.34c0,0,0,0-0.01,0L271.67,398.71z
			 M271.27,390.83c-1.97-0.03-3.59,1.54-3.62,3.51c0,0.01,0,0.03,0,0.04c0,1.96,1.59,3.55,3.55,3.55c0.07-0.01,0.14-0.02,0.21-0.02
			h0.02h0.02c0.05,0,0.09,0.01,0.14,0.01h0.02c1.97,0.03,3.58-1.55,3.61-3.51c0-0.01,0-0.02,0-0.03c0-1.96-1.59-3.55-3.55-3.56
			l-0.2,0.02l-0.18-0.01L271.27,390.83z M301.76,380.55c-2.39,0-4.33-1.94-4.34-4.33c0-2.39,1.94-4.33,4.34-4.34
			c2.39,0,4.33,1.94,4.34,4.34C306.1,378.62,304.15,380.56,301.76,380.55c-0.01,0-0.01,0-0.01,0L301.76,380.55z M301.76,372.66
			c-1.96,0-3.55,1.59-3.55,3.55c0,1.96,1.59,3.55,3.55,3.55c1.96,0,3.55-1.59,3.55-3.55C305.31,374.25,303.72,372.66,301.76,372.66
			c-0.01,0-0.01,0-0.01,0L301.76,372.66z M248.34,380.55c-2.39,0-4.33-1.94-4.34-4.33c0-0.27,0.03-0.55,0.08-0.82l0.03-0.14
			l0.11-0.09c1.49-1.25,2.82-2.3,4.06-3.2l0.11-0.08l0.14,0c2.32,0.09,4.16,2,4.16,4.32c0,2.4-1.95,4.34-4.35,4.33c0,0,0,0,0,0
			L248.34,380.55z M244.83,375.68c-0.03,0.18-0.04,0.36-0.04,0.54c0,1.96,1.59,3.55,3.55,3.55c1.96,0,3.55-1.59,3.55-3.55
			c0-1.85-1.42-3.39-3.27-3.53c-1.17,0.85-2.42,1.84-3.81,2.99L244.83,375.68z M273.73,365.27c-1.68-0.01-3.2-0.98-3.92-2.5
			l-0.22-0.47l0.51-0.08c2.44-0.42,4.92-0.6,7.4-0.55l0.52,0.01l-0.15,0.5c-0.54,1.84-2.23,3.11-4.15,3.1L273.73,365.27z
			 M270.78,362.91c0.66,0.98,1.76,1.58,2.95,1.58c1.37,0,2.62-0.8,3.2-2.04c-0.06,0-0.12,0-0.18,0c-2,0-4,0.16-5.98,0.46
			L270.78,362.91z"/>
		<g id="Group_594" transform="translate(133.07 329.532)">
			<path id="Path_1430" class="st13" d="M259.78,499.84c0.01,0.04,0.01,0.1,0.04,0.11C259.91,499.97,259.88,499.92,259.78,499.84z"
				/>
			<path id="Path_1431" class="st31" d="M320.92,369.89c16.88-44.02,9.08-71.8-1.14-87.77c-1.7-2.66-3.83-5.03-6.29-7.01
				c-51.61-66.37-300.8-24.73-300.8-24.73C2.22,359.73,73.08,355.49,93,356.72c10.9,0.67,83.68-1.5,144.11-14.06
				c-17.71,60.99-14.52,134.78-14.52,134.78s35.28,20.75,37.18,22.41C259.22,497.57,291.17,447.47,320.92,369.89z"/>
		</g>
		<path id="Path_1432" class="st35" d="M225.61,789.5"/>
		<path id="Path_1433" class="st17" d="M189.32,530.67c0,0,3.59-84.75,42.66-128.75c-50.65,32.49-53.1,133.15-53.1,133.15
			c41.67,7.97,105.1-30.13,105.41-32.03c0.13-0.74,0.26-1.46,0.39-2.19C267.32,512.3,222.37,536.98,189.32,530.67z"/>
		<path id="Path_1434" class="st9" d="M446.96,405.12c0,0-108.76,139.89-59.13,148.16s71.59-74.14,81.91-124.39
			c3.27-10.72,49.22-28.19,54.74-43.81s-34.62-51.78-56.07-1.23c-3.37,7.97-0.1-12.56,1.33-20.22s-0.1-12.87-4.39-8.89
			s-12.17,27.1-14.21,31.56C448.19,392.74,449.54,401.75,446.96,405.12z"/>
		<path id="Path_1435" class="st34" d="M378.52,517.66c0,0,24.95,32.87,48.27,19.94c0.2-0.21-19.15,25.67-42.84,14.07
			C374.28,546.5,370.34,537.27,378.52,517.66z"/>
		<path id="Path_1436" class="st32" d="M145.75,579.91c0,0,77.33-12.15,149.02-12.15s64.57,0.23,69.62,0
			S135.29,601.71,145.75,579.91z"/>
		<path id="Path_1440" class="st32" d="M404.48,579.53c0,0-11-5.94-20.53-3.96c-16.32,3.45-8.37,24.59,8.48,31.33
			s59.72-3.97,66.01,15.63C458.71,623.22,448.64,590.87,404.48,579.53z"/>
		<path id="Path_1437" class="st9" d="M208.91,488.67c0,0-37.54,59.05,10.17,71.06s139.69,22.12,146.56,23.21
			c6.88,1.09,54.64,14.47,63.19,13.9s10.01-27.58-22.84-31.95s-23.96,1.76-43.71-10.53s-77.29-31.69-83.21-33.46
			c-5.92-1.77,5.29-26.9,6.38-29.63C294.76,468.07,250.42,433.02,208.91,488.67z"/>
		<path id="Path_1438" class="st33" d="M189.3,531.22c0,0,6.13-144.61,89.46-154.11c24.51-2.15,31.86,14.9,13.17,118.82
			C291.63,497.83,230.97,539.19,189.3,531.22z"/>
		<path id="Path_1439" class="st3" d="M221.54,530.2l0.36-0.74c0.72-1.49,2.23-2.44,3.89-2.44c0.91,0,1.8,0.29,2.53,0.82l0.66,0.48
			l-0.79,0.22c-1.78,0.5-3.7,0.98-5.85,1.47L221.54,530.2z M225.79,527.8c-1.03,0-2,0.45-2.67,1.23c1.4-0.33,2.7-0.66,3.94-0.99
			C226.65,527.88,226.22,527.81,225.79,527.8L225.79,527.8z M198.92,520.2c-2.39,0-4.34-1.94-4.34-4.34c0-2.39,1.94-4.33,4.34-4.34
			c2.39,0,4.33,1.94,4.34,4.34C203.26,518.26,201.32,520.2,198.92,520.2L198.92,520.2z M198.92,512.31c-1.96,0-3.55,1.59-3.55,3.55
			c0,1.96,1.59,3.55,3.55,3.55c1.96,0,3.55-1.59,3.55-3.55C202.47,513.9,200.88,512.31,198.92,512.31L198.92,512.31z M251.61,520.08
			l-0.13-0.03c-1.9-0.5-3.23-2.21-3.23-4.18c0-2.39,1.94-4.33,4.34-4.34c2.39,0,4.33,1.94,4.34,4.34c0,0.68-0.17,1.34-0.48,1.95
			l-0.06,0.12l-0.12,0.06c-1.48,0.69-2.99,1.37-4.52,2.03L251.61,520.08z M252.57,512.31c-1.96,0-3.55,1.59-3.55,3.55
			c0.01,1.56,1.03,2.94,2.52,3.39c1.44-0.63,2.85-1.27,4.25-1.91c0.22-0.46,0.33-0.96,0.34-1.47
			C256.12,513.9,254.53,512.31,252.57,512.31L252.57,512.31z M278.2,504.92c-2.39,0-4.33-1.94-4.34-4.33c0-2.39,1.94-4.34,4.34-4.34
			c2.39,0,4.34,1.94,4.34,4.34C282.53,502.98,280.59,504.92,278.2,504.92L278.2,504.92z M278.2,497.03c-1.96,0-3.55,1.59-3.55,3.55
			c0,1.96,1.59,3.55,3.55,3.55c1.96,0,3.55-1.59,3.55-3.55C281.75,498.62,280.16,497.03,278.2,497.03L278.2,497.03z M224.31,504.92
			c-2.39,0-4.33-1.94-4.34-4.33c0-0.74,0.2-1.46,0.56-2.1c0.65-1.63,2.24-2.7,4-2.69c2.39,0,4.34,1.94,4.34,4.34
			c0,0.74-0.2,1.46-0.56,2.1C227.66,503.86,226.07,504.93,224.31,504.92L224.31,504.92z M224.54,496.57c-1.46,0-2.77,0.89-3.3,2.25
			c-0.31,0.54-0.48,1.15-0.49,1.77c0,1.96,1.59,3.55,3.55,3.55c1.46,0,2.77-0.89,3.3-2.25c0.31-0.54,0.48-1.14,0.49-1.76
			C228.09,498.16,226.5,496.57,224.54,496.57L224.54,496.57z M254.41,494.44c-2.39,0-4.33-1.94-4.34-4.34
			c0-2.39,1.94-4.34,4.34-4.34c2.39,0,4.33,1.94,4.34,4.34C258.75,492.5,256.8,494.44,254.41,494.44L254.41,494.44z M254.41,486.55
			c-1.96,0-3.55,1.59-3.55,3.56c0,1.96,1.59,3.55,3.55,3.55c1.96,0,3.55-1.59,3.55-3.55C257.96,488.14,256.37,486.55,254.41,486.55
			L254.41,486.55z M200.99,494.44c-2.39,0-4.33-1.94-4.34-4.34c0-2.39,1.94-4.33,4.34-4.34c2.39,0,4.33,1.94,4.34,4.34
			C205.32,492.5,203.38,494.44,200.99,494.44L200.99,494.44z M200.99,486.55c-1.96,0-3.55,1.59-3.55,3.56
			c0,1.96,1.59,3.55,3.55,3.55c1.96,0,3.55-1.59,3.55-3.55C204.54,488.14,202.95,486.55,200.99,486.55L200.99,486.55z
			 M280.03,479.16c-2.39,0-4.34-1.94-4.34-4.34c0-2.39,1.94-4.33,4.34-4.34c2.39,0,4.34,1.94,4.34,4.34
			C284.37,477.22,282.43,479.16,280.03,479.16L280.03,479.16z M280.03,471.27c-1.96,0-3.55,1.59-3.55,3.55
			c0,1.96,1.59,3.55,3.55,3.55c1.96,0,3.55-1.59,3.55-3.55C283.58,472.86,281.99,471.27,280.03,471.27L280.03,471.27z
			 M226.38,479.16c-2.39,0-4.34-1.94-4.34-4.34c0-0.06,0.01-0.12,0.02-0.19c-0.01-0.15-0.02-0.21-0.02-0.27
			c0-2.39,1.94-4.34,4.34-4.34c2.39,0,4.33,1.94,4.34,4.34c0,0.06-0.01,0.13-0.02,0.19c0.01,0.15,0.02,0.21,0.02,0.27
			C230.71,477.22,228.77,479.16,226.38,479.16L226.38,479.16z M226.38,470.81c-1.96,0-3.55,1.59-3.55,3.55
			c0.02,0.12,0.02,0.16,0.02,0.21c0,0.06-0.01,0.12-0.02,0.18c-0.04,1.97,1.52,3.59,3.49,3.63c0.02,0,0.04,0,0.05,0
			c1.96,0,3.55-1.59,3.55-3.55c-0.02-0.12-0.02-0.16-0.02-0.21c0-0.09,0.01-0.13,0.02-0.18c0.03-1.97-1.53-3.59-3.5-3.62
			C226.41,470.81,226.39,470.81,226.38,470.81L226.38,470.81z M251.88,463.97c-2.39,0-4.33-1.94-4.34-4.34
			c0-2.39,1.94-4.33,4.34-4.34c2.39,0,4.34,1.94,4.34,4.34C256.22,462.03,254.28,463.97,251.88,463.97L251.88,463.97z
			 M251.88,456.07c-1.96,0-3.55,1.59-3.55,3.55c0,1.96,1.59,3.55,3.55,3.55c1.96,0,3.55-1.59,3.55-3.55
			C255.44,457.67,253.85,456.08,251.88,456.07L251.88,456.07z M277.51,448.68c-2.39,0-4.33-1.94-4.34-4.34
			c0-2.39,1.94-4.33,4.34-4.34c2.39,0,4.33,1.94,4.34,4.34C281.84,446.74,279.9,448.69,277.51,448.68L277.51,448.68z M277.51,440.79
			c-1.96,0-3.55,1.59-3.55,3.55c0,1.96,1.59,3.55,3.55,3.55c1.96,0,3.55-1.59,3.55-3.55C281.05,442.39,279.47,440.8,277.51,440.79
			L277.51,440.79z M224.31,448.22c-0.06,0-0.12-0.01-0.19-0.01l-0.04-0.4l-0.04,0.4c-0.06,0.01-0.13,0.01-0.19,0.01
			c-2.39,0-4.33-1.94-4.34-4.34c0-2.39,1.94-4.33,4.34-4.34c0.06,0,0.13,0.01,0.19,0.01c0.14-0.01,0.21-0.01,0.27-0.01
			c2.39,0,4.34,1.94,4.34,4.34C228.65,446.28,226.7,448.23,224.31,448.22L224.31,448.22z M223.91,440.34
			c-1.97-0.03-3.59,1.54-3.62,3.51c0,0.01,0,0.03,0,0.04c0,1.96,1.59,3.55,3.55,3.55l0.23-0.02l0.15,0.02h0.02
			c1.97,0.03,3.59-1.54,3.62-3.51c0-0.01,0-0.02,0-0.04c0-1.96-1.59-3.55-3.55-3.56l-0.2,0.02l-0.17-0.01L223.91,440.34z
			 M254.41,430.07c-2.39,0-4.34-1.94-4.34-4.34c0-2.39,1.94-4.33,4.34-4.34c2.39,0,4.33,1.94,4.34,4.34
			C258.74,428.13,256.8,430.07,254.41,430.07L254.41,430.07z M254.41,422.18c-1.96,0-3.55,1.59-3.55,3.55
			c0,1.96,1.59,3.55,3.55,3.55c1.96,0,3.55-1.59,3.55-3.55C257.95,423.78,256.37,422.19,254.41,422.18L254.41,422.18z
			 M280.03,414.79c-2.39,0-4.33-1.94-4.34-4.34c0-2.39,1.94-4.33,4.34-4.34c2.39,0,4.33,1.94,4.34,4.34
			C284.37,412.85,282.43,414.79,280.03,414.79L280.03,414.79z M280.03,406.9c-1.96,0-3.55,1.59-3.55,3.55
			c0,1.96,1.59,3.55,3.55,3.55c1.96,0,3.55-1.59,3.55-3.55C283.57,408.49,281.99,406.91,280.03,406.9L280.03,406.9z M226.37,414.79
			c-0.91,0-1.8-0.29-2.54-0.83l-0.31-0.23l0.21-0.31c1.53-2.26,3.17-4.5,4.88-6.66l0.25-0.32l0.31,0.27
			c0.97,0.82,1.53,2.02,1.53,3.29c0,0.06-0.01,0.12-0.02,0.19c0.01,0.15,0.02,0.21,0.02,0.27
			C230.71,412.85,228.77,414.79,226.37,414.79L226.37,414.79z M224.61,413.53c0.53,0.31,1.14,0.48,1.76,0.48
			c1.96,0,3.55-1.59,3.55-3.55c0-0.03,0-0.05-0.01-0.08c-0.01-0.04-0.01-0.08-0.02-0.13c0-0.06,0.01-0.12,0.02-0.18
			c0.02-0.92-0.33-1.81-0.95-2.48C227.45,409.53,225.99,411.52,224.61,413.53L224.61,413.53z M252.34,399.14
			c-2.39,0-4.33-1.94-4.34-4.34c0-2.39,1.94-4.33,4.34-4.34c2.39,0,4.34,1.94,4.34,4.34C256.68,397.2,254.74,399.14,252.34,399.14
			L252.34,399.14z M252.34,391.25c-1.96,0-3.55,1.59-3.55,3.55c0,1.96,1.59,3.55,3.55,3.55c1.96,0,3.55-1.59,3.55-3.55
			C255.89,392.84,254.3,391.26,252.34,391.25L252.34,391.25z M302.96,398.81l-0.75-0.58c-1.07-0.81-1.7-2.08-1.7-3.42
			c0-0.81,0.24-1.61,0.67-2.3l0.5-0.79l0.22,0.91c0.38,1.6,0.69,3.36,0.94,5.24L302.96,398.81z M301.39,393.98
			c-0.07,0.27-0.1,0.54-0.1,0.82c0,0.69,0.21,1.37,0.59,1.95C301.74,395.79,301.58,394.87,301.39,393.98L301.39,393.98z
			 M277.96,383.86c-2.39,0-4.34-1.94-4.34-4.34c0-0.61,0.13-1.22,0.39-1.78l0.09-0.19l0.2-0.04c1.93-0.36,3.57-0.62,5.16-0.8
			c0.52-0.05,1.01-0.08,1.5-0.11l0.2-0.01l0.13,0.15c0.66,0.77,1.02,1.75,1.02,2.77C282.31,381.92,280.36,383.86,277.96,383.86
			L277.96,383.86z M274.65,378.25c-0.16,0.41-0.24,0.84-0.24,1.27c0,1.96,1.59,3.55,3.55,3.56c1.96,0,3.55-1.59,3.55-3.56
			c0-0.77-0.25-1.51-0.72-2.12c-0.41,0.02-0.84,0.05-1.26,0.09C278.04,377.68,276.48,377.91,274.65,378.25L274.65,378.25z"/>
		<circle id="Ellipse_172" class="st8" cx="364.5" cy="311.76" r="3.43"/>
		<path id="Path_1441" class="st8" d="M354.45,311.31h-0.07c-0.51-0.04-0.89-0.48-0.85-0.98c0.21-2.82,1.2-4.83,2.95-5.98
			c2.9-1.91,6.73-0.61,6.89-0.55c0.48,0.17,0.73,0.69,0.57,1.17c-0.17,0.48-0.69,0.73-1.17,0.57c-0.03-0.01-3.15-1.05-5.28,0.36
			c-1.24,0.82-1.95,2.36-2.12,4.58C355.33,310.95,354.93,311.31,354.45,311.31z"/>
		<path id="Path_1442" class="st28" d="M374.09,333.15c0,0-9.6-4.59-11.03,0s6.92,11.98,6.92,11.98S373.22,338.62,374.09,333.15z"/>
		<path id="Path_1443" class="st9" d="M369.69,298.13c0,0,8.9,16.34,11.53,22.88s-11.26,4.72-11.36,2.89
			S369.69,298.13,369.69,298.13z"/>
	</g>
</g>
</svg>
