<?xml version="1.0" encoding="utf-8"?>
<!-- Generator: Adobe Illustrator 25.4.0, SVG Export Plug-In . SVG Version: 6.00 Build 0)  -->
<svg version="1.1" id="_x30_3" xmlns="http://www.w3.org/2000/svg" xmlns:xlink="http://www.w3.org/1999/xlink" x="0px" y="0px"
	 viewBox="0 0 4680 3120" style="enable-background:new 0 0 4680 3120;" xml:space="preserve">
<style type="text/css">
	.st0{fill:url(#SVGID_1_);}
	.st1{fill:url(#SVGID_00000064313202563320115190000015069287172487387028_);}
	.st2{fill:#47E2AF;}
	.st3{fill:#83B5C6;}
	.st4{fill:#BAD7E7;}
	.st5{fill:#CEE5EF;}
	.st6{fill:#547A93;}
	.st7{fill:#7191AA;}
	.st8{fill:#7D9FB7;}
	.st9{clip-path:url(#SVGID_00000076583982308895354220000017272909441571229362_);}
	.st10{fill:#F05161;}
	.st11{fill:#FFFFFF;}
	.st12{clip-path:url(#SVGID_00000076583982308895354220000017272909441571229362_);fill:#BAD7E7;}
	.st13{opacity:0.6;fill:#BAD7E7;}
	.st14{opacity:0.6;fill:#9ECADD;}
	.st15{opacity:0.6;fill:#8DB7C9;}
	.st16{fill:#2B3B48;}
	.st17{fill:#1C2A33;}
	.st18{fill:none;stroke:#6B828E;stroke-width:3;stroke-linecap:round;stroke-miterlimit:10;}
	.st19{fill:#3D5262;}
	.st20{fill:#2F4451;}
	.st21{fill:#F47F60;}
	.st22{fill:#EFA88F;}
	.st23{fill:#D36C07;}
	.st24{fill:#F48619;}
	.st25{fill:#FF931A;}
	.st26{fill:#FFB56C;}
	.st27{fill:#F8B69B;}
	.st28{fill:#FD8F6A;}
	.st29{fill:#36465B;}
	.st30{fill:#283849;}
	.st31{fill:#5A7E96;}
	.st32{fill:#F76841;}
	.st33{fill:#FFD9CC;}
	.st34{fill:none;stroke:#AFCEE2;stroke-width:2;stroke-miterlimit:10;}
	.st35{fill:#FFCACA;}
	.st36{fill:#ED7D0F;}
	.st37{fill:none;stroke:#F47F60;stroke-width:4;stroke-linecap:round;stroke-miterlimit:10;}
	.st38{fill:#517893;}
	.st39{fill:#3B84AD;}
	.st40{fill:#CECECE;}
	.st41{fill:none;stroke:#FFFFFF;stroke-width:3;stroke-miterlimit:10;}
	.st42{fill:#FFFCFA;}
</style>
<g>
	<g>
		<linearGradient id="SVGID_1_" gradientUnits="userSpaceOnUse" x1="952.1028" y1="1497.0951" x2="3691.0488" y2="1497.0951">
			<stop  offset="0" style="stop-color:#D0FFAE"/>
			<stop  offset="1" style="stop-color:#34EBE9"/>
		</linearGradient>
		<path class="st0" d="M2346.23,458.29c-8.57,4.74-186.11,149.84-575.82,68.45s-778.31,31.43-650.11,499.84
			s36.06,462.79-108.17,816.15s-80.15,685.88,775.2,729.95c855.35,44.07,1600.51-72.11,1852.91-552.86
			s-525.26-597.09-376.81-1093.79C3411.88,429.33,2554.58,343.03,2346.23,458.29z"/>
		
			<linearGradient id="SVGID_00000176003647386954398120000007558974022878624386_" gradientUnits="userSpaceOnUse" x1="1420.2817" y1="2486.4443" x2="3469.8879" y2="2556.6519">
			<stop  offset="0" style="stop-color:#D0FFAE"/>
			<stop  offset="1" style="stop-color:#34EBE9"/>
		</linearGradient>
		
			<ellipse style="fill:url(#SVGID_00000176003647386954398120000007558974022878624386_);" cx="2214.67" cy="2513.66" rx="1025.97" ry="242.83"/>
		<path class="st2" d="M1696.19,2288.66c0,0-205.71,54.49-116,121.12c7.59,5.64,8.56,16.64,1.94,23.4
			c-35.28,35.95-121.97,135.17-56.07,182.45c89.08,63.92,179.37,58.03,204.96,19.65c25.59-38.38-47.23-175.04,106.28-185.29
			c153.51-10.25,738.01,235.66,919.82,63.67S1926.08,2115.21,1696.19,2288.66z"/>
		<path class="st3" d="M3312.4,486.82l29.25,23.34c31.79,25.36,46.03,67.33,34.85,106.43c-0.28,0.98-0.58,1.97-0.89,2.95
			l-584,1841.49c-0.36,1.13-0.73,2.25-1.12,3.36c-14.7,42.14-52.48,72-96.68,78.19l-32.05,4.49L3312.4,486.82z"/>
		<g>
			<path class="st4" d="M3325.67,520.98l-222.76,702.36l-65.13,205.34v0.01l-75.56,238.23l-271.77,856.89
				c-5.23,16.49-22.15,26.32-39.08,22.67l-382.27-82.28l-110.82-23.84l-95.51-20.56l-367.83-79.17
				c-11.91-2.56-21.24-10.36-26.24-20.36c-4.27-8.56-5.37-18.74-2.22-28.67l136.39-430.05l276.05-870.36l188.8-595.3
				c8.26-26.06,34-42.45,61.11-38.93l270.89,35.15l431.87,56.05l237.8,30.85l32.2,4.18
				C3319.65,485.53,3331.18,503.63,3325.67,520.98z"/>
			<polygon class="st5" points="3031.6,448.17 1802.88,1861.55 2078.94,991.19 2599.73,392.12 			"/>
			<path class="st5" d="M3325.67,520.98l-222.76,702.36L2062.78,2419.81l-367.83-79.17c-11.91-2.56-21.24-10.36-26.24-20.36
				L3269.4,479.01l32.2,4.18C3319.65,485.53,3331.18,503.63,3325.67,520.98z"/>
			<polygon class="st5" points="3037.79,1428.69 2962.23,1666.92 2269.11,2464.2 2158.29,2440.36 			"/>
		</g>
		<g>
			<path class="st6" d="M2241.47,2330.72c0,43.17-34.99,78.16-78.16,78.16c-16.97,0-32.69-5.41-45.5-14.61
				c-19.76-14.18-32.65-37.36-32.65-63.55c0-43.16,34.99-78.15,78.15-78.15c9.98,0,19.52,1.87,28.3,5.29
				C2220.79,2269.19,2241.47,2297.54,2241.47,2330.72z"/>
			<path class="st7" d="M2224.24,2321.39c0,43.17-34.99,78.16-78.15,78.16c-9.98,0-19.51-1.87-28.28-5.29
				c-19.76-14.18-32.65-37.36-32.65-63.55c0-43.16,34.99-78.15,78.15-78.15c9.98,0,19.52,1.87,28.3,5.29
				C2211.37,2272.03,2224.24,2295.21,2224.24,2321.39z"/>
		</g>
		<path class="st8" d="M2646.8,453.83l-2.43,7.68c-2.65,8.36,2.79,17.11,11.47,18.43l161.88,24.51c7.32,1.11,14.27-3.56,16.01-10.75
			l2.98-12.3c2.01-8.3-3.92-14.54-12.4-15.58l-162.17-21.83C2655.32,443.14,2648.88,447.28,2646.8,453.83z"/>
		<circle class="st8" cx="2888.01" cy="497.49" r="23.25"/>
		<circle class="st8" cx="2960.44" cy="511" r="23.25"/>
		<g>
			<defs>
				<polygon id="SVGID_00000165942876314100670030000008138391357075001251_" points="2282.02,465.81 3225.5,608.01 
					2683.63,2334.34 1745.76,2141.09 				"/>
			</defs>
			
				<linearGradient id="SVGID_00000104685741459124703650000016042803045940424354_" gradientUnits="userSpaceOnUse" x1="2772.5286" y1="526.43" x2="2211.3889" y2="2218.6169">
				<stop  offset="0" style="stop-color:#FFFFFF"/>
				<stop  offset="0.1652" style="stop-color:#FBFEFE"/>
				<stop  offset="0.3263" style="stop-color:#EFF9FA"/>
				<stop  offset="0.486" style="stop-color:#DCF2F4"/>
				<stop  offset="0.6447" style="stop-color:#C0E9EC"/>
				<stop  offset="0.8028" style="stop-color:#9DDCE1"/>
				<stop  offset="0.9583" style="stop-color:#72CDD4"/>
				<stop  offset="1" style="stop-color:#65C8D0"/>
			</linearGradient>
			
				<use xlink:href="#SVGID_00000165942876314100670030000008138391357075001251_"  style="overflow:visible;fill:url(#SVGID_00000104685741459124703650000016042803045940424354_);"/>
			<clipPath id="SVGID_00000172413415593599967500000004655738125831902381_">
				<use xlink:href="#SVGID_00000165942876314100670030000008138391357075001251_"  style="overflow:visible;"/>
			</clipPath>
			<g style="clip-path:url(#SVGID_00000172413415593599967500000004655738125831902381_);">
				<circle class="st10" cx="2465.37" cy="2162.78" r="189.77"/>
				<g>
					<path class="st11" d="M2552.96,2230.94c-5.07,4.44-10.78,8.1-17.01,10.88c-6.2,2.8-12.92,4.73-19.97,5.74l-101.84,14.27
						c-2.57,0.42-5.26-0.11-7.52-1.47c-2.18-1.31-3.92-3.4-4.84-5.87l-35.3-96.61c-4.87-13.49-5.82-27.5-2.7-40.51
						c6.54-27.84,28.76-49.73,56.63-55.77c26.06-5.61,51.59,3.99,68.28,25.65c4.94,6.37,7.53,14.4,8.9,21.51
						c8.56-2.66,16.33-3.41,23.2-2.25c26.99,4.51,47.42,22.54,54.76,48.19C2583.33,2182.14,2574.47,2212.04,2552.96,2230.94z"/>
				</g>
			</g>
			<g style="clip-path:url(#SVGID_00000172413415593599967500000004655738125831902381_);">
				<circle class="st10" cx="2085.16" cy="2096.36" r="189.77"/>
				<g>
					<path class="st11" d="M2173.18,2164.09c-5.07,4.44-10.78,8.1-17.01,10.88c-6.2,2.8-12.92,4.73-19.97,5.74l-101.84,14.27
						c-2.57,0.42-5.26-0.11-7.52-1.47c-2.18-1.31-3.92-3.4-4.84-5.87l-35.3-96.61c-4.87-13.49-5.82-27.5-2.7-40.51
						c6.54-27.84,28.76-49.73,56.63-55.77c26.06-5.61,51.59,3.99,68.28,25.65c4.94,6.37,7.52,14.4,8.9,21.51
						c8.56-2.66,16.33-3.41,23.2-2.25c26.99,4.51,47.42,22.54,54.76,48.19C2203.54,2115.29,2194.68,2145.19,2173.18,2164.09z"/>
				</g>
			</g>
			<g style="clip-path:url(#SVGID_00000172413415593599967500000004655738125831902381_);">
				<circle class="st10" cx="2781.3" cy="1663.26" r="146.2"/>
				<g>
					<path class="st11" d="M2849.11,1715.44c-3.9,3.42-8.31,6.24-13.11,8.38c-4.78,2.16-9.96,3.64-15.39,4.42l-78.46,11
						c-1.98,0.32-4.05-0.09-5.79-1.13c-1.68-1.01-3.02-2.62-3.73-4.52l-27.19-74.43c-3.75-10.39-4.49-21.19-2.08-31.21
						c5.04-21.45,22.16-38.31,43.63-42.96c20.07-4.32,39.74,3.07,52.6,19.76c3.81,4.91,5.8,11.09,6.86,16.57
						c6.6-2.05,12.58-2.62,17.87-1.73c20.79,3.47,36.53,17.36,42.19,37.12C2872.5,1677.84,2865.68,1700.88,2849.11,1715.44z"/>
				</g>
			</g>
			<g style="clip-path:url(#SVGID_00000172413415593599967500000004655738125831902381_);">
				<circle class="st10" cx="2303.15" cy="1638.69" r="146.2"/>
				<g>
					<path class="st11" d="M2370.96,1690.88c-3.9,3.42-8.31,6.24-13.11,8.38c-4.78,2.16-9.96,3.64-15.39,4.42l-78.46,11
						c-1.98,0.32-4.05-0.09-5.79-1.13c-1.68-1.01-3.02-2.62-3.73-4.52l-27.19-74.43c-3.75-10.39-4.49-21.19-2.08-31.21
						c5.04-21.45,22.16-38.31,43.63-42.96c20.07-4.32,39.74,3.07,52.6,19.76c3.81,4.91,5.8,11.09,6.86,16.57
						c6.6-2.05,12.58-2.62,17.87-1.73c20.79,3.47,36.53,17.36,42.19,37.12C2394.36,1653.28,2387.53,1676.32,2370.96,1690.88z"/>
				</g>
			</g>
			<g style="clip-path:url(#SVGID_00000172413415593599967500000004655738125831902381_);">
				<circle class="st10" cx="2746.63" cy="1372.81" r="121.86"/>
				<g>
					<path class="st11" d="M2817.46,1364.43c-0.33,4.31-1.32,8.56-2.93,12.63c-1.59,4.07-3.81,7.97-6.6,11.6l-40.38,52.25
						c-0.99,1.35-2.46,2.31-4.11,2.7c-1.59,0.38-3.33,0.2-4.86-0.52l-59.56-28.54c-8.29-4.01-15.02-10.02-19.42-17.4
						c-9.49-15.73-9.1-35.75,0.99-51.03c9.45-14.27,25.49-21.32,42.87-18.86c5.13,0.71,9.92,3.24,13.74,5.89
						c2.74-5.07,5.97-8.89,9.65-11.44c14.42-10.04,31.89-10.93,46.77-2.44C2809.51,1328.39,2818.86,1346.09,2817.46,1364.43z"/>
				</g>
			</g>
			<g style="clip-path:url(#SVGID_00000172413415593599967500000004655738125831902381_);">
				<circle class="st10" cx="1852.86" cy="2005.33" r="189.77"/>
				<g>
					<path class="st11" d="M1940.88,2073.07c-5.07,4.44-10.78,8.1-17.01,10.88c-6.2,2.8-12.92,4.73-19.97,5.74l-101.84,14.27
						c-2.57,0.42-5.26-0.11-7.52-1.47c-2.18-1.31-3.92-3.4-4.84-5.87l-35.3-96.61c-4.87-13.49-5.82-27.5-2.7-40.51
						c6.54-27.84,28.76-49.73,56.63-55.77c26.06-5.61,51.59,3.99,68.28,25.65c4.94,6.37,7.53,14.4,8.9,21.51
						c8.56-2.66,16.33-3.41,23.2-2.25c26.99,4.51,47.42,22.54,54.76,48.19C1971.25,2024.26,1962.39,2054.16,1940.88,2073.07z"/>
				</g>
			</g>
			<g style="clip-path:url(#SVGID_00000172413415593599967500000004655738125831902381_);">
				<circle class="st10" cx="2682.54" cy="2154.08" r="189.77"/>
				<g>
					<path class="st11" d="M2789.36,2123.65c0.55,6.72,0.09,13.48-1.38,20.15c-1.44,6.65-3.89,13.2-7.27,19.47l-49.14,90.34
						c-1.19,2.32-3.22,4.16-5.66,5.17c-2.34,0.97-5.06,1.13-7.6,0.4l-98.65-29.13c-13.74-4.11-25.57-11.69-34.16-21.94
						c-18.48-21.83-22.84-52.71-11.11-78.7c11-24.28,33.91-39.08,61.25-39.61c8.06-0.18,16.05,2.52,22.58,5.65
						c2.95-8.47,6.98-15.15,12-19.98c19.68-19,46.33-24.7,71.31-15.33C2768.21,2070.21,2786.97,2095.12,2789.36,2123.65z"/>
				</g>
			</g>
			<g style="clip-path:url(#SVGID_00000172413415593599967500000004655738125831902381_);">
				<circle class="st10" cx="2535.2" cy="1802.61" r="211.38"/>
				<g>
					<path class="st11" d="M2654.18,1768.72c0.62,7.48,0.1,15.02-1.54,22.44c-1.6,7.41-4.33,14.7-8.1,21.68l-54.73,100.62
						c-1.33,2.58-3.58,4.63-6.3,5.76c-2.61,1.08-5.64,1.26-8.46,0.44l-109.88-32.45c-15.3-4.58-28.48-13.02-38.05-24.44
						c-20.58-24.32-25.45-58.71-12.38-87.66c12.25-27.04,37.77-43.53,68.22-44.12c8.98-0.2,17.88,2.81,25.15,6.29
						c3.29-9.43,7.78-16.87,13.37-22.25c21.93-21.17,51.61-27.51,79.43-17.07C2630.63,1709.19,2651.52,1736.94,2654.18,1768.72z"/>
				</g>
			</g>
			<g style="clip-path:url(#SVGID_00000172413415593599967500000004655738125831902381_);">
				<circle class="st10" cx="2491.61" cy="2005.78" r="158.13"/>
				<g>
					<path class="st11" d="M2580.62,1980.43c0.46,5.6,0.07,11.23-1.15,16.79c-1.2,5.54-3.24,11-6.06,16.22l-40.95,75.27
						c-1,1.93-2.68,3.46-4.71,4.31c-1.95,0.81-4.22,0.94-6.33,0.33l-82.2-24.27c-11.45-3.43-21.31-9.74-28.47-18.28
						c-15.4-18.19-19.04-43.92-9.26-65.58c9.16-20.23,28.25-32.57,51.04-33c6.71-0.15,13.37,2.1,18.82,4.71
						c2.46-7.05,5.82-12.62,10-16.65c16.4-15.83,38.61-20.58,59.42-12.77C2563,1935.89,2578.63,1956.65,2580.62,1980.43z"/>
				</g>
			</g>
			<g style="clip-path:url(#SVGID_00000172413415593599967500000004655738125831902381_);">
				<circle class="st10" cx="2778.18" cy="1896" r="139.44"/>
				<g>
					<path class="st11" d="M2847.6,1938.91c-3.37,3.63-7.27,6.73-11.62,9.23c-4.32,2.51-9.09,4.43-14.17,5.69l-73.37,18.06
						c-1.85,0.5-3.85,0.31-5.61-0.51c-1.69-0.79-3.12-2.19-3.98-3.93l-33.04-67.97c-4.57-9.49-6.32-19.67-5.01-29.41
						c2.7-20.84,17.3-38.5,37.22-45.01c18.62-6.05,38.01-0.95,51.83,13.63c4.09,4.28,6.58,9.96,8.12,15.05
						c6.06-2.59,11.68-3.71,16.79-3.38c20.06,1.27,36.35,12.92,43.63,31.12C2866.14,1900.97,2861.9,1923.48,2847.6,1938.91z"/>
				</g>
			</g>
			<g style="clip-path:url(#SVGID_00000172413415593599967500000004655738125831902381_);">
				<circle class="st10" cx="2282.02" cy="2064.44" r="189.77"/>
				<g>
					<path class="st11" d="M2370.03,2132.17c-5.07,4.44-10.78,8.1-17.01,10.88c-6.2,2.8-12.92,4.73-19.97,5.74l-101.84,14.27
						c-2.57,0.42-5.26-0.11-7.52-1.47c-2.18-1.31-3.92-3.4-4.84-5.87l-35.3-96.61c-4.87-13.49-5.82-27.5-2.7-40.51
						c6.54-27.84,28.76-49.73,56.63-55.77c26.06-5.61,51.59,3.99,68.28,25.65c4.94,6.37,7.53,14.4,8.9,21.51
						c8.56-2.66,16.33-3.41,23.2-2.25c26.99,4.51,47.42,22.54,54.76,48.18C2400.4,2083.37,2391.54,2113.27,2370.03,2132.17z"/>
				</g>
			</g>
			
				<circle style="clip-path:url(#SVGID_00000172413415593599967500000004655738125831902381_);fill:#BAD7E7;" cx="2380.77" cy="633.88" r="91.24"/>
			<path style="clip-path:url(#SVGID_00000172413415593599967500000004655738125831902381_);fill:#BAD7E7;" d="M2991.35,770.43
				l-475.78-86.25c-10.51-1.91-17.49-11.98-15.59-22.49l2.51-13.83c1.91-10.52,11.98-17.49,22.49-15.59l475.78,86.25
				c10.52,1.91,17.49,11.98,15.59,22.49l-2.51,13.83C3011.94,765.36,3001.87,772.34,2991.35,770.43z"/>
			<path style="clip-path:url(#SVGID_00000172413415593599967500000004655738125831902381_);fill:#BAD7E7;" d="M2798.39,911.14
				l-568.13-102.99c-6.78-1.23-11.29-7.73-10.06-14.51l1.62-8.92c1.23-6.78,7.73-11.29,14.51-10.06l568.13,102.99
				c6.78,1.23,11.29,7.73,10.06,14.51l-1.62,8.92C2811.67,907.87,2805.18,912.37,2798.39,911.14z"/>
			<path style="clip-path:url(#SVGID_00000172413415593599967500000004655738125831902381_);fill:#BAD7E7;" d="M2885.03,1003.07
				l-682.82-123.78c-6.78-1.23-11.29-7.73-10.06-14.51l1.62-8.92c1.23-6.78,7.73-11.29,14.51-10.06l682.82,123.78
				c6.78,1.23,11.29,7.73,10.06,14.51l-1.62,8.92C2898.31,999.8,2891.82,1004.3,2885.03,1003.07z"/>
			<path style="clip-path:url(#SVGID_00000172413415593599967500000004655738125831902381_);fill:#BAD7E7;" d="M2571.31,1020.48
				l-398.83-72.3c-6.78-1.23-11.29-7.73-10.06-14.51l1.62-8.92c1.23-6.78,7.73-11.29,14.51-10.06l398.83,72.3
				c6.78,1.23,11.29,7.73,10.06,14.51l-1.62,8.92C2584.59,1017.21,2578.09,1021.71,2571.31,1020.48z"/>
			<g style="clip-path:url(#SVGID_00000172413415593599967500000004655738125831902381_);">
				
					<ellipse transform="matrix(0.3123 -0.95 0.95 0.3123 553.6263 3232.7751)" class="st13" cx="2509.57" cy="1234.02" rx="192.55" ry="111.83"/>
				
					<ellipse transform="matrix(0.3123 -0.95 0.95 0.3123 552.6207 3225.2786)" class="st13" cx="2503.89" cy="1230.97" rx="168.5" ry="94.94"/>
				
					<ellipse transform="matrix(0.3123 -0.95 0.95 0.3123 547.704 3212.0837)" class="st14" cx="2492.32" cy="1227.76" rx="142.89" ry="72.53"/>
				
					<ellipse transform="matrix(0.3123 -0.95 0.95 0.3123 537.4843 3201.0911)" class="st15" cx="2479.61" cy="1229.33" rx="107.66" ry="49.84"/>
				
					<ellipse transform="matrix(0.3123 -0.95 0.95 0.3123 522.5315 3195.927)" class="st15" cx="2468.57" cy="1237.07" rx="81.02" ry="34.69"/>
			</g>
		</g>
		<g>
			<g>
				<path class="st16" d="M1701.43,2656.45c-55.42,16.17-123.54-11.55-118.92-63.49c4.62-51.96-36.94-102.75,8.08-132.76
					c18.55-12.38,29.12-19.08,34.16-24.62c3.9-4.28,9-7.39,14.37-7.69c2-0.11,4.03,0.16,6.07,0.91
					c19.33,7.14,47.87,22.56,40.07,49.86c0,0-3.46,92.35,16.17,115.44c7.67,9.04,17.82,18.06,24.02,26.68
					C1735.1,2634.19,1735.16,2646.61,1701.43,2656.45z"/>
				<path class="st17" d="M1701.43,2656.45c-55.42,16.17-123.54-11.55-118.92-63.49c4.62-51.96-36.94-102.75,8.08-132.76
					c18.55-12.38,29.12-19.08,34.16-24.62c3.9-4.28,9-7.39,14.37-7.69c-0.44,4.93-3.11,12.12-8.68,22.1c0,0-43.26,60.68-28.01,98.62
					c15.27,37.92,6.54,97.65,63.22,95.47c31.45-1.21,49.74-13.02,59.8-23.3C1735.1,2634.19,1735.16,2646.61,1701.43,2656.45z"/>
				<path class="st18" d="M1629.23,2522.59c0,0,30.7-8.87,52.73-1.54"/>
				<path class="st18" d="M1630.72,2541.23c0,0,29.82-11.49,52.4-6.08"/>
				<path class="st18" d="M1635.39,2557.28c0,0,27.72-12.37,49.33-7.67"/>
			</g>
			<g>
				<path class="st19" d="M2621,2321.39l-94.75-19.48l-16.27-3.35c0,0-144.03-165.52-163.65-293.03c0,0-164.53,15.23-300.17-70.64
					c-1-0.63-1.98-1.27-2.94-1.92c-131.2-87.57-28.73-332.89,199.13-243.31c0,0,251.12,184.41,278.59,266.82
					C2548.41,2038.88,2621,2321.39,2621,2321.39z"/>
				<path class="st20" d="M2524.82,2301.61l-14.84-3.06c0,0-144.03-165.52-163.65-293.03c0,0-164.53,15.23-300.17-70.64
					c-1-0.63-1.98-1.27-2.94-1.92c0.18-38.68,12.25-76.25,46.07-105.52c0,0,224.71,141.57,288.35,133.79
					C2429.22,1954.93,2475.42,2196.87,2524.82,2301.61z"/>
			</g>
			<g>
				<path class="st19" d="M2098.55,2160.38c-46.75,83.12-414.68,329.04-414.68,329.04c-24.41-4.55-43.33-25.57-53.43-39.43
					c-5.26-7.22-8.12-12.51-8.12-12.51c77.93-171.45,280.54-349.82,280.54-349.82c-81.39-124.7-90.05-256.3-90.05-256.3
					c8.37-35.78,21.25-62.46,37.14-81.92c92.44-113.34,286.7,17.84,286.7,17.84S2145.3,2077.26,2098.55,2160.38z"/>
				<path class="st20" d="M1630.44,2449.99c-5.26-7.22-8.12-12.51-8.12-12.51c77.93-171.45,280.54-349.82,280.54-349.82
					c-81.39-124.7-90.05-256.3-90.05-256.3c8.37-35.78,21.25-62.46,37.14-81.92c37.24-10.88,72.52,10.03,94.58,97.19
					c0,0-15.01,188.65,21.36,244.51C2000.41,2144.12,1694.35,2313.34,1630.44,2449.99z"/>
			</g>
			<g>
				<path class="st21" d="M2458.38,1276.92c-5.66,9.9-12.77,19.46-21.73,28.15c0,0-21.1,7.28-54.77,14.37
					c-61.37,12.94-164.53,25.29-257.92-8.1c-123.06-43.99-119.87-168.48-68.89-194.95c8.93-4.65,19.33-6.28,30.76-3.95
					c0,0,171.2,71.97,313.44,72.15c28.22,0.03,55.3-2.75,79.67-9.5C2478.95,1175.09,2485.37,1229.68,2458.38,1276.92z"/>
				<path class="st22" d="M2458.38,1276.92c-7.62,2.4-25.71,7.78-50.78,13.06c-61.37,12.94-164.52,25.29-257.92-8.1
					c-96.22-34.39-115.25-118-94.61-165.49c8.93-4.65,19.33-6.28,30.76-3.95c0,0,171.2,71.97,313.44,72.15
					c28.22,0.03,55.3-2.75,79.67-9.5C2478.95,1175.09,2485.37,1229.68,2458.38,1276.92z"/>
				<path class="st23" d="M2389.79,1293.36c-2.15,9-4.77,17.77-7.91,26.08c-61.37,12.94-164.53,25.29-257.92-8.1
					c-104.18-37.24-117.88-132.18-88.7-176.49c11.33-17.22,29.12-26.78,50.57-22.41c0,0,171.2,71.97,313.44,72.15
					C2400,1213.61,2398.87,1255.54,2389.79,1293.36z"/>
				<path class="st24" d="M2389.79,1293.36c-61.69,12.69-162.98,24.09-254.84-8.74c-86.32-30.85-110.52-101.32-99.68-149.78
					c11.33-17.22,29.12-26.78,50.57-22.41c0,0,171.2,71.97,313.44,72.15C2400,1213.61,2398.87,1255.54,2389.79,1293.36z"/>
			</g>
			<g>
				<path class="st25" d="M2258.28,1707.1c-71.28,98.12-209.52,130.05-313.74,139.51c-76.44,6.94-134.56,1.8-134.56,1.8
					s-70.06-146.1-120.36-440.7c-50.28-294.59,246.46-323.34,246.46-323.34c26.68-5.52,51.27-7.78,73.92-7.16
					C2340.89,1086.08,2258.28,1707.1,2258.28,1707.1z"/>
				<path class="st23" d="M1944.15,1168.59c-79.26-26.72-150.05-33.4-199.46,70.77c-44.38,93.59,158.24,521.35,199.84,607.26
					c-76.44,6.94-134.56,1.8-134.56,1.8s-70.06-146.1-120.36-440.7c-50.28-294.59,246.46-323.34,246.46-323.34
					c26.68-5.52,51.27-7.78,73.92-7.16c4.44,12.9,8.42,27.7,11.86,44.63C2021.85,1121.85,2023.42,1195.29,1944.15,1168.59z"/>
				<g>
					<path class="st26" d="M1706.2,1238.03c2-5.03,6.93-8.53,11.42-11.17c5.87-3.46,12.28-5.97,18.74-8.1
						c12.76-4.21,26.04-7.07,39.4-8.5c10.84-1.16,21.9-1.54,32.71,0.13c10.03,1.55,19.45,5.07,28.36,9.88
						c8.79,4.74,17.02,10.42,25.39,15.84c8.27,5.35,16.77,10.31,25.71,14.47c34.49,16.07,75.07,20.72,110.2,3.83
						c8.1-3.89,15.67-8.91,22.35-14.93c6.52-5.89,12.06-12.73,17.85-19.31c5.74-6.51,11.82-12.94,19.29-17.5
						c8.52-5.21,18.37-7.17,28.28-6.81c21.16,0.77,39.84,11.45,59.13,18.94c8.71,3.38,17.77,4.54,25.87-0.97
						c7.37-5.01,11.65-13.02,14.04-21.41c1.35-4.74,2.18-9.6,2.99-14.45c0.32-1.89-2.57-2.7-2.89-0.8
						c-1.65,9.78-3.33,20.34-9.64,28.36c-2.72,3.45-6.25,6.43-10.37,8.03c-4.79,1.86-9.81,1.39-14.64-0.06
						c-10.13-3.05-19.68-8.17-29.5-12.1c-9.25-3.71-18.77-6.82-28.7-8.04c-9.75-1.2-19.9-0.55-29.07,3.18
						c-7.73,3.14-14.31,8.35-20.15,14.23c-6.26,6.29-11.74,13.29-17.77,19.78c-6.15,6.62-13,12.42-20.77,17.07
						c-34.32,20.54-76.8,17.4-112.27,1.59c-9.15-4.08-17.88-8.97-26.31-14.35c-8.29-5.3-16.38-10.94-24.96-15.79
						c-8.54-4.83-17.58-8.77-27.22-10.78c-10.23-2.14-20.77-2.38-31.17-1.64c-14.01,0.99-27.92,3.56-41.4,7.5
						c-6.71,1.96-13.35,4.28-19.66,7.31c-5.23,2.5-10.55,5.57-14.46,9.93c-1.56,1.75-2.8,3.67-3.67,5.85
						C1702.6,1239.03,1705.5,1239.81,1706.2,1238.03L1706.2,1238.03z"/>
				</g>
				<g>
					<path class="st26" d="M1694.19,1435.71c17.08,16.51,38.77,27.04,61.44,33.54c11.66,3.35,23.6,5.68,35.61,7.36
						c13.11,1.83,26.54,3.37,39.72,1.32c21.15-3.28,38.15-16.94,53.36-31.1c16.28-15.15,31.8-31.63,52.39-40.96
						c12.35-5.59,25.83-8.71,39.33-9.71c13.27-0.98,26.97-0.2,39.42,4.86c18.29,7.44,32.19,22.43,45.88,36.1
						c13.15,13.13,27.24,26.77,45.37,32.5c10.81,3.42,22.91,3.94,33.19-1.4c8.72-4.53,14.98-12.6,19.4-21.19
						c9.79-19.07,10.69-41.45,21.38-60.11c5.35-9.33,13.26-16.74,23.83-19.51c10.95-2.87,22.81-2.03,33.89-0.45
						c5.17,0.74,10.31,1.72,15.41,2.84c1.88,0.41,2.69-2.48,0.8-2.89c-10.48-2.3-21.16-4.07-31.9-4.29
						c-10.06-0.21-20.9,0.88-29.58,6.42c-18.04,11.52-22.83,34.37-28.02,53.59c-5.34,19.8-15.28,44.33-38.82,46.47
						c-21.02,1.92-39.44-11.78-53.88-25.37c-13.91-13.09-26.47-27.95-42.59-38.47c-9.1-5.93-19.13-9.9-29.9-11.47
						c-12.87-1.87-26.23-1.09-38.97,1.37c-12.71,2.45-25.1,6.93-36.21,13.62c-8.9,5.36-16.92,12.06-24.58,19.05
						c-15.5,14.14-29.93,30.4-48.8,40.18c-23.09,11.97-50,7.93-74.54,3.19c-23.39-4.52-46.63-12.17-66.3-25.91
						c-5.04-3.52-9.76-7.43-14.18-11.7C1694.92,1432.25,1692.8,1434.37,1694.19,1435.71L1694.19,1435.71z"/>
				</g>
				<g>
					<path class="st26" d="M1750.65,1669.6c18.01,8.12,39.78,6.21,55.81-5.5c13.59-9.93,21.97-24.89,29.79-39.42
						c8.06-14.99,16.03-30.93,29.49-41.87c15.67-12.74,38.18-15.91,56.89-8.46c19.75,7.87,32.42,26.46,48.65,39.28
						c15.61,12.34,34.14,21.23,53.74,24.94c19.89,3.76,40.01,1.78,58.67-6.1c20.57-8.68,38.27-22.58,58.13-32.6
						c10.17-5.14,20.99-9.29,32.28-11.09c11.42-1.82,22.46-0.52,33.24,3.6c9.29,3.55,18.96,7.76,28.97,4.49
						c8.79-2.87,16.31-9.19,22.87-15.5c3.17-3.05,6.18-6.25,9.12-9.52c1.29-1.43-0.83-3.56-2.12-2.12
						c-6.38,7.09-13.14,14.1-21.12,19.39c-3.73,2.47-7.79,4.63-12.2,5.57c-5.22,1.12-10.59-0.1-15.55-1.77
						c-5.2-1.74-10.19-4.07-15.46-5.63c-4.96-1.47-10.13-2.23-15.3-2.36c-10.79-0.28-21.53,2.17-31.59,5.9
						c-20.7,7.69-38.41,21.04-57.62,31.62c-9.41,5.18-19.25,9.69-29.71,12.31c-9.83,2.46-20.03,3.2-30.13,2.45
						c-20.15-1.5-39.7-8.92-56.42-20.14c-8.71-5.84-16.3-12.91-23.77-20.23c-7.1-6.95-14.24-14-22.58-19.47
						c-16.33-10.72-37.14-12.97-55.37-5.84c-16.36,6.4-27.48,19.78-36.22,34.51c-8.67,14.62-15.36,30.65-26.19,43.89
						c-5.36,6.56-11.76,12.29-19.36,16.12c-9.31,4.7-20.06,6.42-30.39,5.17c-5.18-0.62-10.25-2.06-15-4.21
						C1750.42,1666.23,1748.89,1668.81,1750.65,1669.6L1750.65,1669.6z"/>
				</g>
				<g>
					<path class="st26" d="M1792.45,1805.71c26.66,18.18,60.69,24.01,92.13,17.44c15.83-3.31,30.92-9.87,43.99-19.4
						c14.46-10.54,26.44-23.99,37.11-38.26c10.28-13.75,19.35-29.93,35.01-38.27c15.77-8.4,34.71-7.26,51.55-3.13
						c18.37,4.51,35.43,13.01,53.47,18.56c9.02,2.77,18.3,4.78,27.74,5.26c9.41,0.48,18.89-0.51,28.07-2.56
						c17.54-3.92,35.74-11.35,48.72-24.13c12.5-12.31,21-29.51,37.57-37.13c4-1.84,8.26-2.86,12.66-2.89c1.93-0.01,1.93-3.01,0-3
						c-17.62,0.13-30.06,14.17-40.21,26.84c-5.71,7.13-11.47,14.33-18.84,19.83c-7.45,5.56-15.93,9.62-24.63,12.82
						c-18.46,6.8-38.27,9.35-57.65,5.35c-18.76-3.87-36.12-12.3-54.19-18.36c-15.88-5.33-33.26-8.69-49.95-5.55
						c-8.27,1.56-16.11,4.9-22.82,10.01c-6.56,5-11.9,11.32-16.83,17.89c-5.39,7.19-10.39,14.66-15.93,21.73
						c-5.51,7.03-11.39,13.79-17.8,20.01c-12.37,12.01-26.73,21.65-43.06,27.37c-30.52,10.69-65.59,8.5-94.22-6.73
						c-3.58-1.9-7.04-4.02-10.4-6.3C1792.37,1802.03,1790.87,1804.63,1792.45,1805.71L1792.45,1805.71z"/>
				</g>
			</g>
			<g>
				<path class="st27" d="M2016.72,1141.88c-47.45,48.22-78.35-14.47-88.28-39.69c-2.33-5.93-3.21-12.33-2.6-18.68l3.52-36.73
					l4.66-48.63c40.35-17.27,91.14,34.2,91.14,34.2s0.56,51.03,0.83,79.93c0.02,2.3,0.04,4.45,0.06,6.43
					C2026.13,1127.36,2022.79,1135.71,2016.72,1141.88z"/>
				<path class="st21" d="M2025.99,1112.28c-30.82,4.83-78.4-44.9-96.63-65.5l4.66-48.63c40.35-17.27,91.14,34.2,91.14,34.2
					S2025.72,1083.38,2025.99,1112.28z"/>
			</g>
			<g>
				<g>
					<path class="st27" d="M2088.93,1050.97c-8.86,6.45-18.63,10.86-28.97,13.6c-29.65,7.86-63.77,1.92-93.15-9.88
						c-33.93-13.6-61.54-35-68.66-51.89c-4.2-9.95-9.51-40.09-10.29-75.83c-0.98-44.57,5.11-97.84,29.29-131.46
						c27.79-38.64,79.47-51.33,171.78,4.95c0,0,21.2,67.45,21.2,88.64C2110.12,889.1,2152.51,1004.72,2088.93,1050.97z"/>
				</g>
				<path class="st28" d="M1966.81,1054.69c-33.93-13.6-61.54-35-68.66-51.89c-4.2-9.95-9.51-40.09-10.29-75.83
					c10.5-34.39,21.61-69.6,21.61-69.6l42.41-14.97c-0.44,1.17-19.78,52.9-4.78,80.65c13.9,25.75,9.03,52.92-15.1,77.16
					c-4.2,4.22-5.06,10.7-1.96,15.79C1936.17,1026.08,1948.11,1042.39,1966.81,1054.69z"/>
			</g>
			<g>
				<path class="st29" d="M2151.45,759.67c-23.4,98.26-190.81,66.03-190.81,66.03c-2.09,40.03-56.16,99.82-56.16,99.82
					c-4.98,5.9-6.83,24.09-7.42,41.04c-0.6,17.49,0.12,33.67,0.12,33.67s-27.82-9.39-54.43-32.17
					c-30.68-26.25-59.76-70.28-42.77-138.2c0.5-1.99,1.04-3.94,1.61-5.86c35.52-120.2,204.26-94.99,204.26-94.99
					c15.4-28.53,33.03-40.16,49.19-43.43c28.04-5.67,51.69,13.78,51.69,13.78S2174.84,661.41,2151.45,759.67z"/>
				<path class="st30" d="M2151.45,759.67c-23.4,98.26-190.81,66.03-190.81,66.03c-2.09,40.03-56.16,99.82-56.16,99.82
					c-4.98,5.9-6.83,24.09-7.42,41.04c-19.91,1.94-38.32,2.51-54.31,1.5c-30.68-26.25-59.76-70.28-42.77-138.2
					c0.5-1.99,1.04-3.94,1.61-5.86c8.45,32.22,38.41,69.39,82.22,61.46c41.14-7.46,58.47-47.82,64.8-68.91
					c1.75-5.81,7.64-9.4,13.55-8.06c33.56,7.59,134.06-0.42,160.14-39.37c24.48-36.56-8.75-51.51-22.32-55.89
					c-2.84-0.91-4.95-3.28-5.54-6.2c-2.9-14.32-25.36-19.57-39.41-21.46c28.04-5.67,51.69,13.78,51.69,13.78
					S2174.84,661.41,2151.45,759.67z"/>
			</g>
			<g>
				<path class="st31" d="M2005.86,729c0,0-109.27,20.2-118.1,164.77l-30.02,3.61c0,0-0.2-1.94-0.39-5.41
					c-1.34-24.56-1.77-125.95,77.85-162.97c0,0,34.28-15.35,62.29-4.27C2000.37,725.86,2003.16,727.27,2005.86,729z"/>
				<path class="st7" d="M1997.49,724.74c-14.78,3.56-108.01,31.26-116.15,164.33l-23.99,2.9c-1.34-24.56-1.77-125.95,77.85-162.97
					C1935.2,729,1969.48,713.66,1997.49,724.74z"/>
			</g>
			<g>
				<path class="st32" d="M2095.89,988.41c-0.74,7.91-4.8,18.31-16.73,30.57c-0.41,0.42-0.83,0.83-1.27,1.25
					c-23.25,21.96-71.41,16.85-90.11-8.48c-4.32-5.83-7.07-12.74-7.59-20.64c-2.82-42.83,45.95-16.36,45.95-16.36
					c16.17,9.62,40.09,5.07,54.2,0.97C2088.52,973.36,2096.7,979.93,2095.89,988.41z"/>
				<path class="st33" d="M2077.9,1020.24c-23.25,21.96-71.41,16.85-90.11-8.48c5.74-8.18,18.28-20.32,38.36-11.37
					C2026.14,1000.39,2060.81,987.06,2077.9,1020.24z"/>
			</g>
			<path class="st31" d="M1944.15,951.84c0,38.34-31.08,69.42-69.41,69.42c-7.24,0-14.22-1.1-20.77-3.16
				c-28.19-8.83-48.64-35.15-48.64-66.26c0-38.33,31.06-69.41,69.41-69.41c2.93,0,5.82,0.18,8.64,0.53
				C1917.64,887.23,1944.15,916.44,1944.15,951.84z"/>
			<path class="st7" d="M1932.03,949.22c0,38.33-31.08,69.41-69.42,69.41c-2.93,0-5.82-0.18-8.64-0.53
				c-28.19-8.83-48.64-35.15-48.64-66.26c0-38.33,31.06-69.41,69.41-69.41c2.93,0,5.82,0.18,8.64,0.53
				C1911.59,891.8,1932.03,918.12,1932.03,949.22z"/>
			<circle class="st34" cx="1866.81" cy="951.29" r="48.75"/>
			<g>
				<path class="st29" d="M1968.77,875.07c0.2-0.85,0.43-1.68,0.72-2.5c0.08-0.22,0.52-1.24,0.09-0.3c0.15-0.34,0.31-0.68,0.47-1.01
					c0.39-0.78,0.82-1.53,1.29-2.26c0.2-0.31,0.41-0.62,0.63-0.92c0.09-0.12,0.86-1.03,0.2-0.28c1.08-1.23,2.15-2.42,3.39-3.49
					c0.29-0.24,0.58-0.48,0.87-0.72c-0.8,0.64,0.28-0.19,0.45-0.31c0.67-0.47,1.35-0.9,2.06-1.31c0.69-0.4,1.39-0.77,2.11-1.11
					c0.26-0.13,0.53-0.25,0.8-0.37c-0.33,0.14-0.35,0.14-0.06,0.03c0.48-0.18,0.95-0.37,1.44-0.54c1.8-0.63,3.65-1.11,5.52-1.47
					c0.43-0.08,0.87-0.15,1.3-0.22c1.42-0.23-0.88,0.08,0.56-0.07c1.03-0.11,2.06-0.2,3.09-0.25c1.92-0.09,3.83-0.07,5.75,0.03
					c2.35,0.12,4.6-2.16,4.5-4.5c-0.11-2.54-1.98-4.37-4.5-4.5c-8.68-0.46-17.81,0.88-25.37,5.39c-6.73,4.02-12.2,10.55-13.99,18.28
					c-0.53,2.29,0.71,4.98,3.14,5.54C1965.53,878.73,1968.2,877.52,1968.77,875.07L1968.77,875.07z"/>
			</g>
			<g>
				<path class="st29" d="M2083.57,852.96c0.48-0.3,0.97-0.58,1.48-0.84c0.3-0.15,0.61-0.29,0.92-0.43
					c-0.3,0.14-0.64,0.25-0.14,0.07c1.12-0.4,2.25-0.73,3.42-0.95c0.27-0.05,0.56-0.12,0.84-0.14c-0.56,0.03-0.61,0.08-0.02,0.03
					c0.56-0.05,1.13-0.08,1.7-0.08c0.62-0.01,1.25,0.02,1.87,0.06c0.23,0.02,0.45,0.04,0.68,0.06c1.15,0.11-0.98-0.2,0.15,0.03
					c1.12,0.22,2.22,0.46,3.3,0.82c0.27,0.09,0.54,0.18,0.8,0.28c0.5,0.19,0.54,0.24,0.03-0.01c0.51,0.24,1.02,0.48,1.52,0.74
					c0.5,0.27,0.98,0.56,1.45,0.87c0.28,0.19,0.56,0.38,0.83,0.58c0.69,0.49-0.38-0.35,0.02,0.02c0.88,0.81,1.74,1.59,2.52,2.51
					c1.52,1.81,4.82,1.68,6.36,0c1.77-1.93,1.62-4.43,0-6.36c-7.67-9.14-22.19-11.25-32.28-5.04c-2,1.23-2.95,4.08-1.61,6.16
					C2078.71,853.35,2081.43,854.28,2083.57,852.96L2083.57,852.96z"/>
			</g>
			<g>
				<g>
					<path class="st10" d="M2046.82,907.88c-0.46,2.41-1.28,4.75-2.45,6.95c-1.16,2.2-2.65,4.26-4.46,6.13l-26.09,26.96
						c-0.65,0.7-1.54,1.15-2.49,1.27c-0.92,0.11-1.89-0.1-2.71-0.6l-31.84-19.86c-4.43-2.79-7.85-6.6-9.87-11.05
						c-4.37-9.48-2.89-20.76,3.77-28.75c6.23-7.46,15.73-10.43,25.39-7.95c2.85,0.72,5.4,2.45,7.39,4.19
						c1.86-2.69,3.93-4.64,6.17-5.85c8.77-4.76,18.7-4.16,26.56,1.57C2044.6,887.03,2048.76,897.62,2046.82,907.88z"/>
				</g>
				<g>
					<path class="st35" d="M2038.01,895.51c-0.84,0-1.63-0.52-1.93-1.36c-3.34-9.44-13.7-8.77-13.8-8.76
						c-1.09,0.08-2.11-0.76-2.19-1.89c-0.08-1.13,0.76-2.11,1.89-2.19c4.7-0.35,14.46,1.6,17.97,11.48
						c0.38,1.06-0.18,2.23-1.24,2.61C2038.47,895.47,2038.24,895.51,2038.01,895.51z"/>
				</g>
				<circle class="st35" cx="2039.93" cy="900.82" r="2.59"/>
			</g>
			<g>
				<g>
					<path class="st10" d="M2141.84,896.53c-0.41,2.16-1.15,4.25-2.19,6.22c-1.03,1.97-2.38,3.81-3.99,5.49l-23.35,24.14
						c-0.58,0.62-1.38,1.03-2.23,1.13c-0.82,0.1-1.69-0.09-2.43-0.54l-28.5-17.78c-3.96-2.49-7.03-5.91-8.84-9.89
						c-3.91-8.48-2.59-18.58,3.38-25.74c5.58-6.68,14.08-9.34,22.73-7.12c2.55,0.65,4.83,2.2,6.61,3.75
						c1.67-2.41,3.52-4.16,5.52-5.24c7.85-4.26,16.74-3.73,23.78,1.4C2139.85,877.86,2143.58,887.34,2141.84,896.53z"/>
				</g>
				<g>
					<path class="st35" d="M2133.95,885.45c-0.75,0-1.46-0.47-1.73-1.22c-2.99-8.45-12.26-7.85-12.36-7.85
						c-0.97,0.07-1.89-0.68-1.96-1.69c-0.08-1.01,0.68-1.89,1.69-1.96c4.2-0.31,12.95,1.43,16.08,10.27c0.34,0.95-0.16,2-1.11,2.34
						C2134.36,885.42,2134.16,885.45,2133.95,885.45z"/>
				</g>
				<circle class="st35" cx="2135.67" cy="890.21" r="2.32"/>
			</g>
			<path class="st23" d="M1793.27,1267.96c0,0-4.33,193.77,150.89,294.66s256.52,22.87,256.52,22.87
				S1891.89,1235.86,1793.27,1267.96z"/>
			<g>
				<g>
					<path class="st27" d="M2346.09,1162.82c5.04,57.99-51.51,89.11-51.51,89.11s31.62,262.6-104.13,339.95
						c-37.87,21.58-83.13,14.72-128.73-6.39c-13.32-6.17-26.68-13.56-39.87-21.81c-67.72-42.31-131.51-107.34-167.54-147.25
						c-27.25-30.21-46.86-66.64-56.16-106.25c-18.95-80.74,19.66-108.19,62.32-115.63c45.01-7.84,90.81,8.96,121.25,43.05
						l128.85,144.35l22.46,25.16l75.15-186.09c-2.55-15.68,2.4-29.17,11.57-70.85c9.17-41.67,51.36-72.22,38.86-34.47
						c-12.51,37.73,2.51,42.3,2.51,42.3c60.74-24.36,68.28-75.41,76.46-53.53c8.18,21.89-24.85,49.21-24.85,49.21
						c29.91-4.53,41.62-35.51,45.24-16.9c0.3,1.53,0.46,2.99,0.52,4.36C2359.16,1156.52,2346.09,1162.82,2346.09,1162.82z"/>
					<path class="st21" d="M2346.09,1162.82c5.04,57.99-51.51,89.11-51.51,89.11s31.62,262.6-104.13,339.95
						c-37.87,21.58-83.13,14.72-128.73-6.39c-13.32-6.17-26.68-13.56-39.87-21.81c-0.2-28.91,0-54.31,0-54.31
						s40.44,82.88,140.08,67.98c84.43-12.62,89.54-235.21,89.13-302.87c-0.06-9.69,5.51-18.41,14.18-22.74
						c32.68-16.34,50.19-86.01,62.46-86.01c9.98,0,23.73-15.65,30.79-24.6C2359.16,1156.52,2346.09,1162.82,2346.09,1162.82z"/>
				</g>
				<path class="st36" d="M2057.89,1552.98c0.04,11.3,1.21,22.25,3.83,32.51c-81.66-37.81-164.36-121.37-207.41-169.06
					c-27.25-30.21-46.86-66.64-56.16-106.25c-11.85-50.49-1.19-80.15,18.89-97.09c12.04-10.15,27.44-15.74,43.43-18.54
					c45.01-7.84,90.81,8.96,121.25,43.05l128.85,144.35C2094.42,1412.29,2057.67,1488.49,2057.89,1552.98z"/>
				<path class="st25" d="M2110.57,1381.94c-16.15,30.36-52.9,106.55-52.68,171.04c-74.71-41.14-147.43-114.92-186.87-158.62
					c-27.25-30.21-46.86-66.64-56.16-106.25c-7.81-33.3-5.83-57.52,2.18-75.02c12.04-10.15,27.44-15.74,43.43-18.54
					c45.01-7.84,90.81,8.96,121.25,43.05L2110.57,1381.94z"/>
				<path class="st37" d="M2131.52,1408.84c0,0-15.54,32.83-6.67,67.39"/>
				<g>
					<path class="st26" d="M1812.57,1348.54c12.22-12.73,31.69-12.53,47.71-9.11c18.49,3.95,36.69,11.58,55.94,8.95
						c8.33-1.14,16.35-4.32,22.58-10.07c5.58-5.14,9.33-11.95,11.55-19.16c2.31-7.49,3.05-15.46,2.76-23.27
						c-0.34-9.46-2.78-18.65-3.44-28.07c-0.33-4.71-0.34-9.85,1.23-14.37c1.06-3.05,3.21-5.67,5.54-7.84
						c4.91-4.6,11.89-8.33,18.77-8.28c1.46,0.01,2.87,0.24,4.25,0.71c1.83,0.63,2.61-2.27,0.8-2.89
						c-6.55-2.26-14.06,0.31-19.74,3.69c-5.84,3.48-11.47,8.83-13.02,15.68c-2.33,10.3,0.1,20.8,1.62,31.03
						c1.19,7.95,1.5,16.12,0.3,24.09c-1.15,7.63-3.63,15.14-8.18,21.43c-4.86,6.72-12.02,11.21-20,13.29
						c-18.77,4.87-37.55-2.38-55.62-6.78c-16.54-4.02-36.14-5.87-50.69,4.9c-1.61,1.19-3.11,2.5-4.49,3.94
						C1809.11,1347.81,1811.23,1349.93,1812.57,1348.54L1812.57,1348.54z"/>
				</g>
				<g>
					<path class="st26" d="M1942.45,1502.43c13.54-4.8,25.47-13.59,34.31-24.89c9.01-11.51,14.69-25.27,16.06-39.85
						c0.83-8.79,0.36-17.64,0.66-26.45c0.28-8.35,1.2-17.18,5.06-24.72c1.64-3.21,3.9-6.29,7.04-8.16c3.67-2.19,7.68-1.7,11.6-0.48
						c4.04,1.25,7.89,2.71,12.14,3.09c3.89,0.35,7.86-0.04,11.64-0.99c15.77-3.98,26.63-17.41,31.37-32.45
						c0.58-1.85,1.07-3.73,1.48-5.62c0.41-1.88-2.48-2.69-2.89-0.8c-3.31,15.13-12.46,29.78-27.69,35.06
						c-3.65,1.26-7.47,1.96-11.34,1.93c-4.12-0.03-7.9-1.09-11.77-2.41c-3.94-1.34-8.07-2.53-12.23-1.51
						c-3.44,0.85-6.41,3.09-8.63,5.79c-5.15,6.24-7.18,14.57-8.13,22.44c-1.04,8.59-0.65,17.26-0.82,25.89
						c-0.15,7.84-0.89,15.57-3.16,23.09c-2.03,6.73-5.07,13.12-8.92,19c-7.73,11.81-18.78,21.45-31.69,27.21
						c-1.6,0.71-3.23,1.35-4.88,1.94C1939.85,1500.18,1940.63,1503.08,1942.45,1502.43L1942.45,1502.43z"/>
				</g>
			</g>
		</g>
		<g>
			<path class="st38" d="M3281.08,866.42l-52.67,164.33c-1.88,5.86-6.03,10.37-11.18,12.85c-4.83,2.34-10.52,2.9-16.03,1.13
				c-11.38-3.64-17.64-15.83-14-27.19l52.67-164.33c2.92-9.11,11.31-14.94,20.41-15.02h0.19c2.18,0,4.42,0.33,6.61,1.04
				C3278.47,842.86,3284.72,855.05,3281.08,866.42z"/>
			<path class="st38" d="M3207.46,1096.07l-52.67,164.32c-1.87,5.86-6.01,10.36-11.14,12.85c-4.84,2.36-10.54,2.92-16.06,1.15
				c-11.38-3.64-17.65-15.83-14-27.21l52.67-164.32c2.93-9.13,11.34-14.95,20.42-15.03h0.18c2.2,0,4.42,0.34,6.61,1.04
				C3204.85,1072.52,3211.12,1084.69,3207.46,1096.07z"/>
			<path class="st7" d="M3281.08,866.42l-52.67,164.33c-1.88,5.86-6.03,10.37-11.18,12.85c-2.24,0.01-4.53-0.31-6.77-1.04
				c-11.38-3.65-17.65-15.83-14-27.21l52.67-164.32c1.88-5.86,6.01-10.36,11.15-12.85h0.19c2.18,0,4.42,0.33,6.61,1.04
				C3278.47,842.86,3284.72,855.05,3281.08,866.42z"/>
			<path class="st7" d="M3207.46,1096.07l-52.67,164.32c-1.87,5.86-6.01,10.36-11.14,12.85c-2.25,0.03-4.55-0.31-6.82-1.04
				c-11.37-3.64-17.64-15.83-14-27.19l52.68-164.33c1.87-5.86,6.02-10.37,11.16-12.85h0.18c2.2,0,4.42,0.34,6.61,1.04
				C3204.85,1072.52,3211.12,1084.69,3207.46,1096.07z"/>
		</g>
		<g>
			<path class="st10" d="M1504.01,476.11h259.96c25.38,0,45.95,20.57,45.95,45.95v127.91c0,25.38-20.57,45.95-45.95,45.95h-0.85
				c4.24,20.47,12.67,47.07,28.79,58.28c0,0-69.1-15.88-95.08-58.28h-192.82c-25.38,0-45.95-20.57-45.95-45.95V522.06
				C1458.06,496.69,1478.63,476.11,1504.01,476.11z"/>
			<circle class="st11" cx="1734.02" cy="585.67" r="28.65"/>
			<circle class="st11" cx="1633.99" cy="585.67" r="28.65"/>
			<circle class="st11" cx="1528.67" cy="585.67" r="28.65"/>
		</g>
		<g>
			<path class="st39" d="M1462.97,1700.99h169.68c16.56,0,29.99-15.08,29.99-33.69v-93.78c0-18.61-13.43-33.69-29.99-33.69h-0.56
				c2.77-15.01,8.27-34.51,18.79-42.73c0,0-45.1,11.64-62.06,42.73h-125.86c-16.56,0-29.99,15.08-29.99,33.69v93.78
				C1432.98,1685.9,1446.4,1700.99,1462.97,1700.99z"/>
			<g>
				<path class="st40" d="M1512.14,1671.42h-5.01c-3.81,0-6.9-3.09-6.9-6.9v-55.98c0-3.81,3.09-6.9,6.9-6.9h5.01
					c3.81,0,6.9,3.09,6.9,6.9v55.98C1519.04,1668.33,1515.95,1671.42,1512.14,1671.42z"/>
				<path class="st11" d="M1577.93,1601.65h-30.94v-25.4c0-5.78-4.69-10.46-10.46-10.46l0,0c-5.78,0-10.46,4.69-10.46,10.46v25.4
					v57.86c0,6.58,5.34,11.92,11.92,11.92h39.95c9.89,0,17.91-8.02,17.91-17.91v-33.96
					C1595.84,1609.66,1587.82,1601.65,1577.93,1601.65z"/>
			</g>
		</g>
		<g>
			<path class="st41" d="M1629.18,1983.02c-0.41,15.97-3.23,31.79-8.4,47.12c-5.09,15.31-12.53,30.11-22.1,44.02l-138.82,200.33
				c-3.4,5.15-8.64,8.97-14.65,10.74c-5.77,1.69-12.22,1.38-18-1l-225.02-93.79c-31.32-13.19-57.27-34.06-74.91-60.42
				c-37.98-56.15-40.39-130.02-6.11-188.28c32.1-54.4,89.86-83.45,154.42-77.71c19.03,1.62,37.18,10.04,51.77,19.06
				c9.12-19.19,20.31-33.92,33.37-44.01c51.23-39.76,115.47-46.38,171.94-17.93C1592.98,1851.69,1630.82,1915.17,1629.18,1983.02z"
				/>
		</g>
		<g>
			<path class="st41" d="M1575.89,974.82c-5.95,7.96-13.07,14.97-21.2,20.89c-8.08,5.94-17.18,10.78-27.04,14.4l-142.47,51.77
				c-3.58,1.39-7.61,1.45-11.29,0.18c-3.54-1.22-6.7-3.7-8.78-6.98l-80.48-128.49c-11.15-17.95-16.82-37.87-16.3-57.59
				c0.91-42.15,26.24-80.5,64.58-97.75c35.85-16.07,75.6-10.05,106.3,16.07c9.08,7.67,15.26,18.46,19.42,28.28
				c11.53-6.46,22.5-9.91,32.76-10.34c40.29-1.76,75.27,17.97,93.71,52.71C1604.73,895.15,1601.11,940.97,1575.89,974.82z"/>
		</g>
		<g>
			<path class="st41" d="M1547.7,1321.81c-0.29,4.23-1.22,8.4-2.77,12.4c-1.53,4-3.67,7.84-6.37,11.42l-39.14,51.55
				c-0.96,1.33-2.4,2.28-4.01,2.68c-1.55,0.38-3.26,0.22-4.76-0.47l-58.62-27.48c-8.16-3.86-14.8-9.7-19.18-16.89
				c-9.43-15.34-9.22-34.96,0.55-50.02c9.14-14.06,24.8-21.1,41.86-18.84c5.03,0.65,9.75,3.09,13.52,5.65
				c2.64-4.99,5.78-8.76,9.36-11.29c14.05-9.96,31.17-10.97,45.82-2.78C1539.61,1286.55,1548.92,1303.83,1547.7,1321.81z"/>
		</g>
		<g>
			<path class="st41" d="M3352.09,1696.43c-3.68,4.92-8.09,9.27-13.12,12.93c-5,3.68-10.64,6.67-16.74,8.91l-88.19,32.04
				c-2.22,0.86-4.71,0.9-6.99,0.11c-2.19-0.75-4.15-2.29-5.43-4.32l-49.82-79.53c-6.9-11.11-10.41-23.44-10.09-35.65
				c0.56-26.09,16.24-49.83,39.97-60.51c22.19-9.95,46.8-6.22,65.8,9.95c5.62,4.75,9.45,11.43,12.02,17.51
				c7.14-4,13.93-6.13,20.28-6.4c24.94-1.09,46.59,11.12,58,32.62C3369.94,1647.12,3367.7,1675.48,3352.09,1696.43z"/>
		</g>
		<g>
			<path class="st41" d="M3371.1,2055.76c-1.17,9.78-3.82,19.34-7.88,28.45c-4.01,9.11-9.44,17.77-16.12,25.76l-96.86,115.01
				c-2.39,2.97-5.83,5.01-9.62,5.75c-3.64,0.71-7.59,0.14-11-1.65l-132.78-70.63c-18.48-9.91-33.2-24.23-42.51-41.44
				c-20.08-36.69-17.29-82.19,7.14-116c22.87-31.56,60.02-46.05,99.34-38.79c11.6,2.1,22.25,8.32,30.69,14.7
				c6.71-11.26,14.44-19.66,23.04-25.1c33.76-21.45,73.6-21.81,106.64-1.07C3356.46,1973,3376.03,2014.18,3371.1,2055.76z"/>
		</g>
		<g>
			<path class="st10" d="M3306.54,1454.07c-1.91,2.38-4.16,4.45-6.71,6.18c-2.54,1.74-5.38,3.12-8.44,4.13l-44.2,14.38
				c-1.11,0.39-2.35,0.36-3.46-0.06c-1.07-0.41-2.01-1.2-2.62-2.23l-23.32-40.21c-3.23-5.62-4.76-11.78-4.39-17.82
				c0.72-12.91,8.88-24.4,20.81-29.28c11.15-4.55,23.27-2.29,32.41,6.03c2.7,2.44,4.48,5.82,5.66,8.87c3.6-1.86,7-2.8,10.15-2.83
				c12.37-0.12,22.88,6.29,28.17,17.13C3316.21,1429.96,3314.62,1443.96,3306.54,1454.07z"/>
		</g>
		<g>
			<path class="st10" d="M3427,1872.02c-1.71,2.13-3.73,4-6.02,5.55c-2.28,1.56-4.83,2.8-7.57,3.71l-39.66,12.9
				c-1,0.35-2.11,0.33-3.11-0.06c-0.96-0.37-1.81-1.08-2.35-2l-20.93-36.08c-2.9-5.04-4.27-10.57-3.94-15.99
				c0.64-11.58,7.97-21.89,18.67-26.27c10.01-4.08,20.88-2.06,29.08,5.41c2.42,2.19,4.02,5.22,5.08,7.96
				c3.23-1.67,6.28-2.51,9.1-2.54c11.1-0.11,20.53,5.65,25.27,15.37C3435.67,1850.38,3434.25,1862.95,3427,1872.02z"/>
		</g>
		<g>
			<path class="st10" d="M1667.28,1089.8c0.34,3.03,0.23,6.09-0.35,9.12c-0.56,3.02-1.57,6.02-3.01,8.9l-20.95,41.49
				c-0.51,1.06-1.4,1.92-2.48,2.41c-1.05,0.47-2.27,0.58-3.43,0.29l-44.97-11.79c-6.26-1.67-11.71-4.93-15.74-9.44
				c-8.65-9.61-11.05-23.49-6.11-35.4c4.63-11.12,14.77-18.13,27.12-18.74c3.64-0.19,7.29,0.92,10.28,2.24
				c1.22-3.87,2.94-6.94,5.14-9.19c8.63-8.86,20.59-11.8,32-7.91C1656.98,1065.95,1665.8,1076.94,1667.28,1089.8z"/>
		</g>
		<g>
			<path class="st10" d="M1515.73,1991.87c0.8,2.95,1.16,6,1.05,9.1c-0.09,3.08-0.64,6.21-1.63,9.28l-14.43,44.34
				c-0.34,1.13-1.09,2.12-2.09,2.77c-0.97,0.63-2.16,0.92-3.35,0.81l-46.39-4.82c-6.47-0.7-12.37-3.1-17.05-6.96
				c-10.05-8.2-14.55-21.61-11.47-34.17c2.89-11.73,11.88-20.23,24.03-22.73c3.58-0.75,7.36-0.2,10.53,0.65
				c0.62-4.02,1.86-7.33,3.7-9.9c7.2-10.1,18.61-14.84,30.52-12.73C1501.88,1969.8,1512.3,1979.35,1515.73,1991.87z"/>
		</g>
		<path class="st42" d="M1397.12,566.84c0,0-246.03,30.74-252.79,286.57C1144.33,853.41,1189.15,672.61,1397.12,566.84z"/>
	</g>
</g>
</svg>
