<?xml version="1.0" encoding="utf-8"?>
<!-- Generator: Adobe Illustrator 25.4.0, SVG Export Plug-In . SVG Version: 6.00 Build 0)  -->
<svg version="1.1" id="_x31_0" xmlns="http://www.w3.org/2000/svg" xmlns:xlink="http://www.w3.org/1999/xlink" x="0px" y="0px"
	 viewBox="0 0 4680 3120" style="enable-background:new 0 0 4680 3120;" xml:space="preserve">
<style type="text/css">
	.st0{fill:url(#SVGID_1_);}
	.st1{clip-path:url(#SVGID_00000098182813313224363800000004066117964930119609_);}
	.st2{fill:#FFFFFF;}
	.st3{fill:#83B0FF;}
	.st4{fill:#FFF0DB;}
	.st5{opacity:0.43;clip-path:url(#SVGID_00000002346885870183639950000012466888833685183420_);}
	.st6{clip-path:url(#SVGID_00000132786490031518577280000007273997244485730965_);}
	.st7{fill:#568BE8;}
	.st8{fill:#A1C7FF;}
	.st9{clip-path:url(#SVGID_00000179625212790706425140000011391518847678426503_);}
	.st10{fill:#FFC0FC;}
	.st11{clip-path:url(#SVGID_00000132051971667959116870000006161318518309895582_);}
	.st12{fill:none;}
	.st13{fill:url(#SVGID_00000154384874066228576470000009537421459878853015_);}
	.st14{fill:url(#SVGID_00000135683652542658627010000013734847909940095917_);}
	.st15{fill:#962722;}
	.st16{clip-path:url(#SVGID_00000047782541260261530550000004912864000885023914_);}
	.st17{fill:#771818;}
	.st18{fill:#F9665F;}
	.st19{clip-path:url(#SVGID_00000169524098189804865600000004927917287730384041_);}
	.st20{fill:#EA4747;}
	.st21{fill:#FFC1AE;}
	.st22{clip-path:url(#SVGID_00000057844321682075065640000005941323863117903237_);}
	.st23{fill:#FF8F7D;}
	.st24{clip-path:url(#SVGID_00000149342543090254064720000015237853544540136882_);}
	.st25{clip-path:url(#SVGID_00000111898541461884906040000009701033790765275327_);}
	.st26{fill:#F77D61;}
	.st27{fill:#DA3A2C;}
	.st28{fill:#E53939;}
	.st29{fill:#440C0A;}
	.st30{clip-path:url(#SVGID_00000079467756020631114790000009432500072784176033_);}
	.st31{fill:#592B2B;}
	.st32{fill:#D9DBDA;}
	.st33{clip-path:url(#SVGID_00000103229421598011503390000001308350532168657816_);}
	.st34{fill:#7C240D;}
	.st35{fill:#F58744;}
	.st36{fill:#F16627;}
	.st37{opacity:0.81;}
	.st38{fill:#E27030;}
	.st39{clip-path:url(#SVGID_00000120542152271658891670000013046742858782293892_);}
	.st40{clip-path:url(#SVGID_00000125580394740470963100000004572771912664122773_);}
	.st41{clip-path:url(#SVGID_00000180346776432311971760000013878321465796903821_);}
	.st42{fill:#F9C5AF;}
	.st43{fill:#FFCB57;}
	.st44{clip-path:url(#SVGID_00000166651023167269059260000010387546102430469042_);}
	.st45{fill:#F9B130;}
	.st46{clip-path:url(#SVGID_00000103985185266480042980000000587999411716947610_);}
	.st47{fill:#C62A22;}
	.st48{fill:#F9625A;}
	.st49{clip-path:url(#SVGID_00000008132703940982162180000009536161598452705960_);}
	.st50{clip-path:url(#SVGID_00000131360218040914085200000010555140492548801433_);}
	.st51{fill:#FFB89F;}
	.st52{fill:#4C9C85;}
	.st53{clip-path:url(#SVGID_00000115503886104193137870000002517742318405568136_);}
	.st54{fill:#75CCB1;}
	.st55{fill:#327762;}
	.st56{fill:#BCBCBC;}
	.st57{fill:#E8E8E8;}
	.st58{clip-path:url(#SVGID_00000173133221645787260590000009434245610881411725_);}
	.st59{fill:#CECECE;}
	.st60{fill:#79150C;}
	.st61{fill:#A04642;}
	.st62{clip-path:url(#SVGID_00000119828782454202475820000007753064362664347827_);}
	.st63{fill:#686868;}
	.st64{fill:#9B9B9B;}
	.st65{fill:#515151;}
	.st66{clip-path:url(#SVGID_00000120535075058241214550000008765190833161462697_);}
	.st67{clip-path:url(#SVGID_00000038394738739528759900000005685021505258997133_);}
	.st68{clip-path:url(#SVGID_00000123414586281379504370000010948520389494939571_);}
	.st69{clip-path:url(#SVGID_00000113314474631897545430000005010968316707447451_);}
	.st70{clip-path:url(#SVGID_00000116932109886071081700000007332586390518492066_);}
	.st71{clip-path:url(#SVGID_00000149352514759377428130000015577803080080456374_);}
	.st72{clip-path:url(#SVGID_00000034047650364499375950000016332845757589536691_);}
	.st73{clip-path:url(#SVGID_00000009555868077317062410000002859891324026879933_);}
</style>
<g>
	<g>
		<g>
			<g>
				<linearGradient id="SVGID_1_" gradientUnits="userSpaceOnUse" x1="1059.5167" y1="1247.2489" x2="3695.7888" y2="1247.2489">
					<stop  offset="0" style="stop-color:#D0FFAE"/>
					<stop  offset="1" style="stop-color:#34EBE9"/>
				</linearGradient>
				<path class="st0" d="M3513.04,377.88L2578.8,497.54c-102.21,13.09-205.8,10.75-307.32-6.95L1249.51,312.45
					c-99.19-17.29-189.99,59.05-189.99,159.74v1550.13c0,98.23,86.66,173.9,183.99,160.67l1117.1-151.89
					c84.24-11.45,169.36-15,254.26-10.6l910.39,47.17c92.72,4.8,170.54-69.08,170.54-161.93V538.72
					C3695.79,440.99,3609.98,365.47,3513.04,377.88z"/>
			</g>
			<g>
				<defs>
					<path id="SVGID_00000146493163288630574410000002341301458128238513_" d="M1059.52,2022.32V472.19
						c0-100.69,90.8-177.03,189.99-159.74l1021.97,178.14c101.51,17.69,205.11,20.04,307.32,6.95l934.24-119.66
						c96.94-12.42,182.75,63.11,182.75,160.83v1367.02c0,92.85-77.81,166.73-170.54,161.93l-910.39-47.17
						c-84.9-4.4-170.02-0.85-254.26,10.6l-1117.1,151.89C1146.17,2196.23,1059.52,2120.56,1059.52,2022.32z"/>
				</defs>
				<clipPath id="SVGID_00000000940096663153919690000010164254882220426930_">
					<use xlink:href="#SVGID_00000146493163288630574410000002341301458128238513_"  style="overflow:visible;"/>
				</clipPath>
				<g style="clip-path:url(#SVGID_00000000940096663153919690000010164254882220426930_);">
					<g>
						<g>
							<g>
								<path class="st2" d="M979.64,913.27h333.63V735.8H979.64V913.27z M981.64,737.8h329.63v173.47H981.64V737.8z"/>
							</g>
							<g>
								<path class="st2" d="M1311.26,913.27h333.63V735.8h-333.63V913.27z M1313.26,737.8h329.63v173.47h-329.63V737.8z"/>
							</g>
							<g>
								<path class="st2" d="M1642.89,913.27h333.63V735.8h-333.63V913.27z M1644.89,737.8h329.63v173.47h-329.63V737.8z"/>
							</g>
							<g>
								<path class="st2" d="M1974.52,913.27h333.63V735.8h-333.63V913.27z M1976.52,737.8h329.63v173.47h-329.63V737.8z"/>
							</g>
							<g>
								<path class="st2" d="M2306.14,913.27h333.63V735.8h-333.63V913.27z M2308.14,737.8h329.63v173.47h-329.63V737.8z"/>
							</g>
							<g>
								<path class="st2" d="M2637.77,913.27h333.63V735.8h-333.63V913.27z M2639.77,737.8h329.63v173.47h-329.63V737.8z"/>
							</g>
							<g>
								<path class="st2" d="M2969.39,913.27h333.63V735.8h-333.63V913.27z M2971.39,737.8h329.63v173.47h-329.63V737.8z"/>
							</g>
							<g>
								<path class="st2" d="M3301.02,913.27h333.63V735.8h-333.63V913.27z M3303.02,737.8h329.63v173.47h-329.63V737.8z"/>
							</g>
							<g>
								<path class="st2" d="M3632.64,913.27h333.63V735.8h-333.63V913.27z M3634.64,737.8h329.63v173.47h-329.63V737.8z"/>
							</g>
						</g>
						<g>
							<g>
								<path class="st2" d="M799.39,1089.26h333.63V911.79H799.39V1089.26z M801.39,913.79h329.63v173.47H801.39V913.79z"/>
							</g>
							<g>
								<path class="st2" d="M1131.02,1089.26h333.63V911.79h-333.63V1089.26z M1133.02,913.79h329.63v173.47h-329.63V913.79z"/>
							</g>
							<g>
								<path class="st2" d="M1462.64,1089.26h333.63V911.79h-333.63V1089.26z M1464.64,913.79h329.63v173.47h-329.63V913.79z"/>
							</g>
							<g>
								<path class="st2" d="M1794.27,1089.26h333.63V911.79h-333.63V1089.26z M1796.27,913.79h329.63v173.47h-329.63V913.79z"/>
							</g>
							<g>
								<path class="st2" d="M2125.89,1089.26h333.63V911.79h-333.63V1089.26z M2127.89,913.79h329.63v173.47h-329.63V913.79z"/>
							</g>
							<g>
								<path class="st2" d="M2457.52,1089.26h333.63V911.79h-333.63V1089.26z M2459.52,913.79h329.63v173.47h-329.63V913.79z"/>
							</g>
							<g>
								<path class="st2" d="M2789.14,1089.26h333.63V911.79h-333.63V1089.26z M2791.14,913.79h329.63v173.47h-329.63V913.79z"/>
							</g>
							<g>
								<path class="st2" d="M3120.77,1089.26h333.63V911.79h-333.63V1089.26z M3122.77,913.79h329.63v173.47h-329.63V913.79z"/>
							</g>
							<g>
								<path class="st2" d="M3452.39,1089.26h333.63V911.79h-333.63V1089.26z M3454.39,913.79h329.63v173.47h-329.63V913.79z"/>
							</g>
						</g>
					</g>
					<g>
						<g>
							<g>
								<path class="st2" d="M956.14,563.23h333.63V385.76H956.14V563.23z M958.14,387.76h329.63v173.47H958.14V387.76z"/>
							</g>
							<g>
								<path class="st2" d="M1287.77,563.23h333.63V385.76h-333.63V563.23z M1289.77,387.76h329.63v173.47h-329.63V387.76z"/>
							</g>
							<g>
								<path class="st2" d="M1619.39,563.23h333.63V385.76h-333.63V563.23z M1621.39,387.76h329.63v173.47h-329.63V387.76z"/>
							</g>
							<g>
								<path class="st2" d="M1951.02,563.23h333.63V385.76h-333.63V563.23z M1953.02,387.76h329.63v173.47h-329.63V387.76z"/>
							</g>
							<g>
								<path class="st2" d="M2282.65,563.23h333.63V385.76h-333.63V563.23z M2284.65,387.76h329.63v173.47h-329.63V387.76z"/>
							</g>
							<g>
								<path class="st2" d="M2614.27,563.23h333.63V385.76h-333.63V563.23z M2616.27,387.76h329.63v173.47h-329.63V387.76z"/>
							</g>
							<g>
								<path class="st2" d="M2945.9,563.23h333.63V385.76H2945.9V563.23z M2947.9,387.76h329.63v173.47H2947.9V387.76z"/>
							</g>
							<g>
								<path class="st2" d="M3277.52,563.23h333.63V385.76h-333.63V563.23z M3279.52,387.76h329.63v173.47h-329.63V387.76z"/>
							</g>
							<g>
								<path class="st2" d="M3609.15,563.23h333.63V385.76h-333.63V563.23z M3611.15,387.76h329.63v173.47h-329.63V387.76z"/>
							</g>
						</g>
						<g>
							<g>
								<path class="st2" d="M775.89,739.22h333.63V561.75H775.89V739.22z M777.89,563.75h329.63v173.47H777.89V563.75z"/>
							</g>
							<g>
								<path class="st2" d="M1107.52,739.22h333.63V561.75h-333.63V739.22z M1109.52,563.75h329.63v173.47h-329.63V563.75z"/>
							</g>
							<g>
								<path class="st2" d="M1439.15,739.22h333.63V561.75h-333.63V739.22z M1441.15,563.75h329.63v173.47h-329.63V563.75z"/>
							</g>
							<g>
								<path class="st2" d="M1770.77,739.22h333.63V561.75h-333.63V739.22z M1772.77,563.75h329.63v173.47h-329.63V563.75z"/>
							</g>
							<g>
								<path class="st2" d="M2102.4,739.22h333.63V561.75H2102.4V739.22z M2104.4,563.75h329.63v173.47H2104.4V563.75z"/>
							</g>
							<g>
								<path class="st2" d="M2434.02,739.22h333.63V561.75h-333.63V739.22z M2436.02,563.75h329.63v173.47h-329.63V563.75z"/>
							</g>
							<g>
								<path class="st2" d="M2765.65,739.22h333.63V561.75h-333.63V739.22z M2767.65,563.75h329.63v173.47h-329.63V563.75z"/>
							</g>
							<g>
								<path class="st2" d="M3097.27,739.22h333.63V561.75h-333.63V739.22z M3099.27,563.75h329.63v173.47h-329.63V563.75z"/>
							</g>
							<g>
								<path class="st2" d="M3428.9,739.22h333.63V561.75H3428.9V739.22z M3430.9,563.75h329.63v173.47H3430.9V563.75z"/>
							</g>
						</g>
					</g>
					<g>
						<g>
							<g>
								<path class="st2" d="M1003.98,1263.31h333.63v-177.47h-333.63V1263.31z M1005.98,1087.84h329.63v173.47h-329.63V1087.84z"/>
							</g>
							<g>
								<path class="st2" d="M1335.6,1263.31h333.63v-177.47H1335.6V1263.31z M1337.6,1087.84h329.63v173.47H1337.6V1087.84z"/>
							</g>
							<g>
								<path class="st2" d="M1667.23,1263.31h333.63v-177.47h-333.63V1263.31z M1669.23,1087.84h329.63v173.47h-329.63V1087.84z"/>
							</g>
							<g>
								<path class="st2" d="M1998.86,1263.31h333.63v-177.47h-333.63V1263.31z M2000.86,1087.84h329.63v173.47h-329.63V1087.84z"/>
							</g>
							<g>
								<path class="st2" d="M2330.48,1263.31h333.63v-177.47h-333.63V1263.31z M2332.48,1087.84h329.63v173.47h-329.63V1087.84z"/>
							</g>
							<g>
								<path class="st2" d="M2662.11,1263.31h333.63v-177.47h-333.63V1263.31z M2664.11,1087.84h329.63v173.47h-329.63V1087.84z"/>
							</g>
							<g>
								<path class="st2" d="M2993.73,1263.31h333.63v-177.47h-333.63V1263.31z M2995.73,1087.84h329.63v173.47h-329.63V1087.84z"/>
							</g>
							<g>
								<path class="st2" d="M3325.36,1263.31h333.63v-177.47h-333.63V1263.31z M3327.36,1087.84h329.63v173.47h-329.63V1087.84z"/>
							</g>
						</g>
						<g>
							<g>
								<path class="st2" d="M823.73,1439.31h333.63v-177.47H823.73V1439.31z M825.73,1263.84h329.63v173.47H825.73V1263.84z"/>
							</g>
							<g>
								<path class="st2" d="M1155.36,1439.31h333.63v-177.47h-333.63V1439.31z M1157.36,1263.84h329.63v173.47h-329.63V1263.84z"/>
							</g>
							<g>
								<path class="st2" d="M1486.98,1439.31h333.63v-177.47h-333.63V1439.31z M1488.98,1263.84h329.63v173.47h-329.63V1263.84z"/>
							</g>
							<g>
								<path class="st2" d="M1818.61,1439.31h333.63v-177.47h-333.63V1439.31z M1820.61,1263.84h329.63v173.47h-329.63V1263.84z"/>
							</g>
							<g>
								<path class="st2" d="M2150.23,1439.31h333.63v-177.47h-333.63V1439.31z M2152.23,1263.84h329.63v173.47h-329.63V1263.84z"/>
							</g>
							<g>
								<path class="st2" d="M2481.86,1439.31h333.63v-177.47h-333.63V1439.31z M2483.86,1263.84h329.63v173.47h-329.63V1263.84z"/>
							</g>
							<g>
								<path class="st2" d="M2813.48,1439.31h333.63v-177.47h-333.63V1439.31z M2815.48,1263.84h329.63v173.47h-329.63V1263.84z"/>
							</g>
							<g>
								<path class="st2" d="M3145.11,1439.31h333.63v-177.47h-333.63V1439.31z M3147.11,1263.84h329.63v173.47h-329.63V1263.84z"/>
							</g>
							<g>
								<path class="st2" d="M3476.74,1439.31h333.63v-177.47h-333.63V1439.31z M3478.74,1263.84h329.63v173.47h-329.63V1263.84z"/>
							</g>
						</g>
					</g>
					<g>
						<g>
							<g>
								<path class="st2" d="M1028.32,1613.36h333.63v-177.47h-333.63V1613.36z M1030.32,1437.89h329.63v173.47h-329.63V1437.89z"/>
							</g>
							<g>
								<path class="st2" d="M1359.94,1613.36h333.63v-177.47h-333.63V1613.36z M1361.94,1437.89h329.63v173.47h-329.63V1437.89z"/>
							</g>
							<g>
								<path class="st2" d="M1691.57,1613.36h333.63v-177.47h-333.63V1613.36z M1693.57,1437.89h329.63v173.47h-329.63V1437.89z"/>
							</g>
							<g>
								<path class="st2" d="M2023.2,1613.36h333.63v-177.47H2023.2V1613.36z M2025.2,1437.89h329.63v173.47H2025.2V1437.89z"/>
							</g>
							<g>
								<path class="st2" d="M2354.82,1613.36h333.63v-177.47h-333.63V1613.36z M2356.82,1437.89h329.63v173.47h-329.63V1437.89z"/>
							</g>
							<g>
								<path class="st2" d="M2686.45,1613.36h333.63v-177.47h-333.63V1613.36z M2688.45,1437.89h329.63v173.47h-329.63V1437.89z"/>
							</g>
							<g>
								<path class="st2" d="M3018.07,1613.36h333.63v-177.47h-333.63V1613.36z M3020.07,1437.89h329.63v173.47h-329.63V1437.89z"/>
							</g>
							<g>
								<path class="st2" d="M3349.7,1613.36h333.63v-177.47H3349.7V1613.36z M3351.7,1437.89h329.63v173.47H3351.7V1437.89z"/>
							</g>
						</g>
						<g>
							<g>
								<path class="st2" d="M848.07,1789.35h333.63v-177.47H848.07V1789.35z M850.07,1613.88h329.63v173.47H850.07V1613.88z"/>
							</g>
							<g>
								<path class="st2" d="M1179.7,1789.35h333.63v-177.47H1179.7V1789.35z M1181.7,1613.88h329.63v173.47H1181.7V1613.88z"/>
							</g>
							<g>
								<path class="st2" d="M1511.32,1789.35h333.63v-177.47h-333.63V1789.35z M1513.32,1613.88h329.63v173.47h-329.63V1613.88z"/>
							</g>
							<g>
								<path class="st2" d="M1842.95,1789.35h333.63v-177.47h-333.63V1789.35z M1844.95,1613.88h329.63v173.47h-329.63V1613.88z"/>
							</g>
							<g>
								<path class="st2" d="M2174.57,1789.35h333.63v-177.47h-333.63V1789.35z M2176.57,1613.88h329.63v173.47h-329.63V1613.88z"/>
							</g>
							<g>
								<path class="st2" d="M2506.2,1789.35h333.63v-177.47H2506.2V1789.35z M2508.2,1613.88h329.63v173.47H2508.2V1613.88z"/>
							</g>
							<g>
								<path class="st2" d="M2837.82,1789.35h333.63v-177.47h-333.63V1789.35z M2839.82,1613.88h329.63v173.47h-329.63V1613.88z"/>
							</g>
							<g>
								<path class="st2" d="M3169.45,1789.35h333.63v-177.47h-333.63V1789.35z M3171.45,1613.88h329.63v173.47h-329.63V1613.88z"/>
							</g>
							<g>
								<path class="st2" d="M3501.07,1789.35h333.63v-177.47h-333.63V1789.35z M3503.07,1613.88h329.63v173.47h-329.63V1613.88z"/>
							</g>
						</g>
					</g>
					<g>
						<g>
							<g>
								<path class="st2" d="M1052.66,1963.4h333.63v-177.47h-333.63V1963.4z M1054.66,1787.93h329.63v173.47h-329.63V1787.93z"/>
							</g>
							<g>
								<path class="st2" d="M1384.28,1963.4h333.63v-177.47h-333.63V1963.4z M1386.28,1787.93h329.63v173.47h-329.63V1787.93z"/>
							</g>
							<g>
								<path class="st2" d="M1715.91,1963.4h333.63v-177.47h-333.63V1963.4z M1717.91,1787.93h329.63v173.47h-329.63V1787.93z"/>
							</g>
							<g>
								<path class="st2" d="M2047.54,1963.4h333.63v-177.47h-333.63V1963.4z M2049.54,1787.93h329.63v173.47h-329.63V1787.93z"/>
							</g>
							<g>
								<path class="st2" d="M2379.16,1963.4h333.63v-177.47h-333.63V1963.4z M2381.16,1787.93h329.63v173.47h-329.63V1787.93z"/>
							</g>
							<g>
								<path class="st2" d="M2710.79,1963.4h333.63v-177.47h-333.63V1963.4z M2712.79,1787.93h329.63v173.47h-329.63V1787.93z"/>
							</g>
							<g>
								<path class="st2" d="M3042.41,1963.4h333.63v-177.47h-333.63V1963.4z M3044.41,1787.93h329.63v173.47h-329.63V1787.93z"/>
							</g>
							<g>
								<path class="st2" d="M3374.04,1963.4h333.63v-177.47h-333.63V1963.4z M3376.04,1787.93h329.63v173.47h-329.63V1787.93z"/>
							</g>
						</g>
						<g>
							<g>
								<path class="st2" d="M872.41,2139.39h333.63v-177.47H872.41V2139.39z M874.41,1963.92h329.63v173.47H874.41V1963.92z"/>
							</g>
							<g>
								<path class="st2" d="M1204.04,2139.39h333.63v-177.47h-333.63V2139.39z M1206.04,1963.92h329.63v173.47h-329.63V1963.92z"/>
							</g>
							<g>
								<path class="st2" d="M1535.66,2139.39h333.63v-177.47h-333.63V2139.39z M1537.66,1963.92h329.63v173.47h-329.63V1963.92z"/>
							</g>
							<g>
								<path class="st2" d="M1867.29,2139.39h333.63v-177.47h-333.63V2139.39z M1869.29,1963.92h329.63v173.47h-329.63V1963.92z"/>
							</g>
							<g>
								<path class="st2" d="M2198.91,2139.39h333.63v-177.47h-333.63V2139.39z M2200.91,1963.92h329.63v173.47h-329.63V1963.92z"/>
							</g>
							<g>
								<path class="st2" d="M2530.54,2139.39h333.63v-177.47h-333.63V2139.39z M2532.54,1963.92h329.63v173.47h-329.63V1963.92z"/>
							</g>
							<g>
								<path class="st2" d="M2862.16,2139.39h333.63v-177.47h-333.63V2139.39z M2864.16,1963.92h329.63v173.47h-329.63V1963.92z"/>
							</g>
							<g>
								<path class="st2" d="M3193.79,2139.39h333.63v-177.47h-333.63V2139.39z M3195.79,1963.92h329.63v173.47h-329.63V1963.92z"/>
							</g>
							<g>
								<path class="st2" d="M3525.42,2139.39h333.63v-177.47h-333.63V2139.39z M3527.42,1963.92h329.63v173.47h-329.63V1963.92z"/>
							</g>
						</g>
					</g>
				</g>
			</g>
			<g>
				<g>
					
						<ellipse transform="matrix(0.7071 -0.7071 0.7071 0.7071 370.5975 2292.9844)" class="st3" cx="2953.18" cy="699.14" rx="127.08" ry="127.08"/>
				</g>
				<g>
					<circle class="st4" cx="2952.45" cy="701.13" r="96.78"/>
				</g>
			</g>
			<g>
				<rect x="3163.59" y="526.22" class="st4" width="275" height="354.17"/>
			</g>
			<g>
				<rect x="3195.98" y="562.68" class="st3" width="212.31" height="287.5"/>
			</g>
			<g>
				<defs>
					<rect id="SVGID_00000101069428618823042110000011719489159160285326_" x="3195.98" y="562.68" width="212.31" height="287.5"/>
				</defs>
				<clipPath id="SVGID_00000093884673911199536360000000304004243675666619_">
					<use xlink:href="#SVGID_00000101069428618823042110000011719489159160285326_"  style="overflow:visible;"/>
				</clipPath>
				<g style="opacity:0.43;clip-path:url(#SVGID_00000093884673911199536360000000304004243675666619_);">
					<g>
						
							<rect x="3058.63" y="643.85" transform="matrix(0.5163 -0.8564 0.8564 0.5163 1007.8727 3130.3359)" class="st2" width="433.27" height="58.07"/>
					</g>
					<g>
						
							<rect x="3138.6" y="720.62" transform="matrix(0.5163 -0.8564 0.8564 0.5163 980.124 3203.5012)" class="st2" width="375.21" height="26.8"/>
					</g>
				</g>
			</g>
			<g>
				<defs>
					<path id="SVGID_00000076598901383371885990000002397025275278006198_" d="M1059.52,2022.32V472.19
						c0-100.69,90.8-177.03,189.99-159.74l1021.97,178.14c101.51,17.69,205.11,20.04,307.32,6.95l934.24-119.66
						c96.94-12.42,182.75,63.11,182.75,160.83v1367.02c0,92.85-77.81,166.73-170.54,161.93l-910.39-47.17
						c-84.9-4.4-170.02-0.85-254.26,10.6l-1117.1,151.89C1146.17,2196.23,1059.52,2120.56,1059.52,2022.32z"/>
				</defs>
				<clipPath id="SVGID_00000143606645944692251820000013237128418535350417_">
					<use xlink:href="#SVGID_00000076598901383371885990000002397025275278006198_"  style="overflow:visible;"/>
				</clipPath>
				<g style="clip-path:url(#SVGID_00000143606645944692251820000013237128418535350417_);">
					<g>
						<g>
							<g>
								<path class="st3" d="M637.59,1483.46c-42.77,49.75-12.22,419.39,0,465.22c12.22,45.82,149.69,24.44,161.91,21.38
									c12.22-3.05,187.46-480.04,125.25-623.57C924.75,1346.49,680.36,1433.71,637.59,1483.46z"/>
							</g>
							<g>
								<path class="st3" d="M2785.64,1337.86c-62.21,143.53,113.03,620.52,125.25,623.57s149.69,24.44,161.91-21.38
									c12.22-45.82,42.77-415.47,0-465.22C3030.03,1425.08,2785.64,1337.86,2785.64,1337.86z"/>
							</g>
							<g>
								<path class="st7" d="M2653.82,1483.46L973.63,1499.6c0,0-250.5,195.51-281.05,232.17c-30.55,36.66-9.16,262.72,21.38,278
									c30.55,15.27,2245.35,0,2263.68,0c18.33,0,42.77-12.22,48.88-88.59s-6.11-149.16-21.38-175.39
									C2989.86,1719.56,2653.82,1483.46,2653.82,1483.46z"/>
							</g>
							<g>
								<path class="st3" d="M2715.02,957.97H902.46c-21.96,0-39.93,17.97-39.93,39.93v566.02c0,21.96,17.97,39.93,39.93,39.93
									h1812.56c21.96,0,39.93-17.97,39.93-39.93V997.9C2754.95,975.94,2736.98,957.97,2715.02,957.97z"/>
							</g>
						</g>
						<g>
							<g>
								<path class="st8" d="M1867.8,1158.27c0,0-264.25-114.44-368.11-85.73c-85.54-26.28-97.76-7.95-97.76,14.45
									c0,22.4,6.11,54.36-12.22,114.75s-42.77,284.42-34.62,327.19c-42.77,56.15-63.13,87.57,46.84,118.12
									c109.98,30.55,321.78,83.5,441.94,44.8C1964.03,1653.17,1935.01,1150.13,1867.8,1158.27z"/>
							</g>
							<g>
								<defs>
									<path id="SVGID_00000044871003324254721570000000056926218748226981_" d="M1867.8,1158.27c0,0-264.25-114.44-368.11-85.73
										c-85.54-26.28-97.76-7.95-97.76,14.45c0,22.4,6.11,54.36-12.22,114.75s-42.77,284.42-34.62,327.19
										c-42.77,56.15-63.13,87.57,46.84,118.12c109.98,30.55,321.78,83.5,441.94,44.81
										C1964.03,1653.17,1935.01,1150.13,1867.8,1158.27z"/>
								</defs>
								<clipPath id="SVGID_00000049939938292804426120000006740999097892788375_">
									<use xlink:href="#SVGID_00000044871003324254721570000000056926218748226981_"  style="overflow:visible;"/>
								</clipPath>
								<g style="clip-path:url(#SVGID_00000049939938292804426120000006740999097892788375_);">
									<g>
										<path class="st8" d="M1935.15,1140.42c-34.78-76.9-110.75-129.45-191.76-153.17c-38.35-11.23-78.18-16.81-118.06-19.41
											c-85.18-5.54-172.93,2.97-250.48,38.63c-55.65,25.59-107.42,68.52-124.58,127.32c-6.9,23.64-7.86,48.55-8.77,73.16
											c-4.73,127.31-9.46,254.86-2.07,382.04c2.12,36.45,6.52,75.89,31.57,102.45c27.8,29.47,72.24,34.12,112.65,36.96
											l43.05-54.35c-25.73-22.52-54.06-52.95-44.93-85.9c4.55-16.43,17.69-28.82,26.92-43.16
											c14.23-22.09,19.16-49.97,13.37-75.6c-3.6-15.95-11.18-31.29-10.91-47.64c0.46-28.23,23.36-50.09,38.62-73.85
											c37.12-57.8,30.22-132.68,17.96-200.27c-0.81-4.45-1.61-9.16-0.03-13.39c3.79-10.14,17.81-11.05,28.36-8.62
											c10.55,2.44,22.62,6.15,31.38-0.21c3.94-2.85,6.41-7.33,10.19-10.4c11.35-9.22,28.04-2.36,41.16,4.11
											c66.68,32.94,141.63,48.99,215.96,46.24c21.41-0.79,43.67-2.98,63.56,4.97c41.85,16.73,55.15,72.76,41.03,115.56
											c-3.06,9.28-7.15,19.03-4.7,28.49c1.45,5.58,5.03,10.32,8.11,15.2c39.97,63.34-1.95,155.41,39.81,217.58
											c30.92-90.17,30.65-188.12,20.85-282.94C1959.05,1221.94,1952.67,1179.17,1935.15,1140.42z"/>
									</g>
									<g>
										<polygon class="st10" points="1593.9,1125.51 1552.17,1136.34 1519.59,1108.11 1516.99,1151.14 1480.08,1173.41 
											1520.2,1189.17 1529.97,1231.16 1557.36,1197.87 1600.31,1201.56 1577.11,1165.22 										"/>
									</g>
									<g>
										<polygon class="st10" points="1797.13,1237.18 1755.4,1248.01 1722.82,1219.78 1720.23,1262.81 1683.31,1285.07 
											1723.44,1300.84 1733.2,1342.83 1760.59,1309.54 1803.55,1313.23 1780.35,1276.89 										"/>
									</g>
									<g>
										<polygon class="st10" points="1600.6,1400.21 1558.87,1411.05 1526.29,1382.81 1523.69,1425.85 1486.78,1448.11 
											1526.9,1463.87 1536.67,1505.86 1564.06,1472.57 1607.01,1476.26 1583.81,1439.92 										"/>
									</g>
									<g>
										<polygon class="st10" points="1442.03,1250.58 1400.3,1261.41 1367.72,1233.18 1365.13,1276.21 1328.21,1298.47 
											1368.33,1314.24 1378.1,1356.23 1405.49,1322.94 1448.44,1326.63 1425.24,1290.29 										"/>
									</g>
									<g>
										<polygon class="st10" points="1817.23,1491.78 1775.5,1502.61 1742.92,1474.38 1740.33,1517.42 1703.41,1539.68 
											1743.54,1555.44 1753.3,1597.43 1780.69,1564.14 1823.65,1567.83 1800.45,1531.49 										"/>
									</g>
									<g>
										<polygon class="st10" points="1564.86,1645.88 1523.13,1656.72 1490.55,1628.48 1487.96,1671.52 1451.04,1693.78 
											1491.17,1709.54 1500.93,1751.53 1528.32,1718.24 1571.28,1721.93 1548.08,1685.59 										"/>
									</g>
									<g>
										<polygon class="st10" points="1966.87,1306.41 1925.14,1317.25 1892.56,1289.01 1889.97,1332.05 1853.05,1354.31 
											1893.17,1370.07 1902.94,1412.06 1930.33,1378.77 1973.28,1382.46 1950.08,1346.12 										"/>
									</g>
								</g>
							</g>
							<g>
								<path class="st8" d="M2834.06,1044.43c-24.44-20.37-48.88,18.33-105.9,0c-130.34-52.95-376.61-6.69-388.99-8.91
									c-140.53-25.2-285.12,534.35-65.17,605.63s384.92,6.11,435.83-4.07s48.88,44.81,81.46-14.26s57.02-435.83,42.77-485.47
									C2819.8,1087.7,2858.5,1064.79,2834.06,1044.43z"/>
							</g>
							<g>
								<defs>
									<path id="SVGID_00000117642310372915615450000006956428027934884740_" d="M2339.17,1035.51
										c12.38,2.22,258.65-44.04,388.99,8.91c57.02,18.33,81.46-20.37,105.9,0c24.44,20.37-14.26,43.28,0,92.92
										c14.26,49.64-10.18,426.41-42.77,485.47c-32.59,59.06-30.55,4.07-81.46,14.26c-50.91,10.18-215.88,75.35-435.83,4.07
										C2054.04,1569.87,2198.64,1010.31,2339.17,1035.51z"/>
								</defs>
								<clipPath id="SVGID_00000001629741061972920930000013617756294243789441_">
									<use xlink:href="#SVGID_00000117642310372915615450000006956428027934884740_"  style="overflow:visible;"/>
								</clipPath>
								<g style="clip-path:url(#SVGID_00000001629741061972920930000013617756294243789441_);">
									<g>
										
											<ellipse transform="matrix(0.3827 -0.9239 0.9239 0.3827 387.9647 2921.4189)" class="st10" cx="2380.09" cy="1170.39" rx="48.54" ry="48.54"/>
									</g>
									<g>
										
											<ellipse transform="matrix(0.9951 -0.0985 0.0985 0.9951 -119.3355 267.759)" class="st10" cx="2651.03" cy="1341.99" rx="48.54" ry="48.54"/>
									</g>
									<g>
										
											<ellipse transform="matrix(0.9871 -0.1602 0.1602 0.9871 -223.5042 380.9933)" class="st10" cx="2251.39" cy="1576.8" rx="48.54" ry="48.54"/>
									</g>
									<g>
										<path class="st10" d="M2592.32,1614.06c-26.81,0-48.54,21.73-48.54,48.54c0,26.81,21.73,48.54,48.54,48.54
											c26.81,0,48.54-21.73,48.54-48.54C2640.87,1635.79,2619.13,1614.06,2592.32,1614.06z"/>
									</g>
									<g>
										
											<ellipse transform="matrix(0.3827 -0.9239 0.9239 0.3827 176.6289 3101.853)" class="st10" cx="2409.44" cy="1418.75" rx="48.54" ry="48.54"/>
									</g>
									<g>
										<circle class="st10" cx="2827.14" cy="1186.2" r="48.54"/>
									</g>
									<g>
										
											<ellipse transform="matrix(0.9239 -0.3827 0.3827 0.9239 -209.9569 1077.5424)" class="st10" cx="2603.61" cy="1066.53" rx="50.8" ry="50.8"/>
									</g>
								</g>
							</g>
							<g>
								<path class="st8" d="M1311.05,1172.55c0,0-67.21-126.97-103.87-104.57c-36.66,22.4-14.26,40.82-50.92,50.96
									c-36.66,10.14-238.28,183.25-285.12,201.58c-46.84,18.33-63.13,23.93-54.99,57.79c8.15,33.86,38.7,64.41,38.7,99.03
									s18.33,133.14,71.28,198.95c52.95,65.81,103.87,98.39,114.05,133.02s24.44,54.99,63.13,50.92
									c38.7-4.07,69.24-116.09,167-160.89c97.76-44.8,148.67-63.13,134.42-167C1390.47,1428.45,1311.05,1172.55,1311.05,1172.55z"
									/>
							</g>
						</g>
					</g>
				</g>
			</g>
			<g>
				<path class="st12" d="M3513.04,377.88L2578.8,497.54c-102.21,13.09-205.8,10.75-307.32-6.95L1249.51,312.45
					c-99.19-17.29-189.99,59.05-189.99,159.74v1550.13c0,98.23,86.66,173.9,183.99,160.67l1117.1-151.89
					c84.24-11.45,169.36-15,254.26-10.6l910.39,47.17c92.72,4.8,170.54-69.08,170.54-161.93V538.72
					C3695.79,440.99,3609.98,365.47,3513.04,377.88z"/>
			</g>
		</g>
		<g>
			
				<linearGradient id="SVGID_00000010292548985665689410000001006246500376982914_" gradientUnits="userSpaceOnUse" x1="1482.5778" y1="2308.3201" x2="2953.9143" y2="2308.3201">
				<stop  offset="0" style="stop-color:#D0FFAE"/>
				<stop  offset="1" style="stop-color:#34EBE9"/>
			</linearGradient>
			
				<ellipse style="fill:url(#SVGID_00000010292548985665689410000001006246500376982914_);" cx="2218.25" cy="2308.32" rx="735.67" ry="362.56"/>
		</g>
		<g>
			
				<linearGradient id="SVGID_00000010282015868123723350000003080186840848402306_" gradientUnits="userSpaceOnUse" x1="2882.8083" y1="2611.8542" x2="3686.9109" y2="2611.8542">
				<stop  offset="0" style="stop-color:#D0FFAE"/>
				<stop  offset="1" style="stop-color:#34EBE9"/>
			</linearGradient>
			
				<ellipse style="fill:url(#SVGID_00000010282015868123723350000003080186840848402306_);" cx="3284.86" cy="2611.85" rx="402.05" ry="198.15"/>
		</g>
		<g>
			<g>
				<path class="st15" d="M2462.77,1057.61c-22.48-4.22-60.43-33.73-133.5-61.83c-73.07-28.11-136.31,40.75-136.31,40.75
					s-52-74.48-133.5-18.27c-81.51,56.21-37.94,279.65-28.11,354.13c9.84,74.48-70.26,94.15-53.4,150.37
					c16.86,56.21,71.67,42.16,71.67,42.16s-29.51-21.08-18.27-64.64c-1.41,78.7,73.08,60.43,73.08,60.43l153.18-207.98
					c0,0,116.64-212.2,170.04-209.39C2481.03,1146.15,2485.25,1061.83,2462.77,1057.61z"/>
			</g>
			<g>
				<defs>
					<path id="SVGID_00000039121294006548078400000007137448021827120774_" d="M2192.95,1036.53c0,0,63.24-68.86,136.31-40.75
						c73.07,28.11,111.02,57.62,133.5,61.83s18.27,88.53-35.13,85.72c-53.4-2.81-170.04,209.39-170.04,209.39l-153.18,207.98
						c0,0-74.48,18.27-73.07-60.43c-11.24,43.56,18.27,64.64,18.27,64.64s-54.81,14.05-71.67-42.16
						c-16.86-56.21,63.24-75.89,53.4-150.37s-53.4-297.92,28.11-354.13C2140.96,962.05,2192.95,1036.53,2192.95,1036.53z"/>
				</defs>
				<clipPath id="SVGID_00000013877182725311107790000002304317894176239254_">
					<use xlink:href="#SVGID_00000039121294006548078400000007137448021827120774_"  style="overflow:visible;"/>
				</clipPath>
				<g style="clip-path:url(#SVGID_00000013877182725311107790000002304317894176239254_);">
					<g>
						<path class="st17" d="M2485.21,1069.35c-3.97,0.11-7.71,1.74-11.43,3.12c-27.31,10.09-59.28,6.57-83.74-9.23
							c-19.31-12.47-34.21-32.06-55.77-40.02c-15.05-5.56-31.56-0.68-47.53-2.21c-35.31-3.38-113.85,42.87-131.69,99.77
							c-19.76,63.02-27.33,122.02,22.33,174.2c29.41,30.89,91.37,30.37,99.87,13.42c24.57-49.01,67.07-88.77,117.6-110.04
							c28.34-11.93,59.5-18.48,84.32-36.64c24.82-18.16,41.08-53.89,24.9-80.04C2499.92,1075,2493.08,1069.14,2485.21,1069.35z"/>
					</g>
					<g>
						<path class="st17" d="M2171.97,1355.47c-25.21-25.03-36.62-60.79-42.47-95.83c-9.93-59.49-3.98-126.64,37.56-170.37
							c5.14-5.41,11.03-10.52,17.99-13l-0.03-0.01c-0.81-32.45-37.1-56.17-69.16-51.14s-57.32,31.88-69.37,62.02
							c-6.99,17.47-10.37,36.37-9.88,55.17c0.68,25.89,8.54,50.97,13.97,76.29c14.98,69.95,10.69,145.58-21.79,209.32
							c-12.1,23.75-54.21,47.32-62.84,72.54c-8.62,25.22,17.67,54.16,35.26,74.18c16.75,19.05,44.17,23.6,69.32,26.98
							c-14.89-5.57-26.38-17.86-34.85-31.31c-10.61-16.86-17.38-36.64-16.2-56.53c1.18-19.89,11.08-39.72,27.98-50.25
							c-9.31,34.51,5.1,75.32,36.38,92.6c20.44,11.29,45.4,12,68.17,6.83c22.77-5.17,43.9-15.77,64.76-26.26
							c-13.44-26.31-8.86-58.92,4.62-85.21s34.81-47.56,55.79-68.36C2240.57,1393.17,2198.93,1382.23,2171.97,1355.47z"/>
					</g>
				</g>
			</g>
			<g>
				<path class="st18" d="M2585.03,2122.82c-65.35-56.91-130.69-244.52-130.69-244.52s31.62-10.54,54.81,0s35.83,21.08,42.16-29.51
					c6.32-50.59,8.43-177.07-16.86-257.17s-80.1-413.86-265.6-250.14c0,0-113.83-49.19-151.77,88.53
					c-37.94,137.72-30.92,210.79-63.24,259.98c-32.32,49.19-39.35,53.4-30.92,85.72s16.86,42.16,16.86,42.16l-12.65,9.84
					c0,0-61.83,52.7-87.13,145.45c-25.29,92.75,4.22,149.66-29.51,204.47c-33.73,54.81-50.59,101.18-50.59,101.18
					s126.48,113.83,244.52,139.12c118.04,25.29,354.13,59.02,459.53-18.97C2669.34,2320.97,2650.37,2179.74,2585.03,2122.82z"/>
			</g>
			<g>
				<defs>
					<path id="SVGID_00000011024880861701972870000014739641279317657472_" d="M2268.84,1341.48c0,0-113.83-49.19-151.77,88.53
						c-37.94,137.72-30.92,210.79-63.24,259.98c-32.32,49.19-39.35,53.4-30.92,85.72c8.43,32.32,16.86,42.16,16.86,42.16
						l-12.65,9.84c0,0-61.83,52.7-87.13,145.45c-25.3,92.75,4.22,149.66-29.51,204.47c-33.73,54.81-50.59,101.18-50.59,101.18
						s126.48,113.83,244.52,139.12s354.13,59.02,459.53-18.97c105.4-77.99,86.43-219.22,21.08-276.14
						c-65.35-56.91-130.69-244.52-130.69-244.52s31.62-10.54,54.81,0s35.83,21.08,42.16-29.51c6.32-50.59,8.43-177.07-16.86-257.17
						C2509.14,1511.52,2454.33,1177.77,2268.84,1341.48z"/>
				</defs>
				<clipPath id="SVGID_00000015313230065856602790000018306945567021189816_">
					<use xlink:href="#SVGID_00000011024880861701972870000014739641279317657472_"  style="overflow:visible;"/>
				</clipPath>
				<g style="clip-path:url(#SVGID_00000015313230065856602790000018306945567021189816_);">
					<g>
						<path class="st20" d="M2445.77,1440.92c0.02,1.72,0.05,3.45,0.07,5.17c1.26-6.38,2.7-12.73,4.36-19.02L2445.77,1440.92z"/>
						<path class="st20" d="M2546.82,1589.44c-17.33-1.21-29.85,16.23-36.18,32.41s-11.47,34.88-26.51,43.57
							c-24.1-70.52-37.07-144.82-38.29-219.33c-6.33,32.1-7.58,65.2-3.62,97.68c3.4,27.83,10.58,55.34,10.34,83.38
							c-0.19,22.66-5.24,44.95-8.61,67.35c-8.75,58.17-6.19,118.01,7.5,175.22c4.98,20.81,14.46,44.37,35.15,49.83
							c15.23,4.02,31.62-4,41.91-15.93c10.29-11.93,15.71-27.2,20.79-42.11c25.78-75.59,48.79-156.87,29.29-234.32
							C2574.28,1610.09,2564.4,1590.67,2546.82,1589.44z"/>
					</g>
					<g>
						<path class="st20" d="M2666.94,2202.86c-17.17-31.05-51.34-48.85-85.34-59.02c-107.94-32.28-228.21-5-333.76-44.41
							c-80.88-30.2-145.28-99.31-173.79-180.8c-1.56-4.45-2.77-10.07,0.64-13.33c2.51-2.4,6.37-2.33,9.79-2.91
							c20.63-3.5,25.77-32.65,16.47-51.4c-9.3-18.75-26.99-32.13-37.13-50.44c-34.3-61.92,31.44-139.37,11.67-207.33l-13.62,37.05
							c-14.79,10.27-29.57,20.54-44.36,30.81c-19.94,13.85-41.16,29.39-48.32,52.59c-11.48,37.17,18.42,74.43,50.65,96.2
							c4.28,2.89,9.08,6.35,9.6,11.49c0.55,5.44-3.96,9.93-8.1,13.51c-39.49,34.05-81.37,67.94-105.3,114.26
							c-23.94,46.32-24.55,109.44,13.65,144.94c22.01,20.46,52.54,28.39,81.71,35.61c45.44,11.24,90.87,22.48,136.31,33.72
							c27.4,6.78,60,18.88,64.5,46.75c-29.57,22.8-69.71,28.37-106.57,22.43s-71.17-22.29-104.11-39.87
							c-22.4-11.96-45.35-24.86-70.66-26.84c-38.91-3.04-77.04,22.33-94.02,57.48c-16.98,35.15-14.36,77.84,1.87,113.34
							s44.93,64.23,77.51,85.72c23.71,15.63,49.57,27.75,75.97,38.22c172.4,68.34,372.04,64.79,541.9-9.62
							c36.91-16.17,73.16-36.08,100.19-65.97c32.33-35.75,49.29-84.94,45.88-133.02
							C2678.98,2234.94,2675.22,2217.82,2666.94,2202.86z"/>
					</g>
				</g>
			</g>
			<g>
				<path class="st21" d="M2419.2,1092.75c0,0-44.27-11.94-82.21,2.11c-37.94,14.05-63.94-14.05-63.94-14.05
					s-14.05,37.24-14.76,65.35c-0.7,28.11,2.11,45.67,23.89,73.08c21.78,27.4,21.78,26.7,24.59,39.35
					c2.81,12.65-9.84,30.92-9.84,30.92s4.22-21.08-13.35-35.83c-17.57-14.76-18.27-9.13-41.46-50.59
					c-0.29,5.45,0.6,13.38,2.19,22.57c-21.12-6.53-42.77,2.39-48.63,20.21c-5.94,18.06,6.58,38.41,27.96,45.44
					c12.82,4.22,25.89,2.65,35.6-3.14c4.53,16.24,8.18,28.05,8.18,28.05s0,0-2.81,21.08c54.81,42.16,75.89,198.15,84.32,191.12
					s19.67-106.8,23.89-125.07s-4.22-36.54-5.62-68.86c106.8,8.43,98.37-92.75,89.94-123.67
					C2448.71,1179.87,2419.2,1092.75,2419.2,1092.75z"/>
			</g>
			<g>
				<defs>
					<path id="SVGID_00000102546395196814892530000005879140400870890655_" d="M2457.14,1210.79
						c-8.43-30.92-37.94-118.04-37.94-118.04s-44.27-11.94-82.21,2.11c-37.94,14.05-63.94-14.05-63.94-14.05
						s-14.05,37.24-14.76,65.35c-0.7,28.11,2.11,45.67,23.89,73.07c21.78,27.4,21.78,26.7,24.59,39.35
						c2.81,12.65-9.84,30.92-9.84,30.92s4.22-21.08-13.35-35.83s-18.27-9.13-41.46-50.59c-0.29,5.45,0.6,13.38,2.19,22.57
						c-21.12-6.53-42.77,2.39-48.63,20.21c-5.94,18.06,6.58,38.41,27.96,45.44c12.82,4.22,25.89,2.65,35.6-3.14
						c4.53,16.24,8.18,28.05,8.18,28.05s0,0-2.81,21.08c54.81,42.16,75.89,198.15,84.32,191.12c8.43-7.03,19.67-106.8,23.89-125.07
						s-4.22-36.54-5.62-68.86C2474.01,1342.89,2465.58,1241.71,2457.14,1210.79z"/>
				</defs>
				<clipPath id="SVGID_00000173156074640147179570000003753804518587609534_">
					<use xlink:href="#SVGID_00000102546395196814892530000005879140400870890655_"  style="overflow:visible;"/>
				</clipPath>
				<g style="clip-path:url(#SVGID_00000173156074640147179570000003753804518587609534_);">
					<path class="st23" d="M2409.73,1043.92c-28.43-11.48-58.06-21.79-88.72-22.02c-30.66-0.23-62.84,11.16-80.96,35.89
						c-13.13,17.92-17.62,40.69-19.62,62.81c-1.84,20.27-0.94,43.14,13.54,57.43l17.1,16.07c12,17.33,23.99,34.67,35.99,52
						c7.31,10.56,14.99,22.97,11.73,35.39c10.05-20.99,7.98-47.29-5.23-66.46c-6.97-10.1-16.67-18.21-22.82-28.82
						c-7.84-13.53-9.16-30.09-6.56-45.51s8.86-29.96,15.46-44.14c5.73,15.79,24.91,22.9,41.64,21.41c16.73-1.49,32.11-9.35,48-14.8
						s34.17-8.34,48.92-0.31c6.63,3.61,12.81,9.44,20.36,9.09c6.61-0.31,12.16-5.61,14.7-11.71c5.11-12.25-0.13-26.89-9.39-36.4
						C2434.61,1054.34,2422.04,1048.89,2409.73,1043.92z"/>
				</g>
			</g>
			<g>
				<defs>
					<path id="SVGID_00000124140092058657166970000008678283334851788692_" d="M2457.14,1210.79
						c-8.43-30.92-37.94-118.04-37.94-118.04s-44.27-11.94-82.21,2.11c-37.94,14.05-63.94-14.05-63.94-14.05
						s-14.05,37.24-14.76,65.35c-0.7,28.11,2.11,45.67,23.89,73.07c21.78,27.4,21.78,26.7,24.59,39.35
						c2.81,12.65-9.84,30.92-9.84,30.92s4.22-21.08-13.35-35.83s-18.27-9.13-41.46-50.59c-0.29,5.45,0.6,13.38,2.19,22.57
						c-21.12-6.53-42.77,2.39-48.63,20.21c-5.94,18.06,6.58,38.41,27.96,45.44c12.82,4.22,25.89,2.65,35.6-3.14
						c4.53,16.24,8.18,28.05,8.18,28.05s0,0-2.81,21.08c54.81,42.16,75.89,198.15,84.32,191.12c8.43-7.03,19.67-106.8,23.89-125.07
						s-4.22-36.54-5.62-68.86C2474.01,1342.89,2465.58,1241.71,2457.14,1210.79z"/>
				</defs>
				<clipPath id="SVGID_00000132070906277867118830000014562570224707654795_">
					<use xlink:href="#SVGID_00000124140092058657166970000008678283334851788692_"  style="overflow:visible;"/>
				</clipPath>
				<g style="clip-path:url(#SVGID_00000132070906277867118830000014562570224707654795_);">
					<g>
						<g>
							<path class="st23" d="M2372.76,1333.04c-20.79,3.1-42.46,0.11-61.64-8.51c3.35,21.52,19.22,39.18,24.45,60.33
								c10.81,43.71-25.86,87.2-20.52,131.91c1.44,12.03,8.16,25.49,20.19,26.94c13.44,1.62,23.09-12.26,29.05-24.42
								c28.18-57.47,48.57-124,29.11-184.97L2372.76,1333.04z"/>
						</g>
					</g>
					<g>
						<path class="st23" d="M2236.94,1245.49c-10.48,0-18.98,6.5-18.98,14.52c0,8.02,8.5,14.52,18.98,14.52s18.98-6.5,18.98-14.52
							C2255.92,1251.99,2247.42,1245.49,2236.94,1245.49z"/>
					</g>
				</g>
			</g>
			<g>
				<path class="st10" d="M2257.59,1275.43c-8.15,0-14.76,6.61-14.76,14.76c0,8.15,6.61,14.76,14.76,14.76
					c8.15,0,14.76-6.61,14.76-14.76C2272.35,1282.04,2265.74,1275.43,2257.59,1275.43z"/>
			</g>
			<g>
				<defs>
					<circle id="SVGID_00000005953059088257995100000008502631790779046273_" cx="2257.59" cy="1290.19" r="14.76"/>
				</defs>
				<clipPath id="SVGID_00000069357108130840594210000008749001401236569227_">
					<use xlink:href="#SVGID_00000005953059088257995100000008502631790779046273_"  style="overflow:visible;"/>
				</clipPath>
				<g style="clip-path:url(#SVGID_00000069357108130840594210000008749001401236569227_);">
					<circle class="st2" cx="2268.39" cy="1290.56" r="14.76"/>
				</g>
			</g>
			<g>
				<path class="st26" d="M2407.78,1168.77c-0.23,0.71-0.45,1.43-0.68,2.14c0.74,0.05,1.47,0.09,2.2,0.1L2407.78,1168.77z"/>
				<path class="st26" d="M2401.51,1166.29c-0.65-0.16-1.28-0.35-1.9-0.59c-0.62-0.22-1.26-0.42-1.87-0.67
					c-1.21-0.54-2.43-1.05-3.57-1.73c-2.3-1.3-4.49-2.81-6.44-4.62c-1.97-1.79-3.72-3.82-5.37-5.95c-3.19-4.35-5.71-9.26-7.71-14.4
					c-1.98-5.16-3.55-10.54-4.63-16.07c-0.08,2.83,0.14,5.67,0.52,8.48c0.37,2.82,0.95,5.62,1.71,8.38
					c1.52,5.52,3.82,10.89,7.09,15.76c1.63,2.43,3.58,4.66,5.73,6.69c2.13,2.05,4.58,3.8,7.21,5.2c4.56,2.55,9.72,3.79,14.82,4.15
					c0.23-0.71,0.46-1.43,0.68-2.14l1.52,2.24c-0.73-0.02-1.47-0.05-2.2-0.1c-0.44,1.38-0.89,2.76-1.36,4.14
					c-0.71,2.08-1.39,4.17-2.15,6.24c-0.76,2.06-1.5,4.14-2.37,6.15c-0.42,1.02-0.87,2.02-1.36,3c-0.5,0.97-0.99,1.97-1.74,2.79
					c0.93-0.63,1.62-1.55,2.31-2.43c0.66-0.91,1.29-1.84,1.89-2.79c1.17-1.91,2.24-3.87,3.24-5.87c0.98-2,1.95-4.02,2.83-6.07
					c0.89-2.04,1.72-4.11,2.56-6.17l0.82-2.01l-2.34-0.23C2406.75,1167.39,2404.06,1167.09,2401.51,1166.29z"/>
			</g>
			<g>
				<path class="st27" d="M2394.73,1221.57c-1.68,1.57-3.32,4.03-5.56,3.5c-0.9-0.21-1.6-0.89-2.31-1.48
					c-4.61-3.81-11.63-4.41-16.82-1.43c-5.19,2.98-8.22,9.33-7.26,15.24l-1.23,0.81c0.05,7.51,5.67,14.24,12.59,17.15
					c6.93,2.91,14.86,2.5,22.12,0.54c2.85-0.77,5.68-1.79,8.1-3.48c3.79-2.66,6.33-6.83,7.76-11.23c1.84-5.68,1.84-12.35-1.71-17.15
					C2406.85,1219.22,2399.09,1217.49,2394.73,1221.57z"/>
			</g>
			<g>
				<g>
					<path class="st28" d="M2126.02,1877.57c-23.53-9.93-44.65-25.22-61.47-44.42c-4.69-5.36-9.02-11.01-12.99-16.93
						c-1.07-1.6-3.67-0.1-2.59,1.51c14.42,21.52,33.74,39.66,56.11,52.72c6.26,3.65,12.75,6.89,19.43,9.71
						c0.75,0.32,1.6,0.22,2.05-0.54C2126.93,1879,2126.76,1877.88,2126.02,1877.57z"/>
				</g>
			</g>
			<g>
				<g>
					<path class="st28" d="M2037.57,1842.58c-1.96-4.49-3.6-9.11-4.96-13.81c-0.54-1.85-3.43-1.06-2.89,0.8
						c4.91,16.97,13.67,32.75,25.44,45.92c3.35,3.75,6.95,7.27,10.75,10.55c1.46,1.25,3.59-0.86,2.12-2.12
						C2054.94,1872.62,2044.49,1858.43,2037.57,1842.58z"/>
				</g>
			</g>
			<g>
				<g>
					<path class="st28" d="M2481.57,1794.58c-1.22-7.16-1.81-14.42-1.8-21.68c0-1.93-3-1.93-3,0c-0.02,26.3,7.96,52.49,22.48,74.41
						c4.08,6.16,8.67,11.97,13.71,17.37c1.32,1.41,3.44-0.71,2.12-2.12C2497.55,1843.81,2485.88,1819.87,2481.57,1794.58z"/>
				</g>
			</g>
			<g>
				<g>
					<path class="st28" d="M2482.19,1619.94c-13.45,19.15-24.93,39.71-33.62,61.46c-8.59,21.5-14.35,44.23-15.98,67.36
						c-0.91,12.94-0.46,25.94,1.39,38.78c0.27,1.9,3.17,1.09,2.89-0.8c-3.25-22.61-1.82-45.73,3.17-67.98
						c5.02-22.39,13.5-43.91,24.27-64.13c6.12-11.47,12.98-22.54,20.46-33.18C2485.9,1619.87,2483.3,1618.37,2482.19,1619.94z"/>
				</g>
			</g>
			<g>
				<g>
					<path class="st28" d="M2447.39,1468.91c0.02-1.93-2.98-1.93-3,0c-0.3,26.05,5.68,51.56,9.88,77.12
						c3.69,22.45,5.86,45.67,1.11,68.15c-2.53,11.96-7.08,23.43-14.16,33.44c-1.12,1.58,1.48,3.08,2.59,1.51
						c12.92-18.28,17.26-40.95,17.27-62.98c0.01-24.74-5.54-48.95-9.59-73.23C2449.08,1498.37,2447.22,1483.68,2447.39,1468.91z"/>
				</g>
			</g>
			<g>
				<g>
					<path class="st27" d="M2409.79,1247.05l-4.26,17c-0.21,0.83,0.02,1.7,0.62,2.32c3.59,3.69,16.16,16.62,17.22,18.11l13.63-15.18
						l-23.05-23.38C2412.6,1244.54,2410.26,1245.18,2409.79,1247.05z"/>
				</g>
				<g>
					
						<rect x="2446.02" y="1257.66" transform="matrix(0.7056 -0.7086 0.7086 0.7056 -202.1359 2129.9897)" class="st29" width="32.31" height="101.18"/>
				</g>
				<g>
					<defs>
						
							<rect id="SVGID_00000054249059982156198570000015015578543270818438_" x="2446.02" y="1257.66" transform="matrix(0.7056 -0.7086 0.7086 0.7056 -202.1371 2129.9858)" width="32.31" height="101.18"/>
					</defs>
					<clipPath id="SVGID_00000075152146623332593170000004638760150705073317_">
						<use xlink:href="#SVGID_00000054249059982156198570000015015578543270818438_"  style="overflow:visible;"/>
					</clipPath>
					<g style="clip-path:url(#SVGID_00000075152146623332593170000004638760150705073317_);">
						<path class="st31" d="M2484.49,1278.65c-16.03-15.16-35.45-26.18-54.82-36.73l2,13.59c8.7,13.46,17.39,26.92,26.09,40.38
							c4.62,7.16,9.26,14.33,12.99,21.98c9.47,19.39,12.86,41.11,16.05,62.45c11.97-8.16,24.87-17.65,27.99-31.8
							c0.93-4.21,0.9-8.58,0.47-12.87C2513.05,1313.71,2500.51,1293.81,2484.49,1278.65z"/>
					</g>
				</g>
				<g>
					
						<rect x="2456.23" y="1311.03" transform="matrix(0.7056 -0.7086 0.7086 0.7056 -206.3366 2140.1902)" class="st32" width="32.31" height="14.76"/>
				</g>
			</g>
			<g>
				<path class="st21" d="M2545.98,1446.88c0,0-8.48-26-5.76-52.35c2.73-26.35-16.36-35.83-25.45-60.08
					c-9.09-24.24-20.9-31.62-13.63,2.11c-13.63-15.81-19.99,1.05-10.91,17.92c9.09,16.86-8.18-1.05-10,7.38s8.18,26.35,8.18,26.35
					s-11.81-5.27-9.09,5.27c2.73,10.54,13.63,27.4,13.63,27.4s-11.81,0-9.09,25.29c2.73,25.29,13.63,53.75,12.72,75.89
					c-0.91,22.13,4.54,120.15,4.54,120.15s-33.93,85.37-20.6,139.12c0,0,39.99,36.54,81.19,40.75
					c41.2,4.22,69.07-71.67,54.53-153.18S2545.98,1446.88,2545.98,1446.88z"/>
			</g>
			<g>
				<defs>
					<path id="SVGID_00000054971881638751852110000002337809581727358363_" d="M2480.54,1781.34c0,0,39.99,36.54,81.19,40.75
						c41.2,4.22,69.07-71.67,54.53-153.18s-70.28-222.04-70.28-222.04s-8.48-26-5.76-52.35s-16.36-35.83-25.45-60.08
						c-9.09-24.24-20.9-31.62-13.63,2.11c-13.63-15.81-19.99,1.05-10.91,17.92c9.09,16.86-8.18-1.05-10,7.38
						c-1.82,8.43,8.18,26.35,8.18,26.35s-11.81-5.27-9.09,5.27s13.63,27.4,13.63,27.4s-11.81,0-9.09,25.3
						c2.73,25.3,13.63,53.75,12.72,75.89c-0.91,22.13,4.54,120.15,4.54,120.15S2467.21,1727.58,2480.54,1781.34z"/>
				</defs>
				<clipPath id="SVGID_00000023971375545830904780000002748568930153155495_">
					<use xlink:href="#SVGID_00000054971881638751852110000002337809581727358363_"  style="overflow:visible;"/>
				</clipPath>
				<g style="clip-path:url(#SVGID_00000023971375545830904780000002748568930153155495_);">
					<g>
						<path class="st23" d="M2502.06,1747.11c-8.67-36.32-5.51-74.29-2.3-111.5l-18.88-5.22c-15.62,28.09-27.79,58.09-36.13,89.13
							c-5.86,21.79-9.73,45.51-1.44,66.5c8.81,22.31,30.39,37.78,53.47,44.28c23.09,6.5,47.65,5.15,71.41,1.87
							C2533.44,1818.49,2510.73,1783.44,2502.06,1747.11z"/>
					</g>
					<g>
						<g>
							<path class="st23" d="M2479.34,1390.28c-0.9-1.59-1.92-3.28-3.59-4c-3.88-1.66-7.59,2.95-8.47,7.08
								c-2.35,11.09,3.32,22.22,4.05,33.54c0.67,10.46-2.91,20.84-2.27,31.31c0.85,13.82,8.87,26.02,16.63,37.48l3.74,5.71
								c-2.29-11-4.01-22.12-5.17-33.3c-0.96-9.29-1.47-19.02,2.11-27.65c2.16-5.21,5.78-9.9,6.74-15.45
								c1.33-7.69-2.67-15.19-6.52-21.98C2484.17,1398.77,2481.75,1394.53,2479.34,1390.28z"/>
						</g>
						<g>
							<path class="st23" d="M2480.24,1352.68l-2.73-0.25c-3.54,7.37-0.87,16.09,1.84,23.81c2.23,6.34,4.46,12.69,6.69,19.03
								c1.68,4.79,4.78,10.54,9.83,10.04c0.87-0.09,1.83-0.48,2.1-1.31c0.2-0.61-0.03-1.28-0.26-1.88
								C2491.27,1385.69,2479.52,1370.33,2480.24,1352.68z"/>
						</g>
						<g>
							<path class="st23" d="M2487.95,1321.35l-4.01-0.91c-1.24,10.54-2.48,21.18-1.33,31.73c1.15,10.55,4.92,21.14,12.42,28.64
								c1.61,1.61,4.05,3.14,6,1.97c1.45-0.87,1.81-2.81,1.77-4.5c-0.15-7.61-4.92-14.22-8.57-20.9
								C2488.26,1346.43,2484.98,1333.46,2487.95,1321.35z"/>
						</g>
						<g>
							<path class="st23" d="M2500.52,1306.91l-5.09-5.47c-5.25,21.85-3.41,47,11.57,63.75c1.32,1.47,3.72,2.88,5.02,1.39
								c0.45-0.51,0.57-1.23,0.66-1.91C2515.09,1344.91,2497.79,1326.62,2500.52,1306.91z"/>
						</g>
					</g>
				</g>
			</g>
			<g>
				<g>
					<path class="st34" d="M2417.49,1220.35c-5.78,10.76-17.23,16.88-28.98,18.69c-6.88,1.06-13.98,0.76-20.84-0.28
						c-5.62-0.85-11.27-2.18-16.47-4.52c-5.68-2.56-10.83-6.29-14.15-11.64c-1.02-1.64-3.61-0.13-2.59,1.51
						c6.49,10.43,18.71,15.18,30.32,17.2c13.65,2.38,28.42,2.1,40.75-4.9c6.05-3.44,11.26-8.38,14.56-14.54
						C2420.99,1220.16,2418.4,1218.65,2417.49,1220.35z"/>
				</g>
			</g>
			<g>
				<path class="st34" d="M2313.39,1149.46c-5.36,1.33-8.25,8.28-6.45,15.53c1.8,7.25,7.6,12.05,12.96,10.72
					c5.36-1.33,8.25-8.28,6.45-15.53S2318.75,1148.13,2313.39,1149.46z"/>
			</g>
			<g>
				<path class="st34" d="M2403.05,1134.97c-5.36,1.33-8.25,8.28-6.45,15.53c1.8,7.25,7.6,12.05,12.96,10.72
					c5.36-1.33,8.25-8.28,6.45-15.53C2414.21,1138.44,2408.41,1133.64,2403.05,1134.97z"/>
			</g>
			<g>
				<path class="st2" d="M2312.87,1155.66c-2.2,0.55-3.39,3.4-2.65,6.37c0.74,2.97,3.12,4.94,5.32,4.4s3.39-3.4,2.65-6.37
					C2317.45,1157.09,2315.07,1155.12,2312.87,1155.66z"/>
			</g>
			<g>
				<path class="st2" d="M2402.97,1140.56c-2.2,0.55-3.39,3.4-2.65,6.37c0.74,2.97,3.12,4.94,5.32,4.4c2.2-0.55,3.39-3.4,2.65-6.37
					C2407.56,1141.98,2405.17,1140.01,2402.97,1140.56z"/>
			</g>
			<g>
				<path class="st34" d="M2311.37,1116.94c-0.66-0.14-1.32-0.26-1.99-0.37l-1.01-0.16c-0.34-0.04-0.69-0.02-1.03-0.04
					c-0.69-0.01-1.38,0-2.07,0.01l-2.08,0.34c-2.75,0.61-5.4,2.04-7.29,4.13c-1.89,2.07-3.09,4.7-3.13,7.38
					c1.6-2.1,3.32-3.78,5.21-5.04c1.88-1.27,3.91-2.08,6.07-2.57l1.64-0.32c0.57-0.05,1.14-0.08,1.71-0.14
					c0.29-0.02,0.57-0.08,0.86-0.08l0.88,0.01c0.59,0,1.18-0.01,1.78-0.03c1.19,0.08,2.42,0.13,3.67,0.17
					c1.25,0.11,2.51,0.23,3.86,0.2c-1.05-0.8-2.19-1.44-3.35-2.09C2313.91,1117.78,2312.65,1117.34,2311.37,1116.94z"/>
			</g>
			<g>
				<path class="st34" d="M2404.06,1101.31c-0.66-0.14-1.32-0.26-1.99-0.37l-1.01-0.16c-0.34-0.04-0.69-0.02-1.03-0.04
					c-0.69-0.01-1.38,0-2.07,0.01l-2.08,0.34c-2.75,0.61-5.4,2.04-7.29,4.13c-1.89,2.07-3.09,4.7-3.13,7.38
					c1.6-2.1,3.32-3.78,5.21-5.04c1.88-1.27,3.91-2.08,6.07-2.57l1.64-0.32c0.57-0.05,1.14-0.08,1.71-0.14
					c0.29-0.02,0.57-0.08,0.86-0.08l0.88,0.01c0.59,0,1.18-0.01,1.78-0.03c1.19,0.08,2.42,0.13,3.67,0.17
					c1.25,0.11,2.51,0.23,3.86,0.19c-1.05-0.8-2.19-1.44-3.35-2.09C2406.59,1102.15,2405.34,1101.71,2404.06,1101.31z"/>
			</g>
		</g>
		<g>
			<g>
				<path class="st35" d="M1604.04,2200.11l-43.76-12.7c-6.34-1.84-13.03,1.84-14.87,8.18l-131.35,452.69
					c-1.84,6.34,1.84,13.03,8.18,14.87l43.76,12.7c6.34,1.84,13.03-1.84,14.87-8.18l131.35-452.69
					C1614.06,2208.64,1610.38,2201.95,1604.04,2200.11z"/>
			</g>
			<g>
				<path class="st35" d="M3174.55,2088.39c-1.84-6.34-8.53-10.02-14.87-8.18l-43.76,12.7c-6.34,1.84-10.02,8.53-8.18,14.87
					l131.35,452.69c1.84,6.34,8.53,10.02,14.87,8.18l43.76-12.7c6.34-1.84,10.02-8.53,8.18-14.87L3174.55,2088.39z"/>
			</g>
			<g>
				<ellipse class="st36" cx="2355.26" cy="2105.96" rx="938.03" ry="204.47"/>
			</g>
			<g>
				<path class="st35" d="M2759.81,1877.17c-122.48-12.77-259.67-19.94-404.55-19.94c-143.94,0-280.31,7.08-402.21,19.7
					c-316.8,32.83-535.83,103.23-535.83,184.77c0,112.92,419.98,204.46,938.04,204.46s938.04-91.54,938.04-204.46
					C3293.3,1980.35,3075.37,1910.09,2759.81,1877.17z"/>
			</g>
			<g class="st37">
				<g>
					<path class="st38" d="M2902.79,1920.79c-30.66-14.56-64.43-22.6-98.38-23.43c-11.59-0.27-24.21-0.04-33.43-7.06
						c-4.58-3.48-7.79-8.4-11.17-13.13c-122.48-12.77-259.67-19.94-404.55-19.94c-143.94,0-280.31,7.08-402.21,19.7
						c8.89,14.16,26.49,24.28,43.37,28.92c24.54,6.75,51.75,7.84,72.25,22.96c14.14,10.43-22.22,72.09-31,87.95
						c-8.78,15.86-11.55,35.6-4.65,52.35c8.78,21.28,30.78,33.88,52.26,42.14c50.43,19.36,106.58,23.45,159.26,11.59
						c9.13-2.05,18.47-4.74,25.53-10.88c6.16-5.34,10.03-12.86,12.75-20.52c3.84-10.79,5.4-22.16,4.98-33.52
						c11.55-1.52,22.58-5.12,31.87-12.04c6.12-4.53,11.12-10.25,15.9-16.19c-1.07,27.83-3.44,56.55,7.82,81.85
						c13.36,30.04,44.67,49.69,77.16,54.63c32.52,4.94,65.88-3.26,95.74-17.04c18.05-8.31,35.93-18.89,55.79-19.63
						c23.74-0.89,45.34,12.35,66.55,23.07c35.6,18,76.16,29.97,115.31,22.31c39.13-7.68,75.4-39.33,78.32-79.11
						c1.61-21.8-6.79-42.97-20.44-60.32c26.4,2.59,53.18,2.99,79.62,2.52c20.19-0.36,42.55-2.08,56.55-16.62
						c14.96-15.52,14.61-41.43,3.89-60.12C2941.19,1942.56,2922.27,1930.03,2902.79,1920.79z"/>
				</g>
			</g>
		</g>
		<g>
			<g>
				<path class="st18" d="M2296.24,1682.26c0,0-37.94,4.22-37.94-145.45c0-149.66-90.64-185.5-90.64-185.5
					c-96.96,63.24-77.99,339.38-92.75,415.26c-14.76,75.89,86.43,80.1,115.94,92.75c29.51,12.65,59.02,54.81,137.02,56.91
					c77.99,2.11,50.59-122.26,50.59-122.26L2296.24,1682.26z"/>
			</g>
			<g>
				<defs>
					<path id="SVGID_00000137129626288241355620000002845381856288792711_" d="M2167.66,1351.32c0,0,90.64,35.83,90.64,185.5
						s37.94,145.45,37.94,145.45l82.21,111.72c0,0,27.4,124.37-50.59,122.26c-77.99-2.11-107.5-44.27-137.02-56.91
						c-29.51-12.65-130.69-16.86-115.94-92.75C2089.66,1690.7,2070.69,1414.56,2167.66,1351.32z"/>
				</defs>
				<clipPath id="SVGID_00000078755229519501521490000009356299630282655899_">
					<use xlink:href="#SVGID_00000137129626288241355620000002845381856288792711_"  style="overflow:visible;"/>
				</clipPath>
				<g style="clip-path:url(#SVGID_00000078755229519501521490000009356299630282655899_);">
					<path class="st20" d="M2335.17,1633.1c-9.69-5.64-22.98-6.49-31.52,0.77l-1.24,24.21c-2.69,0.88-4.97,2.43-6.97,4.36
						c-2.49-7.67-4-15.85-5.11-23.72c-9.85-69.84-6.76-144.16-40.05-206.34c-8.96-16.73-20.31-32.03-31.81-47.12
						c-10.63-13.96-21.73-28.09-36.62-37.36c-14.89-9.27-34.54-12.86-50.03-4.63c57.83,64.14,98.04,144.01,115.12,228.66
						c4.81,23.84,6.63,51.91-10.52,69.16c-6.77,6.81-15.72,10.97-23.3,16.88c-7.57,5.91-14.11,14.86-12.7,24.36
						c10.03-3.79,20.07-7.58,30.1-11.36c4.14-1.56,8.79-3.12,12.84-1.36c5.13,2.23,6.85,9.04,5.34,14.43
						c-1.5,5.39-5.33,9.77-8.77,14.19c-12.24,15.71-20.75,34.3-24.64,53.83c18.5-8.01,28.68-27.45,41.2-43.25
						c6.39-8.06,15.07-15.6,24.43-19.86c-7.11,17.59-12.12,36.02-14.95,54.78c-0.01-0.06-0.02-0.12-0.04-0.18
						c-0.51-2.51-1.18-5.26-3.27-6.76c-5.09-3.65-11.03,3.5-12.81,9.5c-9.99,33.8-1.88,72.38,20.86,99.31
						c0.61,0.73,1.24,1.45,1.87,2.17c0.06,0.21,0.11,0.41,0.17,0.62c2.88,9.86,6.55,19.64,11,29.03c-0.87,2.11-2.18,3.99-4.08,5.36
						c-7.47,5.38-17.79,0.54-25.51-4.49c-12.31-8.03-24.37-16.54-37.49-23.16c-20.25-10.21-42.53-15.66-63.51-24.28
						c-20.98-8.62-41.55-21.35-52.41-41.25c-11.88-21.79-10.19-48.1-9.23-72.89c2.45-63.56-2.09-127.17-6.62-190.62l-26.25,11.67
						c-3.02,87.42-4.53,174.89-4.53,262.36c0,9.65,0.14,19.77,4.82,28.2c3.12,5.61,8,9.99,12.81,14.24
						c40.68,35.96,82.98,71.07,131.8,94.81c48.82,23.75,105.31,35.42,158.02,22.4c5.9-1.46,12.45-3.83,14.81-9.43
						c1.29-3.06,1.02-6.33-0.01-9.52c8.2-5.37,12.62-15.23,15.93-24.61c29.91-84.89,13.72-182.66-34.65-258.56
						C2351.66,1648.18,2344.86,1638.73,2335.17,1633.1z"/>
				</g>
			</g>
			<g>
				<path class="st21" d="M2426.37,1395.15c-19.68-8.79-31.61,11.02-48.07,6.51c-16.45-4.51-38.14,97.34-42.59,115.18
					c-4.46,17.84-34.57,174.36-58.71,183.41c0,0-25.16,19.57-26.2,77.53c-1.05,57.96,85.7,106.96,136.48-3.86
					c50.78-110.82,19.72-267.39,19.72-267.39s19.5-27.05,24.15-55.43c4.65-28.38,13.24-0.81,19.2-10.19
					C2456.3,1431.53,2446.05,1403.94,2426.37,1395.15z"/>
			</g>
			<g>
				<defs>
					<path id="SVGID_00000053517371177725026730000005318682949201817235_" d="M2277,1700.26c0,0-25.16,19.57-26.2,77.53
						c-1.05,57.96,85.7,106.96,136.48-3.86c50.78-110.82,19.72-267.39,19.72-267.39s19.5-27.05,24.15-55.43
						c4.65-28.38,13.24-0.81,19.2-10.19c5.96-9.38-4.29-36.97-23.97-45.76c-19.68-8.79-31.61,11.02-48.07,6.51
						s-38.14,97.35-42.59,115.19C2331.25,1534.69,2301.14,1691.21,2277,1700.26z"/>
				</defs>
				<clipPath id="SVGID_00000155115016456055257820000009184362548141390774_">
					<use xlink:href="#SVGID_00000053517371177725026730000005318682949201817235_"  style="overflow:visible;"/>
				</clipPath>
				<g style="clip-path:url(#SVGID_00000155115016456055257820000009184362548141390774_);">
					<g>
						<path class="st23" d="M2351.64,1822.57c-22.56,7.63-48.5-4.82-61.7-24.64s-15.59-45.14-12.69-68.78
							c2.9-23.64,10.59-46.39,16.08-69.56l-16.56,23.15c-27.52,12.07-49.69,35.79-59.88,64.06c-10.19,28.27-8.25,60.68,5.24,87.53
							c3.57,7.1,7.96,13.89,13.74,19.34c12.41,11.69,29.84,16.13,46.6,19.24c11.1,2.06,22.54,3.72,33.63,1.58
							c22.86-4.42,39.59-23.88,52.03-43.56c10.68-16.89,19.66-34.86,26.75-53.55C2384.19,1795.84,2371.85,1815.73,2351.64,1822.57z"
							/>
					</g>
					<g>
						<path class="st23" d="M2450.87,1440.59c-4.99-4.89-5.5-12.67-8.89-18.78c-1.66-2.99-6.26-5.51-8.03-2.58
							c-0.52,0.86-0.53,1.92-0.53,2.92c0.02,9.6,0.05,19.2,0.07,28.8l5.31-14.6c-1.89,5.37-3.67,11.71-0.45,16.4
							c2.2,3.21,6.61,4.7,10.31,3.49c3.7-1.21,6.37-5.01,6.26-8.9c-0.04-1.35-0.39-2.71-1.15-3.82
							C2453,1442.38,2451.85,1441.55,2450.87,1440.59z"/>
					</g>
					<g>
						<path class="st23" d="M2432.32,1376.16c-13.37-3.91-27.69-0.48-41.03,3.53c-9.15,2.75-18.38,5.86-26.09,11.5
							c-2.6,1.9-5.24,4.97-4.07,7.97c0.63,1.6,2.18,2.6,3.64,3.5c3.45,2.12,7.36,4.33,11.32,3.45c2.18-0.49,4.1-1.88,6.3-2.25
							c7.12-1.17,12.76,8.53,19.83,7.08c2.79-0.57,4.89-2.77,6.97-4.72c5.59-5.25,12.68-9.48,20.35-9.52
							c7.67-0.04,15.66,5.21,16.73,12.81l6.96-18.46C2448.18,1383.95,2440.69,1378.61,2432.32,1376.16z"/>
					</g>
				</g>
			</g>
		</g>
		<g>
			<g>
				<ellipse class="st10" cx="2093.35" cy="2014.79" rx="96.44" ry="64.82"/>
			</g>
			<g>
				<defs>
					<ellipse id="SVGID_00000150817206618810546760000006041545435917284484_" cx="2093.35" cy="2014.79" rx="96.44" ry="64.82"/>
				</defs>
				<clipPath id="SVGID_00000098204922493065194600000002938523002044691641_">
					<use xlink:href="#SVGID_00000150817206618810546760000006041545435917284484_"  style="overflow:visible;"/>
				</clipPath>
				<g style="clip-path:url(#SVGID_00000098204922493065194600000002938523002044691641_);">
					<path class="st42" d="M2181.94,2017.59c-3.05,11.63-14.03,22.14-25.91,20.29c1.44,9.35-10.97,17.38-18.91,12.25
						c-5.25,10.46-16.15,17.86-27.81,18.88s-23.68-4.38-30.66-13.78c-4.02,8.61-17.09,7.45-24.9,2.03
						c-7.81-5.42-13.99-13.72-23.14-16.3c-2.21-0.62-4.6-0.91-6.46-2.26c-3.87-2.8-3.64-8.6-2.46-13.23
						c-6.11,7.99-20.03,4.28-25.25-4.32c-5.21-8.6-4.35-19.42-3.32-29.43l-21.92,38.34c-8.77,2.65-12.78,13.66-10.56,22.56
						c2.21,8.9,8.93,15.92,15.84,21.93c31.04,27,72.49,42.64,113.52,39.62c41.03-3.03,80.84-25.68,101.75-61.11
						c4.46-7.55,8.13-15.83,8.63-24.59c1.01-17.37-10.26-32.78-20.96-46.49C2182.21,1993.68,2184.99,2005.95,2181.94,2017.59z"/>
				</g>
			</g>
			<g>
				<path class="st27" d="M2152.58,1972.15c-4.57-3-4.4-10.72-5.44-15.51c-1.13-5.21-2.81-10.92-6.33-15.07
					c-9.09-10.73-24.19-4.26-35.95-2.11c-13.45,2.46-28.71,3.42-41.69,7.71c-5.12,1.7-8.71,5.02-11.27,9.69
					c-2.86,5.22-3.73,17.06-10.33,19.17c-12.86,4.13-7.36,24.49,5.6,20.33c6.74-2.16,11.96-5.95,15.83-11.91
					c2.1-3.23,3.41-6.93,4.76-10.52c2.15-5.69,1.77-5.95,7.45-7.72c8.61-2.69,18.55-3.39,27.42-5c7.38-1.35,15.14-3.52,22.73-4.34
					c2.72,5.24,2.53,12.91,4.44,18.13c2.43,6.65,6.22,11.48,12.13,15.35C2153.32,1997.81,2163.89,1979.56,2152.58,1972.15z"/>
			</g>
		</g>
		<g>
			<g>
				<path class="st43" d="M2255.13,2018.48c0,0,70.62,33.73,134.38,0c2.11-50.06,2.64-83.79,2.64-83.79l-145.45,3.69
					L2255.13,2018.48z"/>
			</g>
			<g>
				<defs>
					<path id="SVGID_00000116950938749158509410000017869526644360815496_" d="M2246.7,1938.38l8.43,80.1c0,0,70.62,33.73,134.38,0
						c2.11-50.06,2.63-83.79,2.63-83.79L2246.7,1938.38z"/>
				</defs>
				<clipPath id="SVGID_00000098214254929119250700000013165423234703521927_">
					<use xlink:href="#SVGID_00000116950938749158509410000017869526644360815496_"  style="overflow:visible;"/>
				</clipPath>
				<g style="clip-path:url(#SVGID_00000098214254929119250700000013165423234703521927_);">
					<path class="st45" d="M2388.95,1897.8l-25.31,18.5c9.78,29.39-5.13,63.34-30.43,81.22c-25.3,17.88-58.6,21.48-89.08,15.91
						c11.66,28.34,38.77,49.74,69.04,54.5c30.27,4.76,62.65-7.28,82.44-30.67c9.24-10.91,15.76-23.93,20.32-37.49
						c6.08-18.1,8.74-37.73,4.78-56.41C2416.77,1924.7,2405.64,1907.09,2388.95,1897.8z"/>
				</g>
			</g>
			<g>
				<g>
					<path class="st32" d="M2242.49,1948.92c100.13,32.67,157.04,0,157.04,0v-33.73h-157.04V1948.92z"/>
				</g>
				<g>
					<ellipse class="st45" cx="2321.01" cy="1915.19" rx="78.52" ry="16.86"/>
				</g>
			</g>
		</g>
		<g>
			<polygon class="st27" points="2500.71,2034.29 2353.86,2043.42 2353.15,2063.8 2410.77,2122.12 2550.6,2105.96 2549.89,2091.2 
							"/>
		</g>
		<g>
			<defs>
				<polygon id="SVGID_00000122720705365236589340000005558911257299326865_" points="2353.86,2043.42 2353.15,2063.8 
					2410.77,2122.12 2550.6,2105.96 2549.89,2091.2 2500.71,2034.29 				"/>
			</defs>
			<clipPath id="SVGID_00000030451950872690957590000008350169989350485171_">
				<use xlink:href="#SVGID_00000122720705365236589340000005558911257299326865_"  style="overflow:visible;"/>
			</clipPath>
			<g style="clip-path:url(#SVGID_00000030451950872690957590000008350169989350485171_);">
				<polygon class="st47" points="2415.05,2107.01 2353.86,2043.42 2343.58,2033.3 2343.02,2089.7 2398.86,2148.88 2552.96,2120.41 
					2549.89,2091.2 				"/>
			</g>
		</g>
		<g>
			<polygon class="st47" points="2435.69,2054.84 2435.12,2078.19 2461.84,2090.19 2478.92,2074.26 2462.76,2052.41 			"/>
		</g>
		<g>
			<polygon class="st48" points="2439.6,2050.93 2439.03,2074.28 2465.75,2086.28 2482.83,2070.35 2466.66,2048.51 			"/>
		</g>
		<g>
			<polygon class="st47" points="2460.26,2054.28 2459.69,2077.63 2486.41,2089.63 2503.49,2073.7 2487.32,2051.86 			"/>
		</g>
		<g>
			<polygon class="st48" points="2392.14,2049.26 2391.57,2072.6 2418.29,2084.61 2435.37,2068.68 2419.21,2046.83 			"/>
		</g>
		<g>
			<g>
				<path class="st43" d="M2573.02,2006.15c-14.05,14.76,54.1,96.26,54.1,96.26l14.05-11.95l-44.97-89.24
					C2596.2,2001.23,2587.07,1991.39,2573.02,2006.15z"/>
			</g>
			<g>
				<defs>
					<path id="SVGID_00000143583347671541959170000003334678655285047960_" d="M2627.12,2102.41c0,0-68.16-81.51-54.1-96.26
						c14.05-14.76,23.19-4.92,23.19-4.92l44.97,89.24L2627.12,2102.41z"/>
				</defs>
				<clipPath id="SVGID_00000120546022193487836320000005325012702069818011_">
					<use xlink:href="#SVGID_00000143583347671541959170000003334678655285047960_"  style="overflow:visible;"/>
				</clipPath>
				<g style="clip-path:url(#SVGID_00000120546022193487836320000005325012702069818011_);">
					<path class="st45" d="M2636.26,2047.59c-12.24-22.11-24.47-44.21-36.71-66.32c-0.56-1.02-1.19-2.1-2.23-2.62
						c-1.68-0.84-3.68,0.09-5.27,1.09c-5.73,3.56-10.84,8.12-15.01,13.42l-12.33,30.65c1.97-5.34,5.51-10.08,10.07-13.48
						c3.2-2.39,7.24-4.17,11.14-3.3c5,1.11,8.07,6.02,10.53,10.51c12,21.89,23.04,44.31,33.07,67.16c0.63,1.45,1.28,2.98,1.1,4.55
						c-0.24,2.14-1.92,3.79-3.39,5.36c-5.17,5.54-8.84,12.45-10.54,19.83c16.82-4.44,30.83-20.32,30.2-37.7
						C2646.5,2066.3,2641.32,2056.73,2636.26,2047.59z"/>
				</g>
			</g>
			<g>
				<path class="st10" d="M2630.63,2094.68c-22.48,16.86,7.73,62.54,7.73,62.54l43.77-36.18
					C2682.13,2121.04,2653.12,2077.82,2630.63,2094.68z"/>
			</g>
			<g>
				<defs>
					<path id="SVGID_00000020368001946636817840000003099360760716449430_" d="M2638.36,2157.21c0,0-30.21-45.67-7.73-62.54
						c22.48-16.86,51.5,26.36,51.5,26.36L2638.36,2157.21z"/>
				</defs>
				<clipPath id="SVGID_00000111872038006143161430000016837618658631462589_">
					<use xlink:href="#SVGID_00000020368001946636817840000003099360760716449430_"  style="overflow:visible;"/>
				</clipPath>
				<g style="clip-path:url(#SVGID_00000111872038006143161430000016837618658631462589_);">
					<path class="st10" d="M2630.12,2090.48l2.29-0.83C2631.58,2089.72,2630.81,2090.02,2630.12,2090.48z"/>
					<path class="st10" d="M2666.14,2088.45c-5.85-4.63-13.33-7.65-20.73-6.72c-4.81,0.61-9.24,2.81-13.57,4.98
						c-2.12,1.06-4.52,2.51-4.74,4.87l3.03-1.09c0.69-0.46,1.46-0.76,2.29-0.83l-2.29,0.83c-1.09,0.73-1.96,1.84-2.47,3.06
						c-0.83,1.99-0.88,4.21-0.83,6.36c0.43,20.32,8.6,40.38,22.49,55.22c-2.74-4.91-5.38-9.87-7.94-14.88
						c-5.99-11.72-11.62-24.42-10.37-37.52c0.08-0.88,0.34-1.93,1.19-2.18c1-0.3,1.84,0.78,2.3,1.71c3.48,7.1,4.75,15.08,7.87,22.35
						c3.99,9.3,11.06,17.26,19.82,22.32c-5.03-15.87-18.27-28.06-23.63-43.82c16.07,2.7,30.53,13.63,37.51,28.35
						c2.56-3.51,6.94-5.57,8.78-9.51c2.53-5.42-0.83-11.63-4.2-16.58C2676.44,2099.21,2671.99,2093.08,2666.14,2088.45z"/>
				</g>
			</g>
			<g>
				<path class="st51" d="M2651.17,2129.9c-12.31,10.5-17.6,21.71-12.81,27.32c4.79,5.61,17.83,3.5,30.14-7s18.41-23.56,13.62-29.17
					C2677.34,2115.43,2663.49,2119.39,2651.17,2129.9z"/>
			</g>
		</g>
		<g>
			<g>
				<path class="st52" d="M2916.32,2008.64c-30.46,0-55.16,15.02-55.16,33.55c0,18.53,24.69,33.55,55.16,33.55
					c30.46,0,55.16-15.02,55.16-33.55C2971.48,2023.66,2946.79,2008.64,2916.32,2008.64z"/>
			</g>
			<g>
				<defs>
					<ellipse id="SVGID_00000168105284385349534020000017002278629097293230_" cx="2916.32" cy="2042.19" rx="55.16" ry="33.55"/>
				</defs>
				<clipPath id="SVGID_00000168838745335504013880000001446021092760330896_">
					<use xlink:href="#SVGID_00000168105284385349534020000017002278629097293230_"  style="overflow:visible;"/>
				</clipPath>
				<g style="clip-path:url(#SVGID_00000168838745335504013880000001446021092760330896_);">
					<path class="st54" d="M2885.06,2013.11c-30.46,0-55.16,15.02-55.16,33.55c0,18.53,24.69,33.55,55.16,33.55
						c30.46,0,55.16-15.02,55.16-33.55C2940.21,2028.13,2915.52,2013.11,2885.06,2013.11z"/>
				</g>
			</g>
			<g>
				<ellipse class="st55" cx="2914.92" cy="2022.34" rx="46.73" ry="15.46"/>
			</g>
			<g>
				<path class="st52" d="M2928.28,1994.18c-4.24-0.42-8.71-0.65-13.36-0.65c-1.9,0-3.75,0.04-5.58,0.11
					c-23.18,0.92-41.14,7.44-41.14,15.34c0,8.55,20.9,15.48,46.72,15.48c25.8,0,46.72-6.92,46.72-15.48
					C2961.64,2001.99,2947.57,1996.07,2928.28,1994.18z"/>
			</g>
			<g>
				<path class="st55" d="M2914.92,1993.53c-1.9,0-3.75,0.04-5.58,0.11c-0.8,1.5-1.27,3.22-1.27,5.05c0,5.85,4.76,10.61,10.61,10.61
					s10.61-4.76,10.61-10.61c0-1.61-0.36-3.15-1-4.51C2924.03,1993.75,2919.57,1993.53,2914.92,1993.53z"/>
			</g>
			<g>
				
					<ellipse transform="matrix(0.3827 -0.9239 0.9239 0.3827 -43.6046 3924.2991)" class="st54" cx="2914.76" cy="1994.78" rx="10.61" ry="10.61"/>
			</g>
		</g>
		<g>
			<g>
				
					<ellipse transform="matrix(0.2985 -0.9544 0.9544 0.2985 395.9714 3743.0408)" class="st2" cx="2744.18" cy="1602.16" rx="280.36" ry="106.45"/>
			</g>
			<g>
				
					<ellipse transform="matrix(0.2985 -0.9544 0.9544 0.2985 408.2131 3768.1277)" class="st32" cx="2767.36" cy="1606.38" rx="280.36" ry="106.45"/>
			</g>
			<g>
				<path class="st56" d="M2789.73,1585.39c-13.85-4.47-31.31,11.21-39.01,35.02c-7.7,23.82-2.71,46.75,11.14,51.23
					s31.31-11.21,39.01-35.02S2803.58,1589.86,2789.73,1585.39z"/>
			</g>
			<g>
				<path class="st57" d="M2855.55,1926.98c-5.05,13.14-22.86,15.42-30.78,3.56c-8.23-12.32-5.2-32.14-2.61-45.71
					c6.05-31.63,14.99-61.83,17.11-94.18c1.92-29.42,0.9-60.37-5.84-89.17c-5.49-23.5-17.2-45.03-40.5-54.31
					c-3.82-1.52-6.97-0.7-9.18,1.3c-1.28,0.09-2.57,0.38-3.79,0.88c-1.43-3.33-4.51-5.87-9.25-5.82
					c-32.28,0.33-44.48,36.87-53.75,61.9c-12.87,34.73-21.66,70.84-26.53,107.54c-4.98,37.49-4.76,75.36-8.59,112.95
					c-1.83,18.02-4.6,36.24-9.97,53.59c-1.92,6.2-4.42,13.71-9.81,17.86c-2.52,1.94-12.28,4.35-12.64-1.31
					c-0.85-13.47-21.94-13.57-21.08,0c0.88,13.84,11.5,23.36,25.2,24.49c15.09,1.24,26.99-9.01,33.42-21.91
					c8.28-16.61,11.2-36.27,13.76-54.45c2.85-20.29,4.15-40.73,5.25-61.18c2.27-41.98,5.78-83.22,16.32-124.07
					c5.15-19.95,11.55-39.58,19.17-58.73c5.02-12.62,12.67-35.44,29.27-35.61c1.13-0.01,2.16-0.18,3.1-0.46
					c11.9,60.55-8.7,120.97-24.98,178.73c-8.36,29.64-15.95,59.53-19.28,90.21c-2.78,25.66-5.19,58.34,9.43,81.15
					c7.05,11,18.52,18.98,32.05,16.89c15-2.32,23.89-15.14,30.57-27.6c6.41-11.95-11.78-22.61-18.2-10.64
					c-5.65,10.55-15.93,25.81-26.22,10.71c-8.39-12.31-8.17-29.21-8.12-43.48c0.12-35.16,8.44-69.57,17.75-103.26
					c16.59-60.02,37.5-121.22,29.66-183.84c18.93,16.15,20.52,52.73,21.83,74.18c2.2,36.21-1.87,71.74-10.61,106.86
					c-6.88,27.65-18.81,68.7,3.14,92.88c20.52,22.61,54.83,12.2,65.05-14.37C2880.74,1919.91,2860.37,1914.42,2855.55,1926.98z"/>
			</g>
			<g>
				<defs>
					<path id="SVGID_00000074441598460867961780000004954296026181741746_" d="M2855.55,1926.97c-5.05,13.14-22.86,15.42-30.78,3.56
						c-8.23-12.32-5.2-32.14-2.61-45.71c6.05-31.63,14.99-61.83,17.11-94.19c1.92-29.42,0.89-60.37-5.84-89.17
						c-5.49-23.5-17.2-45.03-40.5-54.31c-3.82-1.52-6.97-0.7-9.18,1.3c-1.28,0.09-2.57,0.38-3.79,0.88
						c-1.43-3.33-4.51-5.87-9.25-5.82c-32.28,0.33-44.48,36.87-53.75,61.9c-12.87,34.73-21.66,70.84-26.53,107.55
						c-4.98,37.49-4.76,75.36-8.59,112.95c-1.83,18.02-4.6,36.24-9.97,53.59c-1.92,6.2-4.42,13.71-9.81,17.86
						c-2.52,1.94-12.28,4.35-12.64-1.31c-0.85-13.47-21.94-13.57-21.08,0c0.88,13.84,11.5,23.36,25.2,24.49
						c15.09,1.24,26.99-9.01,33.42-21.91c8.27-16.61,11.2-36.27,13.76-54.45c2.85-20.29,4.15-40.73,5.25-61.18
						c2.27-41.98,5.78-83.22,16.32-124.07c5.15-19.95,11.55-39.58,19.17-58.73c5.02-12.62,12.67-35.44,29.27-35.61
						c1.13-0.01,2.16-0.18,3.1-0.46c11.9,60.55-8.7,120.97-24.98,178.73c-8.36,29.64-15.95,59.53-19.28,90.21
						c-2.78,25.66-5.19,58.34,9.43,81.15c7.05,11,18.52,18.98,32.05,16.89c15-2.32,23.89-15.14,30.57-27.6
						c6.41-11.95-11.78-22.61-18.2-10.64c-5.65,10.55-15.93,25.81-26.22,10.71c-8.39-12.32-8.17-29.21-8.12-43.48
						c0.12-35.16,8.44-69.57,17.75-103.26c16.59-60.02,37.5-121.22,29.66-183.84c18.93,16.15,20.52,52.73,21.83,74.18
						c2.2,36.2-1.87,71.74-10.61,106.86c-6.88,27.65-18.81,68.7,3.14,92.88c20.52,22.61,54.83,12.2,65.04-14.37
						C2880.74,1919.91,2860.37,1914.42,2855.55,1926.97z"/>
				</defs>
				<clipPath id="SVGID_00000143585521681830330480000003095651538287428282_">
					<use xlink:href="#SVGID_00000074441598460867961780000004954296026181741746_"  style="overflow:visible;"/>
				</clipPath>
				<g style="clip-path:url(#SVGID_00000143585521681830330480000003095651538287428282_);">
					<path class="st59" d="M2869.69,1929.95c-5.05,13.14-22.86,15.42-30.78,3.56c-8.23-12.32-5.2-32.14-2.61-45.71
						c6.05-31.63,14.99-61.83,17.11-94.19c1.92-29.42,0.9-60.37-5.84-89.17c-5.49-23.5-17.2-45.03-40.5-54.31
						c-3.82-1.52-6.97-0.7-9.18,1.3c-1.28,0.09-2.57,0.38-3.79,0.88c-1.43-3.33-4.51-5.87-9.25-5.82
						c-32.28,0.33-44.48,36.87-53.75,61.9c-12.87,34.73-21.66,70.84-26.53,107.54c-4.98,37.49-4.76,75.36-8.59,112.95
						c-1.83,18.02-4.6,36.24-9.97,53.59c-1.92,6.2-4.42,13.71-9.81,17.86c-2.52,1.94-12.28,4.35-12.64-1.31
						c-0.85-13.47-21.94-13.57-21.08,0c0.88,13.84,11.5,23.36,25.2,24.49c15.09,1.24,26.99-9.01,33.42-21.91
						c8.28-16.61,11.2-36.27,13.76-54.45c2.85-20.29,4.15-40.73,5.25-61.18c2.27-41.98,5.78-83.22,16.32-124.07
						c5.15-19.95,11.55-39.58,19.17-58.73c5.02-12.62,12.67-35.44,29.27-35.61c1.13-0.01,2.16-0.18,3.1-0.46
						c11.9,60.55-8.7,120.97-24.98,178.73c-8.36,29.64-15.95,59.53-19.28,90.21c-2.78,25.66-5.19,58.34,9.43,81.15
						c7.05,11,18.52,18.98,32.05,16.89c15-2.32,23.89-15.14,30.57-27.6c6.41-11.95-11.78-22.61-18.2-10.64
						c-5.65,10.55-15.93,25.81-26.22,10.71c-8.39-12.32-8.17-29.21-8.12-43.48c0.12-35.16,8.44-69.57,17.75-103.26
						c16.59-60.02,37.5-121.22,29.66-183.84c18.93,16.15,20.52,52.73,21.83,74.18c2.2,36.21-1.87,71.74-10.61,106.86
						c-6.88,27.65-18.81,68.7,3.14,92.88c20.52,22.61,54.83,12.2,65.04-14.37C2894.89,1922.88,2874.52,1917.4,2869.69,1929.95z"/>
				</g>
			</g>
		</g>
		<g>
			<g>
				<g>
					<path class="st60" d="M3352.35,1965.65h-0.88c-5.77,0-10.5,4.72-10.5,10.5v710.21c0,5.78,4.72,10.5,10.5,10.5h0.88
						c5.77,0,10.5-4.72,10.5-10.5v-710.21C3362.85,1970.37,3358.12,1965.65,3352.35,1965.65z"/>
				</g>
				<g>
					<path class="st60" d="M3397.46,1891.25c-0.22-0.91-1.15-1.47-2.06-1.25l-22.44,5.44l188.93,779.73
						c1.54,6.36,8.01,10.3,14.37,8.76l0.96-0.23c6.36-1.54,10.3-8.01,8.76-14.37L3397.46,1891.25z"/>
				</g>
				<g>
					<path class="st60" d="M3324.7,1896.17l-18.62-4.51c-0.91-0.22-1.84,0.34-2.06,1.25l-188.48,777.86
						c-1.4,5.79,2.19,11.68,7.98,13.08l0.88,0.21c5.79,1.4,11.68-2.19,13.08-7.98l188.48-777.87
						C3326.17,1897.31,3325.61,1896.39,3324.7,1896.17z"/>
				</g>
				<g>
					<rect x="3340.23" y="1656.92" class="st61" width="24.03" height="318.74"/>
				</g>
				<g>
					<rect x="3324.51" y="1694.56" class="st61" width="60.03" height="173.43"/>
				</g>
				<g>
					<defs>
						
							<rect id="SVGID_00000062180612084127866880000010998064720898195860_" x="3324.51" y="1694.56" transform="matrix(-1 -4.496504e-11 4.496504e-11 -1 6709.0444 3562.5393)" width="60.03" height="173.43"/>
					</defs>
					<clipPath id="SVGID_00000137107779131858444090000002295434102212683179_">
						<use xlink:href="#SVGID_00000062180612084127866880000010998064720898195860_"  style="overflow:visible;"/>
					</clipPath>
					<g style="clip-path:url(#SVGID_00000137107779131858444090000002295434102212683179_);">
						<rect x="3303.78" y="1694.56" class="st60" width="60.03" height="173.43"/>
					</g>
				</g>
				<g>
					<path class="st61" d="M3407.29,1865.12h-110.3c-3.21,0-5.83,2.62-5.83,5.83v21.68c0,3.21,2.62,5.83,5.83,5.83h110.3
						c3.21,0,5.83-2.62,5.83-5.83v-21.68C3413.13,1867.75,3410.5,1865.12,3407.29,1865.12z"/>
				</g>
				<g>
					<polygon class="st60" points="3253.04,1635.48 3314.98,1635.48 3314.98,1673.59 3398.83,1673.59 3398.83,1635.48 
						3475.48,1635.48 3475.48,1594.02 3253.04,1594.02 					"/>
				</g>
			</g>
			<g>
				<g>
					<g>
						<ellipse class="st63" cx="3110.82" cy="1474.67" rx="97.91" ry="115.06"/>
					</g>
					<g>
						<ellipse class="st64" cx="3160.13" cy="1474.67" rx="75.76" ry="93.62"/>
					</g>
					<g>
						<ellipse class="st65" cx="3177.28" cy="1473.24" rx="75.76" ry="93.62"/>
					</g>
				</g>
				<g>
					<path class="st64" d="M3500.32,1361.04h-117.21v-54.32c0-2.36-1.93-4.29-4.29-4.29h-165.8c-2.36,0-4.29,1.93-4.29,4.29v54.32
						h-28.59c-18.87,0-34.3,15.44-34.3,34.3v180.1c0,18.87,15.44,34.3,34.3,34.3h320.18c18.87,0,34.3-15.44,34.3-34.3v-180.1
						C3534.62,1376.48,3519.18,1361.04,3500.32,1361.04z"/>
				</g>
				<g>
					<path class="st63" d="M3538.91,1362.47H3421.7v-54.32c0-2.36-1.93-4.29-4.29-4.29h-165.8c-2.36,0-4.29,1.93-4.29,4.29v54.32
						h-28.59c-18.87,0-34.3,15.44-34.3,34.3v180.1c0,18.87,15.44,34.3,34.3,34.3h320.18c18.87,0,34.3-15.44,34.3-34.3v-180.1
						C3573.21,1377.91,3557.78,1362.47,3538.91,1362.47z"/>
				</g>
				<g>
					<path class="st65" d="M3447.15,1389.63h-216.7c-3.3,0-6,2.7-6,6v176.67c0,3.3,2.7,6,6,6h216.7c3.3,0,6-2.7,6-6v-176.67
						C3453.15,1392.33,3450.45,1389.63,3447.15,1389.63z"/>
				</g>
				<g>
					<rect x="3237.32" y="1408.21" class="st10" width="205.83" height="151.51"/>
				</g>
				<g>
					<defs>
						
							<rect id="SVGID_00000132082094398951163050000001933767541951853758_" x="3237.32" y="1408.21" transform="matrix(-1 -4.489443e-11 4.489443e-11 -1 6680.4575 2967.9282)" width="205.83" height="151.51"/>
					</defs>
					<clipPath id="SVGID_00000049191222645536966020000005634343534737403059_">
						<use xlink:href="#SVGID_00000132082094398951163050000001933767541951853758_"  style="overflow:visible;"/>
					</clipPath>
					<g style="clip-path:url(#SVGID_00000049191222645536966020000005634343534737403059_);">
						<g>
							<path class="st15" d="M3380.44,1432.76c-6.12-1.15-16.44-9.18-36.32-16.82c-19.88-7.65-37.09,11.09-37.09,11.09
								s-14.15-20.26-36.32-4.97c-22.18,15.29-10.32,76.09-7.65,96.35c2.68,20.26-19.12,25.62-14.53,40.91
								c4.59,15.29,19.5,11.47,19.5,11.47s-8.03-5.74-4.97-17.59c-0.38,21.41,19.88,16.44,19.88,16.44l41.68-56.59
								c0,0,31.73-57.73,46.26-56.97C3385.41,1456.85,3386.56,1433.91,3380.44,1432.76z"/>
						</g>
						<g>
							<defs>
								<path id="SVGID_00000031199729193271306910000011612556225512719240_" d="M3307.03,1427.03c0,0,17.21-18.73,37.09-11.09
									c19.88,7.65,30.21,15.68,36.32,16.82c6.12,1.15,4.97,24.09-9.56,23.32c-14.53-0.76-46.26,56.97-46.26,56.97l-41.68,56.59
									c0,0-20.26,4.97-19.88-16.44c-3.06,11.85,4.97,17.59,4.97,17.59s-14.91,3.82-19.5-11.47
									c-4.59-15.29,17.21-20.65,14.53-40.91c-2.68-20.26-14.53-81.06,7.65-96.35C3292.89,1406.76,3307.03,1427.03,3307.03,1427.03
									z"/>
							</defs>
							<clipPath id="SVGID_00000131331805656048820920000014638565492145120151_">
								<use xlink:href="#SVGID_00000031199729193271306910000011612556225512719240_"  style="overflow:visible;"/>
							</clipPath>
							<g style="clip-path:url(#SVGID_00000131331805656048820920000014638565492145120151_);">
								<g>
									<path class="st17" d="M3386.55,1435.96c-1.08,0.03-2.1,0.47-3.11,0.85c-7.43,2.75-16.13,1.79-22.78-2.51
										c-5.25-3.39-9.31-8.72-15.17-10.89c-4.09-1.51-8.59-0.18-12.93-0.6c-9.61-0.92-30.98,11.66-35.83,27.14
										c-5.38,17.14-7.44,33.2,6.08,47.4c8,8.41,24.86,8.26,27.17,3.65c6.69-13.33,18.25-24.15,32-29.94
										c7.71-3.25,16.19-5.03,22.94-9.97c6.75-4.94,11.18-14.66,6.77-21.78C3390.55,1437.49,3388.69,1435.9,3386.55,1435.96z"/>
								</g>
								<g>
									<path class="st17" d="M3301.33,1513.8c-6.86-6.81-9.96-16.54-11.56-26.07c-2.7-16.19-1.08-34.46,10.22-46.35
										c1.4-1.47,3-2.86,4.9-3.54l-0.01,0c-0.22-8.83-10.09-15.28-18.82-13.91c-8.72,1.37-15.59,8.67-18.87,16.87
										c-1.9,4.75-2.82,9.89-2.69,15.01c0.18,7.04,2.32,13.87,3.8,20.76c4.08,19.03,2.91,39.61-5.93,56.95
										c-3.29,6.46-14.75,12.87-17.1,19.74c-2.35,6.86,4.81,14.74,9.59,20.18c4.56,5.18,12.02,6.42,18.86,7.34
										c-4.05-1.51-7.18-4.86-9.48-8.52c-2.89-4.59-4.73-9.97-4.41-15.38c0.32-5.41,3.01-10.81,7.61-13.67
										c-2.53,9.39,1.39,20.49,9.9,25.19c5.56,3.07,12.35,3.27,18.55,1.86c6.2-1.41,11.94-4.29,17.62-7.15
										c-3.66-7.16-2.41-16.03,1.26-23.18c3.67-7.15,9.47-12.94,15.18-18.6C3319.99,1524.06,3308.66,1521.08,3301.33,1513.8z"/>
								</g>
							</g>
						</g>
						<g>
							<path class="st18" d="M3413.71,1722.58c-17.78-15.49-35.56-66.53-35.56-66.53s8.6-2.87,14.91,0
								c6.31,2.87,9.75,5.74,11.47-8.03c1.72-13.76,2.29-48.17-4.59-69.97c-6.88-21.79-21.79-112.6-72.26-68.06
								c0,0-30.97-13.38-41.29,24.09c-10.32,37.47-8.41,57.35-17.21,70.73c-8.79,13.38-10.71,14.53-8.41,23.32
								c2.29,8.79,4.59,11.47,4.59,11.47l-3.44,2.68c0,0-16.82,14.34-23.71,39.57c-6.88,25.23,1.15,40.72-8.03,55.63
								s-13.76,27.53-13.76,27.53s34.41,30.97,66.53,37.85c32.12,6.88,96.35,16.06,125.03-5.16
								C3436.65,1776.49,3431.49,1738.06,3413.71,1722.58z"/>
						</g>
						<g>
							<defs>
								<path id="SVGID_00000014635447663706189210000013395291989324888250_" d="M3327.68,1510c0,0-30.97-13.38-41.29,24.09
									s-8.41,57.35-17.21,70.73c-8.79,13.38-10.71,14.53-8.41,23.32c2.29,8.79,4.59,11.47,4.59,11.47l-3.44,2.68
									c0,0-16.82,14.34-23.71,39.57c-6.88,25.23,1.15,40.72-8.03,55.63s-13.76,27.53-13.76,27.53s34.41,30.97,66.53,37.85
									s96.35,16.06,125.03-5.16s23.51-59.65,5.74-75.13c-17.78-15.48-35.56-66.53-35.56-66.53s8.6-2.87,14.91,0
									c6.31,2.87,9.75,5.74,11.47-8.03s2.29-48.18-4.59-69.97C3393.06,1556.26,3378.15,1465.45,3327.68,1510z"/>
							</defs>
							<clipPath id="SVGID_00000013183712476407115730000002663549221068930442_">
								<use xlink:href="#SVGID_00000014635447663706189210000013395291989324888250_"  style="overflow:visible;"/>
							</clipPath>
							<g style="clip-path:url(#SVGID_00000013183712476407115730000002663549221068930442_);">
								<g>
									<path class="st20" d="M3375.82,1537.05c0,0.48,0.02,0.96,0.03,1.45c0.34-1.75,0.72-3.49,1.18-5.22L3375.82,1537.05z"/>
									<path class="st20" d="M3403.31,1577.46c-4.71-0.33-8.12,4.42-9.84,8.82c-1.72,4.4-3.12,9.49-7.21,11.86
										c-6.55-19.17-10.07-39.38-10.41-59.63c-1.71,8.72-2.07,17.71-0.99,26.53c0.92,7.57,2.88,15.06,2.81,22.69
										c-0.05,6.16-1.42,12.23-2.34,18.33c-2.38,15.83-1.68,32.11,2.04,47.67c1.35,5.66,3.93,12.07,9.56,13.56
										c4.15,1.09,8.6-1.09,11.4-4.33c2.8-3.25,4.27-7.4,5.66-11.46c7.01-20.57,13.28-42.68,7.97-63.75
										C3410.79,1583.08,3408.1,1577.79,3403.31,1577.46z"/>
								</g>
								<g>
									<path class="st20" d="M3436,1744.35c-4.67-8.45-13.97-13.29-23.22-16.06c-29.37-8.78-62.09-1.36-90.81-12.08
										c-22.01-8.22-39.53-27.02-47.28-49.19c-0.42-1.21-0.75-2.74,0.17-3.63c0.68-0.65,1.73-0.63,2.66-0.79
										c5.61-0.95,7.01-8.88,4.48-13.98c-2.53-5.1-7.34-8.74-10.1-13.72c-9.33-16.85,8.55-37.92,3.18-56.41l-3.71,10.08
										c-4.02,2.79-8.05,5.59-12.07,8.38c-5.43,3.77-11.2,8-13.15,14.31c-3.12,10.11,5.01,20.25,13.78,26.17
										c1.16,0.79,2.47,1.73,2.61,3.12c0.15,1.48-1.08,2.7-2.2,3.67c-10.74,9.27-22.14,18.49-28.65,31.09s-6.68,29.78,3.71,39.43
										c5.99,5.57,14.3,7.72,22.23,9.69c12.36,3.06,24.72,6.12,37.09,9.18c7.46,1.84,16.32,5.14,17.55,12.72
										c-8.05,6.2-18.97,7.72-29,6.1c-10.03-1.62-19.36-6.06-28.33-10.85c-6.09-3.25-12.34-6.76-19.22-7.3
										c-10.59-0.83-20.96,6.08-25.58,15.64c-4.62,9.56-3.91,21.18,0.51,30.84c4.42,9.66,12.22,17.48,21.09,23.32
										c6.45,4.25,13.49,7.55,20.67,10.4c46.91,18.59,101.22,17.63,147.44-2.62c10.04-4.4,19.91-9.82,27.26-17.95
										c8.79-9.73,13.41-23.11,12.48-36.19C3439.27,1753.08,3438.25,1748.43,3436,1744.35z"/>
								</g>
							</g>
						</g>
						<g>
							<path class="st21" d="M3368.59,1442.32c0,0-12.04-3.25-22.37,0.57s-17.4-3.82-17.4-3.82s-3.82,10.13-4.01,17.78
								c-0.19,7.65,0.57,12.43,6.5,19.88c5.93,7.46,5.93,7.26,6.69,10.71s-2.68,8.41-2.68,8.41s1.15-5.74-3.63-9.75
								c-4.78-4.01-4.97-2.49-11.28-13.76c-0.08,1.48,0.16,3.64,0.59,6.14c-5.75-1.78-11.64,0.65-13.23,5.5
								c-1.62,4.91,1.79,10.45,7.61,12.36c3.49,1.15,7.04,0.72,9.69-0.85c1.23,4.42,2.22,7.63,2.22,7.63s0,0-0.76,5.74
								c14.91,11.47,20.65,53.91,22.94,52c2.29-1.91,5.35-29.06,6.5-34.03c1.15-4.97-1.15-9.94-1.53-18.73
								c29.06,2.29,26.76-25.23,24.47-33.65C3376.62,1466.03,3368.59,1442.32,3368.59,1442.32z"/>
						</g>
						<g>
							<defs>
								<path id="SVGID_00000103963627789275333980000017983050837035901102_" d="M3378.91,1474.44
									c-2.29-8.41-10.32-32.12-10.32-32.12s-12.04-3.25-22.37,0.57c-10.32,3.82-17.4-3.82-17.4-3.82s-3.82,10.13-4.01,17.78
									c-0.19,7.65,0.57,12.43,6.5,19.88c5.93,7.46,5.93,7.26,6.69,10.71s-2.68,8.41-2.68,8.41s1.15-5.74-3.63-9.75
									c-4.78-4.01-4.97-2.49-11.28-13.76c-0.08,1.48,0.16,3.64,0.59,6.14c-5.75-1.78-11.64,0.65-13.23,5.5
									c-1.62,4.91,1.79,10.45,7.61,12.36c3.49,1.15,7.04,0.72,9.69-0.85c1.23,4.42,2.22,7.63,2.22,7.63s0,0-0.76,5.74
									c14.91,11.47,20.65,53.91,22.94,52c2.29-1.91,5.35-29.06,6.5-34.03c1.15-4.97-1.15-9.94-1.53-18.73
									C3383.5,1510.38,3381.21,1482.85,3378.91,1474.44z"/>
							</defs>
							<clipPath id="SVGID_00000024688373937652142690000017927184169804581307_">
								<use xlink:href="#SVGID_00000103963627789275333980000017983050837035901102_"  style="overflow:visible;"/>
							</clipPath>
							<g style="clip-path:url(#SVGID_00000024688373937652142690000017927184169804581307_);">
								<path class="st23" d="M3366.02,1429.04c-7.73-3.12-15.8-5.93-24.14-5.99s-17.1,3.04-22.03,9.77
									c-3.57,4.87-4.79,11.07-5.34,17.09c-0.5,5.51-0.26,11.74,3.68,15.63l4.65,4.37c3.26,4.72,6.53,9.43,9.79,14.15
									c1.99,2.88,4.08,6.25,3.19,9.63c2.73-5.71,2.17-12.87-1.42-18.08c-1.9-2.75-4.54-4.95-6.21-7.84
									c-2.13-3.68-2.49-8.19-1.78-12.38s2.41-8.15,4.21-12.01c1.56,4.3,6.78,6.23,11.33,5.83c4.55-0.41,8.74-2.54,13.06-4.03
									c4.32-1.48,9.3-2.27,13.31-0.08c1.81,0.98,3.49,2.57,5.54,2.47c1.8-0.08,3.31-1.53,4-3.19c1.39-3.33-0.04-7.32-2.56-9.9
									S3369.36,1430.39,3366.02,1429.04z"/>
							</g>
						</g>
						<g>
							<defs>
								<path id="SVGID_00000036249753659263643600000005600004551395758253_" d="M3378.91,1474.44
									c-2.29-8.41-10.32-32.12-10.32-32.12s-12.04-3.25-22.37,0.57c-10.32,3.82-17.4-3.82-17.4-3.82s-3.82,10.13-4.01,17.78
									c-0.19,7.65,0.57,12.43,6.5,19.88c5.93,7.46,5.93,7.26,6.69,10.71s-2.68,8.41-2.68,8.41s1.15-5.74-3.63-9.75
									c-4.78-4.01-4.97-2.49-11.28-13.76c-0.08,1.48,0.16,3.64,0.59,6.14c-5.75-1.78-11.64,0.65-13.23,5.5
									c-1.62,4.91,1.79,10.45,7.61,12.36c3.49,1.15,7.04,0.72,9.69-0.85c1.23,4.42,2.22,7.63,2.22,7.63s0,0-0.76,5.74
									c14.91,11.47,20.65,53.91,22.94,52c2.29-1.91,5.35-29.06,6.5-34.03c1.15-4.97-1.15-9.94-1.53-18.73
									C3383.5,1510.38,3381.21,1482.85,3378.91,1474.44z"/>
							</defs>
							<clipPath id="SVGID_00000135651083582017400940000009304498505991354038_">
								<use xlink:href="#SVGID_00000036249753659263643600000005600004551395758253_"  style="overflow:visible;"/>
							</clipPath>
							<g style="clip-path:url(#SVGID_00000135651083582017400940000009304498505991354038_);">
								<g>
									<g>
										<path class="st23" d="M3355.96,1507.7c-5.66,0.84-11.55,0.03-16.77-2.32c0.91,5.86,5.23,10.66,6.65,16.41
											c2.94,11.89-7.04,23.72-5.58,35.89c0.39,3.27,2.22,6.94,5.49,7.33c3.66,0.44,6.28-3.34,7.91-6.64
											c7.67-15.64,13.21-33.74,7.92-50.33L3355.96,1507.7z"/>
									</g>
								</g>
								<g>
									<path class="st23" d="M3319,1483.88c-2.85,0-5.16,1.77-5.16,3.95s2.31,3.95,5.16,3.95s5.17-1.77,5.17-3.95
										S3321.85,1483.88,3319,1483.88z"/>
								</g>
							</g>
						</g>
						<g>
							<path class="st10" d="M3324.62,1492.03c-2.22,0-4.01,1.8-4.01,4.01c0,2.22,1.8,4.01,4.01,4.01c2.22,0,4.01-1.8,4.01-4.01
								C3328.64,1493.82,3326.84,1492.03,3324.62,1492.03z"/>
						</g>
						<g>
							<defs>
								<circle id="SVGID_00000021100040932865479500000009547309162154489729_" cx="3324.62" cy="1496.04" r="4.01"/>
							</defs>
							<clipPath id="SVGID_00000170980063259350422820000007726147559310468746_">
								<use xlink:href="#SVGID_00000021100040932865479500000009547309162154489729_"  style="overflow:visible;"/>
							</clipPath>
							<g style="clip-path:url(#SVGID_00000170980063259350422820000007726147559310468746_);">
								<path class="st2" d="M3327.56,1492.13c-2.22,0-4.01,1.8-4.01,4.01c0,2.22,1.8,4.01,4.01,4.01c2.22,0,4.01-1.8,4.01-4.01
									C3331.57,1493.92,3329.78,1492.13,3327.56,1492.13z"/>
							</g>
						</g>
						<g>
							<path class="st26" d="M3364.33,1462.6c-0.16,0.71-0.29,1.43-0.43,2.15c0.66,0.08,1.32,0.1,1.95,0.09L3364.33,1462.6z"/>
							<path class="st26" d="M3362.48,1460.23c-1.02-0.62-1.95-1.4-2.81-2.38c-0.83-1-1.59-2.16-2.32-3.43
								c-0.72-1.27-1.42-2.62-2.15-4.08c-0.46,1.58-0.49,3.24-0.26,4.88c0.24,1.64,0.78,3.27,1.69,4.78
								c0.93,1.5,2.29,2.84,3.94,3.71c1.04,0.59,2.18,0.89,3.32,1.03c0.14-0.72,0.27-1.44,0.43-2.15l1.52,2.24
								c-0.64,0.01-1.3-0.01-1.95-0.09c-0.09,0.45-0.19,0.9-0.27,1.35c-0.11,0.59-0.19,1.19-0.33,1.77c-0.12,0.6-0.2,1.2-0.44,1.78
								c0.63-0.25,1.09-0.76,1.54-1.21c0.43-0.48,0.84-0.98,1.2-1.5c0.73-1.04,1.35-2.12,1.9-3.23l0.82-1.65l-2.34-0.6
								C3364.7,1461.15,3363.49,1460.89,3362.48,1460.23z"/>
						</g>
						<g>
							<path class="st27" d="M3361.93,1477.37c-0.46,0.43-0.9,1.1-1.51,0.95c-0.24-0.06-0.44-0.24-0.63-0.4
								c-1.26-1.04-3.16-1.2-4.58-0.39c-1.41,0.81-2.24,2.54-1.98,4.15l-0.33,0.22c0.01,2.04,1.54,3.87,3.43,4.67
								c1.88,0.79,4.04,0.68,6.02,0.15c0.78-0.21,1.55-0.49,2.2-0.95c1.03-0.72,1.72-1.86,2.11-3.06c0.5-1.54,0.5-3.36-0.47-4.67
								C3365.23,1476.73,3363.12,1476.26,3361.93,1477.37z"/>
						</g>
						<g>
							<g>
								<path class="st28" d="M3289.37,1654.91c-8.03-3.41-14.99-9.06-19.87-16.3c-1.07-1.59-3.67-0.09-2.59,1.51
									c5.15,7.65,12.44,13.76,20.94,17.38c0.75,0.32,1.6,0.22,2.05-0.54C3290.29,1656.33,3290.12,1655.23,3289.37,1654.91z"/>
							</g>
						</g>
						<g>
							<g>
								<path class="st28" d="M3264.46,1642.28c-0.54-1.85-3.44-1.06-2.89,0.8c1.79,6.11,5.31,11.67,10.13,15.85
									c0.61,0.53,1.52,0.6,2.12,0c0.54-0.54,0.61-1.59,0-2.12C3269.38,1652.96,3266.11,1647.93,3264.46,1642.28z"/>
							</g>
						</g>
						<g>
							<g>
								<path class="st28" d="M3386.16,1627.37c-0.01-1.93-3.01-1.93-3,0c0.03,9.52,3.7,18.77,10.17,25.74
									c1.32,1.42,3.43-0.71,2.12-2.12C3389.52,1644.6,3386.19,1636.09,3386.16,1627.37z"/>
							</g>
						</g>
						<g>
							<g>
								<path class="st28" d="M3384.79,1585.21c-9.42,13.46-15.56,29.85-13.23,46.44c0.27,1.9,3.16,1.09,2.89-0.8
									c-2.21-15.75,4.02-31.41,12.92-44.13C3388.49,1585.13,3385.89,1583.63,3384.79,1585.21z"/>
							</g>
						</g>
						<g>
							<g>
								<path class="st28" d="M3374.35,1544.66c-0.07,8.94,2.53,17.54,3.43,26.37c0.76,7.45,0.26,15.38-4.14,21.7
									c-1.11,1.59,1.49,3.09,2.59,1.51c10.39-14.9,1-33.37,1.12-49.58C3377.37,1542.73,3374.37,1542.73,3374.35,1544.66z"/>
							</g>
						</g>
						<g>
							<g>
								<path class="st27" d="M3366.03,1484.3l-1.16,4.63c-0.06,0.23,0.01,0.46,0.17,0.63c0.98,1,4.4,4.52,4.69,4.93l3.71-4.13
									l-6.27-6.36C3366.79,1483.62,3366.16,1483.79,3366.03,1484.3z"/>
							</g>
							<g>
								
									<rect x="3375.89" y="1487.19" transform="matrix(0.7056 -0.7086 0.7086 0.7056 -68.3928 2837.2947)" class="st29" width="8.79" height="27.53"/>
							</g>
							<g>
								<defs>
									
										<rect id="SVGID_00000016781419040242745270000013283472173021932726_" x="3375.89" y="1487.19" transform="matrix(0.7056 -0.7086 0.7086 0.7056 -68.3792 2837.3298)" width="8.79" height="27.53"/>
								</defs>
								<clipPath id="SVGID_00000049215603315919790480000016518314437757322130_">
									<use xlink:href="#SVGID_00000016781419040242745270000013283472173021932726_"  style="overflow:visible;"/>
								</clipPath>
								<g style="clip-path:url(#SVGID_00000049215603315919790480000016518314437757322130_);">
									<path class="st31" d="M3386.35,1492.9c-4.36-4.12-9.64-7.12-14.92-9.99l0.54,3.7c2.37,3.66,4.73,7.32,7.1,10.99
										c1.26,1.95,2.52,3.9,3.54,5.98c2.58,5.28,3.5,11.18,4.37,16.99c3.26-2.22,6.77-4.8,7.61-8.65c0.25-1.15,0.24-2.33,0.13-3.5
										C3394.12,1502.44,3390.71,1497.03,3386.35,1492.9z"/>
								</g>
							</g>
							<g>
								
									<rect x="3378.66" y="1501.71" transform="matrix(0.7056 -0.7086 0.7086 0.7056 -69.6055 2839.8909)" class="st32" width="8.79" height="4.01"/>
							</g>
						</g>
						<g>
							<path class="st21" d="M3403.08,1538.67c0,0-2.31-7.07-1.57-14.24c0.74-7.17-4.45-9.75-6.92-16.35s-5.69-8.6-3.71,0.57
								c-3.71-4.3-5.44,0.29-2.97,4.88s-2.23-0.29-2.72,2.01c-0.49,2.29,2.23,7.17,2.23,7.17s-3.21-1.43-2.47,1.43
								c0.74,2.87,3.71,7.46,3.71,7.46s-3.21,0-2.47,6.88c0.74,6.88,3.71,14.62,3.46,20.65c-0.25,6.02,1.24,32.69,1.24,32.69
								s-9.23,23.23-5.6,37.85c0,0,10.88,9.94,22.09,11.09c11.21,1.15,18.79-19.5,14.84-41.68S3403.08,1538.67,3403.08,1538.67z"/>
						</g>
						<g>
							<defs>
								<path id="SVGID_00000139285309299395622580000010169257467197103794_" d="M3385.28,1629.67c0,0,10.88,9.94,22.09,11.09
									c11.21,1.15,18.79-19.5,14.84-41.68c-3.96-22.18-19.12-60.41-19.12-60.41s-2.31-7.07-1.57-14.24
									c0.74-7.17-4.45-9.75-6.92-16.35s-5.69-8.6-3.71,0.57c-3.71-4.3-5.44,0.29-2.97,4.87s-2.23-0.29-2.72,2.01
									s2.23,7.17,2.23,7.17s-3.21-1.43-2.47,1.43c0.74,2.87,3.71,7.46,3.71,7.46s-3.21,0-2.47,6.88
									c0.74,6.88,3.71,14.62,3.46,20.65c-0.25,6.02,1.24,32.69,1.24,32.69S3381.65,1615.04,3385.28,1629.67z"/>
							</defs>
							<clipPath id="SVGID_00000069356501170467812220000001865453735987101340_">
								<use xlink:href="#SVGID_00000139285309299395622580000010169257467197103794_"  style="overflow:visible;"/>
							</clipPath>
							<g style="clip-path:url(#SVGID_00000069356501170467812220000001865453735987101340_);">
								<g>
									<path class="st23" d="M3391.13,1620.36c-2.36-9.88-1.5-20.21-0.63-30.34l-5.14-1.42c-4.25,7.64-7.56,15.81-9.83,24.25
										c-1.59,5.93-2.65,12.38-0.39,18.09c2.4,6.07,8.27,10.28,14.55,12.05s12.96,1.4,19.43,0.51
										C3399.67,1639.78,3393.49,1630.24,3391.13,1620.36z"/>
								</g>
								<g>
									<g>
										<path class="st23" d="M3384.95,1523.27c-0.25-0.43-0.52-0.89-0.98-1.09c-1.06-0.45-2.07,0.8-2.3,1.93
											c-0.64,3.02,0.9,6.05,1.1,9.12c0.18,2.85-0.79,5.67-0.62,8.52c0.23,3.76,2.41,7.08,4.52,10.2l1.02,1.55
											c-0.62-2.99-1.09-6.02-1.41-9.06c-0.26-2.53-0.4-5.17,0.58-7.52c0.59-1.42,1.57-2.69,1.83-4.2
											c0.36-2.09-0.73-4.13-1.78-5.98C3386.27,1525.58,3385.61,1524.43,3384.95,1523.27z"/>
									</g>
									<g>
										<path class="st23" d="M3385.2,1513.04l-0.74-0.07c-0.96,2.01-0.24,4.38,0.5,6.48c0.61,1.73,1.21,3.45,1.82,5.18
											c0.46,1.3,1.3,2.87,2.68,2.73c0.24-0.02,0.5-0.13,0.57-0.36c0.06-0.17-0.01-0.35-0.07-0.51
											C3388.2,1522.02,3385,1517.84,3385.2,1513.04z"/>
									</g>
									<g>
										<path class="st23" d="M3387.3,1504.52l-1.09-0.25c-0.34,2.87-0.67,5.76-0.36,8.63c0.31,2.87,1.34,5.75,3.38,7.79
											c0.44,0.44,1.1,0.85,1.63,0.54c0.4-0.24,0.49-0.76,0.48-1.22c-0.04-2.07-1.34-3.87-2.33-5.69
											C3387.38,1511.34,3386.49,1507.81,3387.3,1504.52z"/>
									</g>
									<g>
										<path class="st23" d="M3390.72,1500.59l-1.38-1.49c-1.43,5.94-0.93,12.79,3.15,17.34c0.36,0.4,1.01,0.78,1.37,0.38
											c0.12-0.14,0.16-0.33,0.18-0.52C3394.68,1510.93,3389.97,1505.95,3390.72,1500.59z"/>
									</g>
								</g>
							</g>
						</g>
						<g>
							<g>
								<path class="st34" d="M3367.18,1476.49c-2,3.6-6.14,4.83-10.04,4.71c-3.48-0.12-7.93-0.94-9.96-4.1
									c-1.04-1.62-3.64-0.12-2.59,1.51c2.66,4.13,7.92,5.43,12.55,5.58c4.94,0.16,10.13-1.68,12.63-6.19
									C3370.71,1476.31,3368.12,1474.8,3367.18,1476.49z"/>
							</g>
						</g>
						<g>
							<path class="st34" d="M3339.8,1457.75c-1.46,0.36-2.24,2.25-1.76,4.23c0.49,1.97,2.07,3.28,3.53,2.92
								c1.46-0.36,2.24-2.25,1.76-4.23C3342.84,1458.7,3341.26,1457.39,3339.8,1457.75z"/>
						</g>
						<g>
							<path class="st34" d="M3364.2,1453.81c-1.46,0.36-2.24,2.25-1.75,4.23c0.49,1.97,2.07,3.28,3.53,2.92s2.24-2.25,1.75-4.23
								C3367.23,1454.75,3365.65,1453.45,3364.2,1453.81z"/>
						</g>
						<g>
							<path class="st2" d="M3339.66,1459.44c-0.6,0.15-0.92,0.92-0.72,1.73c0.2,0.81,0.85,1.34,1.45,1.2
								c0.6-0.15,0.92-0.92,0.72-1.73C3340.91,1459.83,3340.26,1459.29,3339.66,1459.44z"/>
						</g>
						<g>
							<path class="st2" d="M3364.18,1455.33c-0.6,0.15-0.92,0.92-0.72,1.73c0.2,0.81,0.85,1.34,1.45,1.2
								c0.6-0.15,0.92-0.92,0.72-1.73C3365.42,1455.72,3364.77,1455.18,3364.18,1455.33z"/>
						</g>
						<g>
							<path class="st34" d="M3339.42,1447.77c-0.79-0.38-1.72-0.59-2.7-0.35c-0.96,0.21-1.91,0.83-2.43,1.69
								c-0.51,0.86-0.65,1.92-0.09,2.86c1-0.36,1.66-0.47,2.18-0.52c0.51-0.05,0.83-0.04,1.21-0.13c0.36-0.1,0.82-0.2,1.39-0.44
								c0.29-0.09,0.61-0.22,0.98-0.4c0.37-0.17,0.76-0.32,1.24-0.64c-0.17-0.52-0.44-0.88-0.73-1.26
								C3340.15,1448.26,3339.8,1448,3339.42,1447.77z"/>
						</g>
						<g>
							<path class="st34" d="M3364.63,1443.52c-0.79-0.38-1.72-0.59-2.7-0.35c-0.96,0.21-1.91,0.83-2.43,1.69
								c-0.51,0.86-0.65,1.92-0.09,2.86c1-0.36,1.66-0.47,2.18-0.52c0.51-0.05,0.83-0.04,1.21-0.13c0.36-0.1,0.82-0.2,1.39-0.44
								c0.29-0.1,0.61-0.22,0.98-0.4c0.37-0.17,0.76-0.32,1.24-0.64c-0.17-0.52-0.44-0.88-0.73-1.26
								C3365.37,1444,3365.01,1443.74,3364.63,1443.52z"/>
						</g>
					</g>
				</g>
				<g>
					<rect x="3237.32" y="1408.21" class="st12" width="205.83" height="151.51"/>
				</g>
				<g>
					<rect x="3237.32" y="1408.21" class="st12" width="205.83" height="151.51"/>
				</g>
				<g>
					<rect x="3287.34" y="1329.59" class="st2" width="97.2" height="31.45"/>
				</g>
				<g>
					<g>
						<g>
							<g>
								<path class="st10" d="M3508.25,1494.92c-6.5,0-11.76,5.27-11.76,11.76s5.27,11.76,11.76,11.76c6.5,0,11.76-5.27,11.76-11.76
									S3514.74,1494.92,3508.25,1494.92z"/>
							</g>
						</g>
						<g>
							<g>
								<path class="st10" d="M3508.25,1534.41c-6.5,0-11.76,5.27-11.76,11.76c0,6.5,5.27,11.76,11.76,11.76
									c6.5,0,11.76-5.27,11.76-11.76C3520.01,1539.68,3514.74,1534.41,3508.25,1534.41z"/>
							</g>
						</g>
					</g>
					<g>
						<g>
							<g>
								<path class="st10" d="M3487.24,1514.67c-6.5,0-11.76,5.27-11.76,11.76s5.27,11.76,11.76,11.76c6.5,0,11.76-5.27,11.76-11.76
									S3493.74,1514.67,3487.24,1514.67z"/>
							</g>
						</g>
						<g>
							<g>
								<path class="st10" d="M3526.73,1514.67c-6.5,0-11.76,5.27-11.76,11.76s5.27,11.76,11.76,11.76c6.5,0,11.76-5.27,11.76-11.76
									S3533.23,1514.67,3526.73,1514.67z"/>
							</g>
						</g>
					</g>
				</g>
				<g>
					<ellipse class="st10" cx="3508.18" cy="1440.37" rx="35.02" ry="35.73"/>
				</g>
				<g>
					<circle class="st2" cx="3508.42" cy="1440.13" r="21.92"/>
				</g>
			</g>
		</g>
	</g>
</g>
</svg>
